%
M48
M72
T01C0.01181
T02C0.01378
T03C0.02362
T04C0.03150
T05C0.03543
T06C0.04000
T07C0.06693
T08C0.13780
%
T01
X68229Y76103
X68229Y81024
X68229Y85946
X92835Y70198
X107796Y84961
X99725Y94804
X138308Y66497
X138308Y60828
X138308Y56103
X146969Y66261
X172954Y36143
X181024Y41064
X191064Y45985
X199528Y51103
X163505Y31221
T02
X125316Y90867
T03
X33859Y88977
X33859Y78977
X33859Y68977
X33859Y58977
X23859Y58977
X23859Y68977
X23859Y78977
X23859Y88977
X23859Y98977
X23859Y108977
X33859Y108977
X33859Y98977
T04
X54883Y145591
X64883Y145591
X74883Y145591
X84883Y145591
X94883Y145591
X104883Y145591
X114883Y145591
X124883Y145591
X139528Y145591
X149528Y145591
X159528Y145591
X169528Y145591
X179528Y145591
X189528Y145591
X199528Y145591
X209528Y145591
X209528Y195591
X199528Y195591
X189528Y195591
X179528Y195591
X169528Y195591
X159528Y195591
X149528Y195591
X139528Y195591
X124883Y195591
X114883Y195591
X104883Y195591
X94883Y195591
X84883Y195591
X74883Y195591
X64883Y195591
X54883Y195591
T05
X173387Y99725
X176300Y92639
X183387Y89725
X190473Y92639
X193387Y99725
X190473Y106812
X183387Y109725
X176300Y106812
T06
X105473Y119410
X95473Y119410
X85473Y119410
X75473Y119410
X65473Y119410
X50670Y217835
X40670Y217835
X119410Y217835
X129410Y217835
X198150Y217835
X208150Y217835
T07
X24843Y180316
X25080Y160316
T08
X15080Y15080
X207993Y15080
X172560Y223741
X15080Y223741
M30
