G75*
%MOIN*%
%OFA0B0*%
%FSLAX25Y25*%
%IPPOS*%
%LPD*%
%AMOC8*
5,1,8,0,0,1.08239X$1,22.5*
%
%ADD10C,0.00300*%
D10*
X0097828Y0072174D02*
X0099884Y0072174D01*
X0098136Y0074230D01*
X0098753Y0075874D02*
X0098821Y0075872D01*
X0098889Y0075866D01*
X0098956Y0075857D01*
X0099022Y0075843D01*
X0099088Y0075826D01*
X0099153Y0075805D01*
X0099216Y0075780D01*
X0099278Y0075752D01*
X0099338Y0075720D01*
X0099396Y0075685D01*
X0099452Y0075647D01*
X0099506Y0075605D01*
X0099557Y0075561D01*
X0099605Y0075513D01*
X0099651Y0075463D01*
X0099694Y0075411D01*
X0099734Y0075356D01*
X0099771Y0075299D01*
X0099804Y0075240D01*
X0099834Y0075179D01*
X0099860Y0075116D01*
X0099883Y0075052D01*
X0098136Y0074229D02*
X0098093Y0074273D01*
X0098052Y0074320D01*
X0098015Y0074369D01*
X0097980Y0074420D01*
X0097949Y0074474D01*
X0097921Y0074529D01*
X0097897Y0074586D01*
X0097876Y0074644D01*
X0097859Y0074704D01*
X0097845Y0074764D01*
X0097836Y0074825D01*
X0097830Y0074887D01*
X0097828Y0074949D01*
X0097830Y0075007D01*
X0097835Y0075065D01*
X0097844Y0075122D01*
X0097857Y0075179D01*
X0097873Y0075235D01*
X0097893Y0075290D01*
X0097916Y0075343D01*
X0097942Y0075395D01*
X0097972Y0075445D01*
X0098005Y0075493D01*
X0098040Y0075539D01*
X0098079Y0075582D01*
X0098120Y0075623D01*
X0098163Y0075662D01*
X0098209Y0075697D01*
X0098257Y0075730D01*
X0098307Y0075760D01*
X0098359Y0075786D01*
X0098412Y0075809D01*
X0098467Y0075829D01*
X0098523Y0075845D01*
X0098580Y0075858D01*
X0098637Y0075867D01*
X0098695Y0075872D01*
X0098753Y0075874D01*
X0101249Y0075874D02*
X0102071Y0075874D01*
X0102127Y0075872D01*
X0102183Y0075866D01*
X0102238Y0075857D01*
X0102293Y0075844D01*
X0102346Y0075827D01*
X0102398Y0075806D01*
X0102449Y0075782D01*
X0102498Y0075754D01*
X0102545Y0075724D01*
X0102590Y0075690D01*
X0102632Y0075653D01*
X0102672Y0075613D01*
X0102709Y0075571D01*
X0102743Y0075526D01*
X0102773Y0075479D01*
X0102801Y0075430D01*
X0102825Y0075379D01*
X0102846Y0075327D01*
X0102863Y0075274D01*
X0102876Y0075219D01*
X0102885Y0075164D01*
X0102891Y0075108D01*
X0102893Y0075052D01*
X0102894Y0075052D02*
X0102894Y0072997D01*
X0102893Y0072997D02*
X0102891Y0072941D01*
X0102885Y0072885D01*
X0102876Y0072830D01*
X0102863Y0072775D01*
X0102846Y0072722D01*
X0102825Y0072670D01*
X0102801Y0072619D01*
X0102773Y0072570D01*
X0102743Y0072523D01*
X0102709Y0072478D01*
X0102672Y0072436D01*
X0102632Y0072396D01*
X0102590Y0072359D01*
X0102545Y0072325D01*
X0102498Y0072295D01*
X0102449Y0072267D01*
X0102398Y0072243D01*
X0102346Y0072222D01*
X0102293Y0072205D01*
X0102238Y0072192D01*
X0102183Y0072183D01*
X0102127Y0072177D01*
X0102071Y0072175D01*
X0102071Y0072174D02*
X0101249Y0072174D01*
X0144875Y0043237D02*
X0146931Y0043237D01*
X0145903Y0043237D02*
X0145903Y0046937D01*
X0146931Y0046115D01*
X0148296Y0046937D02*
X0149119Y0046937D01*
X0149175Y0046935D01*
X0149231Y0046929D01*
X0149286Y0046920D01*
X0149341Y0046907D01*
X0149394Y0046890D01*
X0149446Y0046869D01*
X0149497Y0046845D01*
X0149546Y0046817D01*
X0149593Y0046787D01*
X0149638Y0046753D01*
X0149680Y0046716D01*
X0149720Y0046676D01*
X0149757Y0046634D01*
X0149791Y0046589D01*
X0149821Y0046542D01*
X0149849Y0046493D01*
X0149873Y0046442D01*
X0149894Y0046390D01*
X0149911Y0046337D01*
X0149924Y0046282D01*
X0149933Y0046227D01*
X0149939Y0046171D01*
X0149941Y0046115D01*
X0149941Y0044060D01*
X0149939Y0044004D01*
X0149933Y0043948D01*
X0149924Y0043893D01*
X0149911Y0043838D01*
X0149894Y0043785D01*
X0149873Y0043733D01*
X0149849Y0043682D01*
X0149821Y0043633D01*
X0149791Y0043586D01*
X0149757Y0043541D01*
X0149720Y0043499D01*
X0149680Y0043459D01*
X0149638Y0043422D01*
X0149593Y0043388D01*
X0149546Y0043358D01*
X0149497Y0043330D01*
X0149446Y0043306D01*
X0149394Y0043285D01*
X0149341Y0043268D01*
X0149286Y0043255D01*
X0149231Y0043246D01*
X0149175Y0043240D01*
X0149119Y0043238D01*
X0149119Y0043237D02*
X0148296Y0043237D01*
M02*
