G75*
%MOIN*%
%OFA0B0*%
%FSLAX25Y25*%
%IPPOS*%
%LPD*%
%AMOC8*
5,1,8,0,0,1.08239X$1,22.5*
%
%ADD10C,0.00300*%
%ADD11C,0.00400*%
%ADD12C,0.00600*%
%ADD13C,0.00500*%
%ADD14C,0.00200*%
%ADD15C,0.00800*%
D10*
X0074580Y0036324D02*
X0075402Y0036324D01*
X0074991Y0036324D02*
X0074991Y0040024D01*
X0074580Y0040024D02*
X0075402Y0040024D01*
X0076833Y0039202D02*
X0076833Y0037146D01*
X0076835Y0037090D01*
X0076841Y0037034D01*
X0076850Y0036979D01*
X0076863Y0036924D01*
X0076880Y0036871D01*
X0076901Y0036819D01*
X0076925Y0036768D01*
X0076953Y0036719D01*
X0076983Y0036672D01*
X0077017Y0036627D01*
X0077054Y0036585D01*
X0077094Y0036545D01*
X0077136Y0036508D01*
X0077181Y0036474D01*
X0077228Y0036444D01*
X0077277Y0036416D01*
X0077328Y0036392D01*
X0077380Y0036371D01*
X0077433Y0036354D01*
X0077488Y0036341D01*
X0077543Y0036332D01*
X0077599Y0036326D01*
X0077655Y0036324D01*
X0078478Y0036324D01*
X0079843Y0036324D02*
X0081899Y0036324D01*
X0079843Y0036324D02*
X0081590Y0038380D01*
X0080974Y0040024D02*
X0080906Y0040022D01*
X0080838Y0040016D01*
X0080771Y0040007D01*
X0080705Y0039993D01*
X0080639Y0039976D01*
X0080574Y0039955D01*
X0080511Y0039930D01*
X0080449Y0039902D01*
X0080389Y0039870D01*
X0080331Y0039835D01*
X0080275Y0039797D01*
X0080222Y0039755D01*
X0080170Y0039711D01*
X0080122Y0039663D01*
X0080076Y0039613D01*
X0080033Y0039561D01*
X0079993Y0039506D01*
X0079956Y0039449D01*
X0079923Y0039390D01*
X0079893Y0039329D01*
X0079867Y0039266D01*
X0079844Y0039202D01*
X0081591Y0038379D02*
X0081634Y0038423D01*
X0081675Y0038470D01*
X0081712Y0038519D01*
X0081747Y0038570D01*
X0081778Y0038624D01*
X0081806Y0038679D01*
X0081830Y0038736D01*
X0081851Y0038794D01*
X0081868Y0038854D01*
X0081882Y0038914D01*
X0081891Y0038975D01*
X0081897Y0039037D01*
X0081899Y0039099D01*
X0081897Y0039157D01*
X0081892Y0039215D01*
X0081883Y0039272D01*
X0081870Y0039329D01*
X0081854Y0039385D01*
X0081834Y0039440D01*
X0081811Y0039493D01*
X0081785Y0039545D01*
X0081755Y0039595D01*
X0081722Y0039643D01*
X0081687Y0039689D01*
X0081648Y0039732D01*
X0081607Y0039773D01*
X0081564Y0039812D01*
X0081518Y0039847D01*
X0081470Y0039880D01*
X0081420Y0039910D01*
X0081368Y0039936D01*
X0081315Y0039959D01*
X0081260Y0039979D01*
X0081204Y0039995D01*
X0081147Y0040008D01*
X0081090Y0040017D01*
X0081032Y0040022D01*
X0080974Y0040024D01*
X0078478Y0040024D02*
X0077655Y0040024D01*
X0077599Y0040022D01*
X0077543Y0040016D01*
X0077488Y0040007D01*
X0077433Y0039994D01*
X0077380Y0039977D01*
X0077328Y0039956D01*
X0077277Y0039932D01*
X0077228Y0039904D01*
X0077181Y0039874D01*
X0077136Y0039840D01*
X0077094Y0039803D01*
X0077054Y0039763D01*
X0077017Y0039721D01*
X0076983Y0039676D01*
X0076953Y0039629D01*
X0076925Y0039580D01*
X0076901Y0039529D01*
X0076880Y0039477D01*
X0076863Y0039424D01*
X0076850Y0039369D01*
X0076841Y0039314D01*
X0076835Y0039258D01*
X0076833Y0039202D01*
X0139135Y0025666D02*
X0139957Y0025666D01*
X0139546Y0025666D02*
X0139546Y0021966D01*
X0139135Y0021966D02*
X0139957Y0021966D01*
X0141388Y0022788D02*
X0141388Y0024844D01*
X0141390Y0024900D01*
X0141396Y0024956D01*
X0141405Y0025011D01*
X0141418Y0025066D01*
X0141435Y0025119D01*
X0141456Y0025171D01*
X0141480Y0025222D01*
X0141508Y0025271D01*
X0141538Y0025318D01*
X0141572Y0025363D01*
X0141609Y0025405D01*
X0141649Y0025445D01*
X0141691Y0025482D01*
X0141736Y0025516D01*
X0141783Y0025546D01*
X0141832Y0025574D01*
X0141883Y0025598D01*
X0141935Y0025619D01*
X0141988Y0025636D01*
X0142043Y0025649D01*
X0142098Y0025658D01*
X0142154Y0025664D01*
X0142210Y0025666D01*
X0143033Y0025666D01*
X0144398Y0024844D02*
X0145426Y0025666D01*
X0145426Y0021966D01*
X0144398Y0021966D02*
X0146454Y0021966D01*
X0143033Y0021966D02*
X0142210Y0021966D01*
X0142154Y0021968D01*
X0142098Y0021974D01*
X0142043Y0021983D01*
X0141988Y0021996D01*
X0141935Y0022013D01*
X0141883Y0022034D01*
X0141832Y0022058D01*
X0141783Y0022086D01*
X0141736Y0022116D01*
X0141691Y0022150D01*
X0141649Y0022187D01*
X0141609Y0022227D01*
X0141572Y0022269D01*
X0141538Y0022314D01*
X0141508Y0022361D01*
X0141480Y0022410D01*
X0141456Y0022461D01*
X0141435Y0022513D01*
X0141418Y0022566D01*
X0141405Y0022621D01*
X0141396Y0022676D01*
X0141390Y0022732D01*
X0141388Y0022788D01*
X0174678Y0014178D02*
X0176734Y0014178D01*
X0176117Y0015000D02*
X0176117Y0013356D01*
X0174678Y0014178D02*
X0175501Y0017056D01*
X0178073Y0017056D02*
X0180539Y0013356D01*
X0178073Y0013356D02*
X0180539Y0017056D01*
X0183953Y0017056D02*
X0183953Y0013356D01*
X0185186Y0015000D02*
X0186419Y0017056D01*
X0186419Y0013356D01*
X0188118Y0013356D02*
X0189146Y0013356D01*
X0189146Y0013355D02*
X0189209Y0013357D01*
X0189272Y0013363D01*
X0189335Y0013373D01*
X0189397Y0013386D01*
X0189458Y0013403D01*
X0189517Y0013424D01*
X0189576Y0013449D01*
X0189632Y0013477D01*
X0189687Y0013509D01*
X0189740Y0013544D01*
X0189790Y0013582D01*
X0189839Y0013623D01*
X0189884Y0013667D01*
X0189927Y0013714D01*
X0189966Y0013763D01*
X0190003Y0013815D01*
X0190036Y0013869D01*
X0190066Y0013925D01*
X0190093Y0013982D01*
X0190116Y0014041D01*
X0190135Y0014102D01*
X0190150Y0014163D01*
X0190162Y0014225D01*
X0190170Y0014288D01*
X0190174Y0014351D01*
X0190174Y0014415D01*
X0190170Y0014478D01*
X0190162Y0014541D01*
X0190150Y0014603D01*
X0190135Y0014664D01*
X0190116Y0014725D01*
X0190093Y0014784D01*
X0190066Y0014841D01*
X0190036Y0014897D01*
X0190003Y0014951D01*
X0189966Y0015003D01*
X0189927Y0015052D01*
X0189884Y0015099D01*
X0189839Y0015143D01*
X0189790Y0015184D01*
X0189740Y0015222D01*
X0189687Y0015257D01*
X0189632Y0015289D01*
X0189576Y0015317D01*
X0189517Y0015342D01*
X0189458Y0015363D01*
X0189397Y0015380D01*
X0189335Y0015393D01*
X0189272Y0015403D01*
X0189209Y0015409D01*
X0189146Y0015411D01*
X0189352Y0015411D02*
X0188529Y0015411D01*
X0189352Y0015411D02*
X0189408Y0015413D01*
X0189464Y0015419D01*
X0189519Y0015428D01*
X0189574Y0015441D01*
X0189627Y0015458D01*
X0189679Y0015479D01*
X0189730Y0015503D01*
X0189779Y0015531D01*
X0189826Y0015561D01*
X0189871Y0015595D01*
X0189913Y0015632D01*
X0189953Y0015672D01*
X0189990Y0015714D01*
X0190024Y0015759D01*
X0190054Y0015806D01*
X0190082Y0015855D01*
X0190106Y0015906D01*
X0190127Y0015958D01*
X0190144Y0016011D01*
X0190157Y0016066D01*
X0190166Y0016121D01*
X0190172Y0016177D01*
X0190174Y0016233D01*
X0190172Y0016289D01*
X0190166Y0016345D01*
X0190157Y0016400D01*
X0190144Y0016455D01*
X0190127Y0016508D01*
X0190106Y0016560D01*
X0190082Y0016611D01*
X0190054Y0016660D01*
X0190024Y0016707D01*
X0189990Y0016752D01*
X0189953Y0016794D01*
X0189913Y0016834D01*
X0189871Y0016871D01*
X0189826Y0016905D01*
X0189779Y0016935D01*
X0189730Y0016963D01*
X0189679Y0016987D01*
X0189627Y0017008D01*
X0189574Y0017025D01*
X0189519Y0017038D01*
X0189464Y0017047D01*
X0189408Y0017053D01*
X0189352Y0017055D01*
X0189352Y0017056D02*
X0188118Y0017056D01*
X0185186Y0015000D02*
X0183953Y0017056D01*
X0182035Y0009822D02*
X0180801Y0009822D01*
X0180801Y0007356D01*
X0179344Y0007356D02*
X0178522Y0007356D01*
X0178522Y0007355D02*
X0178474Y0007357D01*
X0178425Y0007363D01*
X0178378Y0007372D01*
X0178331Y0007385D01*
X0178286Y0007402D01*
X0178242Y0007422D01*
X0178200Y0007446D01*
X0178159Y0007473D01*
X0178121Y0007503D01*
X0178086Y0007536D01*
X0178053Y0007571D01*
X0178023Y0007609D01*
X0177996Y0007650D01*
X0177972Y0007692D01*
X0177952Y0007736D01*
X0177935Y0007781D01*
X0177922Y0007828D01*
X0177913Y0007875D01*
X0177907Y0007924D01*
X0177905Y0007972D01*
X0177905Y0009206D01*
X0177907Y0009254D01*
X0177913Y0009303D01*
X0177922Y0009350D01*
X0177935Y0009397D01*
X0177952Y0009442D01*
X0177972Y0009486D01*
X0177996Y0009528D01*
X0178023Y0009569D01*
X0178053Y0009607D01*
X0178086Y0009642D01*
X0178121Y0009675D01*
X0178159Y0009705D01*
X0178200Y0009732D01*
X0178242Y0009756D01*
X0178286Y0009776D01*
X0178331Y0009793D01*
X0178378Y0009806D01*
X0178425Y0009815D01*
X0178474Y0009821D01*
X0178522Y0009823D01*
X0178522Y0009822D02*
X0179344Y0009822D01*
X0182035Y0009822D02*
X0182035Y0009411D01*
X0183181Y0009000D02*
X0183181Y0007972D01*
X0183183Y0007924D01*
X0183189Y0007875D01*
X0183198Y0007828D01*
X0183211Y0007781D01*
X0183228Y0007736D01*
X0183248Y0007692D01*
X0183272Y0007650D01*
X0183299Y0007609D01*
X0183329Y0007571D01*
X0183362Y0007536D01*
X0183397Y0007503D01*
X0183435Y0007473D01*
X0183476Y0007446D01*
X0183518Y0007422D01*
X0183562Y0007402D01*
X0183607Y0007385D01*
X0183654Y0007372D01*
X0183701Y0007363D01*
X0183750Y0007357D01*
X0183798Y0007355D01*
X0183798Y0007356D02*
X0184826Y0007356D01*
X0184826Y0008589D02*
X0183181Y0008589D01*
X0183181Y0009000D02*
X0183183Y0009056D01*
X0183189Y0009112D01*
X0183198Y0009167D01*
X0183211Y0009222D01*
X0183228Y0009275D01*
X0183249Y0009327D01*
X0183273Y0009378D01*
X0183301Y0009427D01*
X0183331Y0009474D01*
X0183365Y0009519D01*
X0183402Y0009561D01*
X0183442Y0009601D01*
X0183484Y0009638D01*
X0183529Y0009672D01*
X0183576Y0009702D01*
X0183625Y0009730D01*
X0183676Y0009754D01*
X0183728Y0009775D01*
X0183781Y0009792D01*
X0183836Y0009805D01*
X0183891Y0009814D01*
X0183947Y0009820D01*
X0184003Y0009822D01*
X0184059Y0009820D01*
X0184115Y0009814D01*
X0184170Y0009805D01*
X0184225Y0009792D01*
X0184278Y0009775D01*
X0184330Y0009754D01*
X0184381Y0009730D01*
X0184430Y0009702D01*
X0184477Y0009672D01*
X0184522Y0009638D01*
X0184564Y0009601D01*
X0184604Y0009561D01*
X0184641Y0009519D01*
X0184675Y0009474D01*
X0184705Y0009427D01*
X0184733Y0009378D01*
X0184757Y0009327D01*
X0184778Y0009275D01*
X0184795Y0009222D01*
X0184808Y0009167D01*
X0184817Y0009112D01*
X0184823Y0009056D01*
X0184825Y0009000D01*
X0184826Y0009000D02*
X0184826Y0008589D01*
X0186250Y0009822D02*
X0186867Y0007356D01*
X0187483Y0009000D01*
X0188100Y0007356D01*
X0188717Y0009822D01*
X0190655Y0009822D02*
X0190610Y0009821D01*
X0190565Y0009816D01*
X0190521Y0009807D01*
X0190478Y0009795D01*
X0190436Y0009779D01*
X0190396Y0009759D01*
X0190357Y0009736D01*
X0190321Y0009711D01*
X0190287Y0009682D01*
X0190255Y0009650D01*
X0190226Y0009616D01*
X0190200Y0009579D01*
X0190177Y0009541D01*
X0190158Y0009500D01*
X0190142Y0009458D01*
X0190129Y0009415D01*
X0190120Y0009371D01*
X0190115Y0009327D01*
X0190114Y0009282D01*
X0190117Y0009237D01*
X0190123Y0009193D01*
X0190133Y0009149D01*
X0190146Y0009107D01*
X0190163Y0009065D01*
X0190184Y0009025D01*
X0190208Y0008987D01*
X0190234Y0008952D01*
X0190264Y0008918D01*
X0190297Y0008887D01*
X0190332Y0008859D01*
X0190369Y0008834D01*
X0190408Y0008813D01*
X0190449Y0008794D01*
X0191477Y0008383D01*
X0191518Y0008364D01*
X0191557Y0008343D01*
X0191594Y0008318D01*
X0191629Y0008290D01*
X0191662Y0008259D01*
X0191692Y0008225D01*
X0191718Y0008190D01*
X0191742Y0008152D01*
X0191763Y0008112D01*
X0191780Y0008070D01*
X0191793Y0008028D01*
X0191803Y0007984D01*
X0191809Y0007940D01*
X0191812Y0007895D01*
X0191811Y0007850D01*
X0191806Y0007806D01*
X0191797Y0007762D01*
X0191784Y0007719D01*
X0191768Y0007677D01*
X0191749Y0007636D01*
X0191726Y0007598D01*
X0191700Y0007561D01*
X0191671Y0007527D01*
X0191639Y0007495D01*
X0191605Y0007466D01*
X0191569Y0007441D01*
X0191530Y0007418D01*
X0191490Y0007398D01*
X0191448Y0007382D01*
X0191405Y0007370D01*
X0191361Y0007361D01*
X0191316Y0007356D01*
X0191271Y0007355D01*
X0191580Y0009616D02*
X0191492Y0009654D01*
X0191403Y0009687D01*
X0191313Y0009717D01*
X0191221Y0009744D01*
X0191128Y0009766D01*
X0191035Y0009785D01*
X0190941Y0009800D01*
X0190846Y0009811D01*
X0190751Y0009818D01*
X0190655Y0009822D01*
X0190141Y0007561D02*
X0190250Y0007524D01*
X0190360Y0007490D01*
X0190472Y0007460D01*
X0190584Y0007434D01*
X0190697Y0007411D01*
X0190811Y0007392D01*
X0190926Y0007377D01*
X0191041Y0007366D01*
X0191156Y0007359D01*
X0191271Y0007355D01*
X0176117Y0008383D02*
X0175089Y0008794D01*
X0175048Y0008813D01*
X0175009Y0008834D01*
X0174972Y0008859D01*
X0174937Y0008887D01*
X0174904Y0008918D01*
X0174874Y0008952D01*
X0174848Y0008987D01*
X0174824Y0009025D01*
X0174803Y0009065D01*
X0174786Y0009107D01*
X0174773Y0009149D01*
X0174763Y0009193D01*
X0174757Y0009237D01*
X0174754Y0009282D01*
X0174755Y0009327D01*
X0174760Y0009371D01*
X0174769Y0009415D01*
X0174782Y0009458D01*
X0174798Y0009500D01*
X0174817Y0009541D01*
X0174840Y0009579D01*
X0174866Y0009616D01*
X0174895Y0009650D01*
X0174927Y0009682D01*
X0174961Y0009711D01*
X0174997Y0009736D01*
X0175036Y0009759D01*
X0175076Y0009779D01*
X0175118Y0009795D01*
X0175161Y0009807D01*
X0175205Y0009816D01*
X0175250Y0009821D01*
X0175295Y0009822D01*
X0174781Y0007561D02*
X0174890Y0007524D01*
X0175000Y0007490D01*
X0175112Y0007460D01*
X0175224Y0007434D01*
X0175337Y0007411D01*
X0175451Y0007392D01*
X0175566Y0007377D01*
X0175681Y0007366D01*
X0175796Y0007359D01*
X0175911Y0007355D01*
X0175956Y0007356D01*
X0176001Y0007361D01*
X0176045Y0007370D01*
X0176088Y0007382D01*
X0176130Y0007398D01*
X0176170Y0007418D01*
X0176209Y0007441D01*
X0176245Y0007466D01*
X0176279Y0007495D01*
X0176311Y0007527D01*
X0176340Y0007561D01*
X0176366Y0007598D01*
X0176389Y0007636D01*
X0176408Y0007677D01*
X0176424Y0007719D01*
X0176437Y0007762D01*
X0176446Y0007806D01*
X0176451Y0007850D01*
X0176452Y0007895D01*
X0176449Y0007940D01*
X0176443Y0007984D01*
X0176433Y0008028D01*
X0176420Y0008070D01*
X0176403Y0008112D01*
X0176382Y0008152D01*
X0176358Y0008190D01*
X0176332Y0008225D01*
X0176302Y0008259D01*
X0176269Y0008290D01*
X0176234Y0008318D01*
X0176197Y0008343D01*
X0176158Y0008364D01*
X0176117Y0008383D01*
X0176220Y0009616D02*
X0176132Y0009654D01*
X0176043Y0009687D01*
X0175953Y0009717D01*
X0175861Y0009744D01*
X0175768Y0009766D01*
X0175675Y0009785D01*
X0175581Y0009800D01*
X0175486Y0009811D01*
X0175391Y0009818D01*
X0175295Y0009822D01*
X0183798Y0075237D02*
X0183798Y0076882D01*
X0184414Y0076060D02*
X0182359Y0076060D01*
X0183181Y0078937D01*
X0168666Y0082949D02*
X0168666Y0083360D01*
X0168664Y0083416D01*
X0168658Y0083472D01*
X0168649Y0083527D01*
X0168636Y0083582D01*
X0168619Y0083635D01*
X0168598Y0083687D01*
X0168574Y0083738D01*
X0168546Y0083787D01*
X0168516Y0083834D01*
X0168482Y0083879D01*
X0168445Y0083921D01*
X0168405Y0083961D01*
X0168363Y0083998D01*
X0168318Y0084032D01*
X0168271Y0084062D01*
X0168222Y0084090D01*
X0168171Y0084114D01*
X0168119Y0084135D01*
X0168066Y0084152D01*
X0168011Y0084165D01*
X0167956Y0084174D01*
X0167900Y0084180D01*
X0167844Y0084182D01*
X0167844Y0084183D02*
X0166611Y0084183D01*
X0166611Y0085827D01*
X0168666Y0085827D01*
X0168666Y0082949D02*
X0168664Y0082893D01*
X0168658Y0082837D01*
X0168649Y0082782D01*
X0168636Y0082727D01*
X0168619Y0082674D01*
X0168598Y0082622D01*
X0168574Y0082571D01*
X0168546Y0082522D01*
X0168516Y0082475D01*
X0168482Y0082430D01*
X0168445Y0082388D01*
X0168405Y0082348D01*
X0168363Y0082311D01*
X0168318Y0082277D01*
X0168271Y0082247D01*
X0168222Y0082219D01*
X0168171Y0082195D01*
X0168119Y0082174D01*
X0168066Y0082157D01*
X0168011Y0082144D01*
X0167956Y0082135D01*
X0167900Y0082129D01*
X0167844Y0082127D01*
X0166611Y0082127D01*
X0161777Y0098903D02*
X0161777Y0099109D01*
X0161776Y0099109D02*
X0161774Y0099165D01*
X0161768Y0099221D01*
X0161759Y0099276D01*
X0161746Y0099331D01*
X0161729Y0099384D01*
X0161708Y0099436D01*
X0161684Y0099487D01*
X0161656Y0099536D01*
X0161626Y0099583D01*
X0161592Y0099628D01*
X0161555Y0099670D01*
X0161515Y0099710D01*
X0161473Y0099747D01*
X0161428Y0099781D01*
X0161381Y0099811D01*
X0161332Y0099839D01*
X0161281Y0099863D01*
X0161229Y0099884D01*
X0161176Y0099901D01*
X0161121Y0099914D01*
X0161066Y0099923D01*
X0161010Y0099929D01*
X0160954Y0099931D01*
X0159721Y0099931D01*
X0159721Y0098903D01*
X0159723Y0098840D01*
X0159729Y0098777D01*
X0159739Y0098714D01*
X0159752Y0098652D01*
X0159769Y0098591D01*
X0159790Y0098532D01*
X0159815Y0098473D01*
X0159843Y0098417D01*
X0159875Y0098362D01*
X0159910Y0098309D01*
X0159948Y0098259D01*
X0159989Y0098210D01*
X0160033Y0098165D01*
X0160080Y0098122D01*
X0160129Y0098083D01*
X0160181Y0098046D01*
X0160235Y0098013D01*
X0160291Y0097983D01*
X0160348Y0097956D01*
X0160407Y0097933D01*
X0160468Y0097914D01*
X0160529Y0097899D01*
X0160591Y0097887D01*
X0160654Y0097879D01*
X0160717Y0097875D01*
X0160781Y0097875D01*
X0160844Y0097879D01*
X0160907Y0097887D01*
X0160969Y0097899D01*
X0161030Y0097914D01*
X0161091Y0097933D01*
X0161150Y0097956D01*
X0161207Y0097983D01*
X0161263Y0098013D01*
X0161317Y0098046D01*
X0161369Y0098083D01*
X0161418Y0098122D01*
X0161465Y0098165D01*
X0161509Y0098210D01*
X0161550Y0098259D01*
X0161588Y0098309D01*
X0161623Y0098362D01*
X0161655Y0098417D01*
X0161683Y0098473D01*
X0161708Y0098532D01*
X0161729Y0098591D01*
X0161746Y0098652D01*
X0161759Y0098714D01*
X0161769Y0098777D01*
X0161775Y0098840D01*
X0161777Y0098903D01*
X0159722Y0099931D02*
X0159724Y0100012D01*
X0159730Y0100092D01*
X0159740Y0100172D01*
X0159754Y0100252D01*
X0159771Y0100330D01*
X0159793Y0100408D01*
X0159818Y0100485D01*
X0159847Y0100560D01*
X0159880Y0100634D01*
X0159916Y0100706D01*
X0159956Y0100776D01*
X0159999Y0100844D01*
X0160046Y0100910D01*
X0160095Y0100974D01*
X0160148Y0101035D01*
X0160204Y0101093D01*
X0160262Y0101149D01*
X0160323Y0101202D01*
X0160387Y0101251D01*
X0160453Y0101298D01*
X0160521Y0101341D01*
X0160591Y0101381D01*
X0160663Y0101417D01*
X0160737Y0101450D01*
X0160812Y0101479D01*
X0160889Y0101504D01*
X0160967Y0101526D01*
X0161045Y0101543D01*
X0161125Y0101557D01*
X0161205Y0101567D01*
X0161285Y0101573D01*
X0161366Y0101575D01*
X0167639Y0113623D02*
X0168666Y0117323D01*
X0166611Y0117323D01*
X0166611Y0116912D01*
X0166201Y0123497D02*
X0167229Y0123497D01*
X0166201Y0123497D02*
X0166153Y0123499D01*
X0166104Y0123505D01*
X0166057Y0123514D01*
X0166010Y0123527D01*
X0165965Y0123544D01*
X0165921Y0123564D01*
X0165879Y0123588D01*
X0165838Y0123615D01*
X0165800Y0123645D01*
X0165765Y0123678D01*
X0165732Y0123713D01*
X0165702Y0123751D01*
X0165675Y0123792D01*
X0165651Y0123834D01*
X0165631Y0123878D01*
X0165614Y0123923D01*
X0165601Y0123970D01*
X0165592Y0124017D01*
X0165586Y0124066D01*
X0165584Y0124114D01*
X0165585Y0124114D02*
X0165585Y0125142D01*
X0165585Y0124731D02*
X0167229Y0124731D01*
X0167229Y0125142D01*
X0167227Y0125198D01*
X0167221Y0125254D01*
X0167212Y0125309D01*
X0167199Y0125364D01*
X0167182Y0125417D01*
X0167161Y0125469D01*
X0167137Y0125520D01*
X0167109Y0125569D01*
X0167079Y0125616D01*
X0167045Y0125661D01*
X0167008Y0125703D01*
X0166968Y0125743D01*
X0166926Y0125780D01*
X0166881Y0125814D01*
X0166834Y0125844D01*
X0166785Y0125872D01*
X0166734Y0125896D01*
X0166682Y0125917D01*
X0166629Y0125934D01*
X0166574Y0125947D01*
X0166519Y0125956D01*
X0166463Y0125962D01*
X0166407Y0125964D01*
X0166351Y0125962D01*
X0166295Y0125956D01*
X0166240Y0125947D01*
X0166185Y0125934D01*
X0166132Y0125917D01*
X0166080Y0125896D01*
X0166029Y0125872D01*
X0165980Y0125844D01*
X0165933Y0125814D01*
X0165888Y0125780D01*
X0165846Y0125743D01*
X0165806Y0125703D01*
X0165769Y0125661D01*
X0165735Y0125616D01*
X0165705Y0125569D01*
X0165677Y0125520D01*
X0165653Y0125469D01*
X0165632Y0125417D01*
X0165615Y0125364D01*
X0165602Y0125309D01*
X0165593Y0125254D01*
X0165587Y0125198D01*
X0165585Y0125142D01*
X0164127Y0125347D02*
X0164127Y0124114D01*
X0164125Y0124066D01*
X0164119Y0124017D01*
X0164110Y0123970D01*
X0164097Y0123923D01*
X0164080Y0123878D01*
X0164060Y0123834D01*
X0164036Y0123792D01*
X0164009Y0123751D01*
X0163979Y0123713D01*
X0163946Y0123678D01*
X0163911Y0123645D01*
X0163873Y0123615D01*
X0163832Y0123588D01*
X0163790Y0123564D01*
X0163746Y0123544D01*
X0163701Y0123527D01*
X0163654Y0123514D01*
X0163607Y0123505D01*
X0163558Y0123499D01*
X0163510Y0123497D01*
X0162483Y0123497D01*
X0162483Y0127197D01*
X0162483Y0125964D02*
X0163510Y0125964D01*
X0163558Y0125962D01*
X0163607Y0125956D01*
X0163654Y0125947D01*
X0163701Y0125934D01*
X0163746Y0125917D01*
X0163790Y0125897D01*
X0163832Y0125873D01*
X0163873Y0125846D01*
X0163911Y0125816D01*
X0163946Y0125783D01*
X0163979Y0125748D01*
X0164009Y0125710D01*
X0164036Y0125669D01*
X0164060Y0125627D01*
X0164080Y0125583D01*
X0164097Y0125538D01*
X0164110Y0125491D01*
X0164119Y0125444D01*
X0164125Y0125395D01*
X0164127Y0125347D01*
X0160887Y0125964D02*
X0160887Y0123497D01*
X0159591Y0125553D02*
X0157946Y0125553D01*
X0157946Y0127197D02*
X0157946Y0123497D01*
X0157946Y0127197D02*
X0159591Y0127197D01*
X0160784Y0127197D02*
X0160990Y0127197D01*
X0160990Y0126992D01*
X0160784Y0126992D01*
X0160784Y0127197D01*
X0168845Y0125964D02*
X0168845Y0123497D01*
X0170078Y0125553D02*
X0170078Y0125964D01*
X0168845Y0125964D01*
X0173334Y0127197D02*
X0173334Y0123497D01*
X0174567Y0125142D02*
X0175800Y0127197D01*
X0175800Y0123497D01*
X0177447Y0123497D02*
X0177447Y0125964D01*
X0177550Y0126992D02*
X0177344Y0126992D01*
X0177344Y0127197D01*
X0177550Y0127197D01*
X0177550Y0126992D01*
X0179045Y0125964D02*
X0180278Y0125964D01*
X0180278Y0125553D01*
X0179045Y0125964D02*
X0179045Y0123497D01*
X0181565Y0123497D02*
X0181565Y0125964D01*
X0182798Y0125964D01*
X0182798Y0125553D01*
X0183945Y0125142D02*
X0183945Y0124319D01*
X0183947Y0124263D01*
X0183953Y0124207D01*
X0183962Y0124152D01*
X0183975Y0124097D01*
X0183992Y0124044D01*
X0184013Y0123992D01*
X0184037Y0123941D01*
X0184065Y0123892D01*
X0184095Y0123845D01*
X0184129Y0123800D01*
X0184166Y0123758D01*
X0184206Y0123718D01*
X0184248Y0123681D01*
X0184293Y0123647D01*
X0184340Y0123617D01*
X0184389Y0123589D01*
X0184440Y0123565D01*
X0184492Y0123544D01*
X0184545Y0123527D01*
X0184600Y0123514D01*
X0184655Y0123505D01*
X0184711Y0123499D01*
X0184767Y0123497D01*
X0184823Y0123499D01*
X0184879Y0123505D01*
X0184934Y0123514D01*
X0184989Y0123527D01*
X0185042Y0123544D01*
X0185094Y0123565D01*
X0185145Y0123589D01*
X0185194Y0123617D01*
X0185241Y0123647D01*
X0185286Y0123681D01*
X0185328Y0123718D01*
X0185368Y0123758D01*
X0185405Y0123800D01*
X0185439Y0123845D01*
X0185469Y0123892D01*
X0185497Y0123941D01*
X0185521Y0123992D01*
X0185542Y0124044D01*
X0185559Y0124097D01*
X0185572Y0124152D01*
X0185581Y0124207D01*
X0185587Y0124263D01*
X0185589Y0124319D01*
X0185589Y0125142D01*
X0185587Y0125198D01*
X0185581Y0125254D01*
X0185572Y0125309D01*
X0185559Y0125364D01*
X0185542Y0125417D01*
X0185521Y0125469D01*
X0185497Y0125520D01*
X0185469Y0125569D01*
X0185439Y0125616D01*
X0185405Y0125661D01*
X0185368Y0125703D01*
X0185328Y0125743D01*
X0185286Y0125780D01*
X0185241Y0125814D01*
X0185194Y0125844D01*
X0185145Y0125872D01*
X0185094Y0125896D01*
X0185042Y0125917D01*
X0184989Y0125934D01*
X0184934Y0125947D01*
X0184879Y0125956D01*
X0184823Y0125962D01*
X0184767Y0125964D01*
X0184711Y0125962D01*
X0184655Y0125956D01*
X0184600Y0125947D01*
X0184545Y0125934D01*
X0184492Y0125917D01*
X0184440Y0125896D01*
X0184389Y0125872D01*
X0184340Y0125844D01*
X0184293Y0125814D01*
X0184248Y0125780D01*
X0184206Y0125743D01*
X0184166Y0125703D01*
X0184129Y0125661D01*
X0184095Y0125616D01*
X0184065Y0125569D01*
X0184037Y0125520D01*
X0184013Y0125469D01*
X0183992Y0125417D01*
X0183975Y0125364D01*
X0183962Y0125309D01*
X0183953Y0125254D01*
X0183947Y0125198D01*
X0183945Y0125142D01*
X0187205Y0125964D02*
X0187205Y0123497D01*
X0188438Y0125553D02*
X0188438Y0125964D01*
X0187205Y0125964D01*
X0191642Y0124422D02*
X0193492Y0124422D01*
X0193800Y0123497D02*
X0192567Y0127197D01*
X0191333Y0123497D01*
X0195087Y0124114D02*
X0195087Y0125347D01*
X0195086Y0125347D02*
X0195088Y0125395D01*
X0195094Y0125444D01*
X0195103Y0125491D01*
X0195116Y0125538D01*
X0195133Y0125583D01*
X0195153Y0125627D01*
X0195177Y0125669D01*
X0195204Y0125710D01*
X0195234Y0125748D01*
X0195267Y0125783D01*
X0195302Y0125816D01*
X0195340Y0125846D01*
X0195381Y0125873D01*
X0195423Y0125897D01*
X0195467Y0125917D01*
X0195512Y0125934D01*
X0195559Y0125947D01*
X0195606Y0125956D01*
X0195655Y0125962D01*
X0195703Y0125964D01*
X0196731Y0125964D01*
X0196731Y0127197D02*
X0196731Y0123497D01*
X0195703Y0123497D01*
X0195655Y0123499D01*
X0195606Y0123505D01*
X0195559Y0123514D01*
X0195512Y0123527D01*
X0195467Y0123544D01*
X0195423Y0123564D01*
X0195381Y0123588D01*
X0195340Y0123615D01*
X0195302Y0123645D01*
X0195267Y0123678D01*
X0195234Y0123713D01*
X0195204Y0123751D01*
X0195177Y0123792D01*
X0195153Y0123834D01*
X0195133Y0123878D01*
X0195116Y0123923D01*
X0195103Y0123970D01*
X0195094Y0124017D01*
X0195088Y0124066D01*
X0195086Y0124114D01*
X0198327Y0124114D02*
X0198327Y0125347D01*
X0198326Y0125347D02*
X0198328Y0125395D01*
X0198334Y0125444D01*
X0198343Y0125491D01*
X0198356Y0125538D01*
X0198373Y0125583D01*
X0198393Y0125627D01*
X0198417Y0125669D01*
X0198444Y0125710D01*
X0198474Y0125748D01*
X0198507Y0125783D01*
X0198542Y0125816D01*
X0198580Y0125846D01*
X0198621Y0125873D01*
X0198663Y0125897D01*
X0198707Y0125917D01*
X0198752Y0125934D01*
X0198799Y0125947D01*
X0198846Y0125956D01*
X0198895Y0125962D01*
X0198943Y0125964D01*
X0199971Y0125964D01*
X0199971Y0127197D02*
X0199971Y0123497D01*
X0198943Y0123497D01*
X0198895Y0123499D01*
X0198846Y0123505D01*
X0198799Y0123514D01*
X0198752Y0123527D01*
X0198707Y0123544D01*
X0198663Y0123564D01*
X0198621Y0123588D01*
X0198580Y0123615D01*
X0198542Y0123645D01*
X0198507Y0123678D01*
X0198474Y0123713D01*
X0198444Y0123751D01*
X0198417Y0123792D01*
X0198393Y0123834D01*
X0198373Y0123878D01*
X0198356Y0123923D01*
X0198343Y0123970D01*
X0198334Y0124017D01*
X0198328Y0124066D01*
X0198326Y0124114D01*
X0201725Y0123497D02*
X0201725Y0125964D01*
X0202958Y0125964D01*
X0202958Y0125553D01*
X0204104Y0125142D02*
X0204104Y0124114D01*
X0204104Y0124731D02*
X0205749Y0124731D01*
X0205749Y0125142D01*
X0205747Y0125198D01*
X0205741Y0125254D01*
X0205732Y0125309D01*
X0205719Y0125364D01*
X0205702Y0125417D01*
X0205681Y0125469D01*
X0205657Y0125520D01*
X0205629Y0125569D01*
X0205599Y0125616D01*
X0205565Y0125661D01*
X0205528Y0125703D01*
X0205488Y0125743D01*
X0205446Y0125780D01*
X0205401Y0125814D01*
X0205354Y0125844D01*
X0205305Y0125872D01*
X0205254Y0125896D01*
X0205202Y0125917D01*
X0205149Y0125934D01*
X0205094Y0125947D01*
X0205039Y0125956D01*
X0204983Y0125962D01*
X0204927Y0125964D01*
X0204871Y0125962D01*
X0204815Y0125956D01*
X0204760Y0125947D01*
X0204705Y0125934D01*
X0204652Y0125917D01*
X0204600Y0125896D01*
X0204549Y0125872D01*
X0204500Y0125844D01*
X0204453Y0125814D01*
X0204408Y0125780D01*
X0204366Y0125743D01*
X0204326Y0125703D01*
X0204289Y0125661D01*
X0204255Y0125616D01*
X0204225Y0125569D01*
X0204197Y0125520D01*
X0204173Y0125469D01*
X0204152Y0125417D01*
X0204135Y0125364D01*
X0204122Y0125309D01*
X0204113Y0125254D01*
X0204107Y0125198D01*
X0204105Y0125142D01*
X0204104Y0124114D02*
X0204106Y0124066D01*
X0204112Y0124017D01*
X0204121Y0123970D01*
X0204134Y0123923D01*
X0204151Y0123878D01*
X0204171Y0123834D01*
X0204195Y0123792D01*
X0204222Y0123751D01*
X0204252Y0123713D01*
X0204285Y0123678D01*
X0204320Y0123645D01*
X0204358Y0123615D01*
X0204399Y0123588D01*
X0204441Y0123564D01*
X0204485Y0123544D01*
X0204530Y0123527D01*
X0204577Y0123514D01*
X0204624Y0123505D01*
X0204673Y0123499D01*
X0204721Y0123497D01*
X0205749Y0123497D01*
X0207738Y0125964D02*
X0207834Y0125960D01*
X0207929Y0125953D01*
X0208024Y0125942D01*
X0208118Y0125927D01*
X0208211Y0125908D01*
X0208304Y0125886D01*
X0208396Y0125859D01*
X0208486Y0125829D01*
X0208575Y0125796D01*
X0208663Y0125758D01*
X0207739Y0125964D02*
X0207694Y0125963D01*
X0207649Y0125958D01*
X0207605Y0125949D01*
X0207562Y0125937D01*
X0207520Y0125921D01*
X0207480Y0125901D01*
X0207441Y0125878D01*
X0207405Y0125853D01*
X0207371Y0125824D01*
X0207339Y0125792D01*
X0207310Y0125758D01*
X0207284Y0125721D01*
X0207261Y0125683D01*
X0207242Y0125642D01*
X0207226Y0125600D01*
X0207213Y0125557D01*
X0207204Y0125513D01*
X0207199Y0125469D01*
X0207198Y0125424D01*
X0207201Y0125379D01*
X0207207Y0125335D01*
X0207217Y0125291D01*
X0207230Y0125249D01*
X0207247Y0125207D01*
X0207268Y0125167D01*
X0207292Y0125129D01*
X0207318Y0125094D01*
X0207348Y0125060D01*
X0207381Y0125029D01*
X0207416Y0125001D01*
X0207453Y0124976D01*
X0207492Y0124955D01*
X0207533Y0124936D01*
X0208561Y0124525D01*
X0208602Y0124506D01*
X0208641Y0124485D01*
X0208678Y0124460D01*
X0208713Y0124432D01*
X0208746Y0124401D01*
X0208776Y0124367D01*
X0208802Y0124332D01*
X0208826Y0124294D01*
X0208847Y0124254D01*
X0208864Y0124212D01*
X0208877Y0124170D01*
X0208887Y0124126D01*
X0208893Y0124082D01*
X0208896Y0124037D01*
X0208895Y0123992D01*
X0208890Y0123948D01*
X0208881Y0123904D01*
X0208868Y0123861D01*
X0208852Y0123819D01*
X0208833Y0123778D01*
X0208810Y0123740D01*
X0208784Y0123703D01*
X0208755Y0123669D01*
X0208723Y0123637D01*
X0208689Y0123608D01*
X0208653Y0123583D01*
X0208614Y0123560D01*
X0208574Y0123540D01*
X0208532Y0123524D01*
X0208489Y0123512D01*
X0208445Y0123503D01*
X0208400Y0123498D01*
X0208355Y0123497D01*
X0210858Y0125964D02*
X0210954Y0125960D01*
X0211049Y0125953D01*
X0211144Y0125942D01*
X0211238Y0125927D01*
X0211331Y0125908D01*
X0211424Y0125886D01*
X0211516Y0125859D01*
X0211606Y0125829D01*
X0211695Y0125796D01*
X0211783Y0125758D01*
X0210859Y0125964D02*
X0210814Y0125963D01*
X0210769Y0125958D01*
X0210725Y0125949D01*
X0210682Y0125937D01*
X0210640Y0125921D01*
X0210600Y0125901D01*
X0210561Y0125878D01*
X0210525Y0125853D01*
X0210491Y0125824D01*
X0210459Y0125792D01*
X0210430Y0125758D01*
X0210404Y0125721D01*
X0210381Y0125683D01*
X0210362Y0125642D01*
X0210346Y0125600D01*
X0210333Y0125557D01*
X0210324Y0125513D01*
X0210319Y0125469D01*
X0210318Y0125424D01*
X0210321Y0125379D01*
X0210327Y0125335D01*
X0210337Y0125291D01*
X0210350Y0125249D01*
X0210367Y0125207D01*
X0210388Y0125167D01*
X0210412Y0125129D01*
X0210438Y0125094D01*
X0210468Y0125060D01*
X0210501Y0125029D01*
X0210536Y0125001D01*
X0210573Y0124976D01*
X0210612Y0124955D01*
X0210653Y0124936D01*
X0211681Y0124525D01*
X0211722Y0124506D01*
X0211761Y0124485D01*
X0211798Y0124460D01*
X0211833Y0124432D01*
X0211866Y0124401D01*
X0211896Y0124367D01*
X0211922Y0124332D01*
X0211946Y0124294D01*
X0211967Y0124254D01*
X0211984Y0124212D01*
X0211997Y0124170D01*
X0212007Y0124126D01*
X0212013Y0124082D01*
X0212016Y0124037D01*
X0212015Y0123992D01*
X0212010Y0123948D01*
X0212001Y0123904D01*
X0211988Y0123861D01*
X0211972Y0123819D01*
X0211953Y0123778D01*
X0211930Y0123740D01*
X0211904Y0123703D01*
X0211875Y0123669D01*
X0211843Y0123637D01*
X0211809Y0123608D01*
X0211773Y0123583D01*
X0211734Y0123560D01*
X0211694Y0123540D01*
X0211652Y0123524D01*
X0211609Y0123512D01*
X0211565Y0123503D01*
X0211520Y0123498D01*
X0211475Y0123497D01*
X0211360Y0123501D01*
X0211245Y0123508D01*
X0211130Y0123519D01*
X0211015Y0123534D01*
X0210901Y0123553D01*
X0210788Y0123576D01*
X0210676Y0123602D01*
X0210564Y0123632D01*
X0210454Y0123666D01*
X0210345Y0123703D01*
X0208355Y0123497D02*
X0208240Y0123501D01*
X0208125Y0123508D01*
X0208010Y0123519D01*
X0207895Y0123534D01*
X0207781Y0123553D01*
X0207668Y0123576D01*
X0207556Y0123602D01*
X0207444Y0123632D01*
X0207334Y0123666D01*
X0207225Y0123703D01*
X0199135Y0117323D02*
X0199135Y0113623D01*
X0200162Y0113623D02*
X0198107Y0113623D01*
X0198107Y0116501D02*
X0199135Y0117323D01*
X0207053Y0100650D02*
X0207051Y0100588D01*
X0207045Y0100526D01*
X0207036Y0100465D01*
X0207022Y0100405D01*
X0207005Y0100345D01*
X0206984Y0100287D01*
X0206960Y0100230D01*
X0206932Y0100175D01*
X0206901Y0100121D01*
X0206866Y0100070D01*
X0206829Y0100021D01*
X0206788Y0099974D01*
X0206745Y0099930D01*
X0206744Y0099931D02*
X0204997Y0097875D01*
X0207052Y0097875D01*
X0204997Y0100753D02*
X0205020Y0100817D01*
X0205046Y0100880D01*
X0205076Y0100941D01*
X0205109Y0101000D01*
X0205146Y0101057D01*
X0205186Y0101112D01*
X0205229Y0101164D01*
X0205275Y0101214D01*
X0205323Y0101262D01*
X0205375Y0101306D01*
X0205428Y0101348D01*
X0205484Y0101386D01*
X0205542Y0101421D01*
X0205602Y0101453D01*
X0205664Y0101481D01*
X0205727Y0101506D01*
X0205792Y0101527D01*
X0205858Y0101544D01*
X0205924Y0101558D01*
X0205991Y0101567D01*
X0206059Y0101573D01*
X0206127Y0101575D01*
X0206185Y0101573D01*
X0206243Y0101568D01*
X0206300Y0101559D01*
X0206357Y0101546D01*
X0206413Y0101530D01*
X0206468Y0101510D01*
X0206521Y0101487D01*
X0206573Y0101461D01*
X0206623Y0101431D01*
X0206671Y0101398D01*
X0206717Y0101363D01*
X0206760Y0101324D01*
X0206801Y0101283D01*
X0206840Y0101240D01*
X0206875Y0101194D01*
X0206908Y0101146D01*
X0206938Y0101096D01*
X0206964Y0101044D01*
X0206987Y0100991D01*
X0207007Y0100936D01*
X0207023Y0100880D01*
X0207036Y0100823D01*
X0207045Y0100766D01*
X0207050Y0100708D01*
X0207052Y0100650D01*
X0199340Y0085827D02*
X0198107Y0085827D01*
X0199340Y0085827D02*
X0199396Y0085825D01*
X0199452Y0085819D01*
X0199507Y0085810D01*
X0199562Y0085797D01*
X0199615Y0085780D01*
X0199667Y0085759D01*
X0199718Y0085735D01*
X0199767Y0085707D01*
X0199814Y0085677D01*
X0199859Y0085643D01*
X0199901Y0085606D01*
X0199941Y0085566D01*
X0199978Y0085524D01*
X0200012Y0085479D01*
X0200042Y0085432D01*
X0200070Y0085383D01*
X0200094Y0085332D01*
X0200115Y0085280D01*
X0200132Y0085227D01*
X0200145Y0085172D01*
X0200154Y0085117D01*
X0200160Y0085061D01*
X0200162Y0085005D01*
X0200160Y0084949D01*
X0200154Y0084893D01*
X0200145Y0084838D01*
X0200132Y0084783D01*
X0200115Y0084730D01*
X0200094Y0084678D01*
X0200070Y0084627D01*
X0200042Y0084578D01*
X0200012Y0084531D01*
X0199978Y0084486D01*
X0199941Y0084444D01*
X0199901Y0084404D01*
X0199859Y0084367D01*
X0199814Y0084333D01*
X0199767Y0084303D01*
X0199718Y0084275D01*
X0199667Y0084251D01*
X0199615Y0084230D01*
X0199562Y0084213D01*
X0199507Y0084200D01*
X0199452Y0084191D01*
X0199396Y0084185D01*
X0199340Y0084183D01*
X0198518Y0084183D01*
X0199135Y0084183D02*
X0199198Y0084181D01*
X0199261Y0084175D01*
X0199324Y0084165D01*
X0199386Y0084152D01*
X0199447Y0084135D01*
X0199506Y0084114D01*
X0199565Y0084089D01*
X0199621Y0084061D01*
X0199676Y0084029D01*
X0199729Y0083994D01*
X0199779Y0083956D01*
X0199828Y0083915D01*
X0199873Y0083871D01*
X0199916Y0083824D01*
X0199955Y0083775D01*
X0199992Y0083723D01*
X0200025Y0083669D01*
X0200055Y0083613D01*
X0200082Y0083556D01*
X0200105Y0083497D01*
X0200124Y0083436D01*
X0200139Y0083375D01*
X0200151Y0083313D01*
X0200159Y0083250D01*
X0200163Y0083187D01*
X0200163Y0083123D01*
X0200159Y0083060D01*
X0200151Y0082997D01*
X0200139Y0082935D01*
X0200124Y0082874D01*
X0200105Y0082813D01*
X0200082Y0082754D01*
X0200055Y0082697D01*
X0200025Y0082641D01*
X0199992Y0082587D01*
X0199955Y0082535D01*
X0199916Y0082486D01*
X0199873Y0082439D01*
X0199828Y0082395D01*
X0199779Y0082354D01*
X0199729Y0082316D01*
X0199676Y0082281D01*
X0199621Y0082249D01*
X0199565Y0082221D01*
X0199506Y0082196D01*
X0199447Y0082175D01*
X0199386Y0082158D01*
X0199324Y0082145D01*
X0199261Y0082135D01*
X0199198Y0082129D01*
X0199135Y0082127D01*
X0198107Y0082127D01*
X0174567Y0125142D02*
X0173334Y0127197D01*
X0110766Y0112237D02*
X0109533Y0108537D01*
X0108299Y0112237D01*
X0106961Y0112237D02*
X0104905Y0112237D01*
X0104905Y0110592D01*
X0106138Y0110592D01*
X0106194Y0110590D01*
X0106250Y0110584D01*
X0106305Y0110575D01*
X0106360Y0110562D01*
X0106413Y0110545D01*
X0106465Y0110524D01*
X0106516Y0110500D01*
X0106565Y0110472D01*
X0106612Y0110442D01*
X0106657Y0110408D01*
X0106699Y0110371D01*
X0106739Y0110331D01*
X0106776Y0110289D01*
X0106810Y0110244D01*
X0106840Y0110197D01*
X0106868Y0110148D01*
X0106892Y0110097D01*
X0106913Y0110045D01*
X0106930Y0109992D01*
X0106943Y0109937D01*
X0106952Y0109882D01*
X0106958Y0109826D01*
X0106960Y0109770D01*
X0106961Y0109770D02*
X0106961Y0109359D01*
X0106960Y0109359D02*
X0106958Y0109303D01*
X0106952Y0109247D01*
X0106943Y0109192D01*
X0106930Y0109137D01*
X0106913Y0109084D01*
X0106892Y0109032D01*
X0106868Y0108981D01*
X0106840Y0108932D01*
X0106810Y0108885D01*
X0106776Y0108840D01*
X0106739Y0108798D01*
X0106699Y0108758D01*
X0106657Y0108721D01*
X0106612Y0108687D01*
X0106565Y0108657D01*
X0106516Y0108629D01*
X0106465Y0108605D01*
X0106413Y0108584D01*
X0106360Y0108567D01*
X0106305Y0108554D01*
X0106250Y0108545D01*
X0106194Y0108539D01*
X0106138Y0108537D01*
X0104905Y0108537D01*
X0103326Y0109975D02*
X0100859Y0109975D01*
X0102093Y0108742D02*
X0102093Y0111209D01*
X0098016Y0110592D02*
X0096269Y0108537D01*
X0098324Y0108537D01*
X0096269Y0111414D02*
X0096292Y0111478D01*
X0096318Y0111541D01*
X0096348Y0111602D01*
X0096381Y0111661D01*
X0096418Y0111718D01*
X0096458Y0111773D01*
X0096501Y0111825D01*
X0096547Y0111875D01*
X0096595Y0111923D01*
X0096647Y0111967D01*
X0096700Y0112009D01*
X0096756Y0112047D01*
X0096814Y0112082D01*
X0096874Y0112114D01*
X0096936Y0112142D01*
X0096999Y0112167D01*
X0097064Y0112188D01*
X0097130Y0112205D01*
X0097196Y0112219D01*
X0097263Y0112228D01*
X0097331Y0112234D01*
X0097399Y0112236D01*
X0097399Y0112237D02*
X0097457Y0112235D01*
X0097515Y0112230D01*
X0097572Y0112221D01*
X0097629Y0112208D01*
X0097685Y0112192D01*
X0097740Y0112172D01*
X0097793Y0112149D01*
X0097845Y0112123D01*
X0097895Y0112093D01*
X0097943Y0112060D01*
X0097989Y0112025D01*
X0098032Y0111986D01*
X0098073Y0111945D01*
X0098112Y0111902D01*
X0098147Y0111856D01*
X0098180Y0111808D01*
X0098210Y0111758D01*
X0098236Y0111706D01*
X0098259Y0111653D01*
X0098279Y0111598D01*
X0098295Y0111542D01*
X0098308Y0111485D01*
X0098317Y0111428D01*
X0098322Y0111370D01*
X0098324Y0111312D01*
X0098325Y0111312D02*
X0098323Y0111250D01*
X0098317Y0111188D01*
X0098308Y0111127D01*
X0098294Y0111067D01*
X0098277Y0111007D01*
X0098256Y0110949D01*
X0098232Y0110892D01*
X0098204Y0110837D01*
X0098173Y0110783D01*
X0098138Y0110732D01*
X0098101Y0110683D01*
X0098060Y0110636D01*
X0098017Y0110592D01*
X0094433Y0110078D02*
X0093302Y0110695D01*
X0093714Y0112237D02*
X0093790Y0112235D01*
X0093866Y0112229D01*
X0093942Y0112220D01*
X0094017Y0112207D01*
X0094092Y0112190D01*
X0094165Y0112169D01*
X0094238Y0112145D01*
X0094309Y0112118D01*
X0094378Y0112086D01*
X0094447Y0112052D01*
X0094513Y0112014D01*
X0094577Y0111973D01*
X0094639Y0111929D01*
X0093302Y0110695D02*
X0093256Y0110724D01*
X0093213Y0110756D01*
X0093171Y0110790D01*
X0093132Y0110828D01*
X0093095Y0110867D01*
X0093061Y0110909D01*
X0093029Y0110954D01*
X0093001Y0111000D01*
X0092976Y0111048D01*
X0092953Y0111097D01*
X0092935Y0111148D01*
X0092919Y0111200D01*
X0092907Y0111252D01*
X0092898Y0111306D01*
X0092893Y0111360D01*
X0092891Y0111414D01*
X0092892Y0111414D02*
X0092894Y0111470D01*
X0092900Y0111526D01*
X0092909Y0111581D01*
X0092922Y0111636D01*
X0092939Y0111689D01*
X0092960Y0111741D01*
X0092984Y0111792D01*
X0093012Y0111841D01*
X0093042Y0111888D01*
X0093076Y0111933D01*
X0093113Y0111975D01*
X0093153Y0112015D01*
X0093195Y0112052D01*
X0093240Y0112086D01*
X0093287Y0112116D01*
X0093336Y0112144D01*
X0093387Y0112168D01*
X0093439Y0112189D01*
X0093492Y0112206D01*
X0093547Y0112219D01*
X0093602Y0112228D01*
X0093658Y0112234D01*
X0093714Y0112236D01*
X0092789Y0109051D02*
X0092847Y0108995D01*
X0092907Y0108942D01*
X0092970Y0108891D01*
X0093036Y0108844D01*
X0093103Y0108800D01*
X0093173Y0108759D01*
X0093244Y0108721D01*
X0093317Y0108687D01*
X0093391Y0108656D01*
X0093467Y0108628D01*
X0093544Y0108604D01*
X0093622Y0108584D01*
X0093701Y0108567D01*
X0093781Y0108554D01*
X0093861Y0108544D01*
X0093941Y0108539D01*
X0094022Y0108537D01*
X0094078Y0108539D01*
X0094134Y0108545D01*
X0094189Y0108554D01*
X0094244Y0108567D01*
X0094297Y0108584D01*
X0094349Y0108605D01*
X0094400Y0108629D01*
X0094449Y0108657D01*
X0094496Y0108687D01*
X0094541Y0108721D01*
X0094583Y0108758D01*
X0094623Y0108798D01*
X0094660Y0108840D01*
X0094694Y0108885D01*
X0094724Y0108932D01*
X0094752Y0108981D01*
X0094776Y0109032D01*
X0094797Y0109084D01*
X0094814Y0109137D01*
X0094827Y0109192D01*
X0094836Y0109247D01*
X0094842Y0109303D01*
X0094844Y0109359D01*
X0094842Y0109413D01*
X0094837Y0109467D01*
X0094828Y0109521D01*
X0094816Y0109573D01*
X0094800Y0109625D01*
X0094782Y0109676D01*
X0094759Y0109725D01*
X0094734Y0109773D01*
X0094706Y0109819D01*
X0094674Y0109864D01*
X0094640Y0109906D01*
X0094603Y0109945D01*
X0094564Y0109983D01*
X0094522Y0110017D01*
X0094479Y0110049D01*
X0094433Y0110078D01*
X0088482Y0108537D02*
X0086426Y0108537D01*
X0087454Y0108537D02*
X0087454Y0112237D01*
X0086426Y0111414D01*
X0084591Y0110078D02*
X0083460Y0110695D01*
X0083871Y0112237D02*
X0083947Y0112235D01*
X0084023Y0112229D01*
X0084099Y0112220D01*
X0084174Y0112207D01*
X0084249Y0112190D01*
X0084322Y0112169D01*
X0084395Y0112145D01*
X0084466Y0112118D01*
X0084535Y0112086D01*
X0084604Y0112052D01*
X0084670Y0112014D01*
X0084734Y0111973D01*
X0084796Y0111929D01*
X0083460Y0110695D02*
X0083414Y0110724D01*
X0083371Y0110756D01*
X0083329Y0110790D01*
X0083290Y0110828D01*
X0083253Y0110867D01*
X0083219Y0110909D01*
X0083187Y0110954D01*
X0083159Y0111000D01*
X0083134Y0111048D01*
X0083111Y0111097D01*
X0083093Y0111148D01*
X0083077Y0111200D01*
X0083065Y0111252D01*
X0083056Y0111306D01*
X0083051Y0111360D01*
X0083049Y0111414D01*
X0083051Y0111470D01*
X0083057Y0111526D01*
X0083066Y0111581D01*
X0083079Y0111636D01*
X0083096Y0111689D01*
X0083117Y0111741D01*
X0083141Y0111792D01*
X0083169Y0111841D01*
X0083199Y0111888D01*
X0083233Y0111933D01*
X0083270Y0111975D01*
X0083310Y0112015D01*
X0083352Y0112052D01*
X0083397Y0112086D01*
X0083444Y0112116D01*
X0083493Y0112144D01*
X0083544Y0112168D01*
X0083596Y0112189D01*
X0083649Y0112206D01*
X0083704Y0112219D01*
X0083759Y0112228D01*
X0083815Y0112234D01*
X0083871Y0112236D01*
X0082946Y0109051D02*
X0083004Y0108995D01*
X0083064Y0108942D01*
X0083127Y0108891D01*
X0083193Y0108844D01*
X0083260Y0108800D01*
X0083330Y0108759D01*
X0083401Y0108721D01*
X0083474Y0108687D01*
X0083548Y0108656D01*
X0083624Y0108628D01*
X0083701Y0108604D01*
X0083779Y0108584D01*
X0083858Y0108567D01*
X0083938Y0108554D01*
X0084018Y0108544D01*
X0084098Y0108539D01*
X0084179Y0108537D01*
X0084235Y0108539D01*
X0084291Y0108545D01*
X0084346Y0108554D01*
X0084401Y0108567D01*
X0084454Y0108584D01*
X0084506Y0108605D01*
X0084557Y0108629D01*
X0084606Y0108657D01*
X0084653Y0108687D01*
X0084698Y0108721D01*
X0084740Y0108758D01*
X0084780Y0108798D01*
X0084817Y0108840D01*
X0084851Y0108885D01*
X0084881Y0108932D01*
X0084909Y0108981D01*
X0084933Y0109032D01*
X0084954Y0109084D01*
X0084971Y0109137D01*
X0084984Y0109192D01*
X0084993Y0109247D01*
X0084999Y0109303D01*
X0085001Y0109359D01*
X0085002Y0109359D02*
X0085000Y0109413D01*
X0084995Y0109467D01*
X0084986Y0109521D01*
X0084974Y0109573D01*
X0084958Y0109625D01*
X0084940Y0109676D01*
X0084917Y0109725D01*
X0084892Y0109773D01*
X0084864Y0109819D01*
X0084832Y0109864D01*
X0084798Y0109906D01*
X0084761Y0109945D01*
X0084722Y0109983D01*
X0084680Y0110017D01*
X0084637Y0110049D01*
X0084591Y0110078D01*
X0076498Y0109051D02*
X0076453Y0109147D01*
X0076412Y0109245D01*
X0076374Y0109345D01*
X0076339Y0109445D01*
X0076308Y0109547D01*
X0076280Y0109650D01*
X0076257Y0109753D01*
X0076236Y0109858D01*
X0076220Y0109963D01*
X0076207Y0110068D01*
X0076197Y0110174D01*
X0076192Y0110281D01*
X0076190Y0110387D01*
X0078245Y0110387D02*
X0078243Y0110493D01*
X0078238Y0110600D01*
X0078228Y0110706D01*
X0078215Y0110811D01*
X0078199Y0110916D01*
X0078178Y0111021D01*
X0078155Y0111124D01*
X0078127Y0111227D01*
X0078096Y0111329D01*
X0078061Y0111429D01*
X0078023Y0111529D01*
X0077982Y0111627D01*
X0077937Y0111723D01*
X0078040Y0111414D02*
X0076395Y0109359D01*
X0077218Y0108536D02*
X0077270Y0108538D01*
X0077323Y0108543D01*
X0077374Y0108552D01*
X0077425Y0108565D01*
X0077475Y0108581D01*
X0077524Y0108600D01*
X0077571Y0108623D01*
X0077617Y0108649D01*
X0077660Y0108678D01*
X0077702Y0108710D01*
X0077741Y0108744D01*
X0077778Y0108782D01*
X0077812Y0108822D01*
X0077844Y0108864D01*
X0077872Y0108908D01*
X0077897Y0108954D01*
X0077919Y0109001D01*
X0077938Y0109050D01*
X0077218Y0108536D02*
X0077166Y0108538D01*
X0077113Y0108543D01*
X0077062Y0108552D01*
X0077011Y0108565D01*
X0076961Y0108581D01*
X0076912Y0108600D01*
X0076865Y0108623D01*
X0076819Y0108649D01*
X0076776Y0108678D01*
X0076734Y0108710D01*
X0076695Y0108744D01*
X0076658Y0108782D01*
X0076624Y0108822D01*
X0076592Y0108864D01*
X0076564Y0108908D01*
X0076539Y0108954D01*
X0076517Y0109001D01*
X0076498Y0109050D01*
X0077937Y0109051D02*
X0077982Y0109147D01*
X0078023Y0109245D01*
X0078061Y0109345D01*
X0078096Y0109445D01*
X0078127Y0109547D01*
X0078155Y0109650D01*
X0078178Y0109753D01*
X0078199Y0109858D01*
X0078215Y0109963D01*
X0078228Y0110068D01*
X0078238Y0110174D01*
X0078243Y0110281D01*
X0078245Y0110387D01*
X0076190Y0110387D02*
X0076192Y0110493D01*
X0076197Y0110600D01*
X0076207Y0110706D01*
X0076220Y0110811D01*
X0076236Y0110916D01*
X0076257Y0111021D01*
X0076280Y0111124D01*
X0076308Y0111227D01*
X0076339Y0111329D01*
X0076374Y0111429D01*
X0076412Y0111529D01*
X0076453Y0111627D01*
X0076498Y0111723D01*
X0077218Y0112237D02*
X0077270Y0112235D01*
X0077323Y0112230D01*
X0077374Y0112221D01*
X0077425Y0112208D01*
X0077475Y0112192D01*
X0077524Y0112173D01*
X0077571Y0112150D01*
X0077617Y0112124D01*
X0077660Y0112095D01*
X0077702Y0112063D01*
X0077741Y0112029D01*
X0077778Y0111991D01*
X0077812Y0111951D01*
X0077844Y0111909D01*
X0077872Y0111865D01*
X0077897Y0111819D01*
X0077919Y0111772D01*
X0077938Y0111723D01*
X0077218Y0112237D02*
X0077166Y0112235D01*
X0077113Y0112230D01*
X0077062Y0112221D01*
X0077011Y0112208D01*
X0076961Y0112192D01*
X0076912Y0112173D01*
X0076865Y0112150D01*
X0076819Y0112124D01*
X0076776Y0112095D01*
X0076734Y0112063D01*
X0076695Y0112029D01*
X0076658Y0111991D01*
X0076624Y0111951D01*
X0076592Y0111909D01*
X0076564Y0111865D01*
X0076539Y0111819D01*
X0076517Y0111772D01*
X0076498Y0111723D01*
X0074354Y0110078D02*
X0073224Y0110695D01*
X0073635Y0112237D02*
X0073711Y0112235D01*
X0073787Y0112229D01*
X0073863Y0112220D01*
X0073938Y0112207D01*
X0074013Y0112190D01*
X0074086Y0112169D01*
X0074159Y0112145D01*
X0074230Y0112118D01*
X0074299Y0112086D01*
X0074368Y0112052D01*
X0074434Y0112014D01*
X0074498Y0111973D01*
X0074560Y0111929D01*
X0073224Y0110695D02*
X0073178Y0110724D01*
X0073135Y0110756D01*
X0073093Y0110790D01*
X0073054Y0110828D01*
X0073017Y0110867D01*
X0072983Y0110909D01*
X0072951Y0110954D01*
X0072923Y0111000D01*
X0072898Y0111048D01*
X0072875Y0111097D01*
X0072857Y0111148D01*
X0072841Y0111200D01*
X0072829Y0111252D01*
X0072820Y0111306D01*
X0072815Y0111360D01*
X0072813Y0111414D01*
X0072815Y0111470D01*
X0072821Y0111526D01*
X0072830Y0111581D01*
X0072843Y0111636D01*
X0072860Y0111689D01*
X0072881Y0111741D01*
X0072905Y0111792D01*
X0072933Y0111841D01*
X0072963Y0111888D01*
X0072997Y0111933D01*
X0073034Y0111975D01*
X0073074Y0112015D01*
X0073116Y0112052D01*
X0073161Y0112086D01*
X0073208Y0112116D01*
X0073257Y0112144D01*
X0073308Y0112168D01*
X0073360Y0112189D01*
X0073413Y0112206D01*
X0073468Y0112219D01*
X0073523Y0112228D01*
X0073579Y0112234D01*
X0073635Y0112236D01*
X0072710Y0109051D02*
X0072768Y0108995D01*
X0072828Y0108942D01*
X0072891Y0108891D01*
X0072957Y0108844D01*
X0073024Y0108800D01*
X0073094Y0108759D01*
X0073165Y0108721D01*
X0073238Y0108687D01*
X0073312Y0108656D01*
X0073388Y0108628D01*
X0073465Y0108604D01*
X0073543Y0108584D01*
X0073622Y0108567D01*
X0073702Y0108554D01*
X0073782Y0108544D01*
X0073862Y0108539D01*
X0073943Y0108537D01*
X0073999Y0108539D01*
X0074055Y0108545D01*
X0074110Y0108554D01*
X0074165Y0108567D01*
X0074218Y0108584D01*
X0074270Y0108605D01*
X0074321Y0108629D01*
X0074370Y0108657D01*
X0074417Y0108687D01*
X0074462Y0108721D01*
X0074504Y0108758D01*
X0074544Y0108798D01*
X0074581Y0108840D01*
X0074615Y0108885D01*
X0074645Y0108932D01*
X0074673Y0108981D01*
X0074697Y0109032D01*
X0074718Y0109084D01*
X0074735Y0109137D01*
X0074748Y0109192D01*
X0074757Y0109247D01*
X0074763Y0109303D01*
X0074765Y0109359D01*
X0074763Y0109413D01*
X0074758Y0109467D01*
X0074749Y0109521D01*
X0074737Y0109573D01*
X0074721Y0109625D01*
X0074703Y0109676D01*
X0074680Y0109725D01*
X0074655Y0109773D01*
X0074627Y0109819D01*
X0074595Y0109864D01*
X0074561Y0109906D01*
X0074524Y0109945D01*
X0074485Y0109983D01*
X0074443Y0110017D01*
X0074400Y0110049D01*
X0074354Y0110078D01*
X0068666Y0109564D02*
X0068666Y0111209D01*
X0068664Y0111271D01*
X0068659Y0111333D01*
X0068649Y0111394D01*
X0068636Y0111455D01*
X0068619Y0111515D01*
X0068599Y0111574D01*
X0068575Y0111631D01*
X0068548Y0111687D01*
X0068518Y0111741D01*
X0068484Y0111793D01*
X0068447Y0111843D01*
X0068407Y0111891D01*
X0068365Y0111936D01*
X0068320Y0111978D01*
X0068272Y0112018D01*
X0068222Y0112055D01*
X0068170Y0112089D01*
X0068116Y0112119D01*
X0068060Y0112146D01*
X0068003Y0112170D01*
X0067944Y0112190D01*
X0067884Y0112207D01*
X0067823Y0112220D01*
X0067762Y0112230D01*
X0067700Y0112235D01*
X0067638Y0112237D01*
X0066610Y0112237D01*
X0066610Y0108537D01*
X0067638Y0108537D01*
X0067638Y0108536D02*
X0067700Y0108538D01*
X0067762Y0108543D01*
X0067823Y0108553D01*
X0067884Y0108566D01*
X0067944Y0108583D01*
X0068003Y0108603D01*
X0068060Y0108627D01*
X0068116Y0108654D01*
X0068170Y0108684D01*
X0068222Y0108718D01*
X0068272Y0108755D01*
X0068320Y0108795D01*
X0068365Y0108837D01*
X0068407Y0108882D01*
X0068447Y0108930D01*
X0068484Y0108980D01*
X0068518Y0109032D01*
X0068548Y0109086D01*
X0068575Y0109142D01*
X0068599Y0109199D01*
X0068619Y0109258D01*
X0068636Y0109318D01*
X0068649Y0109379D01*
X0068659Y0109440D01*
X0068664Y0109502D01*
X0068666Y0109564D01*
X0064826Y0108537D02*
X0064826Y0112237D01*
X0062770Y0112237D02*
X0064826Y0108537D01*
X0062770Y0108537D02*
X0062770Y0112237D01*
X0060986Y0112237D02*
X0059753Y0112237D01*
X0059753Y0112236D02*
X0059697Y0112234D01*
X0059641Y0112228D01*
X0059586Y0112219D01*
X0059531Y0112206D01*
X0059478Y0112189D01*
X0059426Y0112168D01*
X0059375Y0112144D01*
X0059326Y0112116D01*
X0059279Y0112086D01*
X0059234Y0112052D01*
X0059192Y0112015D01*
X0059152Y0111975D01*
X0059115Y0111933D01*
X0059081Y0111888D01*
X0059051Y0111841D01*
X0059023Y0111792D01*
X0058999Y0111741D01*
X0058978Y0111689D01*
X0058961Y0111636D01*
X0058948Y0111581D01*
X0058939Y0111526D01*
X0058933Y0111470D01*
X0058931Y0111414D01*
X0058930Y0111414D02*
X0058930Y0109359D01*
X0058931Y0109359D02*
X0058933Y0109303D01*
X0058939Y0109247D01*
X0058948Y0109192D01*
X0058961Y0109137D01*
X0058978Y0109084D01*
X0058999Y0109032D01*
X0059023Y0108981D01*
X0059051Y0108932D01*
X0059081Y0108885D01*
X0059115Y0108840D01*
X0059152Y0108798D01*
X0059192Y0108758D01*
X0059234Y0108721D01*
X0059279Y0108687D01*
X0059326Y0108657D01*
X0059375Y0108629D01*
X0059426Y0108605D01*
X0059478Y0108584D01*
X0059531Y0108567D01*
X0059586Y0108554D01*
X0059641Y0108545D01*
X0059697Y0108539D01*
X0059753Y0108537D01*
X0060986Y0108537D01*
X0060986Y0110592D01*
X0060369Y0110592D01*
X0057054Y0117777D02*
X0056027Y0117777D01*
X0057054Y0117777D02*
X0057117Y0117779D01*
X0057180Y0117785D01*
X0057243Y0117795D01*
X0057305Y0117808D01*
X0057366Y0117825D01*
X0057425Y0117846D01*
X0057484Y0117871D01*
X0057540Y0117899D01*
X0057595Y0117931D01*
X0057648Y0117966D01*
X0057698Y0118004D01*
X0057747Y0118045D01*
X0057792Y0118089D01*
X0057835Y0118136D01*
X0057874Y0118185D01*
X0057911Y0118237D01*
X0057944Y0118291D01*
X0057974Y0118347D01*
X0058001Y0118404D01*
X0058024Y0118463D01*
X0058043Y0118524D01*
X0058058Y0118585D01*
X0058070Y0118647D01*
X0058078Y0118710D01*
X0058082Y0118773D01*
X0058082Y0118837D01*
X0058078Y0118900D01*
X0058070Y0118963D01*
X0058058Y0119025D01*
X0058043Y0119086D01*
X0058024Y0119147D01*
X0058001Y0119206D01*
X0057974Y0119263D01*
X0057944Y0119319D01*
X0057911Y0119373D01*
X0057874Y0119425D01*
X0057835Y0119474D01*
X0057792Y0119521D01*
X0057747Y0119565D01*
X0057698Y0119606D01*
X0057648Y0119644D01*
X0057595Y0119679D01*
X0057540Y0119711D01*
X0057484Y0119739D01*
X0057425Y0119764D01*
X0057366Y0119785D01*
X0057305Y0119802D01*
X0057243Y0119815D01*
X0057180Y0119825D01*
X0057117Y0119831D01*
X0057054Y0119833D01*
X0057260Y0119832D02*
X0056438Y0119832D01*
X0057260Y0119833D02*
X0057316Y0119835D01*
X0057372Y0119841D01*
X0057427Y0119850D01*
X0057482Y0119863D01*
X0057535Y0119880D01*
X0057587Y0119901D01*
X0057638Y0119925D01*
X0057687Y0119953D01*
X0057734Y0119983D01*
X0057779Y0120017D01*
X0057821Y0120054D01*
X0057861Y0120094D01*
X0057898Y0120136D01*
X0057932Y0120181D01*
X0057962Y0120228D01*
X0057990Y0120277D01*
X0058014Y0120328D01*
X0058035Y0120380D01*
X0058052Y0120433D01*
X0058065Y0120488D01*
X0058074Y0120543D01*
X0058080Y0120599D01*
X0058082Y0120655D01*
X0058080Y0120711D01*
X0058074Y0120767D01*
X0058065Y0120822D01*
X0058052Y0120877D01*
X0058035Y0120930D01*
X0058014Y0120982D01*
X0057990Y0121033D01*
X0057962Y0121082D01*
X0057932Y0121129D01*
X0057898Y0121174D01*
X0057861Y0121216D01*
X0057821Y0121256D01*
X0057779Y0121293D01*
X0057734Y0121327D01*
X0057687Y0121357D01*
X0057638Y0121385D01*
X0057587Y0121409D01*
X0057535Y0121430D01*
X0057482Y0121447D01*
X0057427Y0121460D01*
X0057372Y0121469D01*
X0057316Y0121475D01*
X0057260Y0121477D01*
X0056027Y0121477D01*
X0054376Y0121477D02*
X0054376Y0118599D01*
X0054374Y0118543D01*
X0054368Y0118487D01*
X0054359Y0118432D01*
X0054346Y0118377D01*
X0054329Y0118324D01*
X0054308Y0118272D01*
X0054284Y0118221D01*
X0054256Y0118172D01*
X0054226Y0118125D01*
X0054192Y0118080D01*
X0054155Y0118038D01*
X0054115Y0117998D01*
X0054073Y0117961D01*
X0054028Y0117927D01*
X0053981Y0117897D01*
X0053932Y0117869D01*
X0053881Y0117845D01*
X0053829Y0117824D01*
X0053776Y0117807D01*
X0053721Y0117794D01*
X0053666Y0117785D01*
X0053610Y0117779D01*
X0053554Y0117777D01*
X0053143Y0117777D01*
X0067198Y0127631D02*
X0067198Y0131331D01*
X0067198Y0129687D02*
X0069254Y0129687D01*
X0069254Y0131331D02*
X0069254Y0127631D01*
X0071585Y0127631D02*
X0072510Y0127631D01*
X0072510Y0129481D01*
X0072510Y0129070D02*
X0071585Y0129070D01*
X0072510Y0129481D02*
X0072508Y0129529D01*
X0072502Y0129578D01*
X0072493Y0129625D01*
X0072480Y0129672D01*
X0072463Y0129717D01*
X0072443Y0129761D01*
X0072419Y0129803D01*
X0072392Y0129844D01*
X0072362Y0129882D01*
X0072329Y0129917D01*
X0072294Y0129950D01*
X0072256Y0129980D01*
X0072215Y0130007D01*
X0072173Y0130031D01*
X0072129Y0130051D01*
X0072084Y0130068D01*
X0072037Y0130081D01*
X0071990Y0130090D01*
X0071941Y0130096D01*
X0071893Y0130098D01*
X0071071Y0130098D01*
X0071585Y0129070D02*
X0071533Y0129068D01*
X0071480Y0129062D01*
X0071429Y0129053D01*
X0071378Y0129040D01*
X0071328Y0129023D01*
X0071280Y0129002D01*
X0071233Y0128978D01*
X0071188Y0128951D01*
X0071146Y0128920D01*
X0071105Y0128886D01*
X0071067Y0128850D01*
X0071032Y0128811D01*
X0071000Y0128769D01*
X0070971Y0128726D01*
X0070946Y0128680D01*
X0070923Y0128632D01*
X0070905Y0128583D01*
X0070889Y0128533D01*
X0070878Y0128482D01*
X0070870Y0128430D01*
X0070866Y0128377D01*
X0070866Y0128325D01*
X0070870Y0128272D01*
X0070878Y0128220D01*
X0070889Y0128169D01*
X0070905Y0128119D01*
X0070923Y0128070D01*
X0070946Y0128022D01*
X0070971Y0127976D01*
X0071000Y0127933D01*
X0071032Y0127891D01*
X0071067Y0127852D01*
X0071105Y0127816D01*
X0071146Y0127782D01*
X0071188Y0127751D01*
X0071233Y0127724D01*
X0071280Y0127700D01*
X0071328Y0127679D01*
X0071378Y0127662D01*
X0071429Y0127649D01*
X0071480Y0127640D01*
X0071533Y0127634D01*
X0071585Y0127632D01*
X0074173Y0128248D02*
X0074173Y0131331D01*
X0076093Y0131331D02*
X0076093Y0128248D01*
X0076095Y0128200D01*
X0076101Y0128151D01*
X0076110Y0128104D01*
X0076123Y0128057D01*
X0076140Y0128012D01*
X0076160Y0127968D01*
X0076184Y0127926D01*
X0076211Y0127885D01*
X0076241Y0127847D01*
X0076274Y0127812D01*
X0076309Y0127779D01*
X0076347Y0127749D01*
X0076388Y0127722D01*
X0076430Y0127698D01*
X0076474Y0127678D01*
X0076519Y0127661D01*
X0076566Y0127648D01*
X0076613Y0127639D01*
X0076662Y0127633D01*
X0076710Y0127631D01*
X0074790Y0127631D02*
X0074742Y0127633D01*
X0074693Y0127639D01*
X0074646Y0127648D01*
X0074599Y0127661D01*
X0074554Y0127678D01*
X0074510Y0127698D01*
X0074468Y0127722D01*
X0074427Y0127749D01*
X0074389Y0127779D01*
X0074354Y0127812D01*
X0074321Y0127847D01*
X0074291Y0127885D01*
X0074264Y0127926D01*
X0074240Y0127968D01*
X0074220Y0128012D01*
X0074203Y0128057D01*
X0074190Y0128104D01*
X0074181Y0128151D01*
X0074175Y0128200D01*
X0074173Y0128248D01*
X0080312Y0129789D02*
X0081442Y0129173D01*
X0081031Y0127631D02*
X0080950Y0127633D01*
X0080870Y0127638D01*
X0080790Y0127648D01*
X0080710Y0127661D01*
X0080631Y0127678D01*
X0080553Y0127698D01*
X0080476Y0127722D01*
X0080400Y0127750D01*
X0080326Y0127781D01*
X0080253Y0127815D01*
X0080182Y0127853D01*
X0080112Y0127894D01*
X0080045Y0127938D01*
X0079979Y0127985D01*
X0079916Y0128036D01*
X0079856Y0128089D01*
X0079798Y0128145D01*
X0081442Y0129172D02*
X0081488Y0129143D01*
X0081531Y0129111D01*
X0081573Y0129077D01*
X0081612Y0129039D01*
X0081649Y0129000D01*
X0081683Y0128958D01*
X0081715Y0128913D01*
X0081743Y0128867D01*
X0081768Y0128819D01*
X0081791Y0128770D01*
X0081809Y0128719D01*
X0081825Y0128667D01*
X0081837Y0128615D01*
X0081846Y0128561D01*
X0081851Y0128507D01*
X0081853Y0128453D01*
X0081851Y0128397D01*
X0081845Y0128341D01*
X0081836Y0128286D01*
X0081823Y0128231D01*
X0081806Y0128178D01*
X0081785Y0128126D01*
X0081761Y0128075D01*
X0081733Y0128026D01*
X0081703Y0127979D01*
X0081669Y0127934D01*
X0081632Y0127892D01*
X0081592Y0127852D01*
X0081550Y0127815D01*
X0081505Y0127781D01*
X0081458Y0127751D01*
X0081409Y0127723D01*
X0081358Y0127699D01*
X0081306Y0127678D01*
X0081253Y0127661D01*
X0081198Y0127648D01*
X0081143Y0127639D01*
X0081087Y0127633D01*
X0081031Y0127631D01*
X0081648Y0131023D02*
X0081586Y0131067D01*
X0081522Y0131108D01*
X0081456Y0131146D01*
X0081387Y0131180D01*
X0081318Y0131212D01*
X0081247Y0131239D01*
X0081174Y0131263D01*
X0081101Y0131284D01*
X0081026Y0131301D01*
X0080951Y0131314D01*
X0080875Y0131323D01*
X0080799Y0131329D01*
X0080723Y0131331D01*
X0080667Y0131329D01*
X0080611Y0131323D01*
X0080556Y0131314D01*
X0080501Y0131301D01*
X0080448Y0131284D01*
X0080396Y0131263D01*
X0080345Y0131239D01*
X0080296Y0131211D01*
X0080249Y0131181D01*
X0080204Y0131147D01*
X0080162Y0131110D01*
X0080122Y0131070D01*
X0080085Y0131028D01*
X0080051Y0130983D01*
X0080021Y0130936D01*
X0079993Y0130887D01*
X0079969Y0130836D01*
X0079948Y0130784D01*
X0079931Y0130731D01*
X0079918Y0130676D01*
X0079909Y0130621D01*
X0079903Y0130565D01*
X0079901Y0130509D01*
X0079903Y0130455D01*
X0079908Y0130401D01*
X0079917Y0130347D01*
X0079929Y0130295D01*
X0079945Y0130243D01*
X0079963Y0130192D01*
X0079986Y0130143D01*
X0080011Y0130095D01*
X0080039Y0130049D01*
X0080071Y0130004D01*
X0080105Y0129962D01*
X0080142Y0129923D01*
X0080181Y0129885D01*
X0080223Y0129851D01*
X0080266Y0129819D01*
X0080312Y0129790D01*
X0083243Y0129276D02*
X0083243Y0128248D01*
X0083243Y0128864D02*
X0084888Y0128864D01*
X0084888Y0129276D01*
X0084886Y0129332D01*
X0084880Y0129388D01*
X0084871Y0129443D01*
X0084858Y0129498D01*
X0084841Y0129551D01*
X0084820Y0129603D01*
X0084796Y0129654D01*
X0084768Y0129703D01*
X0084738Y0129750D01*
X0084704Y0129795D01*
X0084667Y0129837D01*
X0084627Y0129877D01*
X0084585Y0129914D01*
X0084540Y0129948D01*
X0084493Y0129978D01*
X0084444Y0130006D01*
X0084393Y0130030D01*
X0084341Y0130051D01*
X0084288Y0130068D01*
X0084233Y0130081D01*
X0084178Y0130090D01*
X0084122Y0130096D01*
X0084066Y0130098D01*
X0084010Y0130096D01*
X0083954Y0130090D01*
X0083899Y0130081D01*
X0083844Y0130068D01*
X0083791Y0130051D01*
X0083739Y0130030D01*
X0083688Y0130006D01*
X0083639Y0129978D01*
X0083592Y0129948D01*
X0083547Y0129914D01*
X0083505Y0129877D01*
X0083465Y0129837D01*
X0083428Y0129795D01*
X0083394Y0129750D01*
X0083364Y0129703D01*
X0083336Y0129654D01*
X0083312Y0129603D01*
X0083291Y0129551D01*
X0083274Y0129498D01*
X0083261Y0129443D01*
X0083252Y0129388D01*
X0083246Y0129332D01*
X0083244Y0129276D01*
X0083243Y0128248D02*
X0083245Y0128200D01*
X0083251Y0128151D01*
X0083260Y0128104D01*
X0083273Y0128057D01*
X0083290Y0128012D01*
X0083310Y0127968D01*
X0083334Y0127926D01*
X0083361Y0127885D01*
X0083391Y0127847D01*
X0083424Y0127812D01*
X0083459Y0127779D01*
X0083497Y0127749D01*
X0083538Y0127722D01*
X0083580Y0127698D01*
X0083624Y0127678D01*
X0083669Y0127661D01*
X0083716Y0127648D01*
X0083763Y0127639D01*
X0083812Y0127633D01*
X0083860Y0127631D01*
X0084888Y0127631D01*
X0086483Y0127631D02*
X0086483Y0130098D01*
X0087511Y0130098D01*
X0087559Y0130096D01*
X0087608Y0130090D01*
X0087655Y0130081D01*
X0087702Y0130068D01*
X0087747Y0130051D01*
X0087791Y0130031D01*
X0087833Y0130007D01*
X0087874Y0129980D01*
X0087912Y0129950D01*
X0087947Y0129917D01*
X0087980Y0129882D01*
X0088010Y0129844D01*
X0088037Y0129803D01*
X0088061Y0129761D01*
X0088081Y0129717D01*
X0088098Y0129672D01*
X0088111Y0129625D01*
X0088120Y0129578D01*
X0088126Y0129529D01*
X0088128Y0129481D01*
X0088128Y0127631D01*
X0090237Y0130098D02*
X0090333Y0130094D01*
X0090428Y0130087D01*
X0090523Y0130076D01*
X0090617Y0130061D01*
X0090710Y0130042D01*
X0090803Y0130020D01*
X0090895Y0129993D01*
X0090985Y0129963D01*
X0091074Y0129930D01*
X0091162Y0129892D01*
X0090238Y0130098D02*
X0090193Y0130097D01*
X0090148Y0130092D01*
X0090104Y0130083D01*
X0090061Y0130071D01*
X0090019Y0130055D01*
X0089979Y0130035D01*
X0089940Y0130012D01*
X0089904Y0129987D01*
X0089870Y0129958D01*
X0089838Y0129926D01*
X0089809Y0129892D01*
X0089783Y0129855D01*
X0089760Y0129817D01*
X0089741Y0129776D01*
X0089725Y0129734D01*
X0089712Y0129691D01*
X0089703Y0129647D01*
X0089698Y0129603D01*
X0089697Y0129558D01*
X0089700Y0129513D01*
X0089706Y0129469D01*
X0089716Y0129425D01*
X0089729Y0129383D01*
X0089746Y0129341D01*
X0089767Y0129301D01*
X0089791Y0129263D01*
X0089817Y0129228D01*
X0089847Y0129194D01*
X0089880Y0129163D01*
X0089915Y0129135D01*
X0089952Y0129110D01*
X0089991Y0129089D01*
X0090032Y0129070D01*
X0091060Y0128659D01*
X0091101Y0128640D01*
X0091140Y0128619D01*
X0091177Y0128594D01*
X0091212Y0128566D01*
X0091245Y0128535D01*
X0091275Y0128501D01*
X0091301Y0128466D01*
X0091325Y0128428D01*
X0091346Y0128388D01*
X0091363Y0128346D01*
X0091376Y0128304D01*
X0091386Y0128260D01*
X0091392Y0128216D01*
X0091395Y0128171D01*
X0091394Y0128126D01*
X0091389Y0128082D01*
X0091380Y0128038D01*
X0091367Y0127995D01*
X0091351Y0127953D01*
X0091332Y0127912D01*
X0091309Y0127874D01*
X0091283Y0127837D01*
X0091254Y0127803D01*
X0091222Y0127771D01*
X0091188Y0127742D01*
X0091152Y0127717D01*
X0091113Y0127694D01*
X0091073Y0127674D01*
X0091031Y0127658D01*
X0090988Y0127646D01*
X0090944Y0127637D01*
X0090899Y0127632D01*
X0090854Y0127631D01*
X0092843Y0128453D02*
X0092843Y0129276D01*
X0092844Y0129276D02*
X0092846Y0129332D01*
X0092852Y0129388D01*
X0092861Y0129443D01*
X0092874Y0129498D01*
X0092891Y0129551D01*
X0092912Y0129603D01*
X0092936Y0129654D01*
X0092964Y0129703D01*
X0092994Y0129750D01*
X0093028Y0129795D01*
X0093065Y0129837D01*
X0093105Y0129877D01*
X0093147Y0129914D01*
X0093192Y0129948D01*
X0093239Y0129978D01*
X0093288Y0130006D01*
X0093339Y0130030D01*
X0093391Y0130051D01*
X0093444Y0130068D01*
X0093499Y0130081D01*
X0093554Y0130090D01*
X0093610Y0130096D01*
X0093666Y0130098D01*
X0093722Y0130096D01*
X0093778Y0130090D01*
X0093833Y0130081D01*
X0093888Y0130068D01*
X0093941Y0130051D01*
X0093993Y0130030D01*
X0094044Y0130006D01*
X0094093Y0129978D01*
X0094140Y0129948D01*
X0094185Y0129914D01*
X0094227Y0129877D01*
X0094267Y0129837D01*
X0094304Y0129795D01*
X0094338Y0129750D01*
X0094368Y0129703D01*
X0094396Y0129654D01*
X0094420Y0129603D01*
X0094441Y0129551D01*
X0094458Y0129498D01*
X0094471Y0129443D01*
X0094480Y0129388D01*
X0094486Y0129332D01*
X0094488Y0129276D01*
X0094488Y0128453D01*
X0094486Y0128397D01*
X0094480Y0128341D01*
X0094471Y0128286D01*
X0094458Y0128231D01*
X0094441Y0128178D01*
X0094420Y0128126D01*
X0094396Y0128075D01*
X0094368Y0128026D01*
X0094338Y0127979D01*
X0094304Y0127934D01*
X0094267Y0127892D01*
X0094227Y0127852D01*
X0094185Y0127815D01*
X0094140Y0127781D01*
X0094093Y0127751D01*
X0094044Y0127723D01*
X0093993Y0127699D01*
X0093941Y0127678D01*
X0093888Y0127661D01*
X0093833Y0127648D01*
X0093778Y0127639D01*
X0093722Y0127633D01*
X0093666Y0127631D01*
X0093610Y0127633D01*
X0093554Y0127639D01*
X0093499Y0127648D01*
X0093444Y0127661D01*
X0093391Y0127678D01*
X0093339Y0127699D01*
X0093288Y0127723D01*
X0093239Y0127751D01*
X0093192Y0127781D01*
X0093147Y0127815D01*
X0093105Y0127852D01*
X0093065Y0127892D01*
X0093028Y0127934D01*
X0092994Y0127979D01*
X0092964Y0128026D01*
X0092936Y0128075D01*
X0092912Y0128126D01*
X0092891Y0128178D01*
X0092874Y0128231D01*
X0092861Y0128286D01*
X0092852Y0128341D01*
X0092846Y0128397D01*
X0092844Y0128453D01*
X0090854Y0127631D02*
X0090739Y0127635D01*
X0090624Y0127642D01*
X0090509Y0127653D01*
X0090394Y0127668D01*
X0090280Y0127687D01*
X0090167Y0127710D01*
X0090055Y0127736D01*
X0089943Y0127766D01*
X0089833Y0127800D01*
X0089724Y0127837D01*
X0096104Y0127631D02*
X0096104Y0130098D01*
X0097337Y0130098D01*
X0097337Y0129687D01*
X0098792Y0129070D02*
X0099819Y0128659D01*
X0099820Y0128659D02*
X0099861Y0128640D01*
X0099900Y0128619D01*
X0099937Y0128594D01*
X0099972Y0128566D01*
X0100005Y0128535D01*
X0100035Y0128501D01*
X0100061Y0128466D01*
X0100085Y0128428D01*
X0100106Y0128388D01*
X0100123Y0128346D01*
X0100136Y0128304D01*
X0100146Y0128260D01*
X0100152Y0128216D01*
X0100155Y0128171D01*
X0100154Y0128126D01*
X0100149Y0128082D01*
X0100140Y0128038D01*
X0100127Y0127995D01*
X0100111Y0127953D01*
X0100092Y0127912D01*
X0100069Y0127874D01*
X0100043Y0127837D01*
X0100014Y0127803D01*
X0099982Y0127771D01*
X0099948Y0127742D01*
X0099912Y0127717D01*
X0099873Y0127694D01*
X0099833Y0127674D01*
X0099791Y0127658D01*
X0099748Y0127646D01*
X0099704Y0127637D01*
X0099659Y0127632D01*
X0099614Y0127631D01*
X0099922Y0129892D02*
X0099834Y0129930D01*
X0099745Y0129963D01*
X0099655Y0129993D01*
X0099563Y0130020D01*
X0099470Y0130042D01*
X0099377Y0130061D01*
X0099283Y0130076D01*
X0099188Y0130087D01*
X0099093Y0130094D01*
X0098997Y0130098D01*
X0098998Y0130098D02*
X0098953Y0130097D01*
X0098908Y0130092D01*
X0098864Y0130083D01*
X0098821Y0130071D01*
X0098779Y0130055D01*
X0098739Y0130035D01*
X0098700Y0130012D01*
X0098664Y0129987D01*
X0098630Y0129958D01*
X0098598Y0129926D01*
X0098569Y0129892D01*
X0098543Y0129855D01*
X0098520Y0129817D01*
X0098501Y0129776D01*
X0098485Y0129734D01*
X0098472Y0129691D01*
X0098463Y0129647D01*
X0098458Y0129603D01*
X0098457Y0129558D01*
X0098460Y0129513D01*
X0098466Y0129469D01*
X0098476Y0129425D01*
X0098489Y0129383D01*
X0098506Y0129341D01*
X0098527Y0129301D01*
X0098551Y0129263D01*
X0098577Y0129228D01*
X0098607Y0129194D01*
X0098640Y0129163D01*
X0098675Y0129135D01*
X0098712Y0129110D01*
X0098751Y0129089D01*
X0098792Y0129070D01*
X0098484Y0127837D02*
X0098593Y0127800D01*
X0098703Y0127766D01*
X0098815Y0127736D01*
X0098927Y0127710D01*
X0099040Y0127687D01*
X0099154Y0127668D01*
X0099269Y0127653D01*
X0099384Y0127642D01*
X0099499Y0127635D01*
X0099614Y0127631D01*
X0030621Y0133733D02*
X0028566Y0133733D01*
X0030313Y0135789D01*
X0029696Y0137433D02*
X0029628Y0137431D01*
X0029560Y0137425D01*
X0029493Y0137416D01*
X0029427Y0137402D01*
X0029361Y0137385D01*
X0029296Y0137364D01*
X0029233Y0137339D01*
X0029171Y0137311D01*
X0029111Y0137279D01*
X0029053Y0137244D01*
X0028997Y0137206D01*
X0028944Y0137164D01*
X0028892Y0137120D01*
X0028844Y0137072D01*
X0028798Y0137022D01*
X0028755Y0136970D01*
X0028715Y0136915D01*
X0028678Y0136858D01*
X0028645Y0136799D01*
X0028615Y0136738D01*
X0028589Y0136675D01*
X0028566Y0136611D01*
X0030314Y0135788D02*
X0030357Y0135832D01*
X0030398Y0135879D01*
X0030435Y0135928D01*
X0030470Y0135979D01*
X0030501Y0136033D01*
X0030529Y0136088D01*
X0030553Y0136145D01*
X0030574Y0136203D01*
X0030591Y0136263D01*
X0030605Y0136323D01*
X0030614Y0136384D01*
X0030620Y0136446D01*
X0030622Y0136508D01*
X0030621Y0136508D02*
X0030619Y0136566D01*
X0030614Y0136624D01*
X0030605Y0136681D01*
X0030592Y0136738D01*
X0030576Y0136794D01*
X0030556Y0136849D01*
X0030533Y0136902D01*
X0030507Y0136954D01*
X0030477Y0137004D01*
X0030444Y0137052D01*
X0030409Y0137098D01*
X0030370Y0137141D01*
X0030329Y0137182D01*
X0030286Y0137221D01*
X0030240Y0137256D01*
X0030192Y0137289D01*
X0030142Y0137319D01*
X0030090Y0137345D01*
X0030037Y0137368D01*
X0029982Y0137388D01*
X0029926Y0137404D01*
X0029869Y0137417D01*
X0029812Y0137426D01*
X0029754Y0137431D01*
X0029696Y0137433D01*
X0026916Y0137433D02*
X0026916Y0134556D01*
X0026915Y0134556D02*
X0026913Y0134500D01*
X0026907Y0134444D01*
X0026898Y0134389D01*
X0026885Y0134334D01*
X0026868Y0134281D01*
X0026847Y0134229D01*
X0026823Y0134178D01*
X0026795Y0134129D01*
X0026765Y0134082D01*
X0026731Y0134037D01*
X0026694Y0133995D01*
X0026654Y0133955D01*
X0026612Y0133918D01*
X0026567Y0133884D01*
X0026520Y0133854D01*
X0026471Y0133826D01*
X0026420Y0133802D01*
X0026368Y0133781D01*
X0026315Y0133764D01*
X0026260Y0133751D01*
X0026205Y0133742D01*
X0026149Y0133736D01*
X0026093Y0133734D01*
X0026093Y0133733D02*
X0025682Y0133733D01*
X0006493Y0155391D02*
X0004438Y0155391D01*
X0004382Y0155393D01*
X0004326Y0155399D01*
X0004271Y0155408D01*
X0004216Y0155421D01*
X0004163Y0155438D01*
X0004111Y0155459D01*
X0004060Y0155483D01*
X0004011Y0155511D01*
X0003964Y0155541D01*
X0003919Y0155575D01*
X0003877Y0155612D01*
X0003837Y0155652D01*
X0003800Y0155694D01*
X0003766Y0155739D01*
X0003736Y0155786D01*
X0003708Y0155835D01*
X0003684Y0155885D01*
X0003663Y0155938D01*
X0003646Y0155991D01*
X0003633Y0156046D01*
X0003624Y0156101D01*
X0003618Y0156157D01*
X0003616Y0156213D01*
X0003615Y0156213D02*
X0003615Y0157446D01*
X0005260Y0157446D02*
X0007315Y0157446D01*
X0007315Y0156213D01*
X0007313Y0156157D01*
X0007307Y0156101D01*
X0007298Y0156046D01*
X0007285Y0155991D01*
X0007268Y0155938D01*
X0007247Y0155886D01*
X0007223Y0155835D01*
X0007195Y0155786D01*
X0007165Y0155739D01*
X0007131Y0155694D01*
X0007094Y0155652D01*
X0007054Y0155612D01*
X0007012Y0155575D01*
X0006967Y0155541D01*
X0006920Y0155511D01*
X0006871Y0155483D01*
X0006820Y0155459D01*
X0006768Y0155438D01*
X0006715Y0155421D01*
X0006660Y0155408D01*
X0006605Y0155399D01*
X0006549Y0155393D01*
X0006493Y0155391D01*
X0005260Y0156830D02*
X0005260Y0157446D01*
X0003615Y0159231D02*
X0007315Y0161286D01*
X0003615Y0161286D01*
X0003615Y0163071D02*
X0003615Y0164099D01*
X0003617Y0164161D01*
X0003622Y0164223D01*
X0003632Y0164284D01*
X0003645Y0164345D01*
X0003662Y0164405D01*
X0003682Y0164464D01*
X0003706Y0164521D01*
X0003733Y0164577D01*
X0003763Y0164631D01*
X0003797Y0164683D01*
X0003834Y0164733D01*
X0003874Y0164781D01*
X0003916Y0164826D01*
X0003961Y0164868D01*
X0004009Y0164908D01*
X0004059Y0164945D01*
X0004111Y0164979D01*
X0004165Y0165009D01*
X0004221Y0165036D01*
X0004278Y0165060D01*
X0004337Y0165080D01*
X0004397Y0165097D01*
X0004458Y0165110D01*
X0004519Y0165120D01*
X0004581Y0165125D01*
X0004643Y0165127D01*
X0004643Y0165126D02*
X0006288Y0165126D01*
X0006288Y0165127D02*
X0006350Y0165125D01*
X0006412Y0165120D01*
X0006473Y0165110D01*
X0006534Y0165097D01*
X0006594Y0165080D01*
X0006653Y0165060D01*
X0006710Y0165036D01*
X0006766Y0165009D01*
X0006820Y0164979D01*
X0006872Y0164945D01*
X0006922Y0164908D01*
X0006970Y0164868D01*
X0007015Y0164826D01*
X0007057Y0164781D01*
X0007097Y0164733D01*
X0007134Y0164683D01*
X0007168Y0164631D01*
X0007198Y0164577D01*
X0007225Y0164521D01*
X0007249Y0164464D01*
X0007269Y0164405D01*
X0007286Y0164345D01*
X0007299Y0164284D01*
X0007309Y0164223D01*
X0007314Y0164161D01*
X0007316Y0164099D01*
X0007315Y0164099D02*
X0007315Y0163071D01*
X0003615Y0163071D01*
X0003615Y0159231D02*
X0007315Y0159231D01*
X0006859Y0175072D02*
X0006859Y0177128D01*
X0006036Y0178672D02*
X0006036Y0180728D01*
X0005214Y0180111D02*
X0006859Y0180111D01*
X0006036Y0178672D02*
X0003159Y0179494D01*
X0003159Y0182066D02*
X0006859Y0183300D01*
X0003159Y0184533D01*
X0004803Y0176819D02*
X0006859Y0175072D01*
X0003981Y0175073D02*
X0003917Y0175096D01*
X0003854Y0175122D01*
X0003793Y0175152D01*
X0003734Y0175185D01*
X0003677Y0175222D01*
X0003622Y0175262D01*
X0003570Y0175305D01*
X0003520Y0175351D01*
X0003472Y0175399D01*
X0003428Y0175450D01*
X0003386Y0175504D01*
X0003348Y0175560D01*
X0003313Y0175618D01*
X0003281Y0175678D01*
X0003253Y0175740D01*
X0003228Y0175803D01*
X0003207Y0175868D01*
X0003190Y0175934D01*
X0003176Y0176000D01*
X0003167Y0176067D01*
X0003161Y0176135D01*
X0003159Y0176203D01*
X0003161Y0176261D01*
X0003166Y0176319D01*
X0003175Y0176376D01*
X0003188Y0176433D01*
X0003204Y0176489D01*
X0003224Y0176544D01*
X0003247Y0176597D01*
X0003273Y0176649D01*
X0003303Y0176699D01*
X0003336Y0176747D01*
X0003371Y0176793D01*
X0003410Y0176836D01*
X0003451Y0176877D01*
X0003494Y0176916D01*
X0003540Y0176951D01*
X0003588Y0176984D01*
X0003638Y0177014D01*
X0003690Y0177040D01*
X0003743Y0177063D01*
X0003798Y0177083D01*
X0003854Y0177099D01*
X0003911Y0177112D01*
X0003968Y0177121D01*
X0004026Y0177126D01*
X0004084Y0177128D01*
X0004146Y0177126D01*
X0004208Y0177120D01*
X0004269Y0177111D01*
X0004329Y0177097D01*
X0004389Y0177080D01*
X0004447Y0177059D01*
X0004504Y0177035D01*
X0004559Y0177007D01*
X0004613Y0176976D01*
X0004664Y0176941D01*
X0004713Y0176904D01*
X0004760Y0176863D01*
X0004804Y0176820D01*
X0022353Y0196978D02*
X0022764Y0196978D01*
X0022820Y0196980D01*
X0022876Y0196986D01*
X0022931Y0196995D01*
X0022986Y0197008D01*
X0023039Y0197025D01*
X0023091Y0197046D01*
X0023142Y0197070D01*
X0023191Y0197098D01*
X0023238Y0197128D01*
X0023283Y0197162D01*
X0023325Y0197199D01*
X0023365Y0197239D01*
X0023402Y0197281D01*
X0023436Y0197326D01*
X0023466Y0197373D01*
X0023494Y0197422D01*
X0023518Y0197473D01*
X0023539Y0197525D01*
X0023556Y0197578D01*
X0023569Y0197633D01*
X0023578Y0197688D01*
X0023584Y0197744D01*
X0023586Y0197800D01*
X0023586Y0200678D01*
X0025236Y0199855D02*
X0026264Y0200678D01*
X0026264Y0196978D01*
X0025236Y0196978D02*
X0027292Y0196978D01*
X0057474Y0225867D02*
X0057885Y0225867D01*
X0057885Y0225868D02*
X0057941Y0225870D01*
X0057997Y0225876D01*
X0058052Y0225885D01*
X0058107Y0225898D01*
X0058160Y0225915D01*
X0058212Y0225936D01*
X0058263Y0225960D01*
X0058312Y0225988D01*
X0058359Y0226018D01*
X0058404Y0226052D01*
X0058446Y0226089D01*
X0058486Y0226129D01*
X0058523Y0226171D01*
X0058557Y0226216D01*
X0058587Y0226263D01*
X0058615Y0226312D01*
X0058639Y0226363D01*
X0058660Y0226415D01*
X0058677Y0226468D01*
X0058690Y0226523D01*
X0058699Y0226578D01*
X0058705Y0226634D01*
X0058707Y0226690D01*
X0058707Y0229567D01*
X0061179Y0229567D02*
X0060357Y0226690D01*
X0062413Y0226690D01*
X0061796Y0227512D02*
X0061796Y0225867D01*
X0065757Y0205796D02*
X0066785Y0205796D01*
X0066785Y0205795D02*
X0066841Y0205793D01*
X0066897Y0205787D01*
X0066952Y0205778D01*
X0067007Y0205765D01*
X0067060Y0205748D01*
X0067112Y0205727D01*
X0067163Y0205703D01*
X0067212Y0205675D01*
X0067259Y0205645D01*
X0067304Y0205611D01*
X0067346Y0205574D01*
X0067386Y0205534D01*
X0067423Y0205492D01*
X0067457Y0205447D01*
X0067487Y0205400D01*
X0067515Y0205351D01*
X0067539Y0205300D01*
X0067560Y0205248D01*
X0067577Y0205195D01*
X0067590Y0205140D01*
X0067599Y0205085D01*
X0067605Y0205029D01*
X0067607Y0204973D01*
X0067605Y0204917D01*
X0067599Y0204861D01*
X0067590Y0204806D01*
X0067577Y0204751D01*
X0067560Y0204698D01*
X0067539Y0204646D01*
X0067515Y0204595D01*
X0067487Y0204546D01*
X0067457Y0204499D01*
X0067423Y0204454D01*
X0067386Y0204412D01*
X0067346Y0204372D01*
X0067304Y0204335D01*
X0067259Y0204301D01*
X0067212Y0204271D01*
X0067163Y0204243D01*
X0067112Y0204219D01*
X0067060Y0204198D01*
X0067007Y0204181D01*
X0066952Y0204168D01*
X0066897Y0204159D01*
X0066841Y0204153D01*
X0066785Y0204151D01*
X0065757Y0204151D01*
X0066785Y0204151D02*
X0066848Y0204149D01*
X0066911Y0204143D01*
X0066974Y0204133D01*
X0067036Y0204120D01*
X0067097Y0204103D01*
X0067156Y0204082D01*
X0067215Y0204057D01*
X0067271Y0204029D01*
X0067326Y0203997D01*
X0067379Y0203962D01*
X0067429Y0203924D01*
X0067478Y0203883D01*
X0067523Y0203839D01*
X0067566Y0203792D01*
X0067605Y0203743D01*
X0067642Y0203691D01*
X0067675Y0203637D01*
X0067705Y0203581D01*
X0067732Y0203524D01*
X0067755Y0203465D01*
X0067774Y0203404D01*
X0067789Y0203343D01*
X0067801Y0203281D01*
X0067809Y0203218D01*
X0067813Y0203155D01*
X0067813Y0203091D01*
X0067809Y0203028D01*
X0067801Y0202965D01*
X0067789Y0202903D01*
X0067774Y0202842D01*
X0067755Y0202781D01*
X0067732Y0202722D01*
X0067705Y0202665D01*
X0067675Y0202609D01*
X0067642Y0202555D01*
X0067605Y0202503D01*
X0067566Y0202454D01*
X0067523Y0202407D01*
X0067478Y0202363D01*
X0067429Y0202322D01*
X0067379Y0202284D01*
X0067326Y0202249D01*
X0067271Y0202217D01*
X0067215Y0202189D01*
X0067156Y0202164D01*
X0067097Y0202143D01*
X0067036Y0202126D01*
X0066974Y0202113D01*
X0066911Y0202103D01*
X0066848Y0202097D01*
X0066785Y0202095D01*
X0066785Y0202096D02*
X0065757Y0202096D01*
X0065757Y0205796D01*
X0069186Y0204768D02*
X0069186Y0203123D01*
X0069185Y0203123D02*
X0069187Y0203060D01*
X0069193Y0202997D01*
X0069203Y0202934D01*
X0069216Y0202872D01*
X0069233Y0202811D01*
X0069254Y0202752D01*
X0069279Y0202693D01*
X0069307Y0202637D01*
X0069339Y0202582D01*
X0069374Y0202529D01*
X0069412Y0202479D01*
X0069453Y0202430D01*
X0069497Y0202385D01*
X0069544Y0202342D01*
X0069593Y0202303D01*
X0069645Y0202266D01*
X0069699Y0202233D01*
X0069755Y0202203D01*
X0069812Y0202176D01*
X0069871Y0202153D01*
X0069932Y0202134D01*
X0069993Y0202119D01*
X0070055Y0202107D01*
X0070118Y0202099D01*
X0070181Y0202095D01*
X0070245Y0202095D01*
X0070308Y0202099D01*
X0070371Y0202107D01*
X0070433Y0202119D01*
X0070494Y0202134D01*
X0070555Y0202153D01*
X0070614Y0202176D01*
X0070671Y0202203D01*
X0070727Y0202233D01*
X0070781Y0202266D01*
X0070833Y0202303D01*
X0070882Y0202342D01*
X0070929Y0202385D01*
X0070973Y0202430D01*
X0071014Y0202479D01*
X0071052Y0202529D01*
X0071087Y0202582D01*
X0071119Y0202637D01*
X0071147Y0202693D01*
X0071172Y0202752D01*
X0071193Y0202811D01*
X0071210Y0202872D01*
X0071223Y0202934D01*
X0071233Y0202997D01*
X0071239Y0203060D01*
X0071241Y0203123D01*
X0071241Y0204768D01*
X0071239Y0204831D01*
X0071233Y0204894D01*
X0071223Y0204957D01*
X0071210Y0205019D01*
X0071193Y0205080D01*
X0071172Y0205139D01*
X0071147Y0205198D01*
X0071119Y0205254D01*
X0071087Y0205309D01*
X0071052Y0205362D01*
X0071014Y0205412D01*
X0070973Y0205461D01*
X0070929Y0205506D01*
X0070882Y0205549D01*
X0070833Y0205588D01*
X0070781Y0205625D01*
X0070727Y0205658D01*
X0070671Y0205688D01*
X0070614Y0205715D01*
X0070555Y0205738D01*
X0070494Y0205757D01*
X0070433Y0205772D01*
X0070371Y0205784D01*
X0070308Y0205792D01*
X0070245Y0205796D01*
X0070181Y0205796D01*
X0070118Y0205792D01*
X0070055Y0205784D01*
X0069993Y0205772D01*
X0069932Y0205757D01*
X0069871Y0205738D01*
X0069812Y0205715D01*
X0069755Y0205688D01*
X0069699Y0205658D01*
X0069645Y0205625D01*
X0069593Y0205588D01*
X0069544Y0205549D01*
X0069497Y0205506D01*
X0069453Y0205461D01*
X0069412Y0205412D01*
X0069374Y0205362D01*
X0069339Y0205309D01*
X0069307Y0205254D01*
X0069279Y0205198D01*
X0069254Y0205139D01*
X0069233Y0205080D01*
X0069216Y0205019D01*
X0069203Y0204957D01*
X0069193Y0204894D01*
X0069187Y0204831D01*
X0069185Y0204768D01*
X0073059Y0204254D02*
X0073573Y0203946D01*
X0074087Y0203637D01*
X0074396Y0205180D02*
X0074328Y0205219D01*
X0074258Y0205254D01*
X0074187Y0205286D01*
X0074114Y0205314D01*
X0074039Y0205339D01*
X0073964Y0205361D01*
X0073888Y0205378D01*
X0073811Y0205392D01*
X0073733Y0205403D01*
X0073655Y0205409D01*
X0073577Y0205412D01*
X0073499Y0205411D01*
X0073420Y0205406D01*
X0073343Y0205398D01*
X0073265Y0205385D01*
X0073573Y0205796D02*
X0073573Y0202096D01*
X0073881Y0202507D02*
X0073928Y0202517D01*
X0073974Y0202532D01*
X0074019Y0202549D01*
X0074062Y0202570D01*
X0074103Y0202594D01*
X0074142Y0202622D01*
X0074179Y0202652D01*
X0074214Y0202686D01*
X0074246Y0202721D01*
X0074275Y0202760D01*
X0074300Y0202800D01*
X0074323Y0202842D01*
X0074342Y0202886D01*
X0074358Y0202931D01*
X0074370Y0202978D01*
X0074379Y0203025D01*
X0074384Y0203073D01*
X0074385Y0203120D01*
X0074382Y0203168D01*
X0074376Y0203216D01*
X0074366Y0203263D01*
X0074352Y0203309D01*
X0074335Y0203353D01*
X0074315Y0203397D01*
X0074291Y0203438D01*
X0074263Y0203478D01*
X0074233Y0203515D01*
X0074200Y0203550D01*
X0074165Y0203582D01*
X0074127Y0203611D01*
X0074087Y0203637D01*
X0073882Y0202507D02*
X0073804Y0202494D01*
X0073727Y0202486D01*
X0073648Y0202481D01*
X0073570Y0202480D01*
X0073492Y0202483D01*
X0073414Y0202489D01*
X0073336Y0202500D01*
X0073259Y0202514D01*
X0073183Y0202531D01*
X0073108Y0202553D01*
X0073033Y0202578D01*
X0072960Y0202606D01*
X0072889Y0202638D01*
X0072819Y0202673D01*
X0072751Y0202712D01*
X0073059Y0204254D02*
X0073019Y0204281D01*
X0072981Y0204310D01*
X0072946Y0204342D01*
X0072913Y0204377D01*
X0072883Y0204414D01*
X0072855Y0204454D01*
X0072831Y0204495D01*
X0072811Y0204539D01*
X0072794Y0204583D01*
X0072780Y0204629D01*
X0072770Y0204676D01*
X0072764Y0204724D01*
X0072761Y0204772D01*
X0072762Y0204819D01*
X0072767Y0204867D01*
X0072776Y0204914D01*
X0072788Y0204961D01*
X0072804Y0205006D01*
X0072823Y0205050D01*
X0072846Y0205092D01*
X0072871Y0205132D01*
X0072900Y0205171D01*
X0072932Y0205206D01*
X0072967Y0205240D01*
X0073004Y0205270D01*
X0073043Y0205298D01*
X0073084Y0205322D01*
X0073127Y0205343D01*
X0073172Y0205360D01*
X0073218Y0205375D01*
X0073265Y0205385D01*
X0075905Y0204973D02*
X0076933Y0205796D01*
X0076933Y0202096D01*
X0075905Y0202096D02*
X0077961Y0202096D01*
X0135426Y0226261D02*
X0135837Y0226261D01*
X0135893Y0226263D01*
X0135949Y0226269D01*
X0136004Y0226278D01*
X0136059Y0226291D01*
X0136112Y0226308D01*
X0136164Y0226329D01*
X0136215Y0226353D01*
X0136264Y0226381D01*
X0136311Y0226411D01*
X0136356Y0226445D01*
X0136398Y0226482D01*
X0136438Y0226522D01*
X0136475Y0226564D01*
X0136509Y0226609D01*
X0136539Y0226656D01*
X0136567Y0226705D01*
X0136591Y0226756D01*
X0136612Y0226808D01*
X0136629Y0226861D01*
X0136642Y0226916D01*
X0136651Y0226971D01*
X0136657Y0227027D01*
X0136659Y0227083D01*
X0136660Y0227083D02*
X0136660Y0229961D01*
X0138310Y0229961D02*
X0138310Y0228317D01*
X0139543Y0228317D01*
X0139543Y0228316D02*
X0139599Y0228314D01*
X0139655Y0228308D01*
X0139710Y0228299D01*
X0139765Y0228286D01*
X0139818Y0228269D01*
X0139870Y0228248D01*
X0139921Y0228224D01*
X0139970Y0228196D01*
X0140017Y0228166D01*
X0140062Y0228132D01*
X0140104Y0228095D01*
X0140144Y0228055D01*
X0140181Y0228013D01*
X0140215Y0227968D01*
X0140245Y0227921D01*
X0140273Y0227872D01*
X0140297Y0227821D01*
X0140318Y0227769D01*
X0140335Y0227716D01*
X0140348Y0227661D01*
X0140357Y0227606D01*
X0140363Y0227550D01*
X0140365Y0227494D01*
X0140366Y0227494D02*
X0140366Y0227083D01*
X0140365Y0227083D02*
X0140363Y0227027D01*
X0140357Y0226971D01*
X0140348Y0226916D01*
X0140335Y0226861D01*
X0140318Y0226808D01*
X0140297Y0226756D01*
X0140273Y0226705D01*
X0140245Y0226656D01*
X0140215Y0226609D01*
X0140181Y0226564D01*
X0140144Y0226522D01*
X0140104Y0226482D01*
X0140062Y0226445D01*
X0140017Y0226411D01*
X0139970Y0226381D01*
X0139921Y0226353D01*
X0139870Y0226329D01*
X0139818Y0226308D01*
X0139765Y0226291D01*
X0139710Y0226278D01*
X0139655Y0226269D01*
X0139599Y0226263D01*
X0139543Y0226261D01*
X0138310Y0226261D01*
X0138310Y0229961D02*
X0140366Y0229961D01*
X0150403Y0206386D02*
X0151431Y0206386D01*
X0151487Y0206384D01*
X0151543Y0206378D01*
X0151598Y0206369D01*
X0151653Y0206356D01*
X0151706Y0206339D01*
X0151758Y0206318D01*
X0151809Y0206294D01*
X0151858Y0206266D01*
X0151905Y0206236D01*
X0151950Y0206202D01*
X0151992Y0206165D01*
X0152032Y0206125D01*
X0152069Y0206083D01*
X0152103Y0206038D01*
X0152133Y0205991D01*
X0152161Y0205942D01*
X0152185Y0205891D01*
X0152206Y0205839D01*
X0152223Y0205786D01*
X0152236Y0205731D01*
X0152245Y0205676D01*
X0152251Y0205620D01*
X0152253Y0205564D01*
X0152251Y0205508D01*
X0152245Y0205452D01*
X0152236Y0205397D01*
X0152223Y0205342D01*
X0152206Y0205289D01*
X0152185Y0205237D01*
X0152161Y0205186D01*
X0152133Y0205137D01*
X0152103Y0205090D01*
X0152069Y0205045D01*
X0152032Y0205003D01*
X0151992Y0204963D01*
X0151950Y0204926D01*
X0151905Y0204892D01*
X0151858Y0204862D01*
X0151809Y0204834D01*
X0151758Y0204810D01*
X0151706Y0204789D01*
X0151653Y0204772D01*
X0151598Y0204759D01*
X0151543Y0204750D01*
X0151487Y0204744D01*
X0151431Y0204742D01*
X0150403Y0204742D01*
X0151431Y0204742D02*
X0151494Y0204740D01*
X0151557Y0204734D01*
X0151620Y0204724D01*
X0151682Y0204711D01*
X0151743Y0204694D01*
X0151802Y0204673D01*
X0151861Y0204648D01*
X0151917Y0204620D01*
X0151972Y0204588D01*
X0152025Y0204553D01*
X0152075Y0204515D01*
X0152124Y0204474D01*
X0152169Y0204430D01*
X0152212Y0204383D01*
X0152251Y0204334D01*
X0152288Y0204282D01*
X0152321Y0204228D01*
X0152351Y0204172D01*
X0152378Y0204115D01*
X0152401Y0204056D01*
X0152420Y0203995D01*
X0152435Y0203934D01*
X0152447Y0203872D01*
X0152455Y0203809D01*
X0152459Y0203746D01*
X0152459Y0203682D01*
X0152455Y0203619D01*
X0152447Y0203556D01*
X0152435Y0203494D01*
X0152420Y0203433D01*
X0152401Y0203372D01*
X0152378Y0203313D01*
X0152351Y0203256D01*
X0152321Y0203200D01*
X0152288Y0203146D01*
X0152251Y0203094D01*
X0152212Y0203045D01*
X0152169Y0202998D01*
X0152124Y0202954D01*
X0152075Y0202913D01*
X0152025Y0202875D01*
X0151972Y0202840D01*
X0151917Y0202808D01*
X0151861Y0202780D01*
X0151802Y0202755D01*
X0151743Y0202734D01*
X0151682Y0202717D01*
X0151620Y0202704D01*
X0151557Y0202694D01*
X0151494Y0202688D01*
X0151431Y0202686D01*
X0150403Y0202686D01*
X0150403Y0206386D01*
X0153831Y0205358D02*
X0153831Y0203714D01*
X0153833Y0203651D01*
X0153839Y0203588D01*
X0153849Y0203525D01*
X0153862Y0203463D01*
X0153879Y0203402D01*
X0153900Y0203343D01*
X0153925Y0203284D01*
X0153953Y0203228D01*
X0153985Y0203173D01*
X0154020Y0203120D01*
X0154058Y0203070D01*
X0154099Y0203021D01*
X0154143Y0202976D01*
X0154190Y0202933D01*
X0154239Y0202894D01*
X0154291Y0202857D01*
X0154345Y0202824D01*
X0154401Y0202794D01*
X0154458Y0202767D01*
X0154517Y0202744D01*
X0154578Y0202725D01*
X0154639Y0202710D01*
X0154701Y0202698D01*
X0154764Y0202690D01*
X0154827Y0202686D01*
X0154891Y0202686D01*
X0154954Y0202690D01*
X0155017Y0202698D01*
X0155079Y0202710D01*
X0155140Y0202725D01*
X0155201Y0202744D01*
X0155260Y0202767D01*
X0155317Y0202794D01*
X0155373Y0202824D01*
X0155427Y0202857D01*
X0155479Y0202894D01*
X0155528Y0202933D01*
X0155575Y0202976D01*
X0155619Y0203021D01*
X0155660Y0203070D01*
X0155698Y0203120D01*
X0155733Y0203173D01*
X0155765Y0203228D01*
X0155793Y0203284D01*
X0155818Y0203343D01*
X0155839Y0203402D01*
X0155856Y0203463D01*
X0155869Y0203525D01*
X0155879Y0203588D01*
X0155885Y0203651D01*
X0155887Y0203714D01*
X0155887Y0205358D01*
X0155885Y0205421D01*
X0155879Y0205484D01*
X0155869Y0205547D01*
X0155856Y0205609D01*
X0155839Y0205670D01*
X0155818Y0205729D01*
X0155793Y0205788D01*
X0155765Y0205844D01*
X0155733Y0205899D01*
X0155698Y0205952D01*
X0155660Y0206002D01*
X0155619Y0206051D01*
X0155575Y0206096D01*
X0155528Y0206139D01*
X0155479Y0206178D01*
X0155427Y0206215D01*
X0155373Y0206248D01*
X0155317Y0206278D01*
X0155260Y0206305D01*
X0155201Y0206328D01*
X0155140Y0206347D01*
X0155079Y0206362D01*
X0155017Y0206374D01*
X0154954Y0206382D01*
X0154891Y0206386D01*
X0154827Y0206386D01*
X0154764Y0206382D01*
X0154701Y0206374D01*
X0154639Y0206362D01*
X0154578Y0206347D01*
X0154517Y0206328D01*
X0154458Y0206305D01*
X0154401Y0206278D01*
X0154345Y0206248D01*
X0154291Y0206215D01*
X0154239Y0206178D01*
X0154190Y0206139D01*
X0154143Y0206096D01*
X0154099Y0206051D01*
X0154058Y0206002D01*
X0154020Y0205952D01*
X0153985Y0205899D01*
X0153953Y0205844D01*
X0153925Y0205788D01*
X0153900Y0205729D01*
X0153879Y0205670D01*
X0153862Y0205609D01*
X0153849Y0205547D01*
X0153839Y0205484D01*
X0153833Y0205421D01*
X0153831Y0205358D01*
X0157705Y0204845D02*
X0158219Y0204536D01*
X0158733Y0204228D01*
X0159041Y0205770D02*
X0158973Y0205809D01*
X0158903Y0205844D01*
X0158832Y0205876D01*
X0158759Y0205904D01*
X0158684Y0205929D01*
X0158609Y0205951D01*
X0158533Y0205968D01*
X0158456Y0205982D01*
X0158378Y0205993D01*
X0158300Y0205999D01*
X0158222Y0206002D01*
X0158144Y0206001D01*
X0158065Y0205996D01*
X0157988Y0205988D01*
X0157910Y0205975D01*
X0158219Y0206386D02*
X0158219Y0202686D01*
X0158527Y0203097D02*
X0158574Y0203107D01*
X0158620Y0203122D01*
X0158665Y0203139D01*
X0158708Y0203160D01*
X0158749Y0203184D01*
X0158788Y0203212D01*
X0158825Y0203242D01*
X0158860Y0203276D01*
X0158892Y0203311D01*
X0158921Y0203350D01*
X0158946Y0203390D01*
X0158969Y0203432D01*
X0158988Y0203476D01*
X0159004Y0203521D01*
X0159016Y0203568D01*
X0159025Y0203615D01*
X0159030Y0203663D01*
X0159031Y0203710D01*
X0159028Y0203758D01*
X0159022Y0203806D01*
X0159012Y0203853D01*
X0158998Y0203899D01*
X0158981Y0203943D01*
X0158961Y0203987D01*
X0158937Y0204028D01*
X0158909Y0204068D01*
X0158879Y0204105D01*
X0158846Y0204140D01*
X0158811Y0204172D01*
X0158773Y0204201D01*
X0158733Y0204227D01*
X0158528Y0203097D02*
X0158450Y0203084D01*
X0158373Y0203076D01*
X0158294Y0203071D01*
X0158216Y0203070D01*
X0158138Y0203073D01*
X0158060Y0203079D01*
X0157982Y0203090D01*
X0157905Y0203104D01*
X0157829Y0203121D01*
X0157754Y0203143D01*
X0157679Y0203168D01*
X0157606Y0203196D01*
X0157535Y0203228D01*
X0157465Y0203263D01*
X0157397Y0203302D01*
X0157705Y0204844D02*
X0157665Y0204871D01*
X0157627Y0204900D01*
X0157592Y0204932D01*
X0157559Y0204967D01*
X0157529Y0205004D01*
X0157501Y0205044D01*
X0157477Y0205085D01*
X0157457Y0205129D01*
X0157440Y0205173D01*
X0157426Y0205219D01*
X0157416Y0205266D01*
X0157410Y0205314D01*
X0157407Y0205362D01*
X0157408Y0205409D01*
X0157413Y0205457D01*
X0157422Y0205504D01*
X0157434Y0205551D01*
X0157450Y0205596D01*
X0157469Y0205640D01*
X0157492Y0205682D01*
X0157517Y0205722D01*
X0157546Y0205761D01*
X0157578Y0205796D01*
X0157613Y0205830D01*
X0157650Y0205860D01*
X0157689Y0205888D01*
X0157730Y0205912D01*
X0157773Y0205933D01*
X0157818Y0205950D01*
X0157864Y0205965D01*
X0157911Y0205975D01*
X0162299Y0204741D02*
X0162342Y0204785D01*
X0162383Y0204832D01*
X0162420Y0204881D01*
X0162455Y0204932D01*
X0162486Y0204986D01*
X0162514Y0205041D01*
X0162538Y0205098D01*
X0162559Y0205156D01*
X0162576Y0205216D01*
X0162590Y0205276D01*
X0162599Y0205337D01*
X0162605Y0205399D01*
X0162607Y0205461D01*
X0162298Y0204742D02*
X0160551Y0202686D01*
X0162607Y0202686D01*
X0160552Y0205564D02*
X0160575Y0205628D01*
X0160601Y0205691D01*
X0160631Y0205752D01*
X0160664Y0205811D01*
X0160701Y0205868D01*
X0160741Y0205923D01*
X0160784Y0205975D01*
X0160830Y0206025D01*
X0160878Y0206073D01*
X0160930Y0206117D01*
X0160983Y0206159D01*
X0161039Y0206197D01*
X0161097Y0206232D01*
X0161157Y0206264D01*
X0161219Y0206292D01*
X0161282Y0206317D01*
X0161347Y0206338D01*
X0161413Y0206355D01*
X0161479Y0206369D01*
X0161546Y0206378D01*
X0161614Y0206384D01*
X0161682Y0206386D01*
X0161740Y0206384D01*
X0161798Y0206379D01*
X0161855Y0206370D01*
X0161912Y0206357D01*
X0161968Y0206341D01*
X0162023Y0206321D01*
X0162076Y0206298D01*
X0162128Y0206272D01*
X0162178Y0206242D01*
X0162226Y0206209D01*
X0162272Y0206174D01*
X0162315Y0206135D01*
X0162356Y0206094D01*
X0162395Y0206051D01*
X0162430Y0206005D01*
X0162463Y0205957D01*
X0162493Y0205907D01*
X0162519Y0205855D01*
X0162542Y0205802D01*
X0162562Y0205747D01*
X0162578Y0205691D01*
X0162591Y0205634D01*
X0162600Y0205577D01*
X0162605Y0205519D01*
X0162607Y0205461D01*
X0214560Y0226261D02*
X0214971Y0226261D01*
X0215027Y0226263D01*
X0215083Y0226269D01*
X0215138Y0226278D01*
X0215193Y0226291D01*
X0215246Y0226308D01*
X0215298Y0226329D01*
X0215349Y0226353D01*
X0215398Y0226381D01*
X0215445Y0226411D01*
X0215490Y0226445D01*
X0215532Y0226482D01*
X0215572Y0226522D01*
X0215609Y0226564D01*
X0215643Y0226609D01*
X0215673Y0226656D01*
X0215701Y0226705D01*
X0215725Y0226756D01*
X0215746Y0226808D01*
X0215763Y0226861D01*
X0215776Y0226916D01*
X0215785Y0226971D01*
X0215791Y0227027D01*
X0215793Y0227083D01*
X0215794Y0227083D02*
X0215794Y0229961D01*
X0217444Y0228317D02*
X0217444Y0227289D01*
X0217444Y0228317D02*
X0218677Y0228317D01*
X0217444Y0228317D02*
X0217446Y0228398D01*
X0217452Y0228478D01*
X0217462Y0228558D01*
X0217476Y0228638D01*
X0217493Y0228716D01*
X0217515Y0228794D01*
X0217540Y0228871D01*
X0217569Y0228946D01*
X0217602Y0229020D01*
X0217638Y0229092D01*
X0217678Y0229162D01*
X0217721Y0229230D01*
X0217768Y0229296D01*
X0217817Y0229360D01*
X0217870Y0229421D01*
X0217926Y0229479D01*
X0217984Y0229535D01*
X0218045Y0229588D01*
X0218109Y0229637D01*
X0218175Y0229684D01*
X0218243Y0229727D01*
X0218313Y0229767D01*
X0218385Y0229803D01*
X0218459Y0229836D01*
X0218534Y0229865D01*
X0218611Y0229890D01*
X0218689Y0229912D01*
X0218767Y0229929D01*
X0218847Y0229943D01*
X0218927Y0229953D01*
X0219007Y0229959D01*
X0219088Y0229961D01*
X0218677Y0228316D02*
X0218733Y0228314D01*
X0218789Y0228308D01*
X0218844Y0228299D01*
X0218899Y0228286D01*
X0218952Y0228269D01*
X0219004Y0228248D01*
X0219055Y0228224D01*
X0219104Y0228196D01*
X0219151Y0228166D01*
X0219196Y0228132D01*
X0219238Y0228095D01*
X0219278Y0228055D01*
X0219315Y0228013D01*
X0219349Y0227968D01*
X0219379Y0227921D01*
X0219407Y0227872D01*
X0219431Y0227821D01*
X0219452Y0227769D01*
X0219469Y0227716D01*
X0219482Y0227661D01*
X0219491Y0227606D01*
X0219497Y0227550D01*
X0219499Y0227494D01*
X0219499Y0227289D01*
X0219500Y0227289D02*
X0219498Y0227226D01*
X0219492Y0227163D01*
X0219482Y0227100D01*
X0219469Y0227038D01*
X0219452Y0226977D01*
X0219431Y0226918D01*
X0219406Y0226859D01*
X0219378Y0226803D01*
X0219346Y0226748D01*
X0219311Y0226695D01*
X0219273Y0226645D01*
X0219232Y0226596D01*
X0219188Y0226551D01*
X0219141Y0226508D01*
X0219092Y0226469D01*
X0219040Y0226432D01*
X0218986Y0226399D01*
X0218930Y0226369D01*
X0218873Y0226342D01*
X0218814Y0226319D01*
X0218753Y0226300D01*
X0218692Y0226285D01*
X0218630Y0226273D01*
X0218567Y0226265D01*
X0218504Y0226261D01*
X0218440Y0226261D01*
X0218377Y0226265D01*
X0218314Y0226273D01*
X0218252Y0226285D01*
X0218191Y0226300D01*
X0218130Y0226319D01*
X0218071Y0226342D01*
X0218014Y0226369D01*
X0217958Y0226399D01*
X0217904Y0226432D01*
X0217852Y0226469D01*
X0217803Y0226508D01*
X0217756Y0226551D01*
X0217712Y0226596D01*
X0217671Y0226645D01*
X0217633Y0226695D01*
X0217598Y0226748D01*
X0217566Y0226803D01*
X0217538Y0226859D01*
X0217513Y0226918D01*
X0217492Y0226977D01*
X0217475Y0227038D01*
X0217462Y0227100D01*
X0217452Y0227163D01*
X0217446Y0227226D01*
X0217444Y0227289D01*
D11*
X0214423Y0212755D02*
X0214425Y0212692D01*
X0214431Y0212629D01*
X0214440Y0212566D01*
X0214454Y0212504D01*
X0214471Y0212443D01*
X0214492Y0212383D01*
X0214516Y0212325D01*
X0214544Y0212268D01*
X0214576Y0212213D01*
X0214611Y0212160D01*
X0214649Y0212109D01*
X0214690Y0212061D01*
X0214733Y0212015D01*
X0214780Y0211972D01*
X0214829Y0211932D01*
X0214880Y0211895D01*
X0214934Y0211861D01*
X0214934Y0211860D02*
X0216340Y0211094D01*
X0215829Y0209178D02*
X0215739Y0209180D01*
X0215650Y0209185D01*
X0215561Y0209195D01*
X0215472Y0209208D01*
X0215384Y0209224D01*
X0215296Y0209245D01*
X0215210Y0209269D01*
X0215124Y0209296D01*
X0215040Y0209327D01*
X0214957Y0209362D01*
X0214876Y0209400D01*
X0214796Y0209441D01*
X0214719Y0209485D01*
X0214643Y0209533D01*
X0214569Y0209584D01*
X0214497Y0209638D01*
X0214428Y0209695D01*
X0214360Y0209754D01*
X0214296Y0209817D01*
X0216340Y0211093D02*
X0216394Y0211059D01*
X0216445Y0211022D01*
X0216494Y0210982D01*
X0216541Y0210939D01*
X0216584Y0210893D01*
X0216625Y0210845D01*
X0216663Y0210794D01*
X0216698Y0210741D01*
X0216730Y0210686D01*
X0216758Y0210629D01*
X0216782Y0210571D01*
X0216803Y0210511D01*
X0216820Y0210450D01*
X0216834Y0210388D01*
X0216843Y0210325D01*
X0216849Y0210262D01*
X0216851Y0210199D01*
X0216849Y0210137D01*
X0216844Y0210076D01*
X0216834Y0210015D01*
X0216821Y0209954D01*
X0216805Y0209895D01*
X0216785Y0209837D01*
X0216761Y0209780D01*
X0216734Y0209724D01*
X0216704Y0209670D01*
X0216670Y0209618D01*
X0216634Y0209569D01*
X0216594Y0209521D01*
X0216552Y0209476D01*
X0216507Y0209434D01*
X0216459Y0209394D01*
X0216410Y0209358D01*
X0216358Y0209324D01*
X0216304Y0209294D01*
X0216248Y0209267D01*
X0216191Y0209243D01*
X0216133Y0209223D01*
X0216074Y0209207D01*
X0216013Y0209194D01*
X0215952Y0209184D01*
X0215891Y0209179D01*
X0215829Y0209177D01*
X0216595Y0213394D02*
X0216528Y0213442D01*
X0216460Y0213487D01*
X0216389Y0213529D01*
X0216316Y0213567D01*
X0216242Y0213603D01*
X0216167Y0213636D01*
X0216090Y0213665D01*
X0216012Y0213691D01*
X0215933Y0213714D01*
X0215853Y0213733D01*
X0215772Y0213749D01*
X0215691Y0213761D01*
X0215609Y0213770D01*
X0215527Y0213775D01*
X0215445Y0213777D01*
X0215383Y0213775D01*
X0215322Y0213770D01*
X0215261Y0213760D01*
X0215200Y0213747D01*
X0215141Y0213731D01*
X0215083Y0213711D01*
X0215026Y0213687D01*
X0214970Y0213660D01*
X0214916Y0213630D01*
X0214864Y0213596D01*
X0214815Y0213560D01*
X0214767Y0213520D01*
X0214722Y0213478D01*
X0214680Y0213433D01*
X0214641Y0213385D01*
X0214604Y0213336D01*
X0214570Y0213284D01*
X0214540Y0213230D01*
X0214513Y0213174D01*
X0214489Y0213117D01*
X0214469Y0213059D01*
X0214453Y0213000D01*
X0214440Y0212939D01*
X0214430Y0212878D01*
X0214425Y0212817D01*
X0214423Y0212755D01*
X0218645Y0209177D02*
X0221201Y0209177D01*
X0218645Y0209177D02*
X0220817Y0211733D01*
X0220051Y0213777D02*
X0219977Y0213775D01*
X0219903Y0213770D01*
X0219829Y0213760D01*
X0219756Y0213747D01*
X0219683Y0213731D01*
X0219612Y0213710D01*
X0219542Y0213686D01*
X0219473Y0213659D01*
X0219405Y0213628D01*
X0219339Y0213594D01*
X0219275Y0213557D01*
X0219213Y0213516D01*
X0219153Y0213472D01*
X0219095Y0213426D01*
X0219039Y0213376D01*
X0218986Y0213324D01*
X0218936Y0213269D01*
X0218889Y0213212D01*
X0218845Y0213152D01*
X0218803Y0213090D01*
X0218765Y0213027D01*
X0218730Y0212961D01*
X0218699Y0212894D01*
X0218671Y0212825D01*
X0218646Y0212755D01*
X0220818Y0211733D02*
X0220865Y0211780D01*
X0220909Y0211830D01*
X0220951Y0211882D01*
X0220990Y0211936D01*
X0221025Y0211992D01*
X0221058Y0212050D01*
X0221088Y0212110D01*
X0221114Y0212171D01*
X0221137Y0212234D01*
X0221156Y0212298D01*
X0221172Y0212362D01*
X0221185Y0212428D01*
X0221194Y0212494D01*
X0221199Y0212560D01*
X0221201Y0212627D01*
X0221199Y0212694D01*
X0221193Y0212761D01*
X0221184Y0212827D01*
X0221170Y0212892D01*
X0221153Y0212957D01*
X0221132Y0213020D01*
X0221107Y0213082D01*
X0221079Y0213143D01*
X0221047Y0213202D01*
X0221012Y0213259D01*
X0220973Y0213314D01*
X0220932Y0213366D01*
X0220887Y0213416D01*
X0220840Y0213463D01*
X0220790Y0213508D01*
X0220738Y0213549D01*
X0220683Y0213588D01*
X0220626Y0213623D01*
X0220567Y0213655D01*
X0220506Y0213683D01*
X0220444Y0213708D01*
X0220381Y0213729D01*
X0220316Y0213746D01*
X0220251Y0213760D01*
X0220185Y0213769D01*
X0220118Y0213775D01*
X0220051Y0213777D01*
X0142854Y0208783D02*
X0140299Y0208783D01*
X0141577Y0208783D02*
X0141577Y0213383D01*
X0140299Y0212361D01*
X0137993Y0210700D02*
X0136588Y0211467D01*
X0137099Y0213384D02*
X0137181Y0213382D01*
X0137263Y0213377D01*
X0137345Y0213368D01*
X0137426Y0213356D01*
X0137507Y0213340D01*
X0137587Y0213321D01*
X0137666Y0213298D01*
X0137744Y0213272D01*
X0137821Y0213243D01*
X0137896Y0213210D01*
X0137970Y0213174D01*
X0138043Y0213136D01*
X0138114Y0213094D01*
X0138182Y0213049D01*
X0138249Y0213001D01*
X0136588Y0211467D02*
X0136534Y0211501D01*
X0136483Y0211538D01*
X0136434Y0211578D01*
X0136387Y0211621D01*
X0136344Y0211667D01*
X0136303Y0211715D01*
X0136265Y0211766D01*
X0136230Y0211819D01*
X0136198Y0211874D01*
X0136170Y0211931D01*
X0136146Y0211989D01*
X0136125Y0212049D01*
X0136108Y0212110D01*
X0136094Y0212172D01*
X0136085Y0212235D01*
X0136079Y0212298D01*
X0136077Y0212361D01*
X0136079Y0212423D01*
X0136084Y0212484D01*
X0136094Y0212545D01*
X0136107Y0212606D01*
X0136123Y0212665D01*
X0136143Y0212723D01*
X0136167Y0212780D01*
X0136194Y0212836D01*
X0136224Y0212890D01*
X0136258Y0212942D01*
X0136295Y0212991D01*
X0136334Y0213039D01*
X0136376Y0213084D01*
X0136421Y0213126D01*
X0136469Y0213166D01*
X0136518Y0213202D01*
X0136570Y0213236D01*
X0136624Y0213266D01*
X0136680Y0213293D01*
X0136737Y0213317D01*
X0136795Y0213337D01*
X0136854Y0213353D01*
X0136915Y0213366D01*
X0136976Y0213376D01*
X0137037Y0213381D01*
X0137099Y0213383D01*
X0135949Y0209423D02*
X0136013Y0209360D01*
X0136081Y0209301D01*
X0136150Y0209244D01*
X0136222Y0209190D01*
X0136296Y0209139D01*
X0136372Y0209091D01*
X0136449Y0209047D01*
X0136529Y0209006D01*
X0136610Y0208968D01*
X0136693Y0208933D01*
X0136777Y0208902D01*
X0136863Y0208875D01*
X0136949Y0208851D01*
X0137037Y0208830D01*
X0137125Y0208814D01*
X0137214Y0208801D01*
X0137303Y0208791D01*
X0137392Y0208786D01*
X0137482Y0208784D01*
X0137544Y0208786D01*
X0137605Y0208791D01*
X0137666Y0208801D01*
X0137727Y0208814D01*
X0137786Y0208830D01*
X0137844Y0208850D01*
X0137901Y0208874D01*
X0137957Y0208901D01*
X0138011Y0208931D01*
X0138063Y0208965D01*
X0138112Y0209001D01*
X0138160Y0209041D01*
X0138205Y0209083D01*
X0138247Y0209128D01*
X0138287Y0209176D01*
X0138323Y0209225D01*
X0138357Y0209277D01*
X0138387Y0209331D01*
X0138414Y0209387D01*
X0138438Y0209444D01*
X0138458Y0209502D01*
X0138474Y0209561D01*
X0138487Y0209622D01*
X0138497Y0209683D01*
X0138502Y0209744D01*
X0138504Y0209806D01*
X0138502Y0209869D01*
X0138496Y0209932D01*
X0138487Y0209995D01*
X0138473Y0210057D01*
X0138456Y0210118D01*
X0138435Y0210178D01*
X0138411Y0210236D01*
X0138383Y0210293D01*
X0138351Y0210348D01*
X0138316Y0210401D01*
X0138278Y0210452D01*
X0138237Y0210500D01*
X0138194Y0210546D01*
X0138147Y0210589D01*
X0138098Y0210629D01*
X0138047Y0210666D01*
X0137993Y0210700D01*
X0061548Y0209422D02*
X0061500Y0209526D01*
X0061454Y0209631D01*
X0061412Y0209737D01*
X0061373Y0209845D01*
X0061337Y0209954D01*
X0061305Y0210064D01*
X0061275Y0210175D01*
X0061250Y0210287D01*
X0061227Y0210399D01*
X0061208Y0210512D01*
X0061193Y0210626D01*
X0061181Y0210740D01*
X0061172Y0210854D01*
X0061167Y0210968D01*
X0061165Y0211083D01*
X0063721Y0211083D02*
X0063719Y0211198D01*
X0063714Y0211312D01*
X0063705Y0211426D01*
X0063693Y0211540D01*
X0063678Y0211654D01*
X0063659Y0211767D01*
X0063636Y0211879D01*
X0063611Y0211991D01*
X0063581Y0212102D01*
X0063549Y0212212D01*
X0063513Y0212321D01*
X0063474Y0212429D01*
X0063432Y0212535D01*
X0063386Y0212640D01*
X0063338Y0212744D01*
X0063465Y0212361D02*
X0061420Y0209806D01*
X0062443Y0208783D02*
X0062502Y0208785D01*
X0062560Y0208790D01*
X0062618Y0208799D01*
X0062675Y0208812D01*
X0062732Y0208828D01*
X0062787Y0208848D01*
X0062841Y0208871D01*
X0062893Y0208897D01*
X0062944Y0208927D01*
X0062993Y0208959D01*
X0063040Y0208995D01*
X0063084Y0209033D01*
X0063126Y0209074D01*
X0063165Y0209118D01*
X0063202Y0209164D01*
X0063235Y0209212D01*
X0063266Y0209262D01*
X0063293Y0209314D01*
X0063317Y0209367D01*
X0063338Y0209422D01*
X0062443Y0208783D02*
X0062384Y0208785D01*
X0062326Y0208790D01*
X0062268Y0208799D01*
X0062211Y0208812D01*
X0062154Y0208828D01*
X0062099Y0208848D01*
X0062045Y0208871D01*
X0061993Y0208897D01*
X0061942Y0208927D01*
X0061893Y0208959D01*
X0061846Y0208995D01*
X0061802Y0209033D01*
X0061760Y0209074D01*
X0061721Y0209118D01*
X0061684Y0209164D01*
X0061651Y0209212D01*
X0061620Y0209262D01*
X0061593Y0209314D01*
X0061569Y0209367D01*
X0061548Y0209422D01*
X0063338Y0209422D02*
X0063386Y0209526D01*
X0063432Y0209631D01*
X0063474Y0209737D01*
X0063513Y0209845D01*
X0063549Y0209954D01*
X0063581Y0210064D01*
X0063611Y0210175D01*
X0063636Y0210287D01*
X0063659Y0210399D01*
X0063678Y0210512D01*
X0063693Y0210626D01*
X0063705Y0210740D01*
X0063714Y0210854D01*
X0063719Y0210968D01*
X0063721Y0211083D01*
X0061165Y0211083D02*
X0061167Y0211198D01*
X0061172Y0211312D01*
X0061181Y0211426D01*
X0061193Y0211540D01*
X0061208Y0211654D01*
X0061227Y0211767D01*
X0061250Y0211879D01*
X0061275Y0211991D01*
X0061305Y0212102D01*
X0061337Y0212212D01*
X0061373Y0212321D01*
X0061412Y0212429D01*
X0061454Y0212535D01*
X0061500Y0212640D01*
X0061548Y0212744D01*
X0062443Y0213384D02*
X0062502Y0213382D01*
X0062560Y0213377D01*
X0062618Y0213368D01*
X0062675Y0213355D01*
X0062732Y0213339D01*
X0062787Y0213319D01*
X0062841Y0213296D01*
X0062893Y0213270D01*
X0062944Y0213240D01*
X0062993Y0213208D01*
X0063040Y0213172D01*
X0063084Y0213134D01*
X0063126Y0213093D01*
X0063165Y0213049D01*
X0063202Y0213003D01*
X0063235Y0212955D01*
X0063266Y0212905D01*
X0063293Y0212853D01*
X0063317Y0212800D01*
X0063338Y0212745D01*
X0062443Y0213384D02*
X0062384Y0213382D01*
X0062326Y0213377D01*
X0062268Y0213368D01*
X0062211Y0213355D01*
X0062154Y0213339D01*
X0062099Y0213319D01*
X0062045Y0213296D01*
X0061993Y0213270D01*
X0061942Y0213240D01*
X0061893Y0213208D01*
X0061846Y0213172D01*
X0061802Y0213134D01*
X0061760Y0213093D01*
X0061721Y0213049D01*
X0061684Y0213003D01*
X0061651Y0212955D01*
X0061620Y0212905D01*
X0061593Y0212853D01*
X0061569Y0212800D01*
X0061548Y0212745D01*
X0058859Y0210700D02*
X0057454Y0211467D01*
X0057965Y0213384D02*
X0058047Y0213382D01*
X0058129Y0213377D01*
X0058211Y0213368D01*
X0058292Y0213356D01*
X0058373Y0213340D01*
X0058453Y0213321D01*
X0058532Y0213298D01*
X0058610Y0213272D01*
X0058687Y0213243D01*
X0058762Y0213210D01*
X0058836Y0213174D01*
X0058909Y0213136D01*
X0058980Y0213094D01*
X0059048Y0213049D01*
X0059115Y0213001D01*
X0057454Y0211467D02*
X0057400Y0211501D01*
X0057349Y0211538D01*
X0057300Y0211578D01*
X0057253Y0211621D01*
X0057210Y0211667D01*
X0057169Y0211715D01*
X0057131Y0211766D01*
X0057096Y0211819D01*
X0057064Y0211874D01*
X0057036Y0211931D01*
X0057012Y0211989D01*
X0056991Y0212049D01*
X0056974Y0212110D01*
X0056960Y0212172D01*
X0056951Y0212235D01*
X0056945Y0212298D01*
X0056943Y0212361D01*
X0056945Y0212423D01*
X0056950Y0212484D01*
X0056960Y0212545D01*
X0056973Y0212606D01*
X0056989Y0212665D01*
X0057009Y0212723D01*
X0057033Y0212780D01*
X0057060Y0212836D01*
X0057090Y0212890D01*
X0057124Y0212942D01*
X0057161Y0212991D01*
X0057200Y0213039D01*
X0057242Y0213084D01*
X0057287Y0213126D01*
X0057335Y0213166D01*
X0057384Y0213202D01*
X0057436Y0213236D01*
X0057490Y0213266D01*
X0057546Y0213293D01*
X0057603Y0213317D01*
X0057661Y0213337D01*
X0057720Y0213353D01*
X0057781Y0213366D01*
X0057842Y0213376D01*
X0057903Y0213381D01*
X0057965Y0213383D01*
X0056815Y0209423D02*
X0056879Y0209360D01*
X0056947Y0209301D01*
X0057016Y0209244D01*
X0057088Y0209190D01*
X0057162Y0209139D01*
X0057238Y0209091D01*
X0057315Y0209047D01*
X0057395Y0209006D01*
X0057476Y0208968D01*
X0057559Y0208933D01*
X0057643Y0208902D01*
X0057729Y0208875D01*
X0057815Y0208851D01*
X0057903Y0208830D01*
X0057991Y0208814D01*
X0058080Y0208801D01*
X0058169Y0208791D01*
X0058258Y0208786D01*
X0058348Y0208784D01*
X0058410Y0208786D01*
X0058471Y0208791D01*
X0058532Y0208801D01*
X0058593Y0208814D01*
X0058652Y0208830D01*
X0058710Y0208850D01*
X0058767Y0208874D01*
X0058823Y0208901D01*
X0058877Y0208931D01*
X0058929Y0208965D01*
X0058978Y0209001D01*
X0059026Y0209041D01*
X0059071Y0209083D01*
X0059113Y0209128D01*
X0059153Y0209176D01*
X0059189Y0209225D01*
X0059223Y0209277D01*
X0059253Y0209331D01*
X0059280Y0209387D01*
X0059304Y0209444D01*
X0059324Y0209502D01*
X0059340Y0209561D01*
X0059353Y0209622D01*
X0059363Y0209683D01*
X0059368Y0209744D01*
X0059370Y0209806D01*
X0059368Y0209869D01*
X0059362Y0209932D01*
X0059353Y0209995D01*
X0059339Y0210057D01*
X0059322Y0210118D01*
X0059301Y0210178D01*
X0059277Y0210236D01*
X0059249Y0210293D01*
X0059217Y0210348D01*
X0059182Y0210401D01*
X0059144Y0210452D01*
X0059103Y0210500D01*
X0059060Y0210546D01*
X0059013Y0210589D01*
X0058964Y0210629D01*
X0058913Y0210666D01*
X0058859Y0210700D01*
X0058899Y0021474D02*
X0056854Y0021474D01*
X0056854Y0016874D01*
X0058899Y0016874D01*
X0060754Y0016874D02*
X0060754Y0021474D01*
X0062799Y0021474D01*
X0062799Y0019430D02*
X0060754Y0019430D01*
X0058387Y0019430D02*
X0056854Y0019430D01*
X0054999Y0016874D02*
X0052954Y0016874D01*
X0052954Y0021474D01*
X0051077Y0021474D02*
X0050054Y0021474D01*
X0049992Y0021472D01*
X0049931Y0021467D01*
X0049870Y0021457D01*
X0049809Y0021444D01*
X0049750Y0021428D01*
X0049692Y0021408D01*
X0049635Y0021384D01*
X0049579Y0021357D01*
X0049525Y0021327D01*
X0049473Y0021293D01*
X0049424Y0021256D01*
X0049376Y0021217D01*
X0049331Y0021175D01*
X0049289Y0021130D01*
X0049249Y0021082D01*
X0049213Y0021033D01*
X0049179Y0020981D01*
X0049149Y0020927D01*
X0049122Y0020871D01*
X0049098Y0020814D01*
X0049078Y0020756D01*
X0049062Y0020697D01*
X0049049Y0020636D01*
X0049039Y0020575D01*
X0049034Y0020514D01*
X0049032Y0020452D01*
X0049032Y0017896D01*
X0049034Y0017834D01*
X0049039Y0017773D01*
X0049049Y0017712D01*
X0049062Y0017651D01*
X0049078Y0017592D01*
X0049098Y0017534D01*
X0049122Y0017477D01*
X0049149Y0017421D01*
X0049179Y0017367D01*
X0049213Y0017315D01*
X0049249Y0017266D01*
X0049289Y0017218D01*
X0049331Y0017173D01*
X0049376Y0017131D01*
X0049424Y0017091D01*
X0049473Y0017055D01*
X0049525Y0017021D01*
X0049579Y0016991D01*
X0049635Y0016964D01*
X0049692Y0016940D01*
X0049750Y0016920D01*
X0049809Y0016904D01*
X0049870Y0016891D01*
X0049931Y0016881D01*
X0049992Y0016876D01*
X0050054Y0016874D01*
X0051077Y0016874D01*
X0047056Y0018663D02*
X0043990Y0018663D01*
X0041851Y0019430D02*
X0041851Y0016874D01*
X0040317Y0016874D01*
X0040255Y0016876D01*
X0040194Y0016881D01*
X0040133Y0016891D01*
X0040072Y0016904D01*
X0040013Y0016920D01*
X0039955Y0016940D01*
X0039898Y0016964D01*
X0039842Y0016991D01*
X0039788Y0017021D01*
X0039736Y0017055D01*
X0039687Y0017091D01*
X0039639Y0017131D01*
X0039594Y0017173D01*
X0039552Y0017218D01*
X0039512Y0017266D01*
X0039476Y0017315D01*
X0039442Y0017367D01*
X0039412Y0017421D01*
X0039385Y0017477D01*
X0039361Y0017534D01*
X0039341Y0017592D01*
X0039325Y0017651D01*
X0039312Y0017712D01*
X0039302Y0017773D01*
X0039297Y0017834D01*
X0039295Y0017896D01*
X0039295Y0020452D01*
X0039296Y0020452D02*
X0039298Y0020514D01*
X0039303Y0020575D01*
X0039313Y0020636D01*
X0039326Y0020697D01*
X0039342Y0020756D01*
X0039362Y0020814D01*
X0039386Y0020871D01*
X0039413Y0020927D01*
X0039443Y0020981D01*
X0039477Y0021033D01*
X0039513Y0021082D01*
X0039553Y0021130D01*
X0039595Y0021175D01*
X0039640Y0021217D01*
X0039688Y0021256D01*
X0039737Y0021293D01*
X0039789Y0021327D01*
X0039843Y0021357D01*
X0039899Y0021384D01*
X0039956Y0021408D01*
X0040014Y0021428D01*
X0040073Y0021444D01*
X0040134Y0021457D01*
X0040195Y0021467D01*
X0040256Y0021472D01*
X0040318Y0021474D01*
X0040317Y0021474D02*
X0041851Y0021474D01*
X0041851Y0019430D02*
X0041084Y0019430D01*
X0040701Y0013974D02*
X0040768Y0013972D01*
X0040835Y0013966D01*
X0040901Y0013957D01*
X0040966Y0013943D01*
X0041031Y0013926D01*
X0041094Y0013905D01*
X0041156Y0013880D01*
X0041217Y0013852D01*
X0041276Y0013820D01*
X0041333Y0013785D01*
X0041388Y0013746D01*
X0041440Y0013705D01*
X0041490Y0013660D01*
X0041537Y0013613D01*
X0041582Y0013563D01*
X0041623Y0013511D01*
X0041662Y0013456D01*
X0041697Y0013399D01*
X0041729Y0013340D01*
X0041757Y0013279D01*
X0041782Y0013217D01*
X0041803Y0013154D01*
X0041820Y0013089D01*
X0041834Y0013024D01*
X0041843Y0012958D01*
X0041849Y0012891D01*
X0041851Y0012824D01*
X0041467Y0011930D02*
X0039295Y0009374D01*
X0041851Y0009374D01*
X0045968Y0010013D02*
X0046016Y0010117D01*
X0046062Y0010222D01*
X0046104Y0010328D01*
X0046143Y0010436D01*
X0046179Y0010545D01*
X0046211Y0010655D01*
X0046241Y0010766D01*
X0046266Y0010878D01*
X0046289Y0010990D01*
X0046308Y0011103D01*
X0046323Y0011217D01*
X0046335Y0011331D01*
X0046344Y0011445D01*
X0046349Y0011559D01*
X0046351Y0011674D01*
X0043795Y0011674D02*
X0043797Y0011789D01*
X0043802Y0011903D01*
X0043811Y0012017D01*
X0043823Y0012131D01*
X0043838Y0012245D01*
X0043857Y0012358D01*
X0043880Y0012470D01*
X0043905Y0012582D01*
X0043935Y0012693D01*
X0043967Y0012803D01*
X0044003Y0012912D01*
X0044042Y0013020D01*
X0044084Y0013126D01*
X0044130Y0013231D01*
X0044178Y0013335D01*
X0045073Y0013974D02*
X0045132Y0013972D01*
X0045190Y0013967D01*
X0045248Y0013958D01*
X0045305Y0013945D01*
X0045362Y0013929D01*
X0045417Y0013909D01*
X0045471Y0013886D01*
X0045523Y0013860D01*
X0045574Y0013830D01*
X0045623Y0013798D01*
X0045670Y0013762D01*
X0045714Y0013724D01*
X0045756Y0013683D01*
X0045795Y0013639D01*
X0045832Y0013593D01*
X0045865Y0013545D01*
X0045896Y0013495D01*
X0045923Y0013443D01*
X0045947Y0013390D01*
X0045968Y0013335D01*
X0046095Y0012952D02*
X0044051Y0010396D01*
X0045073Y0009374D02*
X0045132Y0009376D01*
X0045190Y0009381D01*
X0045248Y0009390D01*
X0045305Y0009403D01*
X0045362Y0009419D01*
X0045417Y0009439D01*
X0045471Y0009462D01*
X0045523Y0009488D01*
X0045574Y0009518D01*
X0045623Y0009550D01*
X0045670Y0009586D01*
X0045714Y0009624D01*
X0045756Y0009665D01*
X0045795Y0009709D01*
X0045832Y0009755D01*
X0045865Y0009803D01*
X0045896Y0009853D01*
X0045923Y0009905D01*
X0045947Y0009958D01*
X0045968Y0010013D01*
X0045073Y0009374D02*
X0045014Y0009376D01*
X0044956Y0009381D01*
X0044898Y0009390D01*
X0044841Y0009403D01*
X0044784Y0009419D01*
X0044729Y0009439D01*
X0044675Y0009462D01*
X0044623Y0009488D01*
X0044572Y0009518D01*
X0044523Y0009550D01*
X0044476Y0009586D01*
X0044432Y0009624D01*
X0044390Y0009665D01*
X0044351Y0009709D01*
X0044314Y0009755D01*
X0044281Y0009803D01*
X0044250Y0009853D01*
X0044223Y0009905D01*
X0044199Y0009958D01*
X0044178Y0010013D01*
X0046351Y0011674D02*
X0046349Y0011789D01*
X0046344Y0011903D01*
X0046335Y0012017D01*
X0046323Y0012131D01*
X0046308Y0012245D01*
X0046289Y0012358D01*
X0046266Y0012470D01*
X0046241Y0012582D01*
X0046211Y0012693D01*
X0046179Y0012803D01*
X0046143Y0012912D01*
X0046104Y0013020D01*
X0046062Y0013126D01*
X0046016Y0013231D01*
X0045968Y0013335D01*
X0045073Y0013974D02*
X0045014Y0013972D01*
X0044956Y0013967D01*
X0044898Y0013958D01*
X0044841Y0013945D01*
X0044784Y0013929D01*
X0044729Y0013909D01*
X0044675Y0013886D01*
X0044623Y0013860D01*
X0044572Y0013830D01*
X0044523Y0013798D01*
X0044476Y0013762D01*
X0044432Y0013724D01*
X0044390Y0013683D01*
X0044351Y0013639D01*
X0044314Y0013593D01*
X0044281Y0013545D01*
X0044250Y0013495D01*
X0044223Y0013443D01*
X0044199Y0013390D01*
X0044178Y0013335D01*
X0040701Y0013974D02*
X0040627Y0013972D01*
X0040553Y0013967D01*
X0040479Y0013957D01*
X0040406Y0013944D01*
X0040333Y0013928D01*
X0040262Y0013907D01*
X0040192Y0013883D01*
X0040123Y0013856D01*
X0040055Y0013825D01*
X0039989Y0013791D01*
X0039925Y0013754D01*
X0039863Y0013713D01*
X0039803Y0013669D01*
X0039745Y0013623D01*
X0039689Y0013573D01*
X0039636Y0013521D01*
X0039586Y0013466D01*
X0039539Y0013409D01*
X0039495Y0013349D01*
X0039453Y0013287D01*
X0039415Y0013224D01*
X0039380Y0013158D01*
X0039349Y0013091D01*
X0039321Y0013022D01*
X0039296Y0012952D01*
X0041468Y0011930D02*
X0041515Y0011977D01*
X0041559Y0012027D01*
X0041601Y0012079D01*
X0041640Y0012133D01*
X0041675Y0012189D01*
X0041708Y0012247D01*
X0041738Y0012307D01*
X0041764Y0012368D01*
X0041787Y0012431D01*
X0041806Y0012495D01*
X0041822Y0012559D01*
X0041835Y0012625D01*
X0041844Y0012691D01*
X0041849Y0012757D01*
X0041851Y0012824D01*
X0043795Y0011674D02*
X0043797Y0011559D01*
X0043802Y0011445D01*
X0043811Y0011331D01*
X0043823Y0011217D01*
X0043838Y0011103D01*
X0043857Y0010990D01*
X0043880Y0010878D01*
X0043905Y0010766D01*
X0043935Y0010655D01*
X0043967Y0010545D01*
X0044003Y0010436D01*
X0044042Y0010328D01*
X0044084Y0010222D01*
X0044130Y0010117D01*
X0044178Y0010013D01*
X0048295Y0009374D02*
X0050851Y0009374D01*
X0049573Y0009374D02*
X0049573Y0013974D01*
X0048295Y0012952D01*
X0053051Y0012952D02*
X0053053Y0012889D01*
X0053059Y0012826D01*
X0053068Y0012764D01*
X0053082Y0012703D01*
X0053099Y0012642D01*
X0053120Y0012583D01*
X0053145Y0012525D01*
X0053173Y0012468D01*
X0053204Y0012414D01*
X0053239Y0012362D01*
X0053277Y0012311D01*
X0053318Y0012263D01*
X0053362Y0012218D01*
X0053408Y0012176D01*
X0053457Y0012136D01*
X0053508Y0012100D01*
X0053562Y0012067D01*
X0053617Y0012037D01*
X0053675Y0012011D01*
X0053733Y0011988D01*
X0053793Y0011969D01*
X0053854Y0011954D01*
X0053916Y0011942D01*
X0053979Y0011934D01*
X0054042Y0011930D01*
X0054104Y0011930D01*
X0054167Y0011934D01*
X0054230Y0011942D01*
X0054292Y0011954D01*
X0054353Y0011969D01*
X0054413Y0011988D01*
X0054471Y0012011D01*
X0054529Y0012037D01*
X0054584Y0012067D01*
X0054638Y0012100D01*
X0054689Y0012136D01*
X0054738Y0012176D01*
X0054784Y0012218D01*
X0054828Y0012263D01*
X0054869Y0012311D01*
X0054907Y0012362D01*
X0054942Y0012414D01*
X0054973Y0012468D01*
X0055001Y0012525D01*
X0055026Y0012583D01*
X0055047Y0012642D01*
X0055064Y0012703D01*
X0055078Y0012764D01*
X0055087Y0012826D01*
X0055093Y0012889D01*
X0055095Y0012952D01*
X0055093Y0013015D01*
X0055087Y0013078D01*
X0055078Y0013140D01*
X0055064Y0013201D01*
X0055047Y0013262D01*
X0055026Y0013321D01*
X0055001Y0013379D01*
X0054973Y0013436D01*
X0054942Y0013490D01*
X0054907Y0013542D01*
X0054869Y0013593D01*
X0054828Y0013641D01*
X0054784Y0013686D01*
X0054738Y0013728D01*
X0054689Y0013768D01*
X0054638Y0013804D01*
X0054584Y0013837D01*
X0054529Y0013867D01*
X0054471Y0013893D01*
X0054413Y0013916D01*
X0054353Y0013935D01*
X0054292Y0013950D01*
X0054230Y0013962D01*
X0054167Y0013970D01*
X0054104Y0013974D01*
X0054042Y0013974D01*
X0053979Y0013970D01*
X0053916Y0013962D01*
X0053854Y0013950D01*
X0053793Y0013935D01*
X0053733Y0013916D01*
X0053675Y0013893D01*
X0053617Y0013867D01*
X0053562Y0013837D01*
X0053508Y0013804D01*
X0053457Y0013768D01*
X0053408Y0013728D01*
X0053362Y0013686D01*
X0053318Y0013641D01*
X0053277Y0013593D01*
X0053239Y0013542D01*
X0053204Y0013490D01*
X0053173Y0013436D01*
X0053145Y0013379D01*
X0053120Y0013321D01*
X0053099Y0013262D01*
X0053082Y0013201D01*
X0053068Y0013140D01*
X0053059Y0013078D01*
X0053053Y0013015D01*
X0053051Y0012952D01*
X0052795Y0010652D02*
X0052797Y0010582D01*
X0052803Y0010511D01*
X0052812Y0010442D01*
X0052826Y0010373D01*
X0052843Y0010304D01*
X0052864Y0010237D01*
X0052889Y0010171D01*
X0052917Y0010107D01*
X0052949Y0010044D01*
X0052984Y0009983D01*
X0053023Y0009924D01*
X0053064Y0009867D01*
X0053109Y0009813D01*
X0053157Y0009761D01*
X0053207Y0009712D01*
X0053261Y0009665D01*
X0053316Y0009622D01*
X0053374Y0009582D01*
X0053434Y0009545D01*
X0053496Y0009512D01*
X0053560Y0009482D01*
X0053625Y0009455D01*
X0053691Y0009432D01*
X0053759Y0009413D01*
X0053828Y0009398D01*
X0053897Y0009386D01*
X0053967Y0009378D01*
X0054038Y0009374D01*
X0054108Y0009374D01*
X0054179Y0009378D01*
X0054249Y0009386D01*
X0054318Y0009398D01*
X0054387Y0009413D01*
X0054455Y0009432D01*
X0054521Y0009455D01*
X0054586Y0009482D01*
X0054650Y0009512D01*
X0054712Y0009545D01*
X0054772Y0009582D01*
X0054830Y0009622D01*
X0054885Y0009665D01*
X0054939Y0009712D01*
X0054989Y0009761D01*
X0055037Y0009813D01*
X0055082Y0009867D01*
X0055123Y0009924D01*
X0055162Y0009983D01*
X0055197Y0010044D01*
X0055229Y0010107D01*
X0055257Y0010171D01*
X0055282Y0010237D01*
X0055303Y0010304D01*
X0055320Y0010373D01*
X0055334Y0010442D01*
X0055343Y0010511D01*
X0055349Y0010582D01*
X0055351Y0010652D01*
X0055349Y0010722D01*
X0055343Y0010793D01*
X0055334Y0010862D01*
X0055320Y0010931D01*
X0055303Y0011000D01*
X0055282Y0011067D01*
X0055257Y0011133D01*
X0055229Y0011197D01*
X0055197Y0011260D01*
X0055162Y0011321D01*
X0055123Y0011380D01*
X0055082Y0011437D01*
X0055037Y0011491D01*
X0054989Y0011543D01*
X0054939Y0011592D01*
X0054885Y0011639D01*
X0054830Y0011682D01*
X0054772Y0011722D01*
X0054712Y0011759D01*
X0054650Y0011792D01*
X0054586Y0011822D01*
X0054521Y0011849D01*
X0054455Y0011872D01*
X0054387Y0011891D01*
X0054318Y0011906D01*
X0054249Y0011918D01*
X0054179Y0011926D01*
X0054108Y0011930D01*
X0054038Y0011930D01*
X0053967Y0011926D01*
X0053897Y0011918D01*
X0053828Y0011906D01*
X0053759Y0011891D01*
X0053691Y0011872D01*
X0053625Y0011849D01*
X0053560Y0011822D01*
X0053496Y0011792D01*
X0053434Y0011759D01*
X0053374Y0011722D01*
X0053316Y0011682D01*
X0053261Y0011639D01*
X0053207Y0011592D01*
X0053157Y0011543D01*
X0053109Y0011491D01*
X0053064Y0011437D01*
X0053023Y0011380D01*
X0052984Y0011321D01*
X0052949Y0011260D01*
X0052917Y0011197D01*
X0052889Y0011133D01*
X0052864Y0011067D01*
X0052843Y0011000D01*
X0052826Y0010931D01*
X0052812Y0010862D01*
X0052803Y0010793D01*
X0052797Y0010722D01*
X0052795Y0010652D01*
X0057340Y0011163D02*
X0060406Y0011163D01*
X0064568Y0010013D02*
X0064616Y0010117D01*
X0064662Y0010222D01*
X0064704Y0010328D01*
X0064743Y0010436D01*
X0064779Y0010545D01*
X0064811Y0010655D01*
X0064841Y0010766D01*
X0064866Y0010878D01*
X0064889Y0010990D01*
X0064908Y0011103D01*
X0064923Y0011217D01*
X0064935Y0011331D01*
X0064944Y0011445D01*
X0064949Y0011559D01*
X0064951Y0011674D01*
X0062395Y0011674D02*
X0062397Y0011789D01*
X0062402Y0011903D01*
X0062411Y0012017D01*
X0062423Y0012131D01*
X0062438Y0012245D01*
X0062457Y0012358D01*
X0062480Y0012470D01*
X0062505Y0012582D01*
X0062535Y0012693D01*
X0062567Y0012803D01*
X0062603Y0012912D01*
X0062642Y0013020D01*
X0062684Y0013126D01*
X0062730Y0013231D01*
X0062778Y0013335D01*
X0063673Y0013974D02*
X0063732Y0013972D01*
X0063790Y0013967D01*
X0063848Y0013958D01*
X0063905Y0013945D01*
X0063962Y0013929D01*
X0064017Y0013909D01*
X0064071Y0013886D01*
X0064123Y0013860D01*
X0064174Y0013830D01*
X0064223Y0013798D01*
X0064270Y0013762D01*
X0064314Y0013724D01*
X0064356Y0013683D01*
X0064395Y0013639D01*
X0064432Y0013593D01*
X0064465Y0013545D01*
X0064496Y0013495D01*
X0064523Y0013443D01*
X0064547Y0013390D01*
X0064568Y0013335D01*
X0064695Y0012952D02*
X0062651Y0010396D01*
X0063673Y0009374D02*
X0063732Y0009376D01*
X0063790Y0009381D01*
X0063848Y0009390D01*
X0063905Y0009403D01*
X0063962Y0009419D01*
X0064017Y0009439D01*
X0064071Y0009462D01*
X0064123Y0009488D01*
X0064174Y0009518D01*
X0064223Y0009550D01*
X0064270Y0009586D01*
X0064314Y0009624D01*
X0064356Y0009665D01*
X0064395Y0009709D01*
X0064432Y0009755D01*
X0064465Y0009803D01*
X0064496Y0009853D01*
X0064523Y0009905D01*
X0064547Y0009958D01*
X0064568Y0010013D01*
X0063673Y0009374D02*
X0063614Y0009376D01*
X0063556Y0009381D01*
X0063498Y0009390D01*
X0063441Y0009403D01*
X0063384Y0009419D01*
X0063329Y0009439D01*
X0063275Y0009462D01*
X0063223Y0009488D01*
X0063172Y0009518D01*
X0063123Y0009550D01*
X0063076Y0009586D01*
X0063032Y0009624D01*
X0062990Y0009665D01*
X0062951Y0009709D01*
X0062914Y0009755D01*
X0062881Y0009803D01*
X0062850Y0009853D01*
X0062823Y0009905D01*
X0062799Y0009958D01*
X0062778Y0010013D01*
X0064951Y0011674D02*
X0064949Y0011789D01*
X0064944Y0011903D01*
X0064935Y0012017D01*
X0064923Y0012131D01*
X0064908Y0012245D01*
X0064889Y0012358D01*
X0064866Y0012470D01*
X0064841Y0012582D01*
X0064811Y0012693D01*
X0064779Y0012803D01*
X0064743Y0012912D01*
X0064704Y0013020D01*
X0064662Y0013126D01*
X0064616Y0013231D01*
X0064568Y0013335D01*
X0063673Y0013974D02*
X0063614Y0013972D01*
X0063556Y0013967D01*
X0063498Y0013958D01*
X0063441Y0013945D01*
X0063384Y0013929D01*
X0063329Y0013909D01*
X0063275Y0013886D01*
X0063223Y0013860D01*
X0063172Y0013830D01*
X0063123Y0013798D01*
X0063076Y0013762D01*
X0063032Y0013724D01*
X0062990Y0013683D01*
X0062951Y0013639D01*
X0062914Y0013593D01*
X0062881Y0013545D01*
X0062850Y0013495D01*
X0062823Y0013443D01*
X0062799Y0013390D01*
X0062778Y0013335D01*
X0062395Y0011674D02*
X0062397Y0011559D01*
X0062402Y0011445D01*
X0062411Y0011331D01*
X0062423Y0011217D01*
X0062438Y0011103D01*
X0062457Y0010990D01*
X0062480Y0010878D01*
X0062505Y0010766D01*
X0062535Y0010655D01*
X0062567Y0010545D01*
X0062603Y0010436D01*
X0062642Y0010328D01*
X0062684Y0010222D01*
X0062730Y0010117D01*
X0062778Y0010013D01*
X0066895Y0010652D02*
X0066895Y0011930D01*
X0068429Y0011930D01*
X0066896Y0011930D02*
X0066898Y0012019D01*
X0066904Y0012108D01*
X0066913Y0012197D01*
X0066927Y0012285D01*
X0066944Y0012372D01*
X0066966Y0012459D01*
X0066991Y0012545D01*
X0067019Y0012629D01*
X0067052Y0012712D01*
X0067088Y0012794D01*
X0067127Y0012874D01*
X0067170Y0012952D01*
X0067216Y0013028D01*
X0067266Y0013102D01*
X0067318Y0013174D01*
X0067374Y0013244D01*
X0067433Y0013311D01*
X0067495Y0013375D01*
X0067559Y0013437D01*
X0067626Y0013496D01*
X0067696Y0013552D01*
X0067768Y0013604D01*
X0067842Y0013654D01*
X0067918Y0013700D01*
X0067996Y0013743D01*
X0068076Y0013782D01*
X0068158Y0013818D01*
X0068241Y0013851D01*
X0068325Y0013879D01*
X0068411Y0013904D01*
X0068498Y0013926D01*
X0068585Y0013943D01*
X0068673Y0013957D01*
X0068762Y0013966D01*
X0068851Y0013972D01*
X0068940Y0013974D01*
X0069451Y0010907D02*
X0069451Y0010652D01*
X0069451Y0010907D02*
X0069449Y0010969D01*
X0069444Y0011030D01*
X0069434Y0011091D01*
X0069421Y0011152D01*
X0069405Y0011211D01*
X0069385Y0011269D01*
X0069361Y0011326D01*
X0069334Y0011382D01*
X0069304Y0011436D01*
X0069270Y0011488D01*
X0069234Y0011537D01*
X0069194Y0011585D01*
X0069152Y0011630D01*
X0069107Y0011672D01*
X0069059Y0011712D01*
X0069010Y0011748D01*
X0068958Y0011782D01*
X0068904Y0011812D01*
X0068848Y0011839D01*
X0068791Y0011863D01*
X0068733Y0011883D01*
X0068674Y0011899D01*
X0068613Y0011912D01*
X0068552Y0011922D01*
X0068491Y0011927D01*
X0068429Y0011929D01*
X0069451Y0010652D02*
X0069449Y0010582D01*
X0069443Y0010511D01*
X0069434Y0010442D01*
X0069420Y0010373D01*
X0069403Y0010304D01*
X0069382Y0010237D01*
X0069357Y0010171D01*
X0069329Y0010107D01*
X0069297Y0010044D01*
X0069262Y0009983D01*
X0069223Y0009924D01*
X0069182Y0009867D01*
X0069137Y0009813D01*
X0069089Y0009761D01*
X0069039Y0009712D01*
X0068985Y0009665D01*
X0068930Y0009622D01*
X0068872Y0009582D01*
X0068812Y0009545D01*
X0068750Y0009512D01*
X0068686Y0009482D01*
X0068621Y0009455D01*
X0068555Y0009432D01*
X0068487Y0009413D01*
X0068418Y0009398D01*
X0068349Y0009386D01*
X0068279Y0009378D01*
X0068208Y0009374D01*
X0068138Y0009374D01*
X0068067Y0009378D01*
X0067997Y0009386D01*
X0067928Y0009398D01*
X0067859Y0009413D01*
X0067791Y0009432D01*
X0067725Y0009455D01*
X0067660Y0009482D01*
X0067596Y0009512D01*
X0067534Y0009545D01*
X0067474Y0009582D01*
X0067416Y0009622D01*
X0067361Y0009665D01*
X0067307Y0009712D01*
X0067257Y0009761D01*
X0067209Y0009813D01*
X0067164Y0009867D01*
X0067123Y0009924D01*
X0067084Y0009983D01*
X0067049Y0010044D01*
X0067017Y0010107D01*
X0066989Y0010171D01*
X0066964Y0010237D01*
X0066943Y0010304D01*
X0066926Y0010373D01*
X0066912Y0010442D01*
X0066903Y0010511D01*
X0066897Y0010582D01*
X0066895Y0010652D01*
X0071440Y0011163D02*
X0074506Y0011163D01*
X0078668Y0010013D02*
X0078716Y0010117D01*
X0078762Y0010222D01*
X0078804Y0010328D01*
X0078843Y0010436D01*
X0078879Y0010545D01*
X0078911Y0010655D01*
X0078941Y0010766D01*
X0078966Y0010878D01*
X0078989Y0010990D01*
X0079008Y0011103D01*
X0079023Y0011217D01*
X0079035Y0011331D01*
X0079044Y0011445D01*
X0079049Y0011559D01*
X0079051Y0011674D01*
X0076495Y0011674D02*
X0076497Y0011789D01*
X0076502Y0011903D01*
X0076511Y0012017D01*
X0076523Y0012131D01*
X0076538Y0012245D01*
X0076557Y0012358D01*
X0076580Y0012470D01*
X0076605Y0012582D01*
X0076635Y0012693D01*
X0076667Y0012803D01*
X0076703Y0012912D01*
X0076742Y0013020D01*
X0076784Y0013126D01*
X0076830Y0013231D01*
X0076878Y0013335D01*
X0077773Y0013974D02*
X0077832Y0013972D01*
X0077890Y0013967D01*
X0077948Y0013958D01*
X0078005Y0013945D01*
X0078062Y0013929D01*
X0078117Y0013909D01*
X0078171Y0013886D01*
X0078223Y0013860D01*
X0078274Y0013830D01*
X0078323Y0013798D01*
X0078370Y0013762D01*
X0078414Y0013724D01*
X0078456Y0013683D01*
X0078495Y0013639D01*
X0078532Y0013593D01*
X0078565Y0013545D01*
X0078596Y0013495D01*
X0078623Y0013443D01*
X0078647Y0013390D01*
X0078668Y0013335D01*
X0078795Y0012952D02*
X0076751Y0010396D01*
X0077773Y0009374D02*
X0077832Y0009376D01*
X0077890Y0009381D01*
X0077948Y0009390D01*
X0078005Y0009403D01*
X0078062Y0009419D01*
X0078117Y0009439D01*
X0078171Y0009462D01*
X0078223Y0009488D01*
X0078274Y0009518D01*
X0078323Y0009550D01*
X0078370Y0009586D01*
X0078414Y0009624D01*
X0078456Y0009665D01*
X0078495Y0009709D01*
X0078532Y0009755D01*
X0078565Y0009803D01*
X0078596Y0009853D01*
X0078623Y0009905D01*
X0078647Y0009958D01*
X0078668Y0010013D01*
X0077773Y0009374D02*
X0077714Y0009376D01*
X0077656Y0009381D01*
X0077598Y0009390D01*
X0077541Y0009403D01*
X0077484Y0009419D01*
X0077429Y0009439D01*
X0077375Y0009462D01*
X0077323Y0009488D01*
X0077272Y0009518D01*
X0077223Y0009550D01*
X0077176Y0009586D01*
X0077132Y0009624D01*
X0077090Y0009665D01*
X0077051Y0009709D01*
X0077014Y0009755D01*
X0076981Y0009803D01*
X0076950Y0009853D01*
X0076923Y0009905D01*
X0076899Y0009958D01*
X0076878Y0010013D01*
X0079051Y0011674D02*
X0079049Y0011789D01*
X0079044Y0011903D01*
X0079035Y0012017D01*
X0079023Y0012131D01*
X0079008Y0012245D01*
X0078989Y0012358D01*
X0078966Y0012470D01*
X0078941Y0012582D01*
X0078911Y0012693D01*
X0078879Y0012803D01*
X0078843Y0012912D01*
X0078804Y0013020D01*
X0078762Y0013126D01*
X0078716Y0013231D01*
X0078668Y0013335D01*
X0077773Y0013974D02*
X0077714Y0013972D01*
X0077656Y0013967D01*
X0077598Y0013958D01*
X0077541Y0013945D01*
X0077484Y0013929D01*
X0077429Y0013909D01*
X0077375Y0013886D01*
X0077323Y0013860D01*
X0077272Y0013830D01*
X0077223Y0013798D01*
X0077176Y0013762D01*
X0077132Y0013724D01*
X0077090Y0013683D01*
X0077051Y0013639D01*
X0077014Y0013593D01*
X0076981Y0013545D01*
X0076950Y0013495D01*
X0076923Y0013443D01*
X0076899Y0013390D01*
X0076878Y0013335D01*
X0076495Y0011674D02*
X0076497Y0011559D01*
X0076502Y0011445D01*
X0076511Y0011331D01*
X0076523Y0011217D01*
X0076538Y0011103D01*
X0076557Y0010990D01*
X0076580Y0010878D01*
X0076605Y0010766D01*
X0076635Y0010655D01*
X0076667Y0010545D01*
X0076703Y0010436D01*
X0076742Y0010328D01*
X0076784Y0010222D01*
X0076830Y0010117D01*
X0076878Y0010013D01*
X0080995Y0010652D02*
X0080997Y0010582D01*
X0081003Y0010511D01*
X0081012Y0010442D01*
X0081026Y0010373D01*
X0081043Y0010304D01*
X0081064Y0010237D01*
X0081089Y0010171D01*
X0081117Y0010107D01*
X0081149Y0010044D01*
X0081184Y0009983D01*
X0081223Y0009924D01*
X0081264Y0009867D01*
X0081309Y0009813D01*
X0081357Y0009761D01*
X0081407Y0009712D01*
X0081461Y0009665D01*
X0081516Y0009622D01*
X0081574Y0009582D01*
X0081634Y0009545D01*
X0081696Y0009512D01*
X0081760Y0009482D01*
X0081825Y0009455D01*
X0081891Y0009432D01*
X0081959Y0009413D01*
X0082028Y0009398D01*
X0082097Y0009386D01*
X0082167Y0009378D01*
X0082238Y0009374D01*
X0082308Y0009374D01*
X0082379Y0009378D01*
X0082449Y0009386D01*
X0082518Y0009398D01*
X0082587Y0009413D01*
X0082655Y0009432D01*
X0082721Y0009455D01*
X0082786Y0009482D01*
X0082850Y0009512D01*
X0082912Y0009545D01*
X0082972Y0009582D01*
X0083030Y0009622D01*
X0083085Y0009665D01*
X0083139Y0009712D01*
X0083189Y0009761D01*
X0083237Y0009813D01*
X0083282Y0009867D01*
X0083323Y0009924D01*
X0083362Y0009983D01*
X0083397Y0010044D01*
X0083429Y0010107D01*
X0083457Y0010171D01*
X0083482Y0010237D01*
X0083503Y0010304D01*
X0083520Y0010373D01*
X0083534Y0010442D01*
X0083543Y0010511D01*
X0083549Y0010582D01*
X0083551Y0010652D01*
X0083549Y0010722D01*
X0083543Y0010793D01*
X0083534Y0010862D01*
X0083520Y0010931D01*
X0083503Y0011000D01*
X0083482Y0011067D01*
X0083457Y0011133D01*
X0083429Y0011197D01*
X0083397Y0011260D01*
X0083362Y0011321D01*
X0083323Y0011380D01*
X0083282Y0011437D01*
X0083237Y0011491D01*
X0083189Y0011543D01*
X0083139Y0011592D01*
X0083085Y0011639D01*
X0083030Y0011682D01*
X0082972Y0011722D01*
X0082912Y0011759D01*
X0082850Y0011792D01*
X0082786Y0011822D01*
X0082721Y0011849D01*
X0082655Y0011872D01*
X0082587Y0011891D01*
X0082518Y0011906D01*
X0082449Y0011918D01*
X0082379Y0011926D01*
X0082308Y0011930D01*
X0082238Y0011930D01*
X0082167Y0011926D01*
X0082097Y0011918D01*
X0082028Y0011906D01*
X0081959Y0011891D01*
X0081891Y0011872D01*
X0081825Y0011849D01*
X0081760Y0011822D01*
X0081696Y0011792D01*
X0081634Y0011759D01*
X0081574Y0011722D01*
X0081516Y0011682D01*
X0081461Y0011639D01*
X0081407Y0011592D01*
X0081357Y0011543D01*
X0081309Y0011491D01*
X0081264Y0011437D01*
X0081223Y0011380D01*
X0081184Y0011321D01*
X0081149Y0011260D01*
X0081117Y0011197D01*
X0081089Y0011133D01*
X0081064Y0011067D01*
X0081043Y0011000D01*
X0081026Y0010931D01*
X0081012Y0010862D01*
X0081003Y0010793D01*
X0080997Y0010722D01*
X0080995Y0010652D01*
X0081251Y0012952D02*
X0081253Y0012889D01*
X0081259Y0012826D01*
X0081268Y0012764D01*
X0081282Y0012703D01*
X0081299Y0012642D01*
X0081320Y0012583D01*
X0081345Y0012525D01*
X0081373Y0012468D01*
X0081404Y0012414D01*
X0081439Y0012362D01*
X0081477Y0012311D01*
X0081518Y0012263D01*
X0081562Y0012218D01*
X0081608Y0012176D01*
X0081657Y0012136D01*
X0081708Y0012100D01*
X0081762Y0012067D01*
X0081817Y0012037D01*
X0081875Y0012011D01*
X0081933Y0011988D01*
X0081993Y0011969D01*
X0082054Y0011954D01*
X0082116Y0011942D01*
X0082179Y0011934D01*
X0082242Y0011930D01*
X0082304Y0011930D01*
X0082367Y0011934D01*
X0082430Y0011942D01*
X0082492Y0011954D01*
X0082553Y0011969D01*
X0082613Y0011988D01*
X0082671Y0012011D01*
X0082729Y0012037D01*
X0082784Y0012067D01*
X0082838Y0012100D01*
X0082889Y0012136D01*
X0082938Y0012176D01*
X0082984Y0012218D01*
X0083028Y0012263D01*
X0083069Y0012311D01*
X0083107Y0012362D01*
X0083142Y0012414D01*
X0083173Y0012468D01*
X0083201Y0012525D01*
X0083226Y0012583D01*
X0083247Y0012642D01*
X0083264Y0012703D01*
X0083278Y0012764D01*
X0083287Y0012826D01*
X0083293Y0012889D01*
X0083295Y0012952D01*
X0083293Y0013015D01*
X0083287Y0013078D01*
X0083278Y0013140D01*
X0083264Y0013201D01*
X0083247Y0013262D01*
X0083226Y0013321D01*
X0083201Y0013379D01*
X0083173Y0013436D01*
X0083142Y0013490D01*
X0083107Y0013542D01*
X0083069Y0013593D01*
X0083028Y0013641D01*
X0082984Y0013686D01*
X0082938Y0013728D01*
X0082889Y0013768D01*
X0082838Y0013804D01*
X0082784Y0013837D01*
X0082729Y0013867D01*
X0082671Y0013893D01*
X0082613Y0013916D01*
X0082553Y0013935D01*
X0082492Y0013950D01*
X0082430Y0013962D01*
X0082367Y0013970D01*
X0082304Y0013974D01*
X0082242Y0013974D01*
X0082179Y0013970D01*
X0082116Y0013962D01*
X0082054Y0013950D01*
X0081993Y0013935D01*
X0081933Y0013916D01*
X0081875Y0013893D01*
X0081817Y0013867D01*
X0081762Y0013837D01*
X0081708Y0013804D01*
X0081657Y0013768D01*
X0081608Y0013728D01*
X0081562Y0013686D01*
X0081518Y0013641D01*
X0081477Y0013593D01*
X0081439Y0013542D01*
X0081404Y0013490D01*
X0081373Y0013436D01*
X0081345Y0013379D01*
X0081320Y0013321D01*
X0081299Y0013262D01*
X0081282Y0013201D01*
X0081268Y0013140D01*
X0081259Y0013078D01*
X0081253Y0013015D01*
X0081251Y0012952D01*
X0080603Y0016874D02*
X0080348Y0016874D01*
X0080293Y0016876D01*
X0080239Y0016882D01*
X0080185Y0016892D01*
X0080132Y0016905D01*
X0080080Y0016922D01*
X0080029Y0016943D01*
X0079980Y0016968D01*
X0079933Y0016996D01*
X0079888Y0017027D01*
X0079846Y0017061D01*
X0079806Y0017099D01*
X0079768Y0017139D01*
X0079734Y0017181D01*
X0079703Y0017226D01*
X0079675Y0017273D01*
X0079650Y0017322D01*
X0079629Y0017373D01*
X0079612Y0017425D01*
X0079599Y0017478D01*
X0079589Y0017532D01*
X0079583Y0017586D01*
X0079581Y0017641D01*
X0079581Y0021474D01*
X0079070Y0019941D02*
X0080603Y0019941D01*
X0081920Y0019941D02*
X0083453Y0019941D01*
X0082431Y0021474D02*
X0082431Y0017641D01*
X0082433Y0017586D01*
X0082439Y0017532D01*
X0082449Y0017478D01*
X0082462Y0017425D01*
X0082479Y0017373D01*
X0082500Y0017322D01*
X0082525Y0017273D01*
X0082553Y0017226D01*
X0082584Y0017181D01*
X0082618Y0017139D01*
X0082656Y0017099D01*
X0082696Y0017061D01*
X0082738Y0017027D01*
X0082783Y0016996D01*
X0082830Y0016968D01*
X0082879Y0016943D01*
X0082930Y0016922D01*
X0082982Y0016905D01*
X0083035Y0016892D01*
X0083089Y0016882D01*
X0083143Y0016876D01*
X0083198Y0016874D01*
X0083453Y0016874D01*
X0085151Y0017641D02*
X0085151Y0018918D01*
X0085151Y0018407D02*
X0087195Y0018407D01*
X0087195Y0018918D01*
X0087193Y0018981D01*
X0087187Y0019044D01*
X0087178Y0019106D01*
X0087164Y0019167D01*
X0087147Y0019228D01*
X0087126Y0019287D01*
X0087101Y0019345D01*
X0087073Y0019402D01*
X0087042Y0019456D01*
X0087007Y0019508D01*
X0086969Y0019559D01*
X0086928Y0019607D01*
X0086884Y0019652D01*
X0086838Y0019694D01*
X0086789Y0019734D01*
X0086738Y0019770D01*
X0086684Y0019803D01*
X0086629Y0019833D01*
X0086571Y0019859D01*
X0086513Y0019882D01*
X0086453Y0019901D01*
X0086392Y0019916D01*
X0086330Y0019928D01*
X0086267Y0019936D01*
X0086204Y0019940D01*
X0086142Y0019940D01*
X0086079Y0019936D01*
X0086016Y0019928D01*
X0085954Y0019916D01*
X0085893Y0019901D01*
X0085833Y0019882D01*
X0085775Y0019859D01*
X0085717Y0019833D01*
X0085662Y0019803D01*
X0085608Y0019770D01*
X0085557Y0019734D01*
X0085508Y0019694D01*
X0085462Y0019652D01*
X0085418Y0019607D01*
X0085377Y0019559D01*
X0085339Y0019508D01*
X0085304Y0019456D01*
X0085273Y0019402D01*
X0085245Y0019345D01*
X0085220Y0019287D01*
X0085199Y0019228D01*
X0085182Y0019167D01*
X0085168Y0019106D01*
X0085159Y0019044D01*
X0085153Y0018981D01*
X0085151Y0018918D01*
X0085150Y0017641D02*
X0085152Y0017586D01*
X0085158Y0017532D01*
X0085168Y0017478D01*
X0085181Y0017425D01*
X0085198Y0017373D01*
X0085219Y0017322D01*
X0085244Y0017273D01*
X0085272Y0017226D01*
X0085303Y0017181D01*
X0085337Y0017139D01*
X0085375Y0017099D01*
X0085415Y0017061D01*
X0085457Y0017027D01*
X0085502Y0016996D01*
X0085549Y0016968D01*
X0085598Y0016943D01*
X0085649Y0016922D01*
X0085701Y0016905D01*
X0085754Y0016892D01*
X0085808Y0016882D01*
X0085862Y0016876D01*
X0085917Y0016874D01*
X0087195Y0016874D01*
X0089227Y0016874D02*
X0089227Y0019941D01*
X0090760Y0019941D01*
X0090760Y0019430D01*
X0094795Y0021474D02*
X0094795Y0016874D01*
X0096073Y0016874D01*
X0096142Y0016876D01*
X0096211Y0016881D01*
X0096280Y0016891D01*
X0096348Y0016904D01*
X0096415Y0016921D01*
X0096481Y0016941D01*
X0096546Y0016965D01*
X0096610Y0016992D01*
X0096672Y0017023D01*
X0096732Y0017057D01*
X0096790Y0017094D01*
X0096846Y0017135D01*
X0096900Y0017178D01*
X0096952Y0017224D01*
X0097001Y0017273D01*
X0097047Y0017325D01*
X0097090Y0017379D01*
X0097131Y0017435D01*
X0097168Y0017493D01*
X0097202Y0017553D01*
X0097233Y0017615D01*
X0097260Y0017679D01*
X0097284Y0017744D01*
X0097304Y0017810D01*
X0097321Y0017877D01*
X0097334Y0017945D01*
X0097344Y0018014D01*
X0097349Y0018083D01*
X0097351Y0018152D01*
X0097351Y0020196D01*
X0097349Y0020265D01*
X0097344Y0020334D01*
X0097334Y0020403D01*
X0097321Y0020471D01*
X0097304Y0020538D01*
X0097284Y0020604D01*
X0097260Y0020669D01*
X0097233Y0020733D01*
X0097202Y0020795D01*
X0097168Y0020855D01*
X0097131Y0020913D01*
X0097090Y0020969D01*
X0097047Y0021023D01*
X0097001Y0021075D01*
X0096952Y0021124D01*
X0096900Y0021170D01*
X0096846Y0021213D01*
X0096790Y0021254D01*
X0096732Y0021291D01*
X0096672Y0021325D01*
X0096610Y0021356D01*
X0096546Y0021383D01*
X0096481Y0021407D01*
X0096415Y0021427D01*
X0096348Y0021444D01*
X0096280Y0021457D01*
X0096211Y0021467D01*
X0096142Y0021472D01*
X0096073Y0021474D01*
X0094795Y0021474D01*
X0099577Y0019941D02*
X0099577Y0016874D01*
X0102523Y0016874D02*
X0102523Y0019941D01*
X0102651Y0021218D02*
X0102395Y0021218D01*
X0102395Y0021474D01*
X0102651Y0021474D01*
X0102651Y0021218D01*
X0101110Y0019941D02*
X0101110Y0019430D01*
X0101110Y0019941D02*
X0099577Y0019941D01*
X0104201Y0019941D02*
X0105223Y0016874D01*
X0106245Y0019941D01*
X0107951Y0018918D02*
X0107951Y0017641D01*
X0107951Y0018407D02*
X0109995Y0018407D01*
X0109995Y0018918D01*
X0109993Y0018981D01*
X0109987Y0019044D01*
X0109978Y0019106D01*
X0109964Y0019167D01*
X0109947Y0019228D01*
X0109926Y0019287D01*
X0109901Y0019345D01*
X0109873Y0019402D01*
X0109842Y0019456D01*
X0109807Y0019508D01*
X0109769Y0019559D01*
X0109728Y0019607D01*
X0109684Y0019652D01*
X0109638Y0019694D01*
X0109589Y0019734D01*
X0109538Y0019770D01*
X0109484Y0019803D01*
X0109429Y0019833D01*
X0109371Y0019859D01*
X0109313Y0019882D01*
X0109253Y0019901D01*
X0109192Y0019916D01*
X0109130Y0019928D01*
X0109067Y0019936D01*
X0109004Y0019940D01*
X0108942Y0019940D01*
X0108879Y0019936D01*
X0108816Y0019928D01*
X0108754Y0019916D01*
X0108693Y0019901D01*
X0108633Y0019882D01*
X0108575Y0019859D01*
X0108517Y0019833D01*
X0108462Y0019803D01*
X0108408Y0019770D01*
X0108357Y0019734D01*
X0108308Y0019694D01*
X0108262Y0019652D01*
X0108218Y0019607D01*
X0108177Y0019559D01*
X0108139Y0019508D01*
X0108104Y0019456D01*
X0108073Y0019402D01*
X0108045Y0019345D01*
X0108020Y0019287D01*
X0107999Y0019228D01*
X0107982Y0019167D01*
X0107968Y0019106D01*
X0107959Y0019044D01*
X0107953Y0018981D01*
X0107951Y0018918D01*
X0107950Y0017641D02*
X0107952Y0017586D01*
X0107958Y0017532D01*
X0107968Y0017478D01*
X0107981Y0017425D01*
X0107998Y0017373D01*
X0108019Y0017322D01*
X0108044Y0017273D01*
X0108072Y0017226D01*
X0108103Y0017181D01*
X0108137Y0017139D01*
X0108175Y0017099D01*
X0108215Y0017061D01*
X0108257Y0017027D01*
X0108302Y0016996D01*
X0108349Y0016968D01*
X0108398Y0016943D01*
X0108449Y0016922D01*
X0108501Y0016905D01*
X0108554Y0016892D01*
X0108608Y0016882D01*
X0108662Y0016876D01*
X0108717Y0016874D01*
X0109995Y0016874D01*
X0112027Y0016874D02*
X0112027Y0019941D01*
X0113560Y0019941D01*
X0113560Y0019430D01*
X0077445Y0019941D02*
X0077445Y0016874D01*
X0076167Y0016874D01*
X0076112Y0016876D01*
X0076058Y0016882D01*
X0076004Y0016892D01*
X0075951Y0016905D01*
X0075899Y0016922D01*
X0075848Y0016943D01*
X0075799Y0016968D01*
X0075752Y0016996D01*
X0075707Y0017027D01*
X0075665Y0017061D01*
X0075625Y0017099D01*
X0075587Y0017139D01*
X0075553Y0017181D01*
X0075522Y0017226D01*
X0075494Y0017273D01*
X0075469Y0017322D01*
X0075448Y0017373D01*
X0075431Y0017425D01*
X0075418Y0017478D01*
X0075408Y0017532D01*
X0075402Y0017586D01*
X0075400Y0017641D01*
X0075401Y0017641D02*
X0075401Y0019941D01*
X0073245Y0019174D02*
X0073245Y0016874D01*
X0071201Y0016874D02*
X0071201Y0021474D01*
X0071201Y0019941D02*
X0072479Y0019941D01*
X0072534Y0019939D01*
X0072588Y0019933D01*
X0072642Y0019923D01*
X0072695Y0019910D01*
X0072747Y0019893D01*
X0072798Y0019872D01*
X0072847Y0019847D01*
X0072894Y0019819D01*
X0072939Y0019788D01*
X0072981Y0019754D01*
X0073021Y0019716D01*
X0073059Y0019676D01*
X0073093Y0019634D01*
X0073124Y0019589D01*
X0073152Y0019542D01*
X0073177Y0019493D01*
X0073198Y0019442D01*
X0073215Y0019390D01*
X0073228Y0019337D01*
X0073238Y0019283D01*
X0073244Y0019229D01*
X0073246Y0019174D01*
X0068790Y0018791D02*
X0067384Y0019557D01*
X0067895Y0021474D02*
X0067977Y0021472D01*
X0068059Y0021467D01*
X0068141Y0021458D01*
X0068222Y0021446D01*
X0068303Y0021430D01*
X0068383Y0021411D01*
X0068462Y0021388D01*
X0068540Y0021362D01*
X0068617Y0021333D01*
X0068692Y0021300D01*
X0068766Y0021264D01*
X0068839Y0021226D01*
X0068910Y0021184D01*
X0068978Y0021139D01*
X0069045Y0021091D01*
X0067384Y0019558D02*
X0067330Y0019592D01*
X0067279Y0019629D01*
X0067230Y0019669D01*
X0067183Y0019712D01*
X0067140Y0019758D01*
X0067099Y0019806D01*
X0067061Y0019857D01*
X0067026Y0019910D01*
X0066994Y0019965D01*
X0066966Y0020022D01*
X0066942Y0020080D01*
X0066921Y0020140D01*
X0066904Y0020201D01*
X0066890Y0020263D01*
X0066881Y0020326D01*
X0066875Y0020389D01*
X0066873Y0020452D01*
X0066875Y0020514D01*
X0066880Y0020575D01*
X0066890Y0020636D01*
X0066903Y0020697D01*
X0066919Y0020756D01*
X0066939Y0020814D01*
X0066963Y0020871D01*
X0066990Y0020927D01*
X0067020Y0020981D01*
X0067054Y0021033D01*
X0067091Y0021082D01*
X0067130Y0021130D01*
X0067172Y0021175D01*
X0067217Y0021217D01*
X0067265Y0021257D01*
X0067314Y0021293D01*
X0067366Y0021327D01*
X0067420Y0021357D01*
X0067476Y0021384D01*
X0067533Y0021408D01*
X0067591Y0021428D01*
X0067650Y0021444D01*
X0067711Y0021457D01*
X0067772Y0021467D01*
X0067833Y0021472D01*
X0067895Y0021474D01*
X0066746Y0017513D02*
X0066810Y0017450D01*
X0066878Y0017391D01*
X0066947Y0017334D01*
X0067019Y0017280D01*
X0067093Y0017229D01*
X0067169Y0017181D01*
X0067246Y0017137D01*
X0067326Y0017096D01*
X0067407Y0017058D01*
X0067490Y0017023D01*
X0067574Y0016992D01*
X0067660Y0016965D01*
X0067746Y0016941D01*
X0067834Y0016920D01*
X0067922Y0016904D01*
X0068011Y0016891D01*
X0068100Y0016881D01*
X0068189Y0016876D01*
X0068279Y0016874D01*
X0068341Y0016876D01*
X0068402Y0016881D01*
X0068463Y0016891D01*
X0068524Y0016904D01*
X0068583Y0016920D01*
X0068641Y0016940D01*
X0068698Y0016964D01*
X0068754Y0016991D01*
X0068808Y0017021D01*
X0068860Y0017055D01*
X0068909Y0017091D01*
X0068957Y0017131D01*
X0069002Y0017173D01*
X0069044Y0017218D01*
X0069084Y0017266D01*
X0069120Y0017315D01*
X0069154Y0017367D01*
X0069184Y0017421D01*
X0069211Y0017477D01*
X0069235Y0017534D01*
X0069255Y0017592D01*
X0069271Y0017651D01*
X0069284Y0017712D01*
X0069294Y0017773D01*
X0069299Y0017834D01*
X0069301Y0017896D01*
X0069299Y0017959D01*
X0069293Y0018022D01*
X0069284Y0018085D01*
X0069270Y0018147D01*
X0069253Y0018208D01*
X0069232Y0018268D01*
X0069208Y0018326D01*
X0069180Y0018383D01*
X0069148Y0018438D01*
X0069113Y0018491D01*
X0069075Y0018542D01*
X0069034Y0018590D01*
X0068991Y0018636D01*
X0068944Y0018679D01*
X0068895Y0018719D01*
X0068844Y0018756D01*
X0068790Y0018790D01*
D12*
X0003269Y0015080D02*
X0003273Y0015370D01*
X0003283Y0015660D01*
X0003301Y0015949D01*
X0003326Y0016238D01*
X0003358Y0016526D01*
X0003397Y0016813D01*
X0003443Y0017099D01*
X0003496Y0017384D01*
X0003556Y0017668D01*
X0003623Y0017950D01*
X0003697Y0018230D01*
X0003778Y0018509D01*
X0003865Y0018785D01*
X0003959Y0019059D01*
X0004060Y0019331D01*
X0004168Y0019600D01*
X0004282Y0019866D01*
X0004403Y0020130D01*
X0004530Y0020390D01*
X0004664Y0020648D01*
X0004803Y0020902D01*
X0004949Y0021152D01*
X0005101Y0021399D01*
X0005260Y0021642D01*
X0005424Y0021881D01*
X0005593Y0022116D01*
X0005769Y0022347D01*
X0005950Y0022573D01*
X0006137Y0022795D01*
X0006329Y0023012D01*
X0006526Y0023224D01*
X0006728Y0023432D01*
X0006936Y0023634D01*
X0007148Y0023831D01*
X0007365Y0024023D01*
X0007587Y0024210D01*
X0007813Y0024391D01*
X0008044Y0024567D01*
X0008279Y0024736D01*
X0008518Y0024900D01*
X0008761Y0025059D01*
X0009008Y0025211D01*
X0009258Y0025357D01*
X0009512Y0025496D01*
X0009770Y0025630D01*
X0010030Y0025757D01*
X0010294Y0025878D01*
X0010560Y0025992D01*
X0010829Y0026100D01*
X0011101Y0026201D01*
X0011375Y0026295D01*
X0011651Y0026382D01*
X0011930Y0026463D01*
X0012210Y0026537D01*
X0012492Y0026604D01*
X0012776Y0026664D01*
X0013061Y0026717D01*
X0013347Y0026763D01*
X0013634Y0026802D01*
X0013922Y0026834D01*
X0014211Y0026859D01*
X0014500Y0026877D01*
X0014790Y0026887D01*
X0015080Y0026891D01*
X0015370Y0026887D01*
X0015660Y0026877D01*
X0015949Y0026859D01*
X0016238Y0026834D01*
X0016526Y0026802D01*
X0016813Y0026763D01*
X0017099Y0026717D01*
X0017384Y0026664D01*
X0017668Y0026604D01*
X0017950Y0026537D01*
X0018230Y0026463D01*
X0018509Y0026382D01*
X0018785Y0026295D01*
X0019059Y0026201D01*
X0019331Y0026100D01*
X0019600Y0025992D01*
X0019866Y0025878D01*
X0020130Y0025757D01*
X0020390Y0025630D01*
X0020648Y0025496D01*
X0020902Y0025357D01*
X0021152Y0025211D01*
X0021399Y0025059D01*
X0021642Y0024900D01*
X0021881Y0024736D01*
X0022116Y0024567D01*
X0022347Y0024391D01*
X0022573Y0024210D01*
X0022795Y0024023D01*
X0023012Y0023831D01*
X0023224Y0023634D01*
X0023432Y0023432D01*
X0023634Y0023224D01*
X0023831Y0023012D01*
X0024023Y0022795D01*
X0024210Y0022573D01*
X0024391Y0022347D01*
X0024567Y0022116D01*
X0024736Y0021881D01*
X0024900Y0021642D01*
X0025059Y0021399D01*
X0025211Y0021152D01*
X0025357Y0020902D01*
X0025496Y0020648D01*
X0025630Y0020390D01*
X0025757Y0020130D01*
X0025878Y0019866D01*
X0025992Y0019600D01*
X0026100Y0019331D01*
X0026201Y0019059D01*
X0026295Y0018785D01*
X0026382Y0018509D01*
X0026463Y0018230D01*
X0026537Y0017950D01*
X0026604Y0017668D01*
X0026664Y0017384D01*
X0026717Y0017099D01*
X0026763Y0016813D01*
X0026802Y0016526D01*
X0026834Y0016238D01*
X0026859Y0015949D01*
X0026877Y0015660D01*
X0026887Y0015370D01*
X0026891Y0015080D01*
X0026887Y0014790D01*
X0026877Y0014500D01*
X0026859Y0014211D01*
X0026834Y0013922D01*
X0026802Y0013634D01*
X0026763Y0013347D01*
X0026717Y0013061D01*
X0026664Y0012776D01*
X0026604Y0012492D01*
X0026537Y0012210D01*
X0026463Y0011930D01*
X0026382Y0011651D01*
X0026295Y0011375D01*
X0026201Y0011101D01*
X0026100Y0010829D01*
X0025992Y0010560D01*
X0025878Y0010294D01*
X0025757Y0010030D01*
X0025630Y0009770D01*
X0025496Y0009512D01*
X0025357Y0009258D01*
X0025211Y0009008D01*
X0025059Y0008761D01*
X0024900Y0008518D01*
X0024736Y0008279D01*
X0024567Y0008044D01*
X0024391Y0007813D01*
X0024210Y0007587D01*
X0024023Y0007365D01*
X0023831Y0007148D01*
X0023634Y0006936D01*
X0023432Y0006728D01*
X0023224Y0006526D01*
X0023012Y0006329D01*
X0022795Y0006137D01*
X0022573Y0005950D01*
X0022347Y0005769D01*
X0022116Y0005593D01*
X0021881Y0005424D01*
X0021642Y0005260D01*
X0021399Y0005101D01*
X0021152Y0004949D01*
X0020902Y0004803D01*
X0020648Y0004664D01*
X0020390Y0004530D01*
X0020130Y0004403D01*
X0019866Y0004282D01*
X0019600Y0004168D01*
X0019331Y0004060D01*
X0019059Y0003959D01*
X0018785Y0003865D01*
X0018509Y0003778D01*
X0018230Y0003697D01*
X0017950Y0003623D01*
X0017668Y0003556D01*
X0017384Y0003496D01*
X0017099Y0003443D01*
X0016813Y0003397D01*
X0016526Y0003358D01*
X0016238Y0003326D01*
X0015949Y0003301D01*
X0015660Y0003283D01*
X0015370Y0003273D01*
X0015080Y0003269D01*
X0014790Y0003273D01*
X0014500Y0003283D01*
X0014211Y0003301D01*
X0013922Y0003326D01*
X0013634Y0003358D01*
X0013347Y0003397D01*
X0013061Y0003443D01*
X0012776Y0003496D01*
X0012492Y0003556D01*
X0012210Y0003623D01*
X0011930Y0003697D01*
X0011651Y0003778D01*
X0011375Y0003865D01*
X0011101Y0003959D01*
X0010829Y0004060D01*
X0010560Y0004168D01*
X0010294Y0004282D01*
X0010030Y0004403D01*
X0009770Y0004530D01*
X0009512Y0004664D01*
X0009258Y0004803D01*
X0009008Y0004949D01*
X0008761Y0005101D01*
X0008518Y0005260D01*
X0008279Y0005424D01*
X0008044Y0005593D01*
X0007813Y0005769D01*
X0007587Y0005950D01*
X0007365Y0006137D01*
X0007148Y0006329D01*
X0006936Y0006526D01*
X0006728Y0006728D01*
X0006526Y0006936D01*
X0006329Y0007148D01*
X0006137Y0007365D01*
X0005950Y0007587D01*
X0005769Y0007813D01*
X0005593Y0008044D01*
X0005424Y0008279D01*
X0005260Y0008518D01*
X0005101Y0008761D01*
X0004949Y0009008D01*
X0004803Y0009258D01*
X0004664Y0009512D01*
X0004530Y0009770D01*
X0004403Y0010030D01*
X0004282Y0010294D01*
X0004168Y0010560D01*
X0004060Y0010829D01*
X0003959Y0011101D01*
X0003865Y0011375D01*
X0003778Y0011651D01*
X0003697Y0011930D01*
X0003623Y0012210D01*
X0003556Y0012492D01*
X0003496Y0012776D01*
X0003443Y0013061D01*
X0003397Y0013347D01*
X0003358Y0013634D01*
X0003326Y0013922D01*
X0003301Y0014211D01*
X0003283Y0014500D01*
X0003273Y0014790D01*
X0003269Y0015080D01*
X0066840Y0042629D02*
X0093240Y0042629D01*
X0093316Y0042631D01*
X0093392Y0042637D01*
X0093467Y0042646D01*
X0093542Y0042660D01*
X0093616Y0042677D01*
X0093689Y0042698D01*
X0093761Y0042722D01*
X0093832Y0042751D01*
X0093901Y0042782D01*
X0093968Y0042817D01*
X0094033Y0042856D01*
X0094097Y0042898D01*
X0094158Y0042943D01*
X0094217Y0042991D01*
X0094273Y0043042D01*
X0094327Y0043096D01*
X0094378Y0043152D01*
X0094426Y0043211D01*
X0094471Y0043272D01*
X0094513Y0043336D01*
X0094552Y0043401D01*
X0094587Y0043468D01*
X0094618Y0043537D01*
X0094647Y0043608D01*
X0094671Y0043680D01*
X0094692Y0043753D01*
X0094709Y0043827D01*
X0094723Y0043902D01*
X0094732Y0043977D01*
X0094738Y0044053D01*
X0094740Y0044129D01*
X0066840Y0042629D02*
X0066764Y0042631D01*
X0066688Y0042637D01*
X0066613Y0042646D01*
X0066538Y0042660D01*
X0066464Y0042677D01*
X0066391Y0042698D01*
X0066319Y0042722D01*
X0066248Y0042751D01*
X0066179Y0042782D01*
X0066112Y0042817D01*
X0066047Y0042856D01*
X0065983Y0042898D01*
X0065922Y0042943D01*
X0065863Y0042991D01*
X0065807Y0043042D01*
X0065753Y0043096D01*
X0065702Y0043152D01*
X0065654Y0043211D01*
X0065609Y0043272D01*
X0065567Y0043336D01*
X0065528Y0043401D01*
X0065493Y0043468D01*
X0065462Y0043537D01*
X0065433Y0043608D01*
X0065409Y0043680D01*
X0065388Y0043753D01*
X0065371Y0043827D01*
X0065357Y0043902D01*
X0065348Y0043977D01*
X0065342Y0044053D01*
X0065340Y0044129D01*
X0065340Y0092329D02*
X0065342Y0092405D01*
X0065348Y0092481D01*
X0065357Y0092556D01*
X0065371Y0092631D01*
X0065388Y0092705D01*
X0065409Y0092778D01*
X0065433Y0092850D01*
X0065462Y0092921D01*
X0065493Y0092990D01*
X0065528Y0093057D01*
X0065567Y0093122D01*
X0065609Y0093186D01*
X0065654Y0093247D01*
X0065702Y0093306D01*
X0065753Y0093362D01*
X0065807Y0093416D01*
X0065863Y0093467D01*
X0065922Y0093515D01*
X0065983Y0093560D01*
X0066047Y0093602D01*
X0066112Y0093641D01*
X0066179Y0093676D01*
X0066248Y0093707D01*
X0066319Y0093736D01*
X0066391Y0093760D01*
X0066464Y0093781D01*
X0066538Y0093798D01*
X0066613Y0093812D01*
X0066688Y0093821D01*
X0066764Y0093827D01*
X0066840Y0093829D01*
X0075040Y0093829D01*
X0085040Y0093829D01*
X0093240Y0093829D01*
X0093316Y0093827D01*
X0093392Y0093821D01*
X0093467Y0093812D01*
X0093542Y0093798D01*
X0093616Y0093781D01*
X0093689Y0093760D01*
X0093761Y0093736D01*
X0093832Y0093707D01*
X0093901Y0093676D01*
X0093968Y0093641D01*
X0094033Y0093602D01*
X0094097Y0093560D01*
X0094158Y0093515D01*
X0094217Y0093467D01*
X0094273Y0093416D01*
X0094327Y0093362D01*
X0094378Y0093306D01*
X0094426Y0093247D01*
X0094471Y0093186D01*
X0094513Y0093122D01*
X0094552Y0093057D01*
X0094587Y0092990D01*
X0094618Y0092921D01*
X0094647Y0092850D01*
X0094671Y0092778D01*
X0094692Y0092705D01*
X0094709Y0092631D01*
X0094723Y0092556D01*
X0094732Y0092481D01*
X0094738Y0092405D01*
X0094740Y0092329D01*
X0085040Y0093829D02*
X0085038Y0093689D01*
X0085032Y0093549D01*
X0085022Y0093409D01*
X0085009Y0093269D01*
X0084991Y0093130D01*
X0084969Y0092991D01*
X0084944Y0092854D01*
X0084915Y0092716D01*
X0084882Y0092580D01*
X0084845Y0092445D01*
X0084804Y0092311D01*
X0084759Y0092178D01*
X0084711Y0092046D01*
X0084659Y0091916D01*
X0084604Y0091787D01*
X0084545Y0091660D01*
X0084482Y0091534D01*
X0084416Y0091410D01*
X0084347Y0091289D01*
X0084274Y0091169D01*
X0084197Y0091051D01*
X0084118Y0090936D01*
X0084035Y0090822D01*
X0083949Y0090712D01*
X0083860Y0090603D01*
X0083768Y0090497D01*
X0083673Y0090394D01*
X0083576Y0090293D01*
X0083475Y0090196D01*
X0083372Y0090101D01*
X0083266Y0090009D01*
X0083157Y0089920D01*
X0083047Y0089834D01*
X0082933Y0089751D01*
X0082818Y0089672D01*
X0082700Y0089595D01*
X0082580Y0089522D01*
X0082459Y0089453D01*
X0082335Y0089387D01*
X0082209Y0089324D01*
X0082082Y0089265D01*
X0081953Y0089210D01*
X0081823Y0089158D01*
X0081691Y0089110D01*
X0081558Y0089065D01*
X0081424Y0089024D01*
X0081289Y0088987D01*
X0081153Y0088954D01*
X0081015Y0088925D01*
X0080878Y0088900D01*
X0080739Y0088878D01*
X0080600Y0088860D01*
X0080460Y0088847D01*
X0080320Y0088837D01*
X0080180Y0088831D01*
X0080040Y0088829D01*
X0079900Y0088831D01*
X0079760Y0088837D01*
X0079620Y0088847D01*
X0079480Y0088860D01*
X0079341Y0088878D01*
X0079202Y0088900D01*
X0079065Y0088925D01*
X0078927Y0088954D01*
X0078791Y0088987D01*
X0078656Y0089024D01*
X0078522Y0089065D01*
X0078389Y0089110D01*
X0078257Y0089158D01*
X0078127Y0089210D01*
X0077998Y0089265D01*
X0077871Y0089324D01*
X0077745Y0089387D01*
X0077621Y0089453D01*
X0077500Y0089522D01*
X0077380Y0089595D01*
X0077262Y0089672D01*
X0077147Y0089751D01*
X0077033Y0089834D01*
X0076923Y0089920D01*
X0076814Y0090009D01*
X0076708Y0090101D01*
X0076605Y0090196D01*
X0076504Y0090293D01*
X0076407Y0090394D01*
X0076312Y0090497D01*
X0076220Y0090603D01*
X0076131Y0090712D01*
X0076045Y0090822D01*
X0075962Y0090936D01*
X0075883Y0091051D01*
X0075806Y0091169D01*
X0075733Y0091289D01*
X0075664Y0091410D01*
X0075598Y0091534D01*
X0075535Y0091660D01*
X0075476Y0091787D01*
X0075421Y0091916D01*
X0075369Y0092046D01*
X0075321Y0092178D01*
X0075276Y0092311D01*
X0075235Y0092445D01*
X0075198Y0092580D01*
X0075165Y0092716D01*
X0075136Y0092854D01*
X0075111Y0092991D01*
X0075089Y0093130D01*
X0075071Y0093269D01*
X0075058Y0093409D01*
X0075048Y0093549D01*
X0075042Y0093689D01*
X0075040Y0093829D01*
X0135332Y0067044D02*
X0135332Y0030044D01*
X0135334Y0029968D01*
X0135340Y0029892D01*
X0135349Y0029817D01*
X0135363Y0029742D01*
X0135380Y0029668D01*
X0135401Y0029595D01*
X0135425Y0029523D01*
X0135454Y0029452D01*
X0135485Y0029383D01*
X0135520Y0029316D01*
X0135559Y0029251D01*
X0135601Y0029187D01*
X0135646Y0029126D01*
X0135694Y0029067D01*
X0135745Y0029011D01*
X0135799Y0028957D01*
X0135855Y0028906D01*
X0135914Y0028858D01*
X0135975Y0028813D01*
X0136039Y0028771D01*
X0136104Y0028732D01*
X0136171Y0028697D01*
X0136240Y0028666D01*
X0136311Y0028637D01*
X0136383Y0028613D01*
X0136456Y0028592D01*
X0136530Y0028575D01*
X0136605Y0028561D01*
X0136680Y0028552D01*
X0136756Y0028546D01*
X0136832Y0028544D01*
X0149232Y0028544D01*
X0149308Y0028546D01*
X0149384Y0028552D01*
X0149459Y0028561D01*
X0149534Y0028575D01*
X0149608Y0028592D01*
X0149681Y0028613D01*
X0149753Y0028637D01*
X0149824Y0028666D01*
X0149893Y0028697D01*
X0149960Y0028732D01*
X0150025Y0028771D01*
X0150089Y0028813D01*
X0150150Y0028858D01*
X0150209Y0028906D01*
X0150265Y0028957D01*
X0150319Y0029011D01*
X0150370Y0029067D01*
X0150418Y0029126D01*
X0150463Y0029187D01*
X0150505Y0029251D01*
X0150544Y0029316D01*
X0150579Y0029383D01*
X0150610Y0029452D01*
X0150639Y0029523D01*
X0150663Y0029595D01*
X0150684Y0029668D01*
X0150701Y0029742D01*
X0150715Y0029817D01*
X0150724Y0029892D01*
X0150730Y0029968D01*
X0150732Y0030044D01*
X0150732Y0067044D01*
X0150730Y0067120D01*
X0150724Y0067196D01*
X0150715Y0067271D01*
X0150701Y0067346D01*
X0150684Y0067420D01*
X0150663Y0067493D01*
X0150639Y0067565D01*
X0150610Y0067636D01*
X0150579Y0067705D01*
X0150544Y0067772D01*
X0150505Y0067837D01*
X0150463Y0067901D01*
X0150418Y0067962D01*
X0150370Y0068021D01*
X0150319Y0068077D01*
X0150265Y0068131D01*
X0150209Y0068182D01*
X0150150Y0068230D01*
X0150089Y0068275D01*
X0150025Y0068317D01*
X0149960Y0068356D01*
X0149893Y0068391D01*
X0149824Y0068422D01*
X0149753Y0068451D01*
X0149681Y0068475D01*
X0149608Y0068496D01*
X0149534Y0068513D01*
X0149459Y0068527D01*
X0149384Y0068536D01*
X0149308Y0068542D01*
X0149232Y0068544D01*
X0145032Y0068544D01*
X0141032Y0068544D01*
X0136832Y0068544D01*
X0136756Y0068542D01*
X0136680Y0068536D01*
X0136605Y0068527D01*
X0136530Y0068513D01*
X0136456Y0068496D01*
X0136383Y0068475D01*
X0136311Y0068451D01*
X0136240Y0068422D01*
X0136171Y0068391D01*
X0136104Y0068356D01*
X0136039Y0068317D01*
X0135975Y0068275D01*
X0135914Y0068230D01*
X0135855Y0068182D01*
X0135799Y0068131D01*
X0135745Y0068077D01*
X0135694Y0068021D01*
X0135646Y0067962D01*
X0135601Y0067901D01*
X0135559Y0067837D01*
X0135520Y0067772D01*
X0135485Y0067705D01*
X0135454Y0067636D01*
X0135425Y0067565D01*
X0135401Y0067493D01*
X0135380Y0067420D01*
X0135363Y0067346D01*
X0135349Y0067271D01*
X0135340Y0067196D01*
X0135334Y0067120D01*
X0135332Y0067044D01*
X0141032Y0068544D02*
X0141034Y0068456D01*
X0141040Y0068367D01*
X0141050Y0068279D01*
X0141063Y0068192D01*
X0141081Y0068105D01*
X0141102Y0068019D01*
X0141127Y0067934D01*
X0141156Y0067851D01*
X0141189Y0067768D01*
X0141225Y0067688D01*
X0141264Y0067609D01*
X0141307Y0067531D01*
X0141354Y0067456D01*
X0141404Y0067383D01*
X0141457Y0067312D01*
X0141513Y0067243D01*
X0141572Y0067177D01*
X0141634Y0067114D01*
X0141698Y0067054D01*
X0141765Y0066996D01*
X0141835Y0066942D01*
X0141907Y0066890D01*
X0141981Y0066842D01*
X0142058Y0066797D01*
X0142136Y0066756D01*
X0142216Y0066718D01*
X0142297Y0066684D01*
X0142380Y0066653D01*
X0142465Y0066626D01*
X0142550Y0066603D01*
X0142636Y0066584D01*
X0142724Y0066568D01*
X0142811Y0066556D01*
X0142899Y0066548D01*
X0142988Y0066544D01*
X0143076Y0066544D01*
X0143165Y0066548D01*
X0143253Y0066556D01*
X0143340Y0066568D01*
X0143428Y0066584D01*
X0143514Y0066603D01*
X0143599Y0066626D01*
X0143684Y0066653D01*
X0143767Y0066684D01*
X0143848Y0066718D01*
X0143928Y0066756D01*
X0144006Y0066797D01*
X0144083Y0066842D01*
X0144157Y0066890D01*
X0144229Y0066942D01*
X0144299Y0066996D01*
X0144366Y0067054D01*
X0144430Y0067114D01*
X0144492Y0067177D01*
X0144551Y0067243D01*
X0144607Y0067312D01*
X0144660Y0067383D01*
X0144710Y0067456D01*
X0144757Y0067531D01*
X0144800Y0067609D01*
X0144839Y0067688D01*
X0144875Y0067768D01*
X0144908Y0067851D01*
X0144937Y0067934D01*
X0144962Y0068019D01*
X0144983Y0068105D01*
X0145001Y0068192D01*
X0145014Y0068279D01*
X0145024Y0068367D01*
X0145030Y0068456D01*
X0145032Y0068544D01*
X0196182Y0015080D02*
X0196186Y0015370D01*
X0196196Y0015660D01*
X0196214Y0015949D01*
X0196239Y0016238D01*
X0196271Y0016526D01*
X0196310Y0016813D01*
X0196356Y0017099D01*
X0196409Y0017384D01*
X0196469Y0017668D01*
X0196536Y0017950D01*
X0196610Y0018230D01*
X0196691Y0018509D01*
X0196778Y0018785D01*
X0196872Y0019059D01*
X0196973Y0019331D01*
X0197081Y0019600D01*
X0197195Y0019866D01*
X0197316Y0020130D01*
X0197443Y0020390D01*
X0197577Y0020648D01*
X0197716Y0020902D01*
X0197862Y0021152D01*
X0198014Y0021399D01*
X0198173Y0021642D01*
X0198337Y0021881D01*
X0198506Y0022116D01*
X0198682Y0022347D01*
X0198863Y0022573D01*
X0199050Y0022795D01*
X0199242Y0023012D01*
X0199439Y0023224D01*
X0199641Y0023432D01*
X0199849Y0023634D01*
X0200061Y0023831D01*
X0200278Y0024023D01*
X0200500Y0024210D01*
X0200726Y0024391D01*
X0200957Y0024567D01*
X0201192Y0024736D01*
X0201431Y0024900D01*
X0201674Y0025059D01*
X0201921Y0025211D01*
X0202171Y0025357D01*
X0202425Y0025496D01*
X0202683Y0025630D01*
X0202943Y0025757D01*
X0203207Y0025878D01*
X0203473Y0025992D01*
X0203742Y0026100D01*
X0204014Y0026201D01*
X0204288Y0026295D01*
X0204564Y0026382D01*
X0204843Y0026463D01*
X0205123Y0026537D01*
X0205405Y0026604D01*
X0205689Y0026664D01*
X0205974Y0026717D01*
X0206260Y0026763D01*
X0206547Y0026802D01*
X0206835Y0026834D01*
X0207124Y0026859D01*
X0207413Y0026877D01*
X0207703Y0026887D01*
X0207993Y0026891D01*
X0208283Y0026887D01*
X0208573Y0026877D01*
X0208862Y0026859D01*
X0209151Y0026834D01*
X0209439Y0026802D01*
X0209726Y0026763D01*
X0210012Y0026717D01*
X0210297Y0026664D01*
X0210581Y0026604D01*
X0210863Y0026537D01*
X0211143Y0026463D01*
X0211422Y0026382D01*
X0211698Y0026295D01*
X0211972Y0026201D01*
X0212244Y0026100D01*
X0212513Y0025992D01*
X0212779Y0025878D01*
X0213043Y0025757D01*
X0213303Y0025630D01*
X0213561Y0025496D01*
X0213815Y0025357D01*
X0214065Y0025211D01*
X0214312Y0025059D01*
X0214555Y0024900D01*
X0214794Y0024736D01*
X0215029Y0024567D01*
X0215260Y0024391D01*
X0215486Y0024210D01*
X0215708Y0024023D01*
X0215925Y0023831D01*
X0216137Y0023634D01*
X0216345Y0023432D01*
X0216547Y0023224D01*
X0216744Y0023012D01*
X0216936Y0022795D01*
X0217123Y0022573D01*
X0217304Y0022347D01*
X0217480Y0022116D01*
X0217649Y0021881D01*
X0217813Y0021642D01*
X0217972Y0021399D01*
X0218124Y0021152D01*
X0218270Y0020902D01*
X0218409Y0020648D01*
X0218543Y0020390D01*
X0218670Y0020130D01*
X0218791Y0019866D01*
X0218905Y0019600D01*
X0219013Y0019331D01*
X0219114Y0019059D01*
X0219208Y0018785D01*
X0219295Y0018509D01*
X0219376Y0018230D01*
X0219450Y0017950D01*
X0219517Y0017668D01*
X0219577Y0017384D01*
X0219630Y0017099D01*
X0219676Y0016813D01*
X0219715Y0016526D01*
X0219747Y0016238D01*
X0219772Y0015949D01*
X0219790Y0015660D01*
X0219800Y0015370D01*
X0219804Y0015080D01*
X0219800Y0014790D01*
X0219790Y0014500D01*
X0219772Y0014211D01*
X0219747Y0013922D01*
X0219715Y0013634D01*
X0219676Y0013347D01*
X0219630Y0013061D01*
X0219577Y0012776D01*
X0219517Y0012492D01*
X0219450Y0012210D01*
X0219376Y0011930D01*
X0219295Y0011651D01*
X0219208Y0011375D01*
X0219114Y0011101D01*
X0219013Y0010829D01*
X0218905Y0010560D01*
X0218791Y0010294D01*
X0218670Y0010030D01*
X0218543Y0009770D01*
X0218409Y0009512D01*
X0218270Y0009258D01*
X0218124Y0009008D01*
X0217972Y0008761D01*
X0217813Y0008518D01*
X0217649Y0008279D01*
X0217480Y0008044D01*
X0217304Y0007813D01*
X0217123Y0007587D01*
X0216936Y0007365D01*
X0216744Y0007148D01*
X0216547Y0006936D01*
X0216345Y0006728D01*
X0216137Y0006526D01*
X0215925Y0006329D01*
X0215708Y0006137D01*
X0215486Y0005950D01*
X0215260Y0005769D01*
X0215029Y0005593D01*
X0214794Y0005424D01*
X0214555Y0005260D01*
X0214312Y0005101D01*
X0214065Y0004949D01*
X0213815Y0004803D01*
X0213561Y0004664D01*
X0213303Y0004530D01*
X0213043Y0004403D01*
X0212779Y0004282D01*
X0212513Y0004168D01*
X0212244Y0004060D01*
X0211972Y0003959D01*
X0211698Y0003865D01*
X0211422Y0003778D01*
X0211143Y0003697D01*
X0210863Y0003623D01*
X0210581Y0003556D01*
X0210297Y0003496D01*
X0210012Y0003443D01*
X0209726Y0003397D01*
X0209439Y0003358D01*
X0209151Y0003326D01*
X0208862Y0003301D01*
X0208573Y0003283D01*
X0208283Y0003273D01*
X0207993Y0003269D01*
X0207703Y0003273D01*
X0207413Y0003283D01*
X0207124Y0003301D01*
X0206835Y0003326D01*
X0206547Y0003358D01*
X0206260Y0003397D01*
X0205974Y0003443D01*
X0205689Y0003496D01*
X0205405Y0003556D01*
X0205123Y0003623D01*
X0204843Y0003697D01*
X0204564Y0003778D01*
X0204288Y0003865D01*
X0204014Y0003959D01*
X0203742Y0004060D01*
X0203473Y0004168D01*
X0203207Y0004282D01*
X0202943Y0004403D01*
X0202683Y0004530D01*
X0202425Y0004664D01*
X0202171Y0004803D01*
X0201921Y0004949D01*
X0201674Y0005101D01*
X0201431Y0005260D01*
X0201192Y0005424D01*
X0200957Y0005593D01*
X0200726Y0005769D01*
X0200500Y0005950D01*
X0200278Y0006137D01*
X0200061Y0006329D01*
X0199849Y0006526D01*
X0199641Y0006728D01*
X0199439Y0006936D01*
X0199242Y0007148D01*
X0199050Y0007365D01*
X0198863Y0007587D01*
X0198682Y0007813D01*
X0198506Y0008044D01*
X0198337Y0008279D01*
X0198173Y0008518D01*
X0198014Y0008761D01*
X0197862Y0009008D01*
X0197716Y0009258D01*
X0197577Y0009512D01*
X0197443Y0009770D01*
X0197316Y0010030D01*
X0197195Y0010294D01*
X0197081Y0010560D01*
X0196973Y0010829D01*
X0196872Y0011101D01*
X0196778Y0011375D01*
X0196691Y0011651D01*
X0196610Y0011930D01*
X0196536Y0012210D01*
X0196469Y0012492D01*
X0196409Y0012776D01*
X0196356Y0013061D01*
X0196310Y0013347D01*
X0196271Y0013634D01*
X0196239Y0013922D01*
X0196214Y0014211D01*
X0196196Y0014500D01*
X0196186Y0014790D01*
X0196182Y0015080D01*
X0160749Y0223741D02*
X0160753Y0224031D01*
X0160763Y0224321D01*
X0160781Y0224610D01*
X0160806Y0224899D01*
X0160838Y0225187D01*
X0160877Y0225474D01*
X0160923Y0225760D01*
X0160976Y0226045D01*
X0161036Y0226329D01*
X0161103Y0226611D01*
X0161177Y0226891D01*
X0161258Y0227170D01*
X0161345Y0227446D01*
X0161439Y0227720D01*
X0161540Y0227992D01*
X0161648Y0228261D01*
X0161762Y0228527D01*
X0161883Y0228791D01*
X0162010Y0229051D01*
X0162144Y0229309D01*
X0162283Y0229563D01*
X0162429Y0229813D01*
X0162581Y0230060D01*
X0162740Y0230303D01*
X0162904Y0230542D01*
X0163073Y0230777D01*
X0163249Y0231008D01*
X0163430Y0231234D01*
X0163617Y0231456D01*
X0163809Y0231673D01*
X0164006Y0231885D01*
X0164208Y0232093D01*
X0164416Y0232295D01*
X0164628Y0232492D01*
X0164845Y0232684D01*
X0165067Y0232871D01*
X0165293Y0233052D01*
X0165524Y0233228D01*
X0165759Y0233397D01*
X0165998Y0233561D01*
X0166241Y0233720D01*
X0166488Y0233872D01*
X0166738Y0234018D01*
X0166992Y0234157D01*
X0167250Y0234291D01*
X0167510Y0234418D01*
X0167774Y0234539D01*
X0168040Y0234653D01*
X0168309Y0234761D01*
X0168581Y0234862D01*
X0168855Y0234956D01*
X0169131Y0235043D01*
X0169410Y0235124D01*
X0169690Y0235198D01*
X0169972Y0235265D01*
X0170256Y0235325D01*
X0170541Y0235378D01*
X0170827Y0235424D01*
X0171114Y0235463D01*
X0171402Y0235495D01*
X0171691Y0235520D01*
X0171980Y0235538D01*
X0172270Y0235548D01*
X0172560Y0235552D01*
X0172850Y0235548D01*
X0173140Y0235538D01*
X0173429Y0235520D01*
X0173718Y0235495D01*
X0174006Y0235463D01*
X0174293Y0235424D01*
X0174579Y0235378D01*
X0174864Y0235325D01*
X0175148Y0235265D01*
X0175430Y0235198D01*
X0175710Y0235124D01*
X0175989Y0235043D01*
X0176265Y0234956D01*
X0176539Y0234862D01*
X0176811Y0234761D01*
X0177080Y0234653D01*
X0177346Y0234539D01*
X0177610Y0234418D01*
X0177870Y0234291D01*
X0178128Y0234157D01*
X0178382Y0234018D01*
X0178632Y0233872D01*
X0178879Y0233720D01*
X0179122Y0233561D01*
X0179361Y0233397D01*
X0179596Y0233228D01*
X0179827Y0233052D01*
X0180053Y0232871D01*
X0180275Y0232684D01*
X0180492Y0232492D01*
X0180704Y0232295D01*
X0180912Y0232093D01*
X0181114Y0231885D01*
X0181311Y0231673D01*
X0181503Y0231456D01*
X0181690Y0231234D01*
X0181871Y0231008D01*
X0182047Y0230777D01*
X0182216Y0230542D01*
X0182380Y0230303D01*
X0182539Y0230060D01*
X0182691Y0229813D01*
X0182837Y0229563D01*
X0182976Y0229309D01*
X0183110Y0229051D01*
X0183237Y0228791D01*
X0183358Y0228527D01*
X0183472Y0228261D01*
X0183580Y0227992D01*
X0183681Y0227720D01*
X0183775Y0227446D01*
X0183862Y0227170D01*
X0183943Y0226891D01*
X0184017Y0226611D01*
X0184084Y0226329D01*
X0184144Y0226045D01*
X0184197Y0225760D01*
X0184243Y0225474D01*
X0184282Y0225187D01*
X0184314Y0224899D01*
X0184339Y0224610D01*
X0184357Y0224321D01*
X0184367Y0224031D01*
X0184371Y0223741D01*
X0184367Y0223451D01*
X0184357Y0223161D01*
X0184339Y0222872D01*
X0184314Y0222583D01*
X0184282Y0222295D01*
X0184243Y0222008D01*
X0184197Y0221722D01*
X0184144Y0221437D01*
X0184084Y0221153D01*
X0184017Y0220871D01*
X0183943Y0220591D01*
X0183862Y0220312D01*
X0183775Y0220036D01*
X0183681Y0219762D01*
X0183580Y0219490D01*
X0183472Y0219221D01*
X0183358Y0218955D01*
X0183237Y0218691D01*
X0183110Y0218431D01*
X0182976Y0218173D01*
X0182837Y0217919D01*
X0182691Y0217669D01*
X0182539Y0217422D01*
X0182380Y0217179D01*
X0182216Y0216940D01*
X0182047Y0216705D01*
X0181871Y0216474D01*
X0181690Y0216248D01*
X0181503Y0216026D01*
X0181311Y0215809D01*
X0181114Y0215597D01*
X0180912Y0215389D01*
X0180704Y0215187D01*
X0180492Y0214990D01*
X0180275Y0214798D01*
X0180053Y0214611D01*
X0179827Y0214430D01*
X0179596Y0214254D01*
X0179361Y0214085D01*
X0179122Y0213921D01*
X0178879Y0213762D01*
X0178632Y0213610D01*
X0178382Y0213464D01*
X0178128Y0213325D01*
X0177870Y0213191D01*
X0177610Y0213064D01*
X0177346Y0212943D01*
X0177080Y0212829D01*
X0176811Y0212721D01*
X0176539Y0212620D01*
X0176265Y0212526D01*
X0175989Y0212439D01*
X0175710Y0212358D01*
X0175430Y0212284D01*
X0175148Y0212217D01*
X0174864Y0212157D01*
X0174579Y0212104D01*
X0174293Y0212058D01*
X0174006Y0212019D01*
X0173718Y0211987D01*
X0173429Y0211962D01*
X0173140Y0211944D01*
X0172850Y0211934D01*
X0172560Y0211930D01*
X0172270Y0211934D01*
X0171980Y0211944D01*
X0171691Y0211962D01*
X0171402Y0211987D01*
X0171114Y0212019D01*
X0170827Y0212058D01*
X0170541Y0212104D01*
X0170256Y0212157D01*
X0169972Y0212217D01*
X0169690Y0212284D01*
X0169410Y0212358D01*
X0169131Y0212439D01*
X0168855Y0212526D01*
X0168581Y0212620D01*
X0168309Y0212721D01*
X0168040Y0212829D01*
X0167774Y0212943D01*
X0167510Y0213064D01*
X0167250Y0213191D01*
X0166992Y0213325D01*
X0166738Y0213464D01*
X0166488Y0213610D01*
X0166241Y0213762D01*
X0165998Y0213921D01*
X0165759Y0214085D01*
X0165524Y0214254D01*
X0165293Y0214430D01*
X0165067Y0214611D01*
X0164845Y0214798D01*
X0164628Y0214990D01*
X0164416Y0215187D01*
X0164208Y0215389D01*
X0164006Y0215597D01*
X0163809Y0215809D01*
X0163617Y0216026D01*
X0163430Y0216248D01*
X0163249Y0216474D01*
X0163073Y0216705D01*
X0162904Y0216940D01*
X0162740Y0217179D01*
X0162581Y0217422D01*
X0162429Y0217669D01*
X0162283Y0217919D01*
X0162144Y0218173D01*
X0162010Y0218431D01*
X0161883Y0218691D01*
X0161762Y0218955D01*
X0161648Y0219221D01*
X0161540Y0219490D01*
X0161439Y0219762D01*
X0161345Y0220036D01*
X0161258Y0220312D01*
X0161177Y0220591D01*
X0161103Y0220871D01*
X0161036Y0221153D01*
X0160976Y0221437D01*
X0160923Y0221722D01*
X0160877Y0222008D01*
X0160838Y0222295D01*
X0160806Y0222583D01*
X0160781Y0222872D01*
X0160763Y0223161D01*
X0160753Y0223451D01*
X0160749Y0223741D01*
X0003269Y0223741D02*
X0003273Y0224031D01*
X0003283Y0224321D01*
X0003301Y0224610D01*
X0003326Y0224899D01*
X0003358Y0225187D01*
X0003397Y0225474D01*
X0003443Y0225760D01*
X0003496Y0226045D01*
X0003556Y0226329D01*
X0003623Y0226611D01*
X0003697Y0226891D01*
X0003778Y0227170D01*
X0003865Y0227446D01*
X0003959Y0227720D01*
X0004060Y0227992D01*
X0004168Y0228261D01*
X0004282Y0228527D01*
X0004403Y0228791D01*
X0004530Y0229051D01*
X0004664Y0229309D01*
X0004803Y0229563D01*
X0004949Y0229813D01*
X0005101Y0230060D01*
X0005260Y0230303D01*
X0005424Y0230542D01*
X0005593Y0230777D01*
X0005769Y0231008D01*
X0005950Y0231234D01*
X0006137Y0231456D01*
X0006329Y0231673D01*
X0006526Y0231885D01*
X0006728Y0232093D01*
X0006936Y0232295D01*
X0007148Y0232492D01*
X0007365Y0232684D01*
X0007587Y0232871D01*
X0007813Y0233052D01*
X0008044Y0233228D01*
X0008279Y0233397D01*
X0008518Y0233561D01*
X0008761Y0233720D01*
X0009008Y0233872D01*
X0009258Y0234018D01*
X0009512Y0234157D01*
X0009770Y0234291D01*
X0010030Y0234418D01*
X0010294Y0234539D01*
X0010560Y0234653D01*
X0010829Y0234761D01*
X0011101Y0234862D01*
X0011375Y0234956D01*
X0011651Y0235043D01*
X0011930Y0235124D01*
X0012210Y0235198D01*
X0012492Y0235265D01*
X0012776Y0235325D01*
X0013061Y0235378D01*
X0013347Y0235424D01*
X0013634Y0235463D01*
X0013922Y0235495D01*
X0014211Y0235520D01*
X0014500Y0235538D01*
X0014790Y0235548D01*
X0015080Y0235552D01*
X0015370Y0235548D01*
X0015660Y0235538D01*
X0015949Y0235520D01*
X0016238Y0235495D01*
X0016526Y0235463D01*
X0016813Y0235424D01*
X0017099Y0235378D01*
X0017384Y0235325D01*
X0017668Y0235265D01*
X0017950Y0235198D01*
X0018230Y0235124D01*
X0018509Y0235043D01*
X0018785Y0234956D01*
X0019059Y0234862D01*
X0019331Y0234761D01*
X0019600Y0234653D01*
X0019866Y0234539D01*
X0020130Y0234418D01*
X0020390Y0234291D01*
X0020648Y0234157D01*
X0020902Y0234018D01*
X0021152Y0233872D01*
X0021399Y0233720D01*
X0021642Y0233561D01*
X0021881Y0233397D01*
X0022116Y0233228D01*
X0022347Y0233052D01*
X0022573Y0232871D01*
X0022795Y0232684D01*
X0023012Y0232492D01*
X0023224Y0232295D01*
X0023432Y0232093D01*
X0023634Y0231885D01*
X0023831Y0231673D01*
X0024023Y0231456D01*
X0024210Y0231234D01*
X0024391Y0231008D01*
X0024567Y0230777D01*
X0024736Y0230542D01*
X0024900Y0230303D01*
X0025059Y0230060D01*
X0025211Y0229813D01*
X0025357Y0229563D01*
X0025496Y0229309D01*
X0025630Y0229051D01*
X0025757Y0228791D01*
X0025878Y0228527D01*
X0025992Y0228261D01*
X0026100Y0227992D01*
X0026201Y0227720D01*
X0026295Y0227446D01*
X0026382Y0227170D01*
X0026463Y0226891D01*
X0026537Y0226611D01*
X0026604Y0226329D01*
X0026664Y0226045D01*
X0026717Y0225760D01*
X0026763Y0225474D01*
X0026802Y0225187D01*
X0026834Y0224899D01*
X0026859Y0224610D01*
X0026877Y0224321D01*
X0026887Y0224031D01*
X0026891Y0223741D01*
X0026887Y0223451D01*
X0026877Y0223161D01*
X0026859Y0222872D01*
X0026834Y0222583D01*
X0026802Y0222295D01*
X0026763Y0222008D01*
X0026717Y0221722D01*
X0026664Y0221437D01*
X0026604Y0221153D01*
X0026537Y0220871D01*
X0026463Y0220591D01*
X0026382Y0220312D01*
X0026295Y0220036D01*
X0026201Y0219762D01*
X0026100Y0219490D01*
X0025992Y0219221D01*
X0025878Y0218955D01*
X0025757Y0218691D01*
X0025630Y0218431D01*
X0025496Y0218173D01*
X0025357Y0217919D01*
X0025211Y0217669D01*
X0025059Y0217422D01*
X0024900Y0217179D01*
X0024736Y0216940D01*
X0024567Y0216705D01*
X0024391Y0216474D01*
X0024210Y0216248D01*
X0024023Y0216026D01*
X0023831Y0215809D01*
X0023634Y0215597D01*
X0023432Y0215389D01*
X0023224Y0215187D01*
X0023012Y0214990D01*
X0022795Y0214798D01*
X0022573Y0214611D01*
X0022347Y0214430D01*
X0022116Y0214254D01*
X0021881Y0214085D01*
X0021642Y0213921D01*
X0021399Y0213762D01*
X0021152Y0213610D01*
X0020902Y0213464D01*
X0020648Y0213325D01*
X0020390Y0213191D01*
X0020130Y0213064D01*
X0019866Y0212943D01*
X0019600Y0212829D01*
X0019331Y0212721D01*
X0019059Y0212620D01*
X0018785Y0212526D01*
X0018509Y0212439D01*
X0018230Y0212358D01*
X0017950Y0212284D01*
X0017668Y0212217D01*
X0017384Y0212157D01*
X0017099Y0212104D01*
X0016813Y0212058D01*
X0016526Y0212019D01*
X0016238Y0211987D01*
X0015949Y0211962D01*
X0015660Y0211944D01*
X0015370Y0211934D01*
X0015080Y0211930D01*
X0014790Y0211934D01*
X0014500Y0211944D01*
X0014211Y0211962D01*
X0013922Y0211987D01*
X0013634Y0212019D01*
X0013347Y0212058D01*
X0013061Y0212104D01*
X0012776Y0212157D01*
X0012492Y0212217D01*
X0012210Y0212284D01*
X0011930Y0212358D01*
X0011651Y0212439D01*
X0011375Y0212526D01*
X0011101Y0212620D01*
X0010829Y0212721D01*
X0010560Y0212829D01*
X0010294Y0212943D01*
X0010030Y0213064D01*
X0009770Y0213191D01*
X0009512Y0213325D01*
X0009258Y0213464D01*
X0009008Y0213610D01*
X0008761Y0213762D01*
X0008518Y0213921D01*
X0008279Y0214085D01*
X0008044Y0214254D01*
X0007813Y0214430D01*
X0007587Y0214611D01*
X0007365Y0214798D01*
X0007148Y0214990D01*
X0006936Y0215187D01*
X0006728Y0215389D01*
X0006526Y0215597D01*
X0006329Y0215809D01*
X0006137Y0216026D01*
X0005950Y0216248D01*
X0005769Y0216474D01*
X0005593Y0216705D01*
X0005424Y0216940D01*
X0005260Y0217179D01*
X0005101Y0217422D01*
X0004949Y0217669D01*
X0004803Y0217919D01*
X0004664Y0218173D01*
X0004530Y0218431D01*
X0004403Y0218691D01*
X0004282Y0218955D01*
X0004168Y0219221D01*
X0004060Y0219490D01*
X0003959Y0219762D01*
X0003865Y0220036D01*
X0003778Y0220312D01*
X0003697Y0220591D01*
X0003623Y0220871D01*
X0003556Y0221153D01*
X0003496Y0221437D01*
X0003443Y0221722D01*
X0003397Y0222008D01*
X0003358Y0222295D01*
X0003326Y0222583D01*
X0003301Y0222872D01*
X0003283Y0223161D01*
X0003273Y0223451D01*
X0003269Y0223741D01*
D13*
X0009174Y0195316D02*
X0040670Y0195316D01*
X0040670Y0145867D01*
X0009174Y0145867D01*
X0009174Y0195316D01*
X0035670Y0207835D02*
X0040670Y0207835D01*
X0040670Y0212835D01*
X0050670Y0212835D01*
X0050670Y0207835D01*
X0040670Y0207835D01*
X0035670Y0207835D02*
X0035670Y0229835D01*
X0055670Y0229835D01*
X0055670Y0207835D01*
X0050670Y0207835D01*
X0049883Y0200591D02*
X0049883Y0140591D01*
X0129883Y0140591D01*
X0129883Y0200591D01*
X0049883Y0200591D01*
X0114410Y0207835D02*
X0119410Y0207835D01*
X0119410Y0212835D01*
X0129410Y0212835D01*
X0129410Y0207835D01*
X0119410Y0207835D01*
X0114410Y0207835D02*
X0114410Y0229835D01*
X0134410Y0229835D01*
X0134410Y0207835D01*
X0129410Y0207835D01*
X0134528Y0200591D02*
X0134528Y0140591D01*
X0214528Y0140591D01*
X0214528Y0200591D01*
X0134528Y0200591D01*
X0193150Y0207835D02*
X0198150Y0207835D01*
X0198150Y0212835D01*
X0208150Y0212835D01*
X0208150Y0207835D01*
X0198150Y0207835D01*
X0193150Y0207835D02*
X0193150Y0229835D01*
X0213150Y0229835D01*
X0213150Y0207835D01*
X0208150Y0207835D01*
X0164473Y0099725D02*
X0164479Y0100189D01*
X0164496Y0100653D01*
X0164524Y0101116D01*
X0164564Y0101579D01*
X0164615Y0102040D01*
X0164678Y0102500D01*
X0164751Y0102959D01*
X0164836Y0103415D01*
X0164933Y0103869D01*
X0165040Y0104321D01*
X0165158Y0104770D01*
X0165287Y0105215D01*
X0165428Y0105658D01*
X0165579Y0106097D01*
X0165740Y0106532D01*
X0165913Y0106963D01*
X0166096Y0107390D01*
X0166289Y0107812D01*
X0166493Y0108229D01*
X0166706Y0108641D01*
X0166930Y0109048D01*
X0167164Y0109449D01*
X0167407Y0109844D01*
X0167661Y0110233D01*
X0167923Y0110616D01*
X0168195Y0110992D01*
X0168476Y0111361D01*
X0168766Y0111724D01*
X0169065Y0112079D01*
X0169373Y0112427D01*
X0169689Y0112767D01*
X0170013Y0113099D01*
X0170345Y0113423D01*
X0170685Y0113739D01*
X0171033Y0114047D01*
X0171388Y0114346D01*
X0171751Y0114636D01*
X0172120Y0114917D01*
X0172496Y0115189D01*
X0172879Y0115451D01*
X0173268Y0115705D01*
X0173663Y0115948D01*
X0174064Y0116182D01*
X0174471Y0116406D01*
X0174883Y0116619D01*
X0175300Y0116823D01*
X0175722Y0117016D01*
X0176149Y0117199D01*
X0176580Y0117372D01*
X0177015Y0117533D01*
X0177454Y0117684D01*
X0177897Y0117825D01*
X0178342Y0117954D01*
X0178791Y0118072D01*
X0179243Y0118179D01*
X0179697Y0118276D01*
X0180153Y0118361D01*
X0180612Y0118434D01*
X0181072Y0118497D01*
X0181533Y0118548D01*
X0181996Y0118588D01*
X0182459Y0118616D01*
X0182923Y0118633D01*
X0183387Y0118639D01*
X0183851Y0118633D01*
X0184315Y0118616D01*
X0184778Y0118588D01*
X0185241Y0118548D01*
X0185702Y0118497D01*
X0186162Y0118434D01*
X0186621Y0118361D01*
X0187077Y0118276D01*
X0187531Y0118179D01*
X0187983Y0118072D01*
X0188432Y0117954D01*
X0188877Y0117825D01*
X0189320Y0117684D01*
X0189759Y0117533D01*
X0190194Y0117372D01*
X0190625Y0117199D01*
X0191052Y0117016D01*
X0191474Y0116823D01*
X0191891Y0116619D01*
X0192303Y0116406D01*
X0192710Y0116182D01*
X0193111Y0115948D01*
X0193506Y0115705D01*
X0193895Y0115451D01*
X0194278Y0115189D01*
X0194654Y0114917D01*
X0195023Y0114636D01*
X0195386Y0114346D01*
X0195741Y0114047D01*
X0196089Y0113739D01*
X0196429Y0113423D01*
X0196761Y0113099D01*
X0197085Y0112767D01*
X0197401Y0112427D01*
X0197709Y0112079D01*
X0198008Y0111724D01*
X0198298Y0111361D01*
X0198579Y0110992D01*
X0198851Y0110616D01*
X0199113Y0110233D01*
X0199367Y0109844D01*
X0199610Y0109449D01*
X0199844Y0109048D01*
X0200068Y0108641D01*
X0200281Y0108229D01*
X0200485Y0107812D01*
X0200678Y0107390D01*
X0200861Y0106963D01*
X0201034Y0106532D01*
X0201195Y0106097D01*
X0201346Y0105658D01*
X0201487Y0105215D01*
X0201616Y0104770D01*
X0201734Y0104321D01*
X0201841Y0103869D01*
X0201938Y0103415D01*
X0202023Y0102959D01*
X0202096Y0102500D01*
X0202159Y0102040D01*
X0202210Y0101579D01*
X0202250Y0101116D01*
X0202278Y0100653D01*
X0202295Y0100189D01*
X0202301Y0099725D01*
X0202295Y0099261D01*
X0202278Y0098797D01*
X0202250Y0098334D01*
X0202210Y0097871D01*
X0202159Y0097410D01*
X0202096Y0096950D01*
X0202023Y0096491D01*
X0201938Y0096035D01*
X0201841Y0095581D01*
X0201734Y0095129D01*
X0201616Y0094680D01*
X0201487Y0094235D01*
X0201346Y0093792D01*
X0201195Y0093353D01*
X0201034Y0092918D01*
X0200861Y0092487D01*
X0200678Y0092060D01*
X0200485Y0091638D01*
X0200281Y0091221D01*
X0200068Y0090809D01*
X0199844Y0090402D01*
X0199610Y0090001D01*
X0199367Y0089606D01*
X0199113Y0089217D01*
X0198851Y0088834D01*
X0198579Y0088458D01*
X0198298Y0088089D01*
X0198008Y0087726D01*
X0197709Y0087371D01*
X0197401Y0087023D01*
X0197085Y0086683D01*
X0196761Y0086351D01*
X0196429Y0086027D01*
X0196089Y0085711D01*
X0195741Y0085403D01*
X0195386Y0085104D01*
X0195023Y0084814D01*
X0194654Y0084533D01*
X0194278Y0084261D01*
X0193895Y0083999D01*
X0193506Y0083745D01*
X0193111Y0083502D01*
X0192710Y0083268D01*
X0192303Y0083044D01*
X0191891Y0082831D01*
X0191474Y0082627D01*
X0191052Y0082434D01*
X0190625Y0082251D01*
X0190194Y0082078D01*
X0189759Y0081917D01*
X0189320Y0081766D01*
X0188877Y0081625D01*
X0188432Y0081496D01*
X0187983Y0081378D01*
X0187531Y0081271D01*
X0187077Y0081174D01*
X0186621Y0081089D01*
X0186162Y0081016D01*
X0185702Y0080953D01*
X0185241Y0080902D01*
X0184778Y0080862D01*
X0184315Y0080834D01*
X0183851Y0080817D01*
X0183387Y0080811D01*
X0182923Y0080817D01*
X0182459Y0080834D01*
X0181996Y0080862D01*
X0181533Y0080902D01*
X0181072Y0080953D01*
X0180612Y0081016D01*
X0180153Y0081089D01*
X0179697Y0081174D01*
X0179243Y0081271D01*
X0178791Y0081378D01*
X0178342Y0081496D01*
X0177897Y0081625D01*
X0177454Y0081766D01*
X0177015Y0081917D01*
X0176580Y0082078D01*
X0176149Y0082251D01*
X0175722Y0082434D01*
X0175300Y0082627D01*
X0174883Y0082831D01*
X0174471Y0083044D01*
X0174064Y0083268D01*
X0173663Y0083502D01*
X0173268Y0083745D01*
X0172879Y0083999D01*
X0172496Y0084261D01*
X0172120Y0084533D01*
X0171751Y0084814D01*
X0171388Y0085104D01*
X0171033Y0085403D01*
X0170685Y0085711D01*
X0170345Y0086027D01*
X0170013Y0086351D01*
X0169689Y0086683D01*
X0169373Y0087023D01*
X0169065Y0087371D01*
X0168766Y0087726D01*
X0168476Y0088089D01*
X0168195Y0088458D01*
X0167923Y0088834D01*
X0167661Y0089217D01*
X0167407Y0089606D01*
X0167164Y0090001D01*
X0166930Y0090402D01*
X0166706Y0090809D01*
X0166493Y0091221D01*
X0166289Y0091638D01*
X0166096Y0092060D01*
X0165913Y0092487D01*
X0165740Y0092918D01*
X0165579Y0093353D01*
X0165428Y0093792D01*
X0165287Y0094235D01*
X0165158Y0094680D01*
X0165040Y0095129D01*
X0164933Y0095581D01*
X0164836Y0096035D01*
X0164751Y0096491D01*
X0164678Y0096950D01*
X0164615Y0097410D01*
X0164564Y0097871D01*
X0164524Y0098334D01*
X0164496Y0098797D01*
X0164479Y0099261D01*
X0164473Y0099725D01*
X0046359Y0128977D02*
X0046359Y0038977D01*
X0011359Y0038977D01*
X0011359Y0128977D01*
X0046359Y0128977D01*
D14*
X0066740Y0093729D02*
X0066740Y0042729D01*
X0136732Y0028544D02*
X0136732Y0068544D01*
D15*
X0107973Y0114410D02*
X0102973Y0114410D01*
X0100473Y0116910D01*
X0097973Y0114410D01*
X0092973Y0114410D01*
X0090473Y0116910D01*
X0087973Y0114410D01*
X0082973Y0114410D01*
X0080473Y0116910D01*
X0077973Y0114410D01*
X0072973Y0114410D01*
X0070473Y0116910D01*
X0067973Y0114410D01*
X0062973Y0114410D01*
X0060473Y0116910D01*
X0060473Y0121910D01*
X0062973Y0124410D01*
X0067973Y0124410D01*
X0070473Y0121910D01*
X0072973Y0124410D01*
X0077973Y0124410D01*
X0080473Y0121910D01*
X0082973Y0124410D01*
X0087973Y0124410D01*
X0090473Y0121910D01*
X0092973Y0124410D01*
X0097973Y0124410D01*
X0100473Y0121910D01*
X0102973Y0124410D01*
X0107973Y0124410D01*
X0110473Y0121910D01*
X0110473Y0116910D01*
X0107973Y0114410D01*
M02*
