G75*
%MOIN*%
%OFA0B0*%
%FSLAX25Y25*%
%IPPOS*%
%LPD*%
%AMOC8*
5,1,8,0,0,1.08239X$1,22.5*
%
%ADD10C,0.14280*%
%ADD11C,0.05224*%
%ADD12R,0.05224X0.05224*%
%ADD13R,0.06406X0.05618*%
%ADD14C,0.07900*%
%ADD15C,0.10539*%
%ADD16R,0.07900X0.07900*%
%ADD17C,0.05815*%
%ADD18R,0.05815X0.05815*%
%ADD19R,0.04043X0.04043*%
%ADD20C,0.04043*%
%ADD21C,0.02681*%
%ADD22C,0.02878*%
D10*
X0015080Y0015080D03*
X0207993Y0015080D03*
X0172560Y0223741D03*
X0015080Y0223741D03*
D11*
X0054883Y0195591D03*
X0064883Y0195591D03*
X0074883Y0195591D03*
X0084883Y0195591D03*
X0094883Y0195591D03*
X0104883Y0195591D03*
X0114883Y0195591D03*
X0139528Y0195591D03*
X0149528Y0195591D03*
X0159528Y0195591D03*
X0169528Y0195591D03*
X0179528Y0195591D03*
X0189528Y0195591D03*
X0199528Y0195591D03*
X0199528Y0145591D03*
X0189528Y0145591D03*
X0179528Y0145591D03*
X0169528Y0145591D03*
X0159528Y0145591D03*
X0149528Y0145591D03*
X0139528Y0145591D03*
X0114883Y0145591D03*
X0104883Y0145591D03*
X0094883Y0145591D03*
X0084883Y0145591D03*
X0074883Y0145591D03*
X0064883Y0145591D03*
X0054883Y0145591D03*
D12*
X0124883Y0145591D03*
X0124883Y0195591D03*
X0209528Y0195591D03*
X0209528Y0145591D03*
D13*
X0146969Y0060158D03*
X0146969Y0052678D03*
X0099725Y0081221D03*
X0099725Y0088702D03*
D14*
X0095473Y0119410D03*
X0085473Y0119410D03*
X0075473Y0119410D03*
X0065473Y0119410D03*
X0105473Y0119410D03*
X0129410Y0217835D03*
X0050670Y0217835D03*
X0208150Y0217835D03*
D15*
X0029863Y0180316D02*
X0019824Y0180316D01*
X0020060Y0160316D02*
X0030099Y0160316D01*
D16*
X0040670Y0217835D03*
X0119410Y0217835D03*
X0198150Y0217835D03*
D17*
X0190473Y0106812D03*
X0193387Y0099725D03*
X0190473Y0092639D03*
X0183387Y0089725D03*
X0176300Y0092639D03*
X0173387Y0099725D03*
X0176300Y0106812D03*
D18*
X0183387Y0109725D03*
D19*
X0023859Y0108977D03*
D20*
X0023859Y0098977D03*
X0023859Y0088977D03*
X0023859Y0078977D03*
X0023859Y0068977D03*
X0023859Y0058977D03*
X0033859Y0058977D03*
X0033859Y0068977D03*
X0033859Y0078977D03*
X0033859Y0088977D03*
X0033859Y0098977D03*
X0033859Y0108977D03*
D21*
X0068229Y0085946D03*
X0068229Y0081024D03*
X0068229Y0076103D03*
X0092835Y0070198D03*
X0107796Y0084961D03*
X0099725Y0094804D03*
X0138308Y0066497D03*
X0138308Y0060828D03*
X0138308Y0056103D03*
X0146969Y0066261D03*
X0172954Y0036143D03*
X0181024Y0041064D03*
X0191064Y0045985D03*
X0199528Y0051103D03*
X0163505Y0031221D03*
D22*
X0125316Y0090867D03*
M02*
