G75*
%MOIN*%
%OFA0B0*%
%FSLAX25Y25*%
%IPPOS*%
%LPD*%
%AMOC8*
5,1,8,0,0,1.08239X$1,22.5*
%
%ADD10C,0.00000*%
D10*
X0001300Y0001300D02*
X0001300Y0237520D01*
X0221772Y0237520D01*
X0221772Y0001300D01*
X0001300Y0001300D01*
X0008190Y0015080D02*
X0008192Y0015249D01*
X0008198Y0015418D01*
X0008209Y0015587D01*
X0008223Y0015755D01*
X0008242Y0015923D01*
X0008265Y0016091D01*
X0008291Y0016258D01*
X0008322Y0016424D01*
X0008357Y0016590D01*
X0008396Y0016754D01*
X0008440Y0016918D01*
X0008487Y0017080D01*
X0008538Y0017241D01*
X0008593Y0017401D01*
X0008652Y0017560D01*
X0008714Y0017717D01*
X0008781Y0017872D01*
X0008852Y0018026D01*
X0008926Y0018178D01*
X0009004Y0018328D01*
X0009085Y0018476D01*
X0009170Y0018622D01*
X0009259Y0018766D01*
X0009351Y0018908D01*
X0009447Y0019047D01*
X0009546Y0019184D01*
X0009648Y0019319D01*
X0009754Y0019451D01*
X0009863Y0019580D01*
X0009975Y0019707D01*
X0010090Y0019831D01*
X0010208Y0019952D01*
X0010329Y0020070D01*
X0010453Y0020185D01*
X0010580Y0020297D01*
X0010709Y0020406D01*
X0010841Y0020512D01*
X0010976Y0020614D01*
X0011113Y0020713D01*
X0011252Y0020809D01*
X0011394Y0020901D01*
X0011538Y0020990D01*
X0011684Y0021075D01*
X0011832Y0021156D01*
X0011982Y0021234D01*
X0012134Y0021308D01*
X0012288Y0021379D01*
X0012443Y0021446D01*
X0012600Y0021508D01*
X0012759Y0021567D01*
X0012919Y0021622D01*
X0013080Y0021673D01*
X0013242Y0021720D01*
X0013406Y0021764D01*
X0013570Y0021803D01*
X0013736Y0021838D01*
X0013902Y0021869D01*
X0014069Y0021895D01*
X0014237Y0021918D01*
X0014405Y0021937D01*
X0014573Y0021951D01*
X0014742Y0021962D01*
X0014911Y0021968D01*
X0015080Y0021970D01*
X0015249Y0021968D01*
X0015418Y0021962D01*
X0015587Y0021951D01*
X0015755Y0021937D01*
X0015923Y0021918D01*
X0016091Y0021895D01*
X0016258Y0021869D01*
X0016424Y0021838D01*
X0016590Y0021803D01*
X0016754Y0021764D01*
X0016918Y0021720D01*
X0017080Y0021673D01*
X0017241Y0021622D01*
X0017401Y0021567D01*
X0017560Y0021508D01*
X0017717Y0021446D01*
X0017872Y0021379D01*
X0018026Y0021308D01*
X0018178Y0021234D01*
X0018328Y0021156D01*
X0018476Y0021075D01*
X0018622Y0020990D01*
X0018766Y0020901D01*
X0018908Y0020809D01*
X0019047Y0020713D01*
X0019184Y0020614D01*
X0019319Y0020512D01*
X0019451Y0020406D01*
X0019580Y0020297D01*
X0019707Y0020185D01*
X0019831Y0020070D01*
X0019952Y0019952D01*
X0020070Y0019831D01*
X0020185Y0019707D01*
X0020297Y0019580D01*
X0020406Y0019451D01*
X0020512Y0019319D01*
X0020614Y0019184D01*
X0020713Y0019047D01*
X0020809Y0018908D01*
X0020901Y0018766D01*
X0020990Y0018622D01*
X0021075Y0018476D01*
X0021156Y0018328D01*
X0021234Y0018178D01*
X0021308Y0018026D01*
X0021379Y0017872D01*
X0021446Y0017717D01*
X0021508Y0017560D01*
X0021567Y0017401D01*
X0021622Y0017241D01*
X0021673Y0017080D01*
X0021720Y0016918D01*
X0021764Y0016754D01*
X0021803Y0016590D01*
X0021838Y0016424D01*
X0021869Y0016258D01*
X0021895Y0016091D01*
X0021918Y0015923D01*
X0021937Y0015755D01*
X0021951Y0015587D01*
X0021962Y0015418D01*
X0021968Y0015249D01*
X0021970Y0015080D01*
X0021968Y0014911D01*
X0021962Y0014742D01*
X0021951Y0014573D01*
X0021937Y0014405D01*
X0021918Y0014237D01*
X0021895Y0014069D01*
X0021869Y0013902D01*
X0021838Y0013736D01*
X0021803Y0013570D01*
X0021764Y0013406D01*
X0021720Y0013242D01*
X0021673Y0013080D01*
X0021622Y0012919D01*
X0021567Y0012759D01*
X0021508Y0012600D01*
X0021446Y0012443D01*
X0021379Y0012288D01*
X0021308Y0012134D01*
X0021234Y0011982D01*
X0021156Y0011832D01*
X0021075Y0011684D01*
X0020990Y0011538D01*
X0020901Y0011394D01*
X0020809Y0011252D01*
X0020713Y0011113D01*
X0020614Y0010976D01*
X0020512Y0010841D01*
X0020406Y0010709D01*
X0020297Y0010580D01*
X0020185Y0010453D01*
X0020070Y0010329D01*
X0019952Y0010208D01*
X0019831Y0010090D01*
X0019707Y0009975D01*
X0019580Y0009863D01*
X0019451Y0009754D01*
X0019319Y0009648D01*
X0019184Y0009546D01*
X0019047Y0009447D01*
X0018908Y0009351D01*
X0018766Y0009259D01*
X0018622Y0009170D01*
X0018476Y0009085D01*
X0018328Y0009004D01*
X0018178Y0008926D01*
X0018026Y0008852D01*
X0017872Y0008781D01*
X0017717Y0008714D01*
X0017560Y0008652D01*
X0017401Y0008593D01*
X0017241Y0008538D01*
X0017080Y0008487D01*
X0016918Y0008440D01*
X0016754Y0008396D01*
X0016590Y0008357D01*
X0016424Y0008322D01*
X0016258Y0008291D01*
X0016091Y0008265D01*
X0015923Y0008242D01*
X0015755Y0008223D01*
X0015587Y0008209D01*
X0015418Y0008198D01*
X0015249Y0008192D01*
X0015080Y0008190D01*
X0014911Y0008192D01*
X0014742Y0008198D01*
X0014573Y0008209D01*
X0014405Y0008223D01*
X0014237Y0008242D01*
X0014069Y0008265D01*
X0013902Y0008291D01*
X0013736Y0008322D01*
X0013570Y0008357D01*
X0013406Y0008396D01*
X0013242Y0008440D01*
X0013080Y0008487D01*
X0012919Y0008538D01*
X0012759Y0008593D01*
X0012600Y0008652D01*
X0012443Y0008714D01*
X0012288Y0008781D01*
X0012134Y0008852D01*
X0011982Y0008926D01*
X0011832Y0009004D01*
X0011684Y0009085D01*
X0011538Y0009170D01*
X0011394Y0009259D01*
X0011252Y0009351D01*
X0011113Y0009447D01*
X0010976Y0009546D01*
X0010841Y0009648D01*
X0010709Y0009754D01*
X0010580Y0009863D01*
X0010453Y0009975D01*
X0010329Y0010090D01*
X0010208Y0010208D01*
X0010090Y0010329D01*
X0009975Y0010453D01*
X0009863Y0010580D01*
X0009754Y0010709D01*
X0009648Y0010841D01*
X0009546Y0010976D01*
X0009447Y0011113D01*
X0009351Y0011252D01*
X0009259Y0011394D01*
X0009170Y0011538D01*
X0009085Y0011684D01*
X0009004Y0011832D01*
X0008926Y0011982D01*
X0008852Y0012134D01*
X0008781Y0012288D01*
X0008714Y0012443D01*
X0008652Y0012600D01*
X0008593Y0012759D01*
X0008538Y0012919D01*
X0008487Y0013080D01*
X0008440Y0013242D01*
X0008396Y0013406D01*
X0008357Y0013570D01*
X0008322Y0013736D01*
X0008291Y0013902D01*
X0008265Y0014069D01*
X0008242Y0014237D01*
X0008223Y0014405D01*
X0008209Y0014573D01*
X0008198Y0014742D01*
X0008192Y0014911D01*
X0008190Y0015080D01*
X0008190Y0223741D02*
X0008192Y0223910D01*
X0008198Y0224079D01*
X0008209Y0224248D01*
X0008223Y0224416D01*
X0008242Y0224584D01*
X0008265Y0224752D01*
X0008291Y0224919D01*
X0008322Y0225085D01*
X0008357Y0225251D01*
X0008396Y0225415D01*
X0008440Y0225579D01*
X0008487Y0225741D01*
X0008538Y0225902D01*
X0008593Y0226062D01*
X0008652Y0226221D01*
X0008714Y0226378D01*
X0008781Y0226533D01*
X0008852Y0226687D01*
X0008926Y0226839D01*
X0009004Y0226989D01*
X0009085Y0227137D01*
X0009170Y0227283D01*
X0009259Y0227427D01*
X0009351Y0227569D01*
X0009447Y0227708D01*
X0009546Y0227845D01*
X0009648Y0227980D01*
X0009754Y0228112D01*
X0009863Y0228241D01*
X0009975Y0228368D01*
X0010090Y0228492D01*
X0010208Y0228613D01*
X0010329Y0228731D01*
X0010453Y0228846D01*
X0010580Y0228958D01*
X0010709Y0229067D01*
X0010841Y0229173D01*
X0010976Y0229275D01*
X0011113Y0229374D01*
X0011252Y0229470D01*
X0011394Y0229562D01*
X0011538Y0229651D01*
X0011684Y0229736D01*
X0011832Y0229817D01*
X0011982Y0229895D01*
X0012134Y0229969D01*
X0012288Y0230040D01*
X0012443Y0230107D01*
X0012600Y0230169D01*
X0012759Y0230228D01*
X0012919Y0230283D01*
X0013080Y0230334D01*
X0013242Y0230381D01*
X0013406Y0230425D01*
X0013570Y0230464D01*
X0013736Y0230499D01*
X0013902Y0230530D01*
X0014069Y0230556D01*
X0014237Y0230579D01*
X0014405Y0230598D01*
X0014573Y0230612D01*
X0014742Y0230623D01*
X0014911Y0230629D01*
X0015080Y0230631D01*
X0015249Y0230629D01*
X0015418Y0230623D01*
X0015587Y0230612D01*
X0015755Y0230598D01*
X0015923Y0230579D01*
X0016091Y0230556D01*
X0016258Y0230530D01*
X0016424Y0230499D01*
X0016590Y0230464D01*
X0016754Y0230425D01*
X0016918Y0230381D01*
X0017080Y0230334D01*
X0017241Y0230283D01*
X0017401Y0230228D01*
X0017560Y0230169D01*
X0017717Y0230107D01*
X0017872Y0230040D01*
X0018026Y0229969D01*
X0018178Y0229895D01*
X0018328Y0229817D01*
X0018476Y0229736D01*
X0018622Y0229651D01*
X0018766Y0229562D01*
X0018908Y0229470D01*
X0019047Y0229374D01*
X0019184Y0229275D01*
X0019319Y0229173D01*
X0019451Y0229067D01*
X0019580Y0228958D01*
X0019707Y0228846D01*
X0019831Y0228731D01*
X0019952Y0228613D01*
X0020070Y0228492D01*
X0020185Y0228368D01*
X0020297Y0228241D01*
X0020406Y0228112D01*
X0020512Y0227980D01*
X0020614Y0227845D01*
X0020713Y0227708D01*
X0020809Y0227569D01*
X0020901Y0227427D01*
X0020990Y0227283D01*
X0021075Y0227137D01*
X0021156Y0226989D01*
X0021234Y0226839D01*
X0021308Y0226687D01*
X0021379Y0226533D01*
X0021446Y0226378D01*
X0021508Y0226221D01*
X0021567Y0226062D01*
X0021622Y0225902D01*
X0021673Y0225741D01*
X0021720Y0225579D01*
X0021764Y0225415D01*
X0021803Y0225251D01*
X0021838Y0225085D01*
X0021869Y0224919D01*
X0021895Y0224752D01*
X0021918Y0224584D01*
X0021937Y0224416D01*
X0021951Y0224248D01*
X0021962Y0224079D01*
X0021968Y0223910D01*
X0021970Y0223741D01*
X0021968Y0223572D01*
X0021962Y0223403D01*
X0021951Y0223234D01*
X0021937Y0223066D01*
X0021918Y0222898D01*
X0021895Y0222730D01*
X0021869Y0222563D01*
X0021838Y0222397D01*
X0021803Y0222231D01*
X0021764Y0222067D01*
X0021720Y0221903D01*
X0021673Y0221741D01*
X0021622Y0221580D01*
X0021567Y0221420D01*
X0021508Y0221261D01*
X0021446Y0221104D01*
X0021379Y0220949D01*
X0021308Y0220795D01*
X0021234Y0220643D01*
X0021156Y0220493D01*
X0021075Y0220345D01*
X0020990Y0220199D01*
X0020901Y0220055D01*
X0020809Y0219913D01*
X0020713Y0219774D01*
X0020614Y0219637D01*
X0020512Y0219502D01*
X0020406Y0219370D01*
X0020297Y0219241D01*
X0020185Y0219114D01*
X0020070Y0218990D01*
X0019952Y0218869D01*
X0019831Y0218751D01*
X0019707Y0218636D01*
X0019580Y0218524D01*
X0019451Y0218415D01*
X0019319Y0218309D01*
X0019184Y0218207D01*
X0019047Y0218108D01*
X0018908Y0218012D01*
X0018766Y0217920D01*
X0018622Y0217831D01*
X0018476Y0217746D01*
X0018328Y0217665D01*
X0018178Y0217587D01*
X0018026Y0217513D01*
X0017872Y0217442D01*
X0017717Y0217375D01*
X0017560Y0217313D01*
X0017401Y0217254D01*
X0017241Y0217199D01*
X0017080Y0217148D01*
X0016918Y0217101D01*
X0016754Y0217057D01*
X0016590Y0217018D01*
X0016424Y0216983D01*
X0016258Y0216952D01*
X0016091Y0216926D01*
X0015923Y0216903D01*
X0015755Y0216884D01*
X0015587Y0216870D01*
X0015418Y0216859D01*
X0015249Y0216853D01*
X0015080Y0216851D01*
X0014911Y0216853D01*
X0014742Y0216859D01*
X0014573Y0216870D01*
X0014405Y0216884D01*
X0014237Y0216903D01*
X0014069Y0216926D01*
X0013902Y0216952D01*
X0013736Y0216983D01*
X0013570Y0217018D01*
X0013406Y0217057D01*
X0013242Y0217101D01*
X0013080Y0217148D01*
X0012919Y0217199D01*
X0012759Y0217254D01*
X0012600Y0217313D01*
X0012443Y0217375D01*
X0012288Y0217442D01*
X0012134Y0217513D01*
X0011982Y0217587D01*
X0011832Y0217665D01*
X0011684Y0217746D01*
X0011538Y0217831D01*
X0011394Y0217920D01*
X0011252Y0218012D01*
X0011113Y0218108D01*
X0010976Y0218207D01*
X0010841Y0218309D01*
X0010709Y0218415D01*
X0010580Y0218524D01*
X0010453Y0218636D01*
X0010329Y0218751D01*
X0010208Y0218869D01*
X0010090Y0218990D01*
X0009975Y0219114D01*
X0009863Y0219241D01*
X0009754Y0219370D01*
X0009648Y0219502D01*
X0009546Y0219637D01*
X0009447Y0219774D01*
X0009351Y0219913D01*
X0009259Y0220055D01*
X0009170Y0220199D01*
X0009085Y0220345D01*
X0009004Y0220493D01*
X0008926Y0220643D01*
X0008852Y0220795D01*
X0008781Y0220949D01*
X0008714Y0221104D01*
X0008652Y0221261D01*
X0008593Y0221420D01*
X0008538Y0221580D01*
X0008487Y0221741D01*
X0008440Y0221903D01*
X0008396Y0222067D01*
X0008357Y0222231D01*
X0008322Y0222397D01*
X0008291Y0222563D01*
X0008265Y0222730D01*
X0008242Y0222898D01*
X0008223Y0223066D01*
X0008209Y0223234D01*
X0008198Y0223403D01*
X0008192Y0223572D01*
X0008190Y0223741D01*
X0165670Y0223741D02*
X0165672Y0223910D01*
X0165678Y0224079D01*
X0165689Y0224248D01*
X0165703Y0224416D01*
X0165722Y0224584D01*
X0165745Y0224752D01*
X0165771Y0224919D01*
X0165802Y0225085D01*
X0165837Y0225251D01*
X0165876Y0225415D01*
X0165920Y0225579D01*
X0165967Y0225741D01*
X0166018Y0225902D01*
X0166073Y0226062D01*
X0166132Y0226221D01*
X0166194Y0226378D01*
X0166261Y0226533D01*
X0166332Y0226687D01*
X0166406Y0226839D01*
X0166484Y0226989D01*
X0166565Y0227137D01*
X0166650Y0227283D01*
X0166739Y0227427D01*
X0166831Y0227569D01*
X0166927Y0227708D01*
X0167026Y0227845D01*
X0167128Y0227980D01*
X0167234Y0228112D01*
X0167343Y0228241D01*
X0167455Y0228368D01*
X0167570Y0228492D01*
X0167688Y0228613D01*
X0167809Y0228731D01*
X0167933Y0228846D01*
X0168060Y0228958D01*
X0168189Y0229067D01*
X0168321Y0229173D01*
X0168456Y0229275D01*
X0168593Y0229374D01*
X0168732Y0229470D01*
X0168874Y0229562D01*
X0169018Y0229651D01*
X0169164Y0229736D01*
X0169312Y0229817D01*
X0169462Y0229895D01*
X0169614Y0229969D01*
X0169768Y0230040D01*
X0169923Y0230107D01*
X0170080Y0230169D01*
X0170239Y0230228D01*
X0170399Y0230283D01*
X0170560Y0230334D01*
X0170722Y0230381D01*
X0170886Y0230425D01*
X0171050Y0230464D01*
X0171216Y0230499D01*
X0171382Y0230530D01*
X0171549Y0230556D01*
X0171717Y0230579D01*
X0171885Y0230598D01*
X0172053Y0230612D01*
X0172222Y0230623D01*
X0172391Y0230629D01*
X0172560Y0230631D01*
X0172729Y0230629D01*
X0172898Y0230623D01*
X0173067Y0230612D01*
X0173235Y0230598D01*
X0173403Y0230579D01*
X0173571Y0230556D01*
X0173738Y0230530D01*
X0173904Y0230499D01*
X0174070Y0230464D01*
X0174234Y0230425D01*
X0174398Y0230381D01*
X0174560Y0230334D01*
X0174721Y0230283D01*
X0174881Y0230228D01*
X0175040Y0230169D01*
X0175197Y0230107D01*
X0175352Y0230040D01*
X0175506Y0229969D01*
X0175658Y0229895D01*
X0175808Y0229817D01*
X0175956Y0229736D01*
X0176102Y0229651D01*
X0176246Y0229562D01*
X0176388Y0229470D01*
X0176527Y0229374D01*
X0176664Y0229275D01*
X0176799Y0229173D01*
X0176931Y0229067D01*
X0177060Y0228958D01*
X0177187Y0228846D01*
X0177311Y0228731D01*
X0177432Y0228613D01*
X0177550Y0228492D01*
X0177665Y0228368D01*
X0177777Y0228241D01*
X0177886Y0228112D01*
X0177992Y0227980D01*
X0178094Y0227845D01*
X0178193Y0227708D01*
X0178289Y0227569D01*
X0178381Y0227427D01*
X0178470Y0227283D01*
X0178555Y0227137D01*
X0178636Y0226989D01*
X0178714Y0226839D01*
X0178788Y0226687D01*
X0178859Y0226533D01*
X0178926Y0226378D01*
X0178988Y0226221D01*
X0179047Y0226062D01*
X0179102Y0225902D01*
X0179153Y0225741D01*
X0179200Y0225579D01*
X0179244Y0225415D01*
X0179283Y0225251D01*
X0179318Y0225085D01*
X0179349Y0224919D01*
X0179375Y0224752D01*
X0179398Y0224584D01*
X0179417Y0224416D01*
X0179431Y0224248D01*
X0179442Y0224079D01*
X0179448Y0223910D01*
X0179450Y0223741D01*
X0179448Y0223572D01*
X0179442Y0223403D01*
X0179431Y0223234D01*
X0179417Y0223066D01*
X0179398Y0222898D01*
X0179375Y0222730D01*
X0179349Y0222563D01*
X0179318Y0222397D01*
X0179283Y0222231D01*
X0179244Y0222067D01*
X0179200Y0221903D01*
X0179153Y0221741D01*
X0179102Y0221580D01*
X0179047Y0221420D01*
X0178988Y0221261D01*
X0178926Y0221104D01*
X0178859Y0220949D01*
X0178788Y0220795D01*
X0178714Y0220643D01*
X0178636Y0220493D01*
X0178555Y0220345D01*
X0178470Y0220199D01*
X0178381Y0220055D01*
X0178289Y0219913D01*
X0178193Y0219774D01*
X0178094Y0219637D01*
X0177992Y0219502D01*
X0177886Y0219370D01*
X0177777Y0219241D01*
X0177665Y0219114D01*
X0177550Y0218990D01*
X0177432Y0218869D01*
X0177311Y0218751D01*
X0177187Y0218636D01*
X0177060Y0218524D01*
X0176931Y0218415D01*
X0176799Y0218309D01*
X0176664Y0218207D01*
X0176527Y0218108D01*
X0176388Y0218012D01*
X0176246Y0217920D01*
X0176102Y0217831D01*
X0175956Y0217746D01*
X0175808Y0217665D01*
X0175658Y0217587D01*
X0175506Y0217513D01*
X0175352Y0217442D01*
X0175197Y0217375D01*
X0175040Y0217313D01*
X0174881Y0217254D01*
X0174721Y0217199D01*
X0174560Y0217148D01*
X0174398Y0217101D01*
X0174234Y0217057D01*
X0174070Y0217018D01*
X0173904Y0216983D01*
X0173738Y0216952D01*
X0173571Y0216926D01*
X0173403Y0216903D01*
X0173235Y0216884D01*
X0173067Y0216870D01*
X0172898Y0216859D01*
X0172729Y0216853D01*
X0172560Y0216851D01*
X0172391Y0216853D01*
X0172222Y0216859D01*
X0172053Y0216870D01*
X0171885Y0216884D01*
X0171717Y0216903D01*
X0171549Y0216926D01*
X0171382Y0216952D01*
X0171216Y0216983D01*
X0171050Y0217018D01*
X0170886Y0217057D01*
X0170722Y0217101D01*
X0170560Y0217148D01*
X0170399Y0217199D01*
X0170239Y0217254D01*
X0170080Y0217313D01*
X0169923Y0217375D01*
X0169768Y0217442D01*
X0169614Y0217513D01*
X0169462Y0217587D01*
X0169312Y0217665D01*
X0169164Y0217746D01*
X0169018Y0217831D01*
X0168874Y0217920D01*
X0168732Y0218012D01*
X0168593Y0218108D01*
X0168456Y0218207D01*
X0168321Y0218309D01*
X0168189Y0218415D01*
X0168060Y0218524D01*
X0167933Y0218636D01*
X0167809Y0218751D01*
X0167688Y0218869D01*
X0167570Y0218990D01*
X0167455Y0219114D01*
X0167343Y0219241D01*
X0167234Y0219370D01*
X0167128Y0219502D01*
X0167026Y0219637D01*
X0166927Y0219774D01*
X0166831Y0219913D01*
X0166739Y0220055D01*
X0166650Y0220199D01*
X0166565Y0220345D01*
X0166484Y0220493D01*
X0166406Y0220643D01*
X0166332Y0220795D01*
X0166261Y0220949D01*
X0166194Y0221104D01*
X0166132Y0221261D01*
X0166073Y0221420D01*
X0166018Y0221580D01*
X0165967Y0221741D01*
X0165920Y0221903D01*
X0165876Y0222067D01*
X0165837Y0222231D01*
X0165802Y0222397D01*
X0165771Y0222563D01*
X0165745Y0222730D01*
X0165722Y0222898D01*
X0165703Y0223066D01*
X0165689Y0223234D01*
X0165678Y0223403D01*
X0165672Y0223572D01*
X0165670Y0223741D01*
X0201103Y0015080D02*
X0201105Y0015249D01*
X0201111Y0015418D01*
X0201122Y0015587D01*
X0201136Y0015755D01*
X0201155Y0015923D01*
X0201178Y0016091D01*
X0201204Y0016258D01*
X0201235Y0016424D01*
X0201270Y0016590D01*
X0201309Y0016754D01*
X0201353Y0016918D01*
X0201400Y0017080D01*
X0201451Y0017241D01*
X0201506Y0017401D01*
X0201565Y0017560D01*
X0201627Y0017717D01*
X0201694Y0017872D01*
X0201765Y0018026D01*
X0201839Y0018178D01*
X0201917Y0018328D01*
X0201998Y0018476D01*
X0202083Y0018622D01*
X0202172Y0018766D01*
X0202264Y0018908D01*
X0202360Y0019047D01*
X0202459Y0019184D01*
X0202561Y0019319D01*
X0202667Y0019451D01*
X0202776Y0019580D01*
X0202888Y0019707D01*
X0203003Y0019831D01*
X0203121Y0019952D01*
X0203242Y0020070D01*
X0203366Y0020185D01*
X0203493Y0020297D01*
X0203622Y0020406D01*
X0203754Y0020512D01*
X0203889Y0020614D01*
X0204026Y0020713D01*
X0204165Y0020809D01*
X0204307Y0020901D01*
X0204451Y0020990D01*
X0204597Y0021075D01*
X0204745Y0021156D01*
X0204895Y0021234D01*
X0205047Y0021308D01*
X0205201Y0021379D01*
X0205356Y0021446D01*
X0205513Y0021508D01*
X0205672Y0021567D01*
X0205832Y0021622D01*
X0205993Y0021673D01*
X0206155Y0021720D01*
X0206319Y0021764D01*
X0206483Y0021803D01*
X0206649Y0021838D01*
X0206815Y0021869D01*
X0206982Y0021895D01*
X0207150Y0021918D01*
X0207318Y0021937D01*
X0207486Y0021951D01*
X0207655Y0021962D01*
X0207824Y0021968D01*
X0207993Y0021970D01*
X0208162Y0021968D01*
X0208331Y0021962D01*
X0208500Y0021951D01*
X0208668Y0021937D01*
X0208836Y0021918D01*
X0209004Y0021895D01*
X0209171Y0021869D01*
X0209337Y0021838D01*
X0209503Y0021803D01*
X0209667Y0021764D01*
X0209831Y0021720D01*
X0209993Y0021673D01*
X0210154Y0021622D01*
X0210314Y0021567D01*
X0210473Y0021508D01*
X0210630Y0021446D01*
X0210785Y0021379D01*
X0210939Y0021308D01*
X0211091Y0021234D01*
X0211241Y0021156D01*
X0211389Y0021075D01*
X0211535Y0020990D01*
X0211679Y0020901D01*
X0211821Y0020809D01*
X0211960Y0020713D01*
X0212097Y0020614D01*
X0212232Y0020512D01*
X0212364Y0020406D01*
X0212493Y0020297D01*
X0212620Y0020185D01*
X0212744Y0020070D01*
X0212865Y0019952D01*
X0212983Y0019831D01*
X0213098Y0019707D01*
X0213210Y0019580D01*
X0213319Y0019451D01*
X0213425Y0019319D01*
X0213527Y0019184D01*
X0213626Y0019047D01*
X0213722Y0018908D01*
X0213814Y0018766D01*
X0213903Y0018622D01*
X0213988Y0018476D01*
X0214069Y0018328D01*
X0214147Y0018178D01*
X0214221Y0018026D01*
X0214292Y0017872D01*
X0214359Y0017717D01*
X0214421Y0017560D01*
X0214480Y0017401D01*
X0214535Y0017241D01*
X0214586Y0017080D01*
X0214633Y0016918D01*
X0214677Y0016754D01*
X0214716Y0016590D01*
X0214751Y0016424D01*
X0214782Y0016258D01*
X0214808Y0016091D01*
X0214831Y0015923D01*
X0214850Y0015755D01*
X0214864Y0015587D01*
X0214875Y0015418D01*
X0214881Y0015249D01*
X0214883Y0015080D01*
X0214881Y0014911D01*
X0214875Y0014742D01*
X0214864Y0014573D01*
X0214850Y0014405D01*
X0214831Y0014237D01*
X0214808Y0014069D01*
X0214782Y0013902D01*
X0214751Y0013736D01*
X0214716Y0013570D01*
X0214677Y0013406D01*
X0214633Y0013242D01*
X0214586Y0013080D01*
X0214535Y0012919D01*
X0214480Y0012759D01*
X0214421Y0012600D01*
X0214359Y0012443D01*
X0214292Y0012288D01*
X0214221Y0012134D01*
X0214147Y0011982D01*
X0214069Y0011832D01*
X0213988Y0011684D01*
X0213903Y0011538D01*
X0213814Y0011394D01*
X0213722Y0011252D01*
X0213626Y0011113D01*
X0213527Y0010976D01*
X0213425Y0010841D01*
X0213319Y0010709D01*
X0213210Y0010580D01*
X0213098Y0010453D01*
X0212983Y0010329D01*
X0212865Y0010208D01*
X0212744Y0010090D01*
X0212620Y0009975D01*
X0212493Y0009863D01*
X0212364Y0009754D01*
X0212232Y0009648D01*
X0212097Y0009546D01*
X0211960Y0009447D01*
X0211821Y0009351D01*
X0211679Y0009259D01*
X0211535Y0009170D01*
X0211389Y0009085D01*
X0211241Y0009004D01*
X0211091Y0008926D01*
X0210939Y0008852D01*
X0210785Y0008781D01*
X0210630Y0008714D01*
X0210473Y0008652D01*
X0210314Y0008593D01*
X0210154Y0008538D01*
X0209993Y0008487D01*
X0209831Y0008440D01*
X0209667Y0008396D01*
X0209503Y0008357D01*
X0209337Y0008322D01*
X0209171Y0008291D01*
X0209004Y0008265D01*
X0208836Y0008242D01*
X0208668Y0008223D01*
X0208500Y0008209D01*
X0208331Y0008198D01*
X0208162Y0008192D01*
X0207993Y0008190D01*
X0207824Y0008192D01*
X0207655Y0008198D01*
X0207486Y0008209D01*
X0207318Y0008223D01*
X0207150Y0008242D01*
X0206982Y0008265D01*
X0206815Y0008291D01*
X0206649Y0008322D01*
X0206483Y0008357D01*
X0206319Y0008396D01*
X0206155Y0008440D01*
X0205993Y0008487D01*
X0205832Y0008538D01*
X0205672Y0008593D01*
X0205513Y0008652D01*
X0205356Y0008714D01*
X0205201Y0008781D01*
X0205047Y0008852D01*
X0204895Y0008926D01*
X0204745Y0009004D01*
X0204597Y0009085D01*
X0204451Y0009170D01*
X0204307Y0009259D01*
X0204165Y0009351D01*
X0204026Y0009447D01*
X0203889Y0009546D01*
X0203754Y0009648D01*
X0203622Y0009754D01*
X0203493Y0009863D01*
X0203366Y0009975D01*
X0203242Y0010090D01*
X0203121Y0010208D01*
X0203003Y0010329D01*
X0202888Y0010453D01*
X0202776Y0010580D01*
X0202667Y0010709D01*
X0202561Y0010841D01*
X0202459Y0010976D01*
X0202360Y0011113D01*
X0202264Y0011252D01*
X0202172Y0011394D01*
X0202083Y0011538D01*
X0201998Y0011684D01*
X0201917Y0011832D01*
X0201839Y0011982D01*
X0201765Y0012134D01*
X0201694Y0012288D01*
X0201627Y0012443D01*
X0201565Y0012600D01*
X0201506Y0012759D01*
X0201451Y0012919D01*
X0201400Y0013080D01*
X0201353Y0013242D01*
X0201309Y0013406D01*
X0201270Y0013570D01*
X0201235Y0013736D01*
X0201204Y0013902D01*
X0201178Y0014069D01*
X0201155Y0014237D01*
X0201136Y0014405D01*
X0201122Y0014573D01*
X0201111Y0014742D01*
X0201105Y0014911D01*
X0201103Y0015080D01*
M02*
