G75*
%MOIN*%
%OFA0B0*%
%FSLAX25Y25*%
%IPPOS*%
%LPD*%
%AMOC8*
5,1,8,0,0,1.08239X$1,22.5*
%
%ADD10C,0.00000*%
%ADD11C,0.04724*%
%ADD12R,0.04724X0.04724*%
%ADD13R,0.08000X0.02600*%
%ADD14C,0.07400*%
%ADD15C,0.10039*%
%ADD16R,0.07400X0.07400*%
%ADD17C,0.05315*%
%ADD18R,0.05315X0.05315*%
%ADD19R,0.03543X0.03543*%
%ADD20C,0.03543*%
%ADD21C,0.00600*%
%ADD22C,0.02181*%
%ADD23C,0.02000*%
%ADD24C,0.02378*%
%ADD25C,0.01000*%
D10*
X0001300Y0001300D02*
X0001300Y0237520D01*
X0221772Y0237520D01*
X0221772Y0001300D01*
X0001300Y0001300D01*
X0008190Y0015080D02*
X0008192Y0015249D01*
X0008198Y0015418D01*
X0008209Y0015587D01*
X0008223Y0015755D01*
X0008242Y0015923D01*
X0008265Y0016091D01*
X0008291Y0016258D01*
X0008322Y0016424D01*
X0008357Y0016590D01*
X0008396Y0016754D01*
X0008440Y0016918D01*
X0008487Y0017080D01*
X0008538Y0017241D01*
X0008593Y0017401D01*
X0008652Y0017560D01*
X0008714Y0017717D01*
X0008781Y0017872D01*
X0008852Y0018026D01*
X0008926Y0018178D01*
X0009004Y0018328D01*
X0009085Y0018476D01*
X0009170Y0018622D01*
X0009259Y0018766D01*
X0009351Y0018908D01*
X0009447Y0019047D01*
X0009546Y0019184D01*
X0009648Y0019319D01*
X0009754Y0019451D01*
X0009863Y0019580D01*
X0009975Y0019707D01*
X0010090Y0019831D01*
X0010208Y0019952D01*
X0010329Y0020070D01*
X0010453Y0020185D01*
X0010580Y0020297D01*
X0010709Y0020406D01*
X0010841Y0020512D01*
X0010976Y0020614D01*
X0011113Y0020713D01*
X0011252Y0020809D01*
X0011394Y0020901D01*
X0011538Y0020990D01*
X0011684Y0021075D01*
X0011832Y0021156D01*
X0011982Y0021234D01*
X0012134Y0021308D01*
X0012288Y0021379D01*
X0012443Y0021446D01*
X0012600Y0021508D01*
X0012759Y0021567D01*
X0012919Y0021622D01*
X0013080Y0021673D01*
X0013242Y0021720D01*
X0013406Y0021764D01*
X0013570Y0021803D01*
X0013736Y0021838D01*
X0013902Y0021869D01*
X0014069Y0021895D01*
X0014237Y0021918D01*
X0014405Y0021937D01*
X0014573Y0021951D01*
X0014742Y0021962D01*
X0014911Y0021968D01*
X0015080Y0021970D01*
X0015249Y0021968D01*
X0015418Y0021962D01*
X0015587Y0021951D01*
X0015755Y0021937D01*
X0015923Y0021918D01*
X0016091Y0021895D01*
X0016258Y0021869D01*
X0016424Y0021838D01*
X0016590Y0021803D01*
X0016754Y0021764D01*
X0016918Y0021720D01*
X0017080Y0021673D01*
X0017241Y0021622D01*
X0017401Y0021567D01*
X0017560Y0021508D01*
X0017717Y0021446D01*
X0017872Y0021379D01*
X0018026Y0021308D01*
X0018178Y0021234D01*
X0018328Y0021156D01*
X0018476Y0021075D01*
X0018622Y0020990D01*
X0018766Y0020901D01*
X0018908Y0020809D01*
X0019047Y0020713D01*
X0019184Y0020614D01*
X0019319Y0020512D01*
X0019451Y0020406D01*
X0019580Y0020297D01*
X0019707Y0020185D01*
X0019831Y0020070D01*
X0019952Y0019952D01*
X0020070Y0019831D01*
X0020185Y0019707D01*
X0020297Y0019580D01*
X0020406Y0019451D01*
X0020512Y0019319D01*
X0020614Y0019184D01*
X0020713Y0019047D01*
X0020809Y0018908D01*
X0020901Y0018766D01*
X0020990Y0018622D01*
X0021075Y0018476D01*
X0021156Y0018328D01*
X0021234Y0018178D01*
X0021308Y0018026D01*
X0021379Y0017872D01*
X0021446Y0017717D01*
X0021508Y0017560D01*
X0021567Y0017401D01*
X0021622Y0017241D01*
X0021673Y0017080D01*
X0021720Y0016918D01*
X0021764Y0016754D01*
X0021803Y0016590D01*
X0021838Y0016424D01*
X0021869Y0016258D01*
X0021895Y0016091D01*
X0021918Y0015923D01*
X0021937Y0015755D01*
X0021951Y0015587D01*
X0021962Y0015418D01*
X0021968Y0015249D01*
X0021970Y0015080D01*
X0021968Y0014911D01*
X0021962Y0014742D01*
X0021951Y0014573D01*
X0021937Y0014405D01*
X0021918Y0014237D01*
X0021895Y0014069D01*
X0021869Y0013902D01*
X0021838Y0013736D01*
X0021803Y0013570D01*
X0021764Y0013406D01*
X0021720Y0013242D01*
X0021673Y0013080D01*
X0021622Y0012919D01*
X0021567Y0012759D01*
X0021508Y0012600D01*
X0021446Y0012443D01*
X0021379Y0012288D01*
X0021308Y0012134D01*
X0021234Y0011982D01*
X0021156Y0011832D01*
X0021075Y0011684D01*
X0020990Y0011538D01*
X0020901Y0011394D01*
X0020809Y0011252D01*
X0020713Y0011113D01*
X0020614Y0010976D01*
X0020512Y0010841D01*
X0020406Y0010709D01*
X0020297Y0010580D01*
X0020185Y0010453D01*
X0020070Y0010329D01*
X0019952Y0010208D01*
X0019831Y0010090D01*
X0019707Y0009975D01*
X0019580Y0009863D01*
X0019451Y0009754D01*
X0019319Y0009648D01*
X0019184Y0009546D01*
X0019047Y0009447D01*
X0018908Y0009351D01*
X0018766Y0009259D01*
X0018622Y0009170D01*
X0018476Y0009085D01*
X0018328Y0009004D01*
X0018178Y0008926D01*
X0018026Y0008852D01*
X0017872Y0008781D01*
X0017717Y0008714D01*
X0017560Y0008652D01*
X0017401Y0008593D01*
X0017241Y0008538D01*
X0017080Y0008487D01*
X0016918Y0008440D01*
X0016754Y0008396D01*
X0016590Y0008357D01*
X0016424Y0008322D01*
X0016258Y0008291D01*
X0016091Y0008265D01*
X0015923Y0008242D01*
X0015755Y0008223D01*
X0015587Y0008209D01*
X0015418Y0008198D01*
X0015249Y0008192D01*
X0015080Y0008190D01*
X0014911Y0008192D01*
X0014742Y0008198D01*
X0014573Y0008209D01*
X0014405Y0008223D01*
X0014237Y0008242D01*
X0014069Y0008265D01*
X0013902Y0008291D01*
X0013736Y0008322D01*
X0013570Y0008357D01*
X0013406Y0008396D01*
X0013242Y0008440D01*
X0013080Y0008487D01*
X0012919Y0008538D01*
X0012759Y0008593D01*
X0012600Y0008652D01*
X0012443Y0008714D01*
X0012288Y0008781D01*
X0012134Y0008852D01*
X0011982Y0008926D01*
X0011832Y0009004D01*
X0011684Y0009085D01*
X0011538Y0009170D01*
X0011394Y0009259D01*
X0011252Y0009351D01*
X0011113Y0009447D01*
X0010976Y0009546D01*
X0010841Y0009648D01*
X0010709Y0009754D01*
X0010580Y0009863D01*
X0010453Y0009975D01*
X0010329Y0010090D01*
X0010208Y0010208D01*
X0010090Y0010329D01*
X0009975Y0010453D01*
X0009863Y0010580D01*
X0009754Y0010709D01*
X0009648Y0010841D01*
X0009546Y0010976D01*
X0009447Y0011113D01*
X0009351Y0011252D01*
X0009259Y0011394D01*
X0009170Y0011538D01*
X0009085Y0011684D01*
X0009004Y0011832D01*
X0008926Y0011982D01*
X0008852Y0012134D01*
X0008781Y0012288D01*
X0008714Y0012443D01*
X0008652Y0012600D01*
X0008593Y0012759D01*
X0008538Y0012919D01*
X0008487Y0013080D01*
X0008440Y0013242D01*
X0008396Y0013406D01*
X0008357Y0013570D01*
X0008322Y0013736D01*
X0008291Y0013902D01*
X0008265Y0014069D01*
X0008242Y0014237D01*
X0008223Y0014405D01*
X0008209Y0014573D01*
X0008198Y0014742D01*
X0008192Y0014911D01*
X0008190Y0015080D01*
X0008190Y0223741D02*
X0008192Y0223910D01*
X0008198Y0224079D01*
X0008209Y0224248D01*
X0008223Y0224416D01*
X0008242Y0224584D01*
X0008265Y0224752D01*
X0008291Y0224919D01*
X0008322Y0225085D01*
X0008357Y0225251D01*
X0008396Y0225415D01*
X0008440Y0225579D01*
X0008487Y0225741D01*
X0008538Y0225902D01*
X0008593Y0226062D01*
X0008652Y0226221D01*
X0008714Y0226378D01*
X0008781Y0226533D01*
X0008852Y0226687D01*
X0008926Y0226839D01*
X0009004Y0226989D01*
X0009085Y0227137D01*
X0009170Y0227283D01*
X0009259Y0227427D01*
X0009351Y0227569D01*
X0009447Y0227708D01*
X0009546Y0227845D01*
X0009648Y0227980D01*
X0009754Y0228112D01*
X0009863Y0228241D01*
X0009975Y0228368D01*
X0010090Y0228492D01*
X0010208Y0228613D01*
X0010329Y0228731D01*
X0010453Y0228846D01*
X0010580Y0228958D01*
X0010709Y0229067D01*
X0010841Y0229173D01*
X0010976Y0229275D01*
X0011113Y0229374D01*
X0011252Y0229470D01*
X0011394Y0229562D01*
X0011538Y0229651D01*
X0011684Y0229736D01*
X0011832Y0229817D01*
X0011982Y0229895D01*
X0012134Y0229969D01*
X0012288Y0230040D01*
X0012443Y0230107D01*
X0012600Y0230169D01*
X0012759Y0230228D01*
X0012919Y0230283D01*
X0013080Y0230334D01*
X0013242Y0230381D01*
X0013406Y0230425D01*
X0013570Y0230464D01*
X0013736Y0230499D01*
X0013902Y0230530D01*
X0014069Y0230556D01*
X0014237Y0230579D01*
X0014405Y0230598D01*
X0014573Y0230612D01*
X0014742Y0230623D01*
X0014911Y0230629D01*
X0015080Y0230631D01*
X0015249Y0230629D01*
X0015418Y0230623D01*
X0015587Y0230612D01*
X0015755Y0230598D01*
X0015923Y0230579D01*
X0016091Y0230556D01*
X0016258Y0230530D01*
X0016424Y0230499D01*
X0016590Y0230464D01*
X0016754Y0230425D01*
X0016918Y0230381D01*
X0017080Y0230334D01*
X0017241Y0230283D01*
X0017401Y0230228D01*
X0017560Y0230169D01*
X0017717Y0230107D01*
X0017872Y0230040D01*
X0018026Y0229969D01*
X0018178Y0229895D01*
X0018328Y0229817D01*
X0018476Y0229736D01*
X0018622Y0229651D01*
X0018766Y0229562D01*
X0018908Y0229470D01*
X0019047Y0229374D01*
X0019184Y0229275D01*
X0019319Y0229173D01*
X0019451Y0229067D01*
X0019580Y0228958D01*
X0019707Y0228846D01*
X0019831Y0228731D01*
X0019952Y0228613D01*
X0020070Y0228492D01*
X0020185Y0228368D01*
X0020297Y0228241D01*
X0020406Y0228112D01*
X0020512Y0227980D01*
X0020614Y0227845D01*
X0020713Y0227708D01*
X0020809Y0227569D01*
X0020901Y0227427D01*
X0020990Y0227283D01*
X0021075Y0227137D01*
X0021156Y0226989D01*
X0021234Y0226839D01*
X0021308Y0226687D01*
X0021379Y0226533D01*
X0021446Y0226378D01*
X0021508Y0226221D01*
X0021567Y0226062D01*
X0021622Y0225902D01*
X0021673Y0225741D01*
X0021720Y0225579D01*
X0021764Y0225415D01*
X0021803Y0225251D01*
X0021838Y0225085D01*
X0021869Y0224919D01*
X0021895Y0224752D01*
X0021918Y0224584D01*
X0021937Y0224416D01*
X0021951Y0224248D01*
X0021962Y0224079D01*
X0021968Y0223910D01*
X0021970Y0223741D01*
X0021968Y0223572D01*
X0021962Y0223403D01*
X0021951Y0223234D01*
X0021937Y0223066D01*
X0021918Y0222898D01*
X0021895Y0222730D01*
X0021869Y0222563D01*
X0021838Y0222397D01*
X0021803Y0222231D01*
X0021764Y0222067D01*
X0021720Y0221903D01*
X0021673Y0221741D01*
X0021622Y0221580D01*
X0021567Y0221420D01*
X0021508Y0221261D01*
X0021446Y0221104D01*
X0021379Y0220949D01*
X0021308Y0220795D01*
X0021234Y0220643D01*
X0021156Y0220493D01*
X0021075Y0220345D01*
X0020990Y0220199D01*
X0020901Y0220055D01*
X0020809Y0219913D01*
X0020713Y0219774D01*
X0020614Y0219637D01*
X0020512Y0219502D01*
X0020406Y0219370D01*
X0020297Y0219241D01*
X0020185Y0219114D01*
X0020070Y0218990D01*
X0019952Y0218869D01*
X0019831Y0218751D01*
X0019707Y0218636D01*
X0019580Y0218524D01*
X0019451Y0218415D01*
X0019319Y0218309D01*
X0019184Y0218207D01*
X0019047Y0218108D01*
X0018908Y0218012D01*
X0018766Y0217920D01*
X0018622Y0217831D01*
X0018476Y0217746D01*
X0018328Y0217665D01*
X0018178Y0217587D01*
X0018026Y0217513D01*
X0017872Y0217442D01*
X0017717Y0217375D01*
X0017560Y0217313D01*
X0017401Y0217254D01*
X0017241Y0217199D01*
X0017080Y0217148D01*
X0016918Y0217101D01*
X0016754Y0217057D01*
X0016590Y0217018D01*
X0016424Y0216983D01*
X0016258Y0216952D01*
X0016091Y0216926D01*
X0015923Y0216903D01*
X0015755Y0216884D01*
X0015587Y0216870D01*
X0015418Y0216859D01*
X0015249Y0216853D01*
X0015080Y0216851D01*
X0014911Y0216853D01*
X0014742Y0216859D01*
X0014573Y0216870D01*
X0014405Y0216884D01*
X0014237Y0216903D01*
X0014069Y0216926D01*
X0013902Y0216952D01*
X0013736Y0216983D01*
X0013570Y0217018D01*
X0013406Y0217057D01*
X0013242Y0217101D01*
X0013080Y0217148D01*
X0012919Y0217199D01*
X0012759Y0217254D01*
X0012600Y0217313D01*
X0012443Y0217375D01*
X0012288Y0217442D01*
X0012134Y0217513D01*
X0011982Y0217587D01*
X0011832Y0217665D01*
X0011684Y0217746D01*
X0011538Y0217831D01*
X0011394Y0217920D01*
X0011252Y0218012D01*
X0011113Y0218108D01*
X0010976Y0218207D01*
X0010841Y0218309D01*
X0010709Y0218415D01*
X0010580Y0218524D01*
X0010453Y0218636D01*
X0010329Y0218751D01*
X0010208Y0218869D01*
X0010090Y0218990D01*
X0009975Y0219114D01*
X0009863Y0219241D01*
X0009754Y0219370D01*
X0009648Y0219502D01*
X0009546Y0219637D01*
X0009447Y0219774D01*
X0009351Y0219913D01*
X0009259Y0220055D01*
X0009170Y0220199D01*
X0009085Y0220345D01*
X0009004Y0220493D01*
X0008926Y0220643D01*
X0008852Y0220795D01*
X0008781Y0220949D01*
X0008714Y0221104D01*
X0008652Y0221261D01*
X0008593Y0221420D01*
X0008538Y0221580D01*
X0008487Y0221741D01*
X0008440Y0221903D01*
X0008396Y0222067D01*
X0008357Y0222231D01*
X0008322Y0222397D01*
X0008291Y0222563D01*
X0008265Y0222730D01*
X0008242Y0222898D01*
X0008223Y0223066D01*
X0008209Y0223234D01*
X0008198Y0223403D01*
X0008192Y0223572D01*
X0008190Y0223741D01*
X0165670Y0223741D02*
X0165672Y0223910D01*
X0165678Y0224079D01*
X0165689Y0224248D01*
X0165703Y0224416D01*
X0165722Y0224584D01*
X0165745Y0224752D01*
X0165771Y0224919D01*
X0165802Y0225085D01*
X0165837Y0225251D01*
X0165876Y0225415D01*
X0165920Y0225579D01*
X0165967Y0225741D01*
X0166018Y0225902D01*
X0166073Y0226062D01*
X0166132Y0226221D01*
X0166194Y0226378D01*
X0166261Y0226533D01*
X0166332Y0226687D01*
X0166406Y0226839D01*
X0166484Y0226989D01*
X0166565Y0227137D01*
X0166650Y0227283D01*
X0166739Y0227427D01*
X0166831Y0227569D01*
X0166927Y0227708D01*
X0167026Y0227845D01*
X0167128Y0227980D01*
X0167234Y0228112D01*
X0167343Y0228241D01*
X0167455Y0228368D01*
X0167570Y0228492D01*
X0167688Y0228613D01*
X0167809Y0228731D01*
X0167933Y0228846D01*
X0168060Y0228958D01*
X0168189Y0229067D01*
X0168321Y0229173D01*
X0168456Y0229275D01*
X0168593Y0229374D01*
X0168732Y0229470D01*
X0168874Y0229562D01*
X0169018Y0229651D01*
X0169164Y0229736D01*
X0169312Y0229817D01*
X0169462Y0229895D01*
X0169614Y0229969D01*
X0169768Y0230040D01*
X0169923Y0230107D01*
X0170080Y0230169D01*
X0170239Y0230228D01*
X0170399Y0230283D01*
X0170560Y0230334D01*
X0170722Y0230381D01*
X0170886Y0230425D01*
X0171050Y0230464D01*
X0171216Y0230499D01*
X0171382Y0230530D01*
X0171549Y0230556D01*
X0171717Y0230579D01*
X0171885Y0230598D01*
X0172053Y0230612D01*
X0172222Y0230623D01*
X0172391Y0230629D01*
X0172560Y0230631D01*
X0172729Y0230629D01*
X0172898Y0230623D01*
X0173067Y0230612D01*
X0173235Y0230598D01*
X0173403Y0230579D01*
X0173571Y0230556D01*
X0173738Y0230530D01*
X0173904Y0230499D01*
X0174070Y0230464D01*
X0174234Y0230425D01*
X0174398Y0230381D01*
X0174560Y0230334D01*
X0174721Y0230283D01*
X0174881Y0230228D01*
X0175040Y0230169D01*
X0175197Y0230107D01*
X0175352Y0230040D01*
X0175506Y0229969D01*
X0175658Y0229895D01*
X0175808Y0229817D01*
X0175956Y0229736D01*
X0176102Y0229651D01*
X0176246Y0229562D01*
X0176388Y0229470D01*
X0176527Y0229374D01*
X0176664Y0229275D01*
X0176799Y0229173D01*
X0176931Y0229067D01*
X0177060Y0228958D01*
X0177187Y0228846D01*
X0177311Y0228731D01*
X0177432Y0228613D01*
X0177550Y0228492D01*
X0177665Y0228368D01*
X0177777Y0228241D01*
X0177886Y0228112D01*
X0177992Y0227980D01*
X0178094Y0227845D01*
X0178193Y0227708D01*
X0178289Y0227569D01*
X0178381Y0227427D01*
X0178470Y0227283D01*
X0178555Y0227137D01*
X0178636Y0226989D01*
X0178714Y0226839D01*
X0178788Y0226687D01*
X0178859Y0226533D01*
X0178926Y0226378D01*
X0178988Y0226221D01*
X0179047Y0226062D01*
X0179102Y0225902D01*
X0179153Y0225741D01*
X0179200Y0225579D01*
X0179244Y0225415D01*
X0179283Y0225251D01*
X0179318Y0225085D01*
X0179349Y0224919D01*
X0179375Y0224752D01*
X0179398Y0224584D01*
X0179417Y0224416D01*
X0179431Y0224248D01*
X0179442Y0224079D01*
X0179448Y0223910D01*
X0179450Y0223741D01*
X0179448Y0223572D01*
X0179442Y0223403D01*
X0179431Y0223234D01*
X0179417Y0223066D01*
X0179398Y0222898D01*
X0179375Y0222730D01*
X0179349Y0222563D01*
X0179318Y0222397D01*
X0179283Y0222231D01*
X0179244Y0222067D01*
X0179200Y0221903D01*
X0179153Y0221741D01*
X0179102Y0221580D01*
X0179047Y0221420D01*
X0178988Y0221261D01*
X0178926Y0221104D01*
X0178859Y0220949D01*
X0178788Y0220795D01*
X0178714Y0220643D01*
X0178636Y0220493D01*
X0178555Y0220345D01*
X0178470Y0220199D01*
X0178381Y0220055D01*
X0178289Y0219913D01*
X0178193Y0219774D01*
X0178094Y0219637D01*
X0177992Y0219502D01*
X0177886Y0219370D01*
X0177777Y0219241D01*
X0177665Y0219114D01*
X0177550Y0218990D01*
X0177432Y0218869D01*
X0177311Y0218751D01*
X0177187Y0218636D01*
X0177060Y0218524D01*
X0176931Y0218415D01*
X0176799Y0218309D01*
X0176664Y0218207D01*
X0176527Y0218108D01*
X0176388Y0218012D01*
X0176246Y0217920D01*
X0176102Y0217831D01*
X0175956Y0217746D01*
X0175808Y0217665D01*
X0175658Y0217587D01*
X0175506Y0217513D01*
X0175352Y0217442D01*
X0175197Y0217375D01*
X0175040Y0217313D01*
X0174881Y0217254D01*
X0174721Y0217199D01*
X0174560Y0217148D01*
X0174398Y0217101D01*
X0174234Y0217057D01*
X0174070Y0217018D01*
X0173904Y0216983D01*
X0173738Y0216952D01*
X0173571Y0216926D01*
X0173403Y0216903D01*
X0173235Y0216884D01*
X0173067Y0216870D01*
X0172898Y0216859D01*
X0172729Y0216853D01*
X0172560Y0216851D01*
X0172391Y0216853D01*
X0172222Y0216859D01*
X0172053Y0216870D01*
X0171885Y0216884D01*
X0171717Y0216903D01*
X0171549Y0216926D01*
X0171382Y0216952D01*
X0171216Y0216983D01*
X0171050Y0217018D01*
X0170886Y0217057D01*
X0170722Y0217101D01*
X0170560Y0217148D01*
X0170399Y0217199D01*
X0170239Y0217254D01*
X0170080Y0217313D01*
X0169923Y0217375D01*
X0169768Y0217442D01*
X0169614Y0217513D01*
X0169462Y0217587D01*
X0169312Y0217665D01*
X0169164Y0217746D01*
X0169018Y0217831D01*
X0168874Y0217920D01*
X0168732Y0218012D01*
X0168593Y0218108D01*
X0168456Y0218207D01*
X0168321Y0218309D01*
X0168189Y0218415D01*
X0168060Y0218524D01*
X0167933Y0218636D01*
X0167809Y0218751D01*
X0167688Y0218869D01*
X0167570Y0218990D01*
X0167455Y0219114D01*
X0167343Y0219241D01*
X0167234Y0219370D01*
X0167128Y0219502D01*
X0167026Y0219637D01*
X0166927Y0219774D01*
X0166831Y0219913D01*
X0166739Y0220055D01*
X0166650Y0220199D01*
X0166565Y0220345D01*
X0166484Y0220493D01*
X0166406Y0220643D01*
X0166332Y0220795D01*
X0166261Y0220949D01*
X0166194Y0221104D01*
X0166132Y0221261D01*
X0166073Y0221420D01*
X0166018Y0221580D01*
X0165967Y0221741D01*
X0165920Y0221903D01*
X0165876Y0222067D01*
X0165837Y0222231D01*
X0165802Y0222397D01*
X0165771Y0222563D01*
X0165745Y0222730D01*
X0165722Y0222898D01*
X0165703Y0223066D01*
X0165689Y0223234D01*
X0165678Y0223403D01*
X0165672Y0223572D01*
X0165670Y0223741D01*
X0201103Y0015080D02*
X0201105Y0015249D01*
X0201111Y0015418D01*
X0201122Y0015587D01*
X0201136Y0015755D01*
X0201155Y0015923D01*
X0201178Y0016091D01*
X0201204Y0016258D01*
X0201235Y0016424D01*
X0201270Y0016590D01*
X0201309Y0016754D01*
X0201353Y0016918D01*
X0201400Y0017080D01*
X0201451Y0017241D01*
X0201506Y0017401D01*
X0201565Y0017560D01*
X0201627Y0017717D01*
X0201694Y0017872D01*
X0201765Y0018026D01*
X0201839Y0018178D01*
X0201917Y0018328D01*
X0201998Y0018476D01*
X0202083Y0018622D01*
X0202172Y0018766D01*
X0202264Y0018908D01*
X0202360Y0019047D01*
X0202459Y0019184D01*
X0202561Y0019319D01*
X0202667Y0019451D01*
X0202776Y0019580D01*
X0202888Y0019707D01*
X0203003Y0019831D01*
X0203121Y0019952D01*
X0203242Y0020070D01*
X0203366Y0020185D01*
X0203493Y0020297D01*
X0203622Y0020406D01*
X0203754Y0020512D01*
X0203889Y0020614D01*
X0204026Y0020713D01*
X0204165Y0020809D01*
X0204307Y0020901D01*
X0204451Y0020990D01*
X0204597Y0021075D01*
X0204745Y0021156D01*
X0204895Y0021234D01*
X0205047Y0021308D01*
X0205201Y0021379D01*
X0205356Y0021446D01*
X0205513Y0021508D01*
X0205672Y0021567D01*
X0205832Y0021622D01*
X0205993Y0021673D01*
X0206155Y0021720D01*
X0206319Y0021764D01*
X0206483Y0021803D01*
X0206649Y0021838D01*
X0206815Y0021869D01*
X0206982Y0021895D01*
X0207150Y0021918D01*
X0207318Y0021937D01*
X0207486Y0021951D01*
X0207655Y0021962D01*
X0207824Y0021968D01*
X0207993Y0021970D01*
X0208162Y0021968D01*
X0208331Y0021962D01*
X0208500Y0021951D01*
X0208668Y0021937D01*
X0208836Y0021918D01*
X0209004Y0021895D01*
X0209171Y0021869D01*
X0209337Y0021838D01*
X0209503Y0021803D01*
X0209667Y0021764D01*
X0209831Y0021720D01*
X0209993Y0021673D01*
X0210154Y0021622D01*
X0210314Y0021567D01*
X0210473Y0021508D01*
X0210630Y0021446D01*
X0210785Y0021379D01*
X0210939Y0021308D01*
X0211091Y0021234D01*
X0211241Y0021156D01*
X0211389Y0021075D01*
X0211535Y0020990D01*
X0211679Y0020901D01*
X0211821Y0020809D01*
X0211960Y0020713D01*
X0212097Y0020614D01*
X0212232Y0020512D01*
X0212364Y0020406D01*
X0212493Y0020297D01*
X0212620Y0020185D01*
X0212744Y0020070D01*
X0212865Y0019952D01*
X0212983Y0019831D01*
X0213098Y0019707D01*
X0213210Y0019580D01*
X0213319Y0019451D01*
X0213425Y0019319D01*
X0213527Y0019184D01*
X0213626Y0019047D01*
X0213722Y0018908D01*
X0213814Y0018766D01*
X0213903Y0018622D01*
X0213988Y0018476D01*
X0214069Y0018328D01*
X0214147Y0018178D01*
X0214221Y0018026D01*
X0214292Y0017872D01*
X0214359Y0017717D01*
X0214421Y0017560D01*
X0214480Y0017401D01*
X0214535Y0017241D01*
X0214586Y0017080D01*
X0214633Y0016918D01*
X0214677Y0016754D01*
X0214716Y0016590D01*
X0214751Y0016424D01*
X0214782Y0016258D01*
X0214808Y0016091D01*
X0214831Y0015923D01*
X0214850Y0015755D01*
X0214864Y0015587D01*
X0214875Y0015418D01*
X0214881Y0015249D01*
X0214883Y0015080D01*
X0214881Y0014911D01*
X0214875Y0014742D01*
X0214864Y0014573D01*
X0214850Y0014405D01*
X0214831Y0014237D01*
X0214808Y0014069D01*
X0214782Y0013902D01*
X0214751Y0013736D01*
X0214716Y0013570D01*
X0214677Y0013406D01*
X0214633Y0013242D01*
X0214586Y0013080D01*
X0214535Y0012919D01*
X0214480Y0012759D01*
X0214421Y0012600D01*
X0214359Y0012443D01*
X0214292Y0012288D01*
X0214221Y0012134D01*
X0214147Y0011982D01*
X0214069Y0011832D01*
X0213988Y0011684D01*
X0213903Y0011538D01*
X0213814Y0011394D01*
X0213722Y0011252D01*
X0213626Y0011113D01*
X0213527Y0010976D01*
X0213425Y0010841D01*
X0213319Y0010709D01*
X0213210Y0010580D01*
X0213098Y0010453D01*
X0212983Y0010329D01*
X0212865Y0010208D01*
X0212744Y0010090D01*
X0212620Y0009975D01*
X0212493Y0009863D01*
X0212364Y0009754D01*
X0212232Y0009648D01*
X0212097Y0009546D01*
X0211960Y0009447D01*
X0211821Y0009351D01*
X0211679Y0009259D01*
X0211535Y0009170D01*
X0211389Y0009085D01*
X0211241Y0009004D01*
X0211091Y0008926D01*
X0210939Y0008852D01*
X0210785Y0008781D01*
X0210630Y0008714D01*
X0210473Y0008652D01*
X0210314Y0008593D01*
X0210154Y0008538D01*
X0209993Y0008487D01*
X0209831Y0008440D01*
X0209667Y0008396D01*
X0209503Y0008357D01*
X0209337Y0008322D01*
X0209171Y0008291D01*
X0209004Y0008265D01*
X0208836Y0008242D01*
X0208668Y0008223D01*
X0208500Y0008209D01*
X0208331Y0008198D01*
X0208162Y0008192D01*
X0207993Y0008190D01*
X0207824Y0008192D01*
X0207655Y0008198D01*
X0207486Y0008209D01*
X0207318Y0008223D01*
X0207150Y0008242D01*
X0206982Y0008265D01*
X0206815Y0008291D01*
X0206649Y0008322D01*
X0206483Y0008357D01*
X0206319Y0008396D01*
X0206155Y0008440D01*
X0205993Y0008487D01*
X0205832Y0008538D01*
X0205672Y0008593D01*
X0205513Y0008652D01*
X0205356Y0008714D01*
X0205201Y0008781D01*
X0205047Y0008852D01*
X0204895Y0008926D01*
X0204745Y0009004D01*
X0204597Y0009085D01*
X0204451Y0009170D01*
X0204307Y0009259D01*
X0204165Y0009351D01*
X0204026Y0009447D01*
X0203889Y0009546D01*
X0203754Y0009648D01*
X0203622Y0009754D01*
X0203493Y0009863D01*
X0203366Y0009975D01*
X0203242Y0010090D01*
X0203121Y0010208D01*
X0203003Y0010329D01*
X0202888Y0010453D01*
X0202776Y0010580D01*
X0202667Y0010709D01*
X0202561Y0010841D01*
X0202459Y0010976D01*
X0202360Y0011113D01*
X0202264Y0011252D01*
X0202172Y0011394D01*
X0202083Y0011538D01*
X0201998Y0011684D01*
X0201917Y0011832D01*
X0201839Y0011982D01*
X0201765Y0012134D01*
X0201694Y0012288D01*
X0201627Y0012443D01*
X0201565Y0012600D01*
X0201506Y0012759D01*
X0201451Y0012919D01*
X0201400Y0013080D01*
X0201353Y0013242D01*
X0201309Y0013406D01*
X0201270Y0013570D01*
X0201235Y0013736D01*
X0201204Y0013902D01*
X0201178Y0014069D01*
X0201155Y0014237D01*
X0201136Y0014405D01*
X0201122Y0014573D01*
X0201111Y0014742D01*
X0201105Y0014911D01*
X0201103Y0015080D01*
D11*
X0199528Y0145591D03*
X0189528Y0145591D03*
X0179528Y0145591D03*
X0169528Y0145591D03*
X0159528Y0145591D03*
X0149528Y0145591D03*
X0139528Y0145591D03*
X0114883Y0145591D03*
X0104883Y0145591D03*
X0094883Y0145591D03*
X0084883Y0145591D03*
X0074883Y0145591D03*
X0064883Y0145591D03*
X0054883Y0145591D03*
X0054883Y0195591D03*
X0064883Y0195591D03*
X0074883Y0195591D03*
X0084883Y0195591D03*
X0094883Y0195591D03*
X0104883Y0195591D03*
X0114883Y0195591D03*
X0139528Y0195591D03*
X0149528Y0195591D03*
X0159528Y0195591D03*
X0169528Y0195591D03*
X0179528Y0195591D03*
X0189528Y0195591D03*
X0199528Y0195591D03*
D12*
X0209528Y0195591D03*
X0209528Y0145591D03*
X0124883Y0145591D03*
X0124883Y0195591D03*
D13*
X0099840Y0090729D03*
X0099840Y0085729D03*
X0099840Y0080729D03*
X0099840Y0075729D03*
X0099840Y0070729D03*
X0099840Y0065729D03*
X0099840Y0060729D03*
X0099840Y0055729D03*
X0099840Y0050729D03*
X0099840Y0045729D03*
X0130932Y0046044D03*
X0130932Y0041044D03*
X0130932Y0036044D03*
X0130932Y0031044D03*
X0130932Y0051044D03*
X0130932Y0056044D03*
X0130932Y0061044D03*
X0130932Y0066044D03*
X0155132Y0066044D03*
X0155132Y0061044D03*
X0155132Y0056044D03*
X0155132Y0051044D03*
X0155132Y0046044D03*
X0155132Y0041044D03*
X0155132Y0036044D03*
X0155132Y0031044D03*
X0060240Y0045729D03*
X0060240Y0050729D03*
X0060240Y0055729D03*
X0060240Y0060729D03*
X0060240Y0065729D03*
X0060240Y0070729D03*
X0060240Y0075729D03*
X0060240Y0080729D03*
X0060240Y0085729D03*
X0060240Y0090729D03*
D14*
X0065473Y0119410D03*
X0075473Y0119410D03*
X0085473Y0119410D03*
X0095473Y0119410D03*
X0105473Y0119410D03*
X0129410Y0217835D03*
X0050670Y0217835D03*
X0208150Y0217835D03*
D15*
X0029863Y0180316D02*
X0019824Y0180316D01*
X0020060Y0160316D02*
X0030099Y0160316D01*
D16*
X0040670Y0217835D03*
X0119410Y0217835D03*
X0198150Y0217835D03*
D17*
X0190473Y0106812D03*
X0193387Y0099725D03*
X0190473Y0092639D03*
X0183387Y0089725D03*
X0176300Y0092639D03*
X0173387Y0099725D03*
X0176300Y0106812D03*
D18*
X0183387Y0109725D03*
D19*
X0023859Y0108977D03*
D20*
X0023859Y0098977D03*
X0023859Y0088977D03*
X0023859Y0078977D03*
X0023859Y0068977D03*
X0023859Y0058977D03*
X0033859Y0058977D03*
X0033859Y0068977D03*
X0033859Y0078977D03*
X0033859Y0088977D03*
X0033859Y0098977D03*
X0033859Y0108977D03*
D21*
X0035737Y0107077D02*
X0103859Y0107077D01*
X0104972Y0108190D01*
X0104972Y0108190D01*
X0106418Y0109636D01*
X0107531Y0110749D01*
X0107531Y0112323D01*
X0107373Y0112481D01*
X0107373Y0115218D01*
X0108079Y0115511D01*
X0109373Y0116805D01*
X0110073Y0118495D01*
X0110073Y0120325D01*
X0109373Y0122016D01*
X0108079Y0123310D01*
X0106388Y0124010D01*
X0104558Y0124010D01*
X0102868Y0123310D01*
X0101574Y0122016D01*
X0100873Y0120325D01*
X0100873Y0118495D01*
X0101574Y0116805D01*
X0102868Y0115511D01*
X0103573Y0115218D01*
X0103573Y0112166D01*
X0102285Y0110877D01*
X0035737Y0110877D01*
X0035372Y0111242D01*
X0034390Y0111649D01*
X0033328Y0111649D01*
X0032346Y0111242D01*
X0031594Y0110491D01*
X0031187Y0109509D01*
X0031187Y0108446D01*
X0031594Y0107464D01*
X0032346Y0106712D01*
X0033328Y0106306D01*
X0034390Y0106306D01*
X0035372Y0106712D01*
X0035737Y0107077D01*
X0035193Y0106638D02*
X0111120Y0106638D01*
X0111120Y0107237D02*
X0104018Y0107237D01*
X0104616Y0107835D02*
X0111120Y0107835D01*
X0111120Y0108434D02*
X0105215Y0108434D01*
X0105814Y0109032D02*
X0111120Y0109032D01*
X0111120Y0109631D02*
X0106412Y0109631D01*
X0106418Y0109636D02*
X0106418Y0109636D01*
X0107011Y0110229D02*
X0111120Y0110229D01*
X0111120Y0110828D02*
X0107531Y0110828D01*
X0107531Y0111426D02*
X0111120Y0111426D01*
X0111120Y0112025D02*
X0107531Y0112025D01*
X0107373Y0112623D02*
X0111120Y0112623D01*
X0111120Y0113222D02*
X0107373Y0113222D01*
X0107373Y0113820D02*
X0111120Y0113820D01*
X0111120Y0114419D02*
X0107373Y0114419D01*
X0107373Y0115017D02*
X0111120Y0115017D01*
X0111120Y0115616D02*
X0108184Y0115616D01*
X0108783Y0116214D02*
X0111120Y0116214D01*
X0111120Y0116813D02*
X0109376Y0116813D01*
X0109624Y0117411D02*
X0111120Y0117411D01*
X0111120Y0118010D02*
X0109872Y0118010D01*
X0110073Y0118608D02*
X0111120Y0118608D01*
X0111120Y0119207D02*
X0110073Y0119207D01*
X0110073Y0119805D02*
X0111120Y0119805D01*
X0111120Y0120404D02*
X0110041Y0120404D01*
X0109793Y0121002D02*
X0111120Y0121002D01*
X0111120Y0121601D02*
X0109545Y0121601D01*
X0109190Y0122199D02*
X0111120Y0122199D01*
X0111120Y0122798D02*
X0108591Y0122798D01*
X0107870Y0123396D02*
X0111120Y0123396D01*
X0111120Y0123995D02*
X0106425Y0123995D01*
X0104521Y0123995D02*
X0096425Y0123995D01*
X0096388Y0124010D02*
X0094558Y0124010D01*
X0092868Y0123310D01*
X0091574Y0122016D01*
X0090873Y0120325D01*
X0090873Y0118495D01*
X0091574Y0116805D01*
X0092868Y0115511D01*
X0094558Y0114810D01*
X0096388Y0114810D01*
X0098079Y0115511D01*
X0099373Y0116805D01*
X0100073Y0118495D01*
X0100073Y0120325D01*
X0099373Y0122016D01*
X0098079Y0123310D01*
X0096388Y0124010D01*
X0097870Y0123396D02*
X0103076Y0123396D01*
X0102355Y0122798D02*
X0098591Y0122798D01*
X0099190Y0122199D02*
X0101757Y0122199D01*
X0101402Y0121601D02*
X0099545Y0121601D01*
X0099793Y0121002D02*
X0101154Y0121002D01*
X0100906Y0120404D02*
X0100041Y0120404D01*
X0100073Y0119805D02*
X0100873Y0119805D01*
X0100873Y0119207D02*
X0100073Y0119207D01*
X0100073Y0118608D02*
X0100873Y0118608D01*
X0101074Y0118010D02*
X0099872Y0118010D01*
X0099624Y0117411D02*
X0101322Y0117411D01*
X0101570Y0116813D02*
X0099376Y0116813D01*
X0098783Y0116214D02*
X0102164Y0116214D01*
X0102762Y0115616D02*
X0098184Y0115616D01*
X0096888Y0115017D02*
X0103573Y0115017D01*
X0103573Y0114419D02*
X0065920Y0114419D01*
X0065867Y0114410D02*
X0066644Y0114533D01*
X0067393Y0114777D01*
X0068094Y0115134D01*
X0068730Y0115596D01*
X0069287Y0116153D01*
X0069750Y0116790D01*
X0070107Y0117491D01*
X0070350Y0118239D01*
X0070473Y0119017D01*
X0070473Y0119110D01*
X0065773Y0119110D01*
X0065773Y0114410D01*
X0065867Y0114410D01*
X0065773Y0114419D02*
X0065173Y0114419D01*
X0065173Y0114410D02*
X0065173Y0119110D01*
X0060473Y0119110D01*
X0060473Y0119017D01*
X0060596Y0118239D01*
X0060840Y0117491D01*
X0061197Y0116790D01*
X0061659Y0116153D01*
X0062216Y0115596D01*
X0062853Y0115134D01*
X0063554Y0114777D01*
X0064302Y0114533D01*
X0065080Y0114410D01*
X0065173Y0114410D01*
X0065027Y0114419D02*
X0003100Y0114419D01*
X0003100Y0115017D02*
X0063082Y0115017D01*
X0062197Y0115616D02*
X0003100Y0115616D01*
X0003100Y0116214D02*
X0061615Y0116214D01*
X0061185Y0116813D02*
X0003100Y0116813D01*
X0003100Y0117411D02*
X0060880Y0117411D01*
X0060671Y0118010D02*
X0003100Y0118010D01*
X0003100Y0118608D02*
X0060538Y0118608D01*
X0060473Y0119710D02*
X0065173Y0119710D01*
X0065173Y0119110D01*
X0065773Y0119110D01*
X0065773Y0119710D01*
X0065173Y0119710D01*
X0065173Y0124410D01*
X0065080Y0124410D01*
X0064302Y0124287D01*
X0063554Y0124044D01*
X0062853Y0123687D01*
X0062216Y0123224D01*
X0061659Y0122668D01*
X0061197Y0122031D01*
X0060840Y0121330D01*
X0060596Y0120581D01*
X0060473Y0119804D01*
X0060473Y0119710D01*
X0060473Y0119805D02*
X0003100Y0119805D01*
X0003100Y0119207D02*
X0065173Y0119207D01*
X0065173Y0119805D02*
X0065773Y0119805D01*
X0065773Y0119710D02*
X0065773Y0124410D01*
X0065867Y0124410D01*
X0066644Y0124287D01*
X0067393Y0124044D01*
X0068094Y0123687D01*
X0068730Y0123224D01*
X0069287Y0122668D01*
X0069750Y0122031D01*
X0070107Y0121330D01*
X0070350Y0120581D01*
X0070473Y0119804D01*
X0070473Y0119710D01*
X0065773Y0119710D01*
X0065773Y0119207D02*
X0070873Y0119207D01*
X0070873Y0119805D02*
X0070473Y0119805D01*
X0070378Y0120404D02*
X0070906Y0120404D01*
X0070873Y0120325D02*
X0070873Y0118495D01*
X0071574Y0116805D01*
X0072868Y0115511D01*
X0074558Y0114810D01*
X0076388Y0114810D01*
X0078079Y0115511D01*
X0079373Y0116805D01*
X0080073Y0118495D01*
X0080073Y0120325D01*
X0079373Y0122016D01*
X0078079Y0123310D01*
X0076388Y0124010D01*
X0074558Y0124010D01*
X0072868Y0123310D01*
X0071574Y0122016D01*
X0070873Y0120325D01*
X0071154Y0121002D02*
X0070213Y0121002D01*
X0069969Y0121601D02*
X0071402Y0121601D01*
X0071757Y0122199D02*
X0069627Y0122199D01*
X0069157Y0122798D02*
X0072355Y0122798D01*
X0073076Y0123396D02*
X0068493Y0123396D01*
X0067489Y0123995D02*
X0074521Y0123995D01*
X0076425Y0123995D02*
X0084521Y0123995D01*
X0084558Y0124010D02*
X0082868Y0123310D01*
X0081574Y0122016D01*
X0080873Y0120325D01*
X0080873Y0118495D01*
X0081574Y0116805D01*
X0082868Y0115511D01*
X0084558Y0114810D01*
X0086388Y0114810D01*
X0088079Y0115511D01*
X0089373Y0116805D01*
X0090073Y0118495D01*
X0090073Y0120325D01*
X0089373Y0122016D01*
X0088079Y0123310D01*
X0086388Y0124010D01*
X0084558Y0124010D01*
X0083076Y0123396D02*
X0077870Y0123396D01*
X0078591Y0122798D02*
X0082355Y0122798D01*
X0081757Y0122199D02*
X0079190Y0122199D01*
X0079545Y0121601D02*
X0081402Y0121601D01*
X0081154Y0121002D02*
X0079793Y0121002D01*
X0080041Y0120404D02*
X0080906Y0120404D01*
X0080873Y0119805D02*
X0080073Y0119805D01*
X0080073Y0119207D02*
X0080873Y0119207D01*
X0080873Y0118608D02*
X0080073Y0118608D01*
X0079872Y0118010D02*
X0081074Y0118010D01*
X0081322Y0117411D02*
X0079624Y0117411D01*
X0079376Y0116813D02*
X0081570Y0116813D01*
X0082164Y0116214D02*
X0078783Y0116214D01*
X0078184Y0115616D02*
X0082762Y0115616D01*
X0084059Y0115017D02*
X0076888Y0115017D01*
X0074059Y0115017D02*
X0067865Y0115017D01*
X0068750Y0115616D02*
X0072762Y0115616D01*
X0072164Y0116214D02*
X0069331Y0116214D01*
X0069761Y0116813D02*
X0071570Y0116813D01*
X0071322Y0117411D02*
X0070066Y0117411D01*
X0070275Y0118010D02*
X0071074Y0118010D01*
X0070873Y0118608D02*
X0070409Y0118608D01*
X0065773Y0118608D02*
X0065173Y0118608D01*
X0065173Y0118010D02*
X0065773Y0118010D01*
X0065773Y0117411D02*
X0065173Y0117411D01*
X0065173Y0116813D02*
X0065773Y0116813D01*
X0065773Y0116214D02*
X0065173Y0116214D01*
X0065173Y0115616D02*
X0065773Y0115616D01*
X0065773Y0115017D02*
X0065173Y0115017D01*
X0065173Y0120404D02*
X0065773Y0120404D01*
X0065773Y0121002D02*
X0065173Y0121002D01*
X0065173Y0121601D02*
X0065773Y0121601D01*
X0065773Y0122199D02*
X0065173Y0122199D01*
X0065173Y0122798D02*
X0065773Y0122798D01*
X0065773Y0123396D02*
X0065173Y0123396D01*
X0065173Y0123995D02*
X0065773Y0123995D01*
X0063458Y0123995D02*
X0003100Y0123995D01*
X0003100Y0124593D02*
X0111120Y0124593D01*
X0111120Y0125192D02*
X0003100Y0125192D01*
X0003100Y0125790D02*
X0111120Y0125790D01*
X0111120Y0126389D02*
X0003100Y0126389D01*
X0003100Y0126987D02*
X0111120Y0126987D01*
X0111120Y0127586D02*
X0003100Y0127586D01*
X0003100Y0128184D02*
X0111120Y0128184D01*
X0111120Y0128783D02*
X0003100Y0128783D01*
X0003100Y0129381D02*
X0111120Y0129381D01*
X0111120Y0129980D02*
X0003100Y0129980D01*
X0003100Y0130578D02*
X0111120Y0130578D01*
X0111120Y0131177D02*
X0003100Y0131177D01*
X0003100Y0131775D02*
X0111120Y0131775D01*
X0111120Y0131782D02*
X0111120Y0063888D01*
X0109362Y0062129D01*
X0104740Y0062129D01*
X0104740Y0062402D01*
X0104213Y0062929D01*
X0095467Y0062929D01*
X0094940Y0062402D01*
X0094940Y0059056D01*
X0095467Y0058529D01*
X0104213Y0058529D01*
X0104740Y0059056D01*
X0104740Y0059329D01*
X0110522Y0059329D01*
X0113920Y0062728D01*
X0113920Y0132067D01*
X0114007Y0132500D01*
X0113920Y0132629D01*
X0113920Y0132785D01*
X0113608Y0133097D01*
X0111952Y0135582D01*
X0111952Y0135738D01*
X0111640Y0136050D01*
X0111395Y0136417D01*
X0111242Y0136448D01*
X0111132Y0136558D01*
X0110691Y0136558D01*
X0110258Y0136645D01*
X0110128Y0136558D01*
X0098337Y0136558D01*
X0096210Y0138685D01*
X0096252Y0142627D01*
X0096731Y0142826D01*
X0097648Y0143743D01*
X0098145Y0144942D01*
X0098145Y0146240D01*
X0097648Y0147439D01*
X0096731Y0148357D01*
X0095532Y0148854D01*
X0094234Y0148854D01*
X0093035Y0148357D01*
X0092117Y0147439D01*
X0091620Y0146240D01*
X0091620Y0144942D01*
X0092117Y0143743D01*
X0093035Y0142826D01*
X0093452Y0142653D01*
X0093410Y0138697D01*
X0093404Y0138691D01*
X0093404Y0138119D01*
X0093398Y0137546D01*
X0093404Y0137540D01*
X0093404Y0137531D01*
X0093809Y0137126D01*
X0094209Y0136717D01*
X0094218Y0136717D01*
X0096357Y0134578D01*
X0097177Y0133758D01*
X0109803Y0133758D01*
X0111120Y0131782D01*
X0110726Y0132374D02*
X0003100Y0132374D01*
X0003100Y0132972D02*
X0110327Y0132972D01*
X0109928Y0133571D02*
X0003100Y0133571D01*
X0003100Y0134170D02*
X0096766Y0134170D01*
X0096167Y0134768D02*
X0003100Y0134768D01*
X0003100Y0135367D02*
X0095569Y0135367D01*
X0094970Y0135965D02*
X0003100Y0135965D01*
X0003100Y0136564D02*
X0094371Y0136564D01*
X0093773Y0137162D02*
X0003100Y0137162D01*
X0003100Y0137761D02*
X0093400Y0137761D01*
X0093404Y0138359D02*
X0003100Y0138359D01*
X0003100Y0138958D02*
X0093413Y0138958D01*
X0093419Y0139556D02*
X0003100Y0139556D01*
X0003100Y0140155D02*
X0093425Y0140155D01*
X0093432Y0140753D02*
X0003100Y0140753D01*
X0003100Y0141352D02*
X0093438Y0141352D01*
X0093444Y0141950D02*
X0003100Y0141950D01*
X0003100Y0142549D02*
X0053704Y0142549D01*
X0054234Y0142329D02*
X0053035Y0142826D01*
X0052117Y0143743D01*
X0051620Y0144942D01*
X0051620Y0146240D01*
X0052117Y0147439D01*
X0053035Y0148357D01*
X0054234Y0148854D01*
X0055532Y0148854D01*
X0056731Y0148357D01*
X0057648Y0147439D01*
X0058145Y0146240D01*
X0058145Y0144942D01*
X0057648Y0143743D01*
X0056731Y0142826D01*
X0055532Y0142329D01*
X0054234Y0142329D01*
X0052713Y0143147D02*
X0003100Y0143147D01*
X0003100Y0143746D02*
X0052116Y0143746D01*
X0051868Y0144344D02*
X0003100Y0144344D01*
X0003100Y0144943D02*
X0051620Y0144943D01*
X0051620Y0145541D02*
X0003100Y0145541D01*
X0003100Y0146140D02*
X0051620Y0146140D01*
X0051827Y0146738D02*
X0003100Y0146738D01*
X0003100Y0147337D02*
X0052075Y0147337D01*
X0052613Y0147935D02*
X0003100Y0147935D01*
X0003100Y0148534D02*
X0053462Y0148534D01*
X0056304Y0148534D02*
X0063462Y0148534D01*
X0063035Y0148357D02*
X0062117Y0147439D01*
X0061620Y0146240D01*
X0061620Y0144942D01*
X0062117Y0143743D01*
X0063035Y0142826D01*
X0064234Y0142329D01*
X0065532Y0142329D01*
X0066731Y0142826D01*
X0067648Y0143743D01*
X0068145Y0144942D01*
X0068145Y0146240D01*
X0067648Y0147439D01*
X0066731Y0148357D01*
X0065532Y0148854D01*
X0064234Y0148854D01*
X0063035Y0148357D01*
X0062613Y0147935D02*
X0057152Y0147935D01*
X0057691Y0147337D02*
X0062075Y0147337D01*
X0061827Y0146738D02*
X0057939Y0146738D01*
X0058145Y0146140D02*
X0061620Y0146140D01*
X0061620Y0145541D02*
X0058145Y0145541D01*
X0058145Y0144943D02*
X0061620Y0144943D01*
X0061868Y0144344D02*
X0057897Y0144344D01*
X0057649Y0143746D02*
X0062116Y0143746D01*
X0062713Y0143147D02*
X0057052Y0143147D01*
X0056062Y0142549D02*
X0063704Y0142549D01*
X0066062Y0142549D02*
X0073704Y0142549D01*
X0074234Y0142329D02*
X0073035Y0142826D01*
X0072117Y0143743D01*
X0071620Y0144942D01*
X0071620Y0146240D01*
X0072117Y0147439D01*
X0073035Y0148357D01*
X0074234Y0148854D01*
X0075532Y0148854D01*
X0075979Y0148668D01*
X0080766Y0153455D01*
X0081586Y0154275D01*
X0152825Y0154275D01*
X0153645Y0153455D01*
X0158432Y0148668D01*
X0158879Y0148854D01*
X0160177Y0148854D01*
X0161376Y0148357D01*
X0162294Y0147439D01*
X0162791Y0146240D01*
X0162791Y0144942D01*
X0162294Y0143743D01*
X0161376Y0142826D01*
X0160928Y0142640D01*
X0160928Y0137295D01*
X0157392Y0133758D01*
X0121959Y0133758D01*
X0119826Y0131626D01*
X0119826Y0052885D01*
X0116270Y0049329D01*
X0104740Y0049329D01*
X0104740Y0049056D01*
X0104213Y0048529D01*
X0095467Y0048529D01*
X0094940Y0049056D01*
X0094940Y0052402D01*
X0095467Y0052929D01*
X0104213Y0052929D01*
X0104740Y0052402D01*
X0104740Y0052129D01*
X0115110Y0052129D01*
X0117026Y0054045D01*
X0117026Y0132785D01*
X0117846Y0133605D01*
X0117846Y0133605D01*
X0119979Y0135738D01*
X0119979Y0135738D01*
X0120799Y0136558D01*
X0156232Y0136558D01*
X0158128Y0138455D01*
X0158128Y0142640D01*
X0157680Y0142826D01*
X0156763Y0143743D01*
X0156266Y0144942D01*
X0156266Y0146240D01*
X0156452Y0146688D01*
X0151665Y0151475D01*
X0082746Y0151475D01*
X0077959Y0146688D01*
X0078145Y0146240D01*
X0078145Y0144942D01*
X0077648Y0143743D01*
X0076731Y0142826D01*
X0075532Y0142329D01*
X0074234Y0142329D01*
X0072713Y0143147D02*
X0067052Y0143147D01*
X0067649Y0143746D02*
X0072116Y0143746D01*
X0071868Y0144344D02*
X0067897Y0144344D01*
X0068145Y0144943D02*
X0071620Y0144943D01*
X0071620Y0145541D02*
X0068145Y0145541D01*
X0068145Y0146140D02*
X0071620Y0146140D01*
X0071827Y0146738D02*
X0067939Y0146738D01*
X0067691Y0147337D02*
X0072075Y0147337D01*
X0072613Y0147935D02*
X0067152Y0147935D01*
X0066304Y0148534D02*
X0073462Y0148534D01*
X0076444Y0149132D02*
X0003100Y0149132D01*
X0003100Y0149731D02*
X0077042Y0149731D01*
X0077641Y0150329D02*
X0003100Y0150329D01*
X0003100Y0150928D02*
X0078239Y0150928D01*
X0078838Y0151526D02*
X0003100Y0151526D01*
X0003100Y0152125D02*
X0079436Y0152125D01*
X0080035Y0152723D02*
X0003100Y0152723D01*
X0003100Y0153322D02*
X0080633Y0153322D01*
X0081232Y0153920D02*
X0032480Y0153920D01*
X0031456Y0153496D02*
X0033962Y0154534D01*
X0035881Y0156453D01*
X0036321Y0157516D01*
X0090164Y0157516D01*
X0091193Y0157942D01*
X0124680Y0191429D01*
X0125085Y0191429D01*
X0131761Y0184753D01*
X0132790Y0184327D01*
X0201621Y0184327D01*
X0202650Y0184753D01*
X0203437Y0185541D01*
X0209326Y0191429D01*
X0212636Y0191429D01*
X0213691Y0192484D01*
X0213691Y0198699D01*
X0212636Y0199754D01*
X0206421Y0199754D01*
X0205366Y0198699D01*
X0205366Y0195389D01*
X0199904Y0189927D01*
X0134507Y0189927D01*
X0129045Y0195389D01*
X0129045Y0198699D01*
X0127990Y0199754D01*
X0121775Y0199754D01*
X0120720Y0198699D01*
X0120720Y0195389D01*
X0088447Y0163116D01*
X0036321Y0163116D01*
X0035881Y0164179D01*
X0033962Y0166097D01*
X0031456Y0167135D01*
X0018703Y0167135D01*
X0016197Y0166097D01*
X0014278Y0164179D01*
X0013240Y0161672D01*
X0013240Y0158959D01*
X0014278Y0156453D01*
X0016197Y0154534D01*
X0018703Y0153496D01*
X0031456Y0153496D01*
X0033925Y0154519D02*
X0219972Y0154519D01*
X0219972Y0155117D02*
X0034545Y0155117D01*
X0035144Y0155716D02*
X0219972Y0155716D01*
X0219972Y0156314D02*
X0035742Y0156314D01*
X0036071Y0156913D02*
X0219972Y0156913D01*
X0219972Y0157511D02*
X0036319Y0157511D01*
X0036163Y0163497D02*
X0088828Y0163497D01*
X0089427Y0164095D02*
X0035915Y0164095D01*
X0035366Y0164694D02*
X0090025Y0164694D01*
X0090624Y0165292D02*
X0034767Y0165292D01*
X0034169Y0165891D02*
X0091222Y0165891D01*
X0091821Y0166489D02*
X0033016Y0166489D01*
X0031571Y0167088D02*
X0092419Y0167088D01*
X0093018Y0167686D02*
X0003100Y0167686D01*
X0003100Y0167088D02*
X0018588Y0167088D01*
X0017143Y0166489D02*
X0003100Y0166489D01*
X0003100Y0165891D02*
X0015990Y0165891D01*
X0015392Y0165292D02*
X0003100Y0165292D01*
X0003100Y0164694D02*
X0014793Y0164694D01*
X0014244Y0164095D02*
X0003100Y0164095D01*
X0003100Y0163497D02*
X0013996Y0163497D01*
X0013748Y0162898D02*
X0003100Y0162898D01*
X0003100Y0162300D02*
X0013500Y0162300D01*
X0013252Y0161701D02*
X0003100Y0161701D01*
X0003100Y0161103D02*
X0013240Y0161103D01*
X0013240Y0160504D02*
X0003100Y0160504D01*
X0003100Y0159905D02*
X0013240Y0159905D01*
X0013240Y0159307D02*
X0003100Y0159307D01*
X0003100Y0158708D02*
X0013344Y0158708D01*
X0013592Y0158110D02*
X0003100Y0158110D01*
X0003100Y0157511D02*
X0013840Y0157511D01*
X0014088Y0156913D02*
X0003100Y0156913D01*
X0003100Y0156314D02*
X0014417Y0156314D01*
X0015015Y0155716D02*
X0003100Y0155716D01*
X0003100Y0155117D02*
X0015614Y0155117D01*
X0016234Y0154519D02*
X0003100Y0154519D01*
X0003100Y0153920D02*
X0017679Y0153920D01*
X0003100Y0168285D02*
X0093616Y0168285D01*
X0094215Y0168883D02*
X0003100Y0168883D01*
X0003100Y0169482D02*
X0094813Y0169482D01*
X0095412Y0170080D02*
X0003100Y0170080D01*
X0003100Y0170679D02*
X0096010Y0170679D01*
X0096609Y0171277D02*
X0003100Y0171277D01*
X0003100Y0171876D02*
X0097207Y0171876D01*
X0097806Y0172474D02*
X0003100Y0172474D01*
X0003100Y0173073D02*
X0098404Y0173073D01*
X0099003Y0173671D02*
X0031642Y0173671D01*
X0031220Y0173496D02*
X0033726Y0174534D01*
X0035644Y0176453D01*
X0036085Y0177516D01*
X0100164Y0177516D01*
X0101193Y0177942D01*
X0114680Y0191429D01*
X0115711Y0191429D01*
X0117240Y0192063D01*
X0118411Y0193234D01*
X0119045Y0194763D01*
X0119045Y0196419D01*
X0118411Y0197949D01*
X0117240Y0199120D01*
X0115711Y0199754D01*
X0114055Y0199754D01*
X0112525Y0199120D01*
X0111354Y0197949D01*
X0110720Y0196419D01*
X0110720Y0195389D01*
X0098447Y0183116D01*
X0036085Y0183116D01*
X0035644Y0184179D01*
X0033726Y0186097D01*
X0031220Y0187135D01*
X0018467Y0187135D01*
X0015961Y0186097D01*
X0014042Y0184179D01*
X0013004Y0181672D01*
X0013004Y0178959D01*
X0014042Y0176453D01*
X0015961Y0174534D01*
X0018467Y0173496D01*
X0031220Y0173496D01*
X0033087Y0174270D02*
X0099601Y0174270D01*
X0100200Y0174868D02*
X0034060Y0174868D01*
X0034659Y0175467D02*
X0100798Y0175467D01*
X0101397Y0176065D02*
X0035257Y0176065D01*
X0035732Y0176664D02*
X0101995Y0176664D01*
X0102594Y0177262D02*
X0035980Y0177262D01*
X0036030Y0183247D02*
X0098579Y0183247D01*
X0099178Y0183846D02*
X0035782Y0183846D01*
X0035379Y0184444D02*
X0099776Y0184444D01*
X0100375Y0185043D02*
X0034780Y0185043D01*
X0034182Y0185641D02*
X0100973Y0185641D01*
X0101572Y0186240D02*
X0033381Y0186240D01*
X0031936Y0186839D02*
X0102170Y0186839D01*
X0102769Y0187437D02*
X0003100Y0187437D01*
X0003100Y0186839D02*
X0017750Y0186839D01*
X0016305Y0186240D02*
X0003100Y0186240D01*
X0003100Y0185641D02*
X0015505Y0185641D01*
X0014906Y0185043D02*
X0003100Y0185043D01*
X0003100Y0184444D02*
X0014308Y0184444D01*
X0013904Y0183846D02*
X0003100Y0183846D01*
X0003100Y0183247D02*
X0013656Y0183247D01*
X0013408Y0182649D02*
X0003100Y0182649D01*
X0003100Y0182050D02*
X0013161Y0182050D01*
X0013004Y0181452D02*
X0003100Y0181452D01*
X0003100Y0180853D02*
X0013004Y0180853D01*
X0013004Y0180255D02*
X0003100Y0180255D01*
X0003100Y0179656D02*
X0013004Y0179656D01*
X0013004Y0179058D02*
X0003100Y0179058D01*
X0003100Y0178459D02*
X0013211Y0178459D01*
X0013459Y0177861D02*
X0003100Y0177861D01*
X0003100Y0177262D02*
X0013707Y0177262D01*
X0013955Y0176664D02*
X0003100Y0176664D01*
X0003100Y0176065D02*
X0014430Y0176065D01*
X0015028Y0175467D02*
X0003100Y0175467D01*
X0003100Y0174868D02*
X0015627Y0174868D01*
X0016599Y0174270D02*
X0003100Y0174270D01*
X0003100Y0173671D02*
X0018044Y0173671D01*
X0003100Y0188036D02*
X0103367Y0188036D01*
X0103966Y0188634D02*
X0003100Y0188634D01*
X0003100Y0189233D02*
X0104564Y0189233D01*
X0105163Y0189831D02*
X0003100Y0189831D01*
X0003100Y0190430D02*
X0105761Y0190430D01*
X0106360Y0191028D02*
X0003100Y0191028D01*
X0003100Y0191627D02*
X0053578Y0191627D01*
X0054055Y0191429D02*
X0052525Y0192063D01*
X0051354Y0193234D01*
X0050720Y0194763D01*
X0050720Y0196419D01*
X0051354Y0197949D01*
X0052525Y0199120D01*
X0054055Y0199754D01*
X0055711Y0199754D01*
X0057240Y0199120D01*
X0058411Y0197949D01*
X0059045Y0196419D01*
X0059045Y0194763D01*
X0058411Y0193234D01*
X0057240Y0192063D01*
X0055711Y0191429D01*
X0054055Y0191429D01*
X0052363Y0192225D02*
X0003100Y0192225D01*
X0003100Y0192824D02*
X0051764Y0192824D01*
X0051276Y0193422D02*
X0003100Y0193422D01*
X0003100Y0194021D02*
X0051028Y0194021D01*
X0050780Y0194619D02*
X0003100Y0194619D01*
X0003100Y0195218D02*
X0050720Y0195218D01*
X0050720Y0195816D02*
X0003100Y0195816D01*
X0003100Y0196415D02*
X0050720Y0196415D01*
X0050966Y0197013D02*
X0003100Y0197013D01*
X0003100Y0197612D02*
X0051214Y0197612D01*
X0051615Y0198210D02*
X0003100Y0198210D01*
X0003100Y0198809D02*
X0052214Y0198809D01*
X0053219Y0199407D02*
X0003100Y0199407D01*
X0003100Y0200006D02*
X0219972Y0200006D01*
X0219972Y0200604D02*
X0003100Y0200604D01*
X0003100Y0201203D02*
X0219972Y0201203D01*
X0219972Y0201801D02*
X0003100Y0201801D01*
X0003100Y0202400D02*
X0219972Y0202400D01*
X0219972Y0202998D02*
X0003100Y0202998D01*
X0003100Y0203597D02*
X0219972Y0203597D01*
X0219972Y0204195D02*
X0003100Y0204195D01*
X0003100Y0204794D02*
X0219972Y0204794D01*
X0219972Y0205392D02*
X0003100Y0205392D01*
X0003100Y0205991D02*
X0219972Y0205991D01*
X0219972Y0206589D02*
X0003100Y0206589D01*
X0003100Y0207188D02*
X0219972Y0207188D01*
X0219972Y0207786D02*
X0003100Y0207786D01*
X0003100Y0208385D02*
X0219972Y0208385D01*
X0219972Y0208983D02*
X0003100Y0208983D01*
X0003100Y0209582D02*
X0219972Y0209582D01*
X0219972Y0210180D02*
X0178684Y0210180D01*
X0178465Y0209961D02*
X0186339Y0217835D01*
X0186339Y0235720D01*
X0219972Y0235720D01*
X0219972Y0028859D01*
X0202087Y0028859D01*
X0194213Y0020985D01*
X0194213Y0003100D01*
X0028859Y0003100D01*
X0028859Y0020985D01*
X0020985Y0028859D01*
X0003100Y0028859D01*
X0003100Y0209961D01*
X0020985Y0209961D01*
X0028859Y0217835D01*
X0028859Y0235720D01*
X0158780Y0235720D01*
X0158780Y0217835D01*
X0166654Y0209961D01*
X0178465Y0209961D01*
X0179283Y0210779D02*
X0219972Y0210779D01*
X0219972Y0211377D02*
X0179881Y0211377D01*
X0180480Y0211976D02*
X0219972Y0211976D01*
X0219972Y0212574D02*
X0209822Y0212574D01*
X0209244Y0212335D02*
X0207056Y0212335D01*
X0205035Y0213173D01*
X0203650Y0214557D01*
X0203650Y0213390D01*
X0202596Y0212335D01*
X0193705Y0212335D01*
X0192650Y0213390D01*
X0192650Y0222281D01*
X0193705Y0223335D01*
X0202596Y0223335D01*
X0203650Y0222281D01*
X0203650Y0221114D01*
X0205035Y0222498D01*
X0207056Y0223335D01*
X0209244Y0223335D01*
X0211266Y0222498D01*
X0212813Y0220951D01*
X0213650Y0218929D01*
X0213650Y0216741D01*
X0212813Y0214720D01*
X0211266Y0213173D01*
X0219972Y0213173D01*
X0219972Y0213772D02*
X0211865Y0213772D01*
X0212463Y0214370D02*
X0219972Y0214370D01*
X0219972Y0214969D02*
X0212916Y0214969D01*
X0213164Y0215567D02*
X0219972Y0215567D01*
X0219972Y0216166D02*
X0213412Y0216166D01*
X0213650Y0216764D02*
X0219972Y0216764D01*
X0219972Y0217363D02*
X0213650Y0217363D01*
X0213650Y0217961D02*
X0219972Y0217961D01*
X0219972Y0218560D02*
X0213650Y0218560D01*
X0213556Y0219158D02*
X0219972Y0219158D01*
X0219972Y0219757D02*
X0213308Y0219757D01*
X0213060Y0220355D02*
X0219972Y0220355D01*
X0219972Y0220954D02*
X0212810Y0220954D01*
X0212212Y0221552D02*
X0219972Y0221552D01*
X0219972Y0222151D02*
X0211613Y0222151D01*
X0210660Y0222749D02*
X0219972Y0222749D01*
X0219972Y0223348D02*
X0186339Y0223348D01*
X0186339Y0223946D02*
X0219972Y0223946D01*
X0219972Y0224545D02*
X0186339Y0224545D01*
X0186339Y0225143D02*
X0219972Y0225143D01*
X0219972Y0225742D02*
X0186339Y0225742D01*
X0186339Y0226340D02*
X0219972Y0226340D01*
X0219972Y0226939D02*
X0186339Y0226939D01*
X0186339Y0227537D02*
X0219972Y0227537D01*
X0219972Y0228136D02*
X0186339Y0228136D01*
X0186339Y0228734D02*
X0219972Y0228734D01*
X0219972Y0229333D02*
X0186339Y0229333D01*
X0186339Y0229931D02*
X0219972Y0229931D01*
X0219972Y0230530D02*
X0186339Y0230530D01*
X0186339Y0231128D02*
X0219972Y0231128D01*
X0219972Y0231727D02*
X0186339Y0231727D01*
X0186339Y0232325D02*
X0219972Y0232325D01*
X0219972Y0232924D02*
X0186339Y0232924D01*
X0186339Y0233522D02*
X0219972Y0233522D01*
X0219972Y0234121D02*
X0186339Y0234121D01*
X0186339Y0234719D02*
X0219972Y0234719D01*
X0219972Y0235318D02*
X0186339Y0235318D01*
X0186339Y0222749D02*
X0193119Y0222749D01*
X0192650Y0222151D02*
X0186339Y0222151D01*
X0186339Y0221552D02*
X0192650Y0221552D01*
X0192650Y0220954D02*
X0186339Y0220954D01*
X0186339Y0220355D02*
X0192650Y0220355D01*
X0192650Y0219757D02*
X0186339Y0219757D01*
X0186339Y0219158D02*
X0192650Y0219158D01*
X0192650Y0218560D02*
X0186339Y0218560D01*
X0186339Y0217961D02*
X0192650Y0217961D01*
X0192650Y0217363D02*
X0185867Y0217363D01*
X0185268Y0216764D02*
X0192650Y0216764D01*
X0192650Y0216166D02*
X0184670Y0216166D01*
X0184071Y0215567D02*
X0192650Y0215567D01*
X0192650Y0214969D02*
X0183472Y0214969D01*
X0182874Y0214370D02*
X0192650Y0214370D01*
X0192650Y0213772D02*
X0182275Y0213772D01*
X0181677Y0213173D02*
X0192867Y0213173D01*
X0193466Y0212574D02*
X0181078Y0212574D01*
X0179889Y0199254D02*
X0179828Y0199254D01*
X0179828Y0195891D01*
X0179228Y0195891D01*
X0179228Y0195291D01*
X0175866Y0195291D01*
X0175866Y0195231D01*
X0176007Y0194523D01*
X0176283Y0193857D01*
X0176684Y0193257D01*
X0177194Y0192747D01*
X0177794Y0192346D01*
X0178460Y0192070D01*
X0179168Y0191929D01*
X0179228Y0191929D01*
X0179228Y0195291D01*
X0179828Y0195291D01*
X0179828Y0191929D01*
X0179889Y0191929D01*
X0180597Y0192070D01*
X0181263Y0192346D01*
X0181863Y0192747D01*
X0182373Y0193257D01*
X0182774Y0193857D01*
X0183050Y0194523D01*
X0183191Y0195231D01*
X0183191Y0195291D01*
X0179828Y0195291D01*
X0179828Y0195891D01*
X0183191Y0195891D01*
X0183191Y0195952D01*
X0183050Y0196660D01*
X0182774Y0197326D01*
X0182373Y0197926D01*
X0181863Y0198436D01*
X0181263Y0198837D01*
X0180597Y0199113D01*
X0179889Y0199254D01*
X0179828Y0198809D02*
X0179228Y0198809D01*
X0179228Y0199254D02*
X0179168Y0199254D01*
X0178460Y0199113D01*
X0177794Y0198837D01*
X0177194Y0198436D01*
X0176684Y0197926D01*
X0176283Y0197326D01*
X0176007Y0196660D01*
X0175866Y0195952D01*
X0175866Y0195891D01*
X0179228Y0195891D01*
X0179228Y0199254D01*
X0179228Y0198210D02*
X0179828Y0198210D01*
X0179828Y0197612D02*
X0179228Y0197612D01*
X0179228Y0197013D02*
X0179828Y0197013D01*
X0179828Y0196415D02*
X0179228Y0196415D01*
X0179228Y0195816D02*
X0172791Y0195816D01*
X0172791Y0196240D02*
X0172791Y0194942D01*
X0172294Y0193743D01*
X0171376Y0192826D01*
X0170177Y0192329D01*
X0168879Y0192329D01*
X0167680Y0192826D01*
X0166763Y0193743D01*
X0166266Y0194942D01*
X0166266Y0196240D01*
X0166763Y0197439D01*
X0167680Y0198357D01*
X0168879Y0198854D01*
X0170177Y0198854D01*
X0171376Y0198357D01*
X0172294Y0197439D01*
X0172791Y0196240D01*
X0172718Y0196415D02*
X0175958Y0196415D01*
X0176153Y0197013D02*
X0172470Y0197013D01*
X0172121Y0197612D02*
X0176474Y0197612D01*
X0176968Y0198210D02*
X0171523Y0198210D01*
X0170285Y0198809D02*
X0177752Y0198809D01*
X0181305Y0198809D02*
X0188771Y0198809D01*
X0188879Y0198854D02*
X0187680Y0198357D01*
X0186763Y0197439D01*
X0186266Y0196240D01*
X0186266Y0194942D01*
X0186763Y0193743D01*
X0187680Y0192826D01*
X0188879Y0192329D01*
X0190177Y0192329D01*
X0191376Y0192826D01*
X0192294Y0193743D01*
X0192791Y0194942D01*
X0192791Y0196240D01*
X0192294Y0197439D01*
X0191376Y0198357D01*
X0190177Y0198854D01*
X0188879Y0198854D01*
X0190285Y0198809D02*
X0196860Y0198809D01*
X0197171Y0199120D02*
X0196000Y0197949D01*
X0195366Y0196419D01*
X0195366Y0194763D01*
X0196000Y0193234D01*
X0197171Y0192063D01*
X0198700Y0191429D01*
X0200356Y0191429D01*
X0201886Y0192063D01*
X0203057Y0193234D01*
X0203691Y0194763D01*
X0203691Y0196419D01*
X0203057Y0197949D01*
X0201886Y0199120D01*
X0200356Y0199754D01*
X0198700Y0199754D01*
X0197171Y0199120D01*
X0197864Y0199407D02*
X0151192Y0199407D01*
X0151886Y0199120D02*
X0150356Y0199754D01*
X0148700Y0199754D01*
X0147171Y0199120D01*
X0146000Y0197949D01*
X0145366Y0196419D01*
X0145366Y0194763D01*
X0146000Y0193234D01*
X0147171Y0192063D01*
X0148700Y0191429D01*
X0150356Y0191429D01*
X0151886Y0192063D01*
X0153057Y0193234D01*
X0153691Y0194763D01*
X0153691Y0196419D01*
X0153057Y0197949D01*
X0151886Y0199120D01*
X0152197Y0198809D02*
X0158771Y0198809D01*
X0158879Y0198854D02*
X0157680Y0198357D01*
X0156763Y0197439D01*
X0156266Y0196240D01*
X0156266Y0194942D01*
X0156763Y0193743D01*
X0157680Y0192826D01*
X0158879Y0192329D01*
X0160177Y0192329D01*
X0161376Y0192826D01*
X0162294Y0193743D01*
X0162791Y0194942D01*
X0162791Y0196240D01*
X0162294Y0197439D01*
X0161376Y0198357D01*
X0160177Y0198854D01*
X0158879Y0198854D01*
X0160285Y0198809D02*
X0168771Y0198809D01*
X0167534Y0198210D02*
X0161523Y0198210D01*
X0162121Y0197612D02*
X0166935Y0197612D01*
X0166586Y0197013D02*
X0162470Y0197013D01*
X0162718Y0196415D02*
X0166338Y0196415D01*
X0166266Y0195816D02*
X0162791Y0195816D01*
X0162791Y0195218D02*
X0166266Y0195218D01*
X0166400Y0194619D02*
X0162657Y0194619D01*
X0162409Y0194021D02*
X0166648Y0194021D01*
X0167084Y0193422D02*
X0161973Y0193422D01*
X0161371Y0192824D02*
X0167686Y0192824D01*
X0171371Y0192824D02*
X0177117Y0192824D01*
X0176573Y0193422D02*
X0171973Y0193422D01*
X0172409Y0194021D02*
X0176215Y0194021D01*
X0175988Y0194619D02*
X0172657Y0194619D01*
X0172791Y0195218D02*
X0175869Y0195218D01*
X0179228Y0195218D02*
X0179828Y0195218D01*
X0179828Y0195816D02*
X0186266Y0195816D01*
X0186266Y0195218D02*
X0183188Y0195218D01*
X0183069Y0194619D02*
X0186400Y0194619D01*
X0186648Y0194021D02*
X0182842Y0194021D01*
X0182483Y0193422D02*
X0187084Y0193422D01*
X0187686Y0192824D02*
X0181940Y0192824D01*
X0180971Y0192225D02*
X0197008Y0192225D01*
X0196410Y0192824D02*
X0191371Y0192824D01*
X0191973Y0193422D02*
X0195922Y0193422D01*
X0195674Y0194021D02*
X0192409Y0194021D01*
X0192657Y0194619D02*
X0195426Y0194619D01*
X0195366Y0195218D02*
X0192791Y0195218D01*
X0192791Y0195816D02*
X0195366Y0195816D01*
X0195366Y0196415D02*
X0192718Y0196415D01*
X0192470Y0197013D02*
X0195612Y0197013D01*
X0195860Y0197612D02*
X0192121Y0197612D01*
X0191523Y0198210D02*
X0196261Y0198210D01*
X0201192Y0199407D02*
X0206074Y0199407D01*
X0205476Y0198809D02*
X0202197Y0198809D01*
X0202796Y0198210D02*
X0205366Y0198210D01*
X0205366Y0197612D02*
X0203197Y0197612D01*
X0203445Y0197013D02*
X0205366Y0197013D01*
X0205366Y0196415D02*
X0203691Y0196415D01*
X0203691Y0195816D02*
X0205366Y0195816D01*
X0205195Y0195218D02*
X0203691Y0195218D01*
X0203631Y0194619D02*
X0204596Y0194619D01*
X0203998Y0194021D02*
X0203383Y0194021D01*
X0203399Y0193422D02*
X0203135Y0193422D01*
X0202801Y0192824D02*
X0202647Y0192824D01*
X0202202Y0192225D02*
X0202048Y0192225D01*
X0201604Y0191627D02*
X0200833Y0191627D01*
X0201005Y0191028D02*
X0133406Y0191028D01*
X0134004Y0190430D02*
X0200407Y0190430D01*
X0198224Y0191627D02*
X0150833Y0191627D01*
X0152048Y0192225D02*
X0178085Y0192225D01*
X0179228Y0192225D02*
X0179828Y0192225D01*
X0179828Y0192824D02*
X0179228Y0192824D01*
X0179228Y0193422D02*
X0179828Y0193422D01*
X0179828Y0194021D02*
X0179228Y0194021D01*
X0179228Y0194619D02*
X0179828Y0194619D01*
X0183099Y0196415D02*
X0186338Y0196415D01*
X0186586Y0197013D02*
X0182903Y0197013D01*
X0182583Y0197612D02*
X0186935Y0197612D01*
X0187534Y0198210D02*
X0182089Y0198210D01*
X0166435Y0210180D02*
X0021204Y0210180D01*
X0021803Y0210779D02*
X0165837Y0210779D01*
X0165238Y0211377D02*
X0022401Y0211377D01*
X0023000Y0211976D02*
X0164640Y0211976D01*
X0164041Y0212574D02*
X0131081Y0212574D01*
X0130504Y0212335D02*
X0128316Y0212335D01*
X0126295Y0213173D01*
X0124910Y0214557D01*
X0124910Y0213390D01*
X0123856Y0212335D01*
X0114965Y0212335D01*
X0113910Y0213390D01*
X0113910Y0222281D01*
X0114965Y0223335D01*
X0123856Y0223335D01*
X0124910Y0222281D01*
X0124910Y0221114D01*
X0126295Y0222498D01*
X0128316Y0223335D01*
X0130504Y0223335D01*
X0132526Y0222498D01*
X0134073Y0220951D01*
X0134910Y0218929D01*
X0134910Y0216741D01*
X0134073Y0214720D01*
X0132526Y0213173D01*
X0163443Y0213173D01*
X0162844Y0213772D02*
X0133124Y0213772D01*
X0133723Y0214370D02*
X0162246Y0214370D01*
X0161647Y0214969D02*
X0134176Y0214969D01*
X0134424Y0215567D02*
X0161049Y0215567D01*
X0160450Y0216166D02*
X0134672Y0216166D01*
X0134910Y0216764D02*
X0159852Y0216764D01*
X0159253Y0217363D02*
X0134910Y0217363D01*
X0134910Y0217961D02*
X0158780Y0217961D01*
X0158780Y0218560D02*
X0134910Y0218560D01*
X0134816Y0219158D02*
X0158780Y0219158D01*
X0158780Y0219757D02*
X0134568Y0219757D01*
X0134320Y0220355D02*
X0158780Y0220355D01*
X0158780Y0220954D02*
X0134070Y0220954D01*
X0133472Y0221552D02*
X0158780Y0221552D01*
X0158780Y0222151D02*
X0132873Y0222151D01*
X0131920Y0222749D02*
X0158780Y0222749D01*
X0158780Y0223348D02*
X0028859Y0223348D01*
X0028859Y0223946D02*
X0158780Y0223946D01*
X0158780Y0224545D02*
X0028859Y0224545D01*
X0028859Y0225143D02*
X0158780Y0225143D01*
X0158780Y0225742D02*
X0028859Y0225742D01*
X0028859Y0226340D02*
X0158780Y0226340D01*
X0158780Y0226939D02*
X0028859Y0226939D01*
X0028859Y0227537D02*
X0158780Y0227537D01*
X0158780Y0228136D02*
X0028859Y0228136D01*
X0028859Y0228734D02*
X0158780Y0228734D01*
X0158780Y0229333D02*
X0028859Y0229333D01*
X0028859Y0229931D02*
X0158780Y0229931D01*
X0158780Y0230530D02*
X0028859Y0230530D01*
X0028859Y0231128D02*
X0158780Y0231128D01*
X0158780Y0231727D02*
X0028859Y0231727D01*
X0028859Y0232325D02*
X0158780Y0232325D01*
X0158780Y0232924D02*
X0028859Y0232924D01*
X0028859Y0233522D02*
X0158780Y0233522D01*
X0158780Y0234121D02*
X0028859Y0234121D01*
X0028859Y0234719D02*
X0158780Y0234719D01*
X0158780Y0235318D02*
X0028859Y0235318D01*
X0028859Y0222749D02*
X0035638Y0222749D01*
X0035170Y0222281D02*
X0035170Y0213390D01*
X0036224Y0212335D01*
X0045116Y0212335D01*
X0046170Y0213390D01*
X0046170Y0214557D01*
X0047555Y0213173D01*
X0049576Y0212335D01*
X0051764Y0212335D01*
X0053786Y0213173D01*
X0114127Y0213173D01*
X0113910Y0213772D02*
X0054384Y0213772D01*
X0054983Y0214370D02*
X0113910Y0214370D01*
X0113910Y0214969D02*
X0055436Y0214969D01*
X0055333Y0214720D02*
X0056170Y0216741D01*
X0056170Y0218929D01*
X0055333Y0220951D01*
X0053786Y0222498D01*
X0051764Y0223335D01*
X0049576Y0223335D01*
X0047555Y0222498D01*
X0046170Y0221114D01*
X0046170Y0222281D01*
X0045116Y0223335D01*
X0036224Y0223335D01*
X0035170Y0222281D01*
X0035170Y0222151D02*
X0028859Y0222151D01*
X0028859Y0221552D02*
X0035170Y0221552D01*
X0035170Y0220954D02*
X0028859Y0220954D01*
X0028859Y0220355D02*
X0035170Y0220355D01*
X0035170Y0219757D02*
X0028859Y0219757D01*
X0028859Y0219158D02*
X0035170Y0219158D01*
X0035170Y0218560D02*
X0028859Y0218560D01*
X0028859Y0217961D02*
X0035170Y0217961D01*
X0035170Y0217363D02*
X0028386Y0217363D01*
X0027788Y0216764D02*
X0035170Y0216764D01*
X0035170Y0216166D02*
X0027189Y0216166D01*
X0026591Y0215567D02*
X0035170Y0215567D01*
X0035170Y0214969D02*
X0025992Y0214969D01*
X0025394Y0214370D02*
X0035170Y0214370D01*
X0035170Y0213772D02*
X0024795Y0213772D01*
X0024197Y0213173D02*
X0035387Y0213173D01*
X0035985Y0212574D02*
X0023598Y0212574D01*
X0045355Y0212574D02*
X0048999Y0212574D01*
X0047554Y0213173D02*
X0045953Y0213173D01*
X0046170Y0213772D02*
X0046956Y0213772D01*
X0046357Y0214370D02*
X0046170Y0214370D01*
X0052341Y0212574D02*
X0114726Y0212574D01*
X0113910Y0215567D02*
X0055684Y0215567D01*
X0055932Y0216166D02*
X0113910Y0216166D01*
X0113910Y0216764D02*
X0056170Y0216764D01*
X0056170Y0217363D02*
X0113910Y0217363D01*
X0113910Y0217961D02*
X0056170Y0217961D01*
X0056170Y0218560D02*
X0113910Y0218560D01*
X0113910Y0219158D02*
X0056075Y0219158D01*
X0055827Y0219757D02*
X0113910Y0219757D01*
X0113910Y0220355D02*
X0055580Y0220355D01*
X0055330Y0220954D02*
X0113910Y0220954D01*
X0113910Y0221552D02*
X0054731Y0221552D01*
X0054133Y0222151D02*
X0113910Y0222151D01*
X0114378Y0222749D02*
X0053179Y0222749D01*
X0048161Y0222749D02*
X0045702Y0222749D01*
X0046170Y0222151D02*
X0047207Y0222151D01*
X0046609Y0221552D02*
X0046170Y0221552D01*
X0053786Y0213173D02*
X0055333Y0214720D01*
X0056547Y0199407D02*
X0063219Y0199407D01*
X0062525Y0199120D02*
X0064055Y0199754D01*
X0065711Y0199754D01*
X0067240Y0199120D01*
X0068411Y0197949D01*
X0069045Y0196419D01*
X0069045Y0194763D01*
X0068411Y0193234D01*
X0067240Y0192063D01*
X0065711Y0191429D01*
X0064055Y0191429D01*
X0062525Y0192063D01*
X0061354Y0193234D01*
X0060720Y0194763D01*
X0060720Y0196419D01*
X0061354Y0197949D01*
X0062525Y0199120D01*
X0062214Y0198809D02*
X0057552Y0198809D01*
X0058150Y0198210D02*
X0061615Y0198210D01*
X0061214Y0197612D02*
X0058551Y0197612D01*
X0058799Y0197013D02*
X0060966Y0197013D01*
X0060720Y0196415D02*
X0059045Y0196415D01*
X0059045Y0195816D02*
X0060720Y0195816D01*
X0060720Y0195218D02*
X0059045Y0195218D01*
X0058985Y0194619D02*
X0060780Y0194619D01*
X0061028Y0194021D02*
X0058737Y0194021D01*
X0058489Y0193422D02*
X0061276Y0193422D01*
X0061764Y0192824D02*
X0058001Y0192824D01*
X0057403Y0192225D02*
X0062363Y0192225D01*
X0063578Y0191627D02*
X0056187Y0191627D01*
X0066187Y0191627D02*
X0073578Y0191627D01*
X0074055Y0191429D02*
X0072525Y0192063D01*
X0071354Y0193234D01*
X0070720Y0194763D01*
X0070720Y0196419D01*
X0071354Y0197949D01*
X0072525Y0199120D01*
X0074055Y0199754D01*
X0075711Y0199754D01*
X0077240Y0199120D01*
X0078411Y0197949D01*
X0079045Y0196419D01*
X0079045Y0194763D01*
X0078411Y0193234D01*
X0077240Y0192063D01*
X0075711Y0191429D01*
X0074055Y0191429D01*
X0072363Y0192225D02*
X0067403Y0192225D01*
X0068001Y0192824D02*
X0071764Y0192824D01*
X0071276Y0193422D02*
X0068489Y0193422D01*
X0068737Y0194021D02*
X0071028Y0194021D01*
X0070780Y0194619D02*
X0068985Y0194619D01*
X0069045Y0195218D02*
X0070720Y0195218D01*
X0070720Y0195816D02*
X0069045Y0195816D01*
X0069045Y0196415D02*
X0070720Y0196415D01*
X0070966Y0197013D02*
X0068799Y0197013D01*
X0068551Y0197612D02*
X0071214Y0197612D01*
X0071615Y0198210D02*
X0068150Y0198210D01*
X0067552Y0198809D02*
X0072214Y0198809D01*
X0073219Y0199407D02*
X0066547Y0199407D01*
X0076547Y0199407D02*
X0083219Y0199407D01*
X0082525Y0199120D02*
X0084055Y0199754D01*
X0085711Y0199754D01*
X0087240Y0199120D01*
X0088411Y0197949D01*
X0089045Y0196419D01*
X0089045Y0194763D01*
X0088411Y0193234D01*
X0087240Y0192063D01*
X0085711Y0191429D01*
X0084055Y0191429D01*
X0082525Y0192063D01*
X0081354Y0193234D01*
X0080720Y0194763D01*
X0080720Y0196419D01*
X0081354Y0197949D01*
X0082525Y0199120D01*
X0082214Y0198809D02*
X0077552Y0198809D01*
X0078150Y0198210D02*
X0081615Y0198210D01*
X0081214Y0197612D02*
X0078551Y0197612D01*
X0078799Y0197013D02*
X0080966Y0197013D01*
X0080720Y0196415D02*
X0079045Y0196415D01*
X0079045Y0195816D02*
X0080720Y0195816D01*
X0080720Y0195218D02*
X0079045Y0195218D01*
X0078985Y0194619D02*
X0080780Y0194619D01*
X0081028Y0194021D02*
X0078737Y0194021D01*
X0078489Y0193422D02*
X0081276Y0193422D01*
X0081764Y0192824D02*
X0078001Y0192824D01*
X0077403Y0192225D02*
X0082363Y0192225D01*
X0083578Y0191627D02*
X0076187Y0191627D01*
X0086187Y0191627D02*
X0106958Y0191627D01*
X0107557Y0192225D02*
X0096326Y0192225D01*
X0096617Y0192346D02*
X0095951Y0192070D01*
X0095243Y0191929D01*
X0095183Y0191929D01*
X0095183Y0195291D01*
X0095183Y0195891D01*
X0098545Y0195891D01*
X0098545Y0195952D01*
X0098404Y0196660D01*
X0098128Y0197326D01*
X0097727Y0197926D01*
X0097217Y0198436D01*
X0096617Y0198837D01*
X0095951Y0199113D01*
X0095243Y0199254D01*
X0095183Y0199254D01*
X0095183Y0195891D01*
X0094583Y0195891D01*
X0094583Y0195291D01*
X0095183Y0195291D01*
X0098545Y0195291D01*
X0098545Y0195231D01*
X0098404Y0194523D01*
X0098128Y0193857D01*
X0097727Y0193257D01*
X0097217Y0192747D01*
X0096617Y0192346D01*
X0097294Y0192824D02*
X0103040Y0192824D01*
X0103035Y0192826D02*
X0104234Y0192329D01*
X0105532Y0192329D01*
X0106731Y0192826D01*
X0107648Y0193743D01*
X0108145Y0194942D01*
X0108145Y0196240D01*
X0107648Y0197439D01*
X0106731Y0198357D01*
X0105532Y0198854D01*
X0104234Y0198854D01*
X0103035Y0198357D01*
X0102117Y0197439D01*
X0101620Y0196240D01*
X0101620Y0194942D01*
X0102117Y0193743D01*
X0103035Y0192826D01*
X0102438Y0193422D02*
X0097838Y0193422D01*
X0098196Y0194021D02*
X0102002Y0194021D01*
X0101754Y0194619D02*
X0098423Y0194619D01*
X0098542Y0195218D02*
X0101620Y0195218D01*
X0101620Y0195816D02*
X0095183Y0195816D01*
X0095183Y0195218D02*
X0094583Y0195218D01*
X0094583Y0195291D02*
X0094583Y0191929D01*
X0094522Y0191929D01*
X0093814Y0192070D01*
X0093148Y0192346D01*
X0092548Y0192747D01*
X0092038Y0193257D01*
X0091637Y0193857D01*
X0091361Y0194523D01*
X0091220Y0195231D01*
X0091220Y0195291D01*
X0094583Y0195291D01*
X0094583Y0195816D02*
X0089045Y0195816D01*
X0089045Y0195218D02*
X0091223Y0195218D01*
X0091342Y0194619D02*
X0088985Y0194619D01*
X0088737Y0194021D02*
X0091569Y0194021D01*
X0091928Y0193422D02*
X0088489Y0193422D01*
X0088001Y0192824D02*
X0092471Y0192824D01*
X0093440Y0192225D02*
X0087403Y0192225D01*
X0089045Y0196415D02*
X0091313Y0196415D01*
X0091361Y0196660D02*
X0091220Y0195952D01*
X0091220Y0195891D01*
X0094583Y0195891D01*
X0094583Y0199254D01*
X0094522Y0199254D01*
X0093814Y0199113D01*
X0093148Y0198837D01*
X0092548Y0198436D01*
X0092038Y0197926D01*
X0091637Y0197326D01*
X0091361Y0196660D01*
X0091508Y0197013D02*
X0088799Y0197013D01*
X0088551Y0197612D02*
X0091828Y0197612D01*
X0092322Y0198210D02*
X0088150Y0198210D01*
X0087552Y0198809D02*
X0093106Y0198809D01*
X0094583Y0198809D02*
X0095183Y0198809D01*
X0095183Y0198210D02*
X0094583Y0198210D01*
X0094583Y0197612D02*
X0095183Y0197612D01*
X0095183Y0197013D02*
X0094583Y0197013D01*
X0094583Y0196415D02*
X0095183Y0196415D01*
X0095183Y0194619D02*
X0094583Y0194619D01*
X0094583Y0194021D02*
X0095183Y0194021D01*
X0095183Y0193422D02*
X0094583Y0193422D01*
X0094583Y0192824D02*
X0095183Y0192824D01*
X0095183Y0192225D02*
X0094583Y0192225D01*
X0098453Y0196415D02*
X0101693Y0196415D01*
X0101941Y0197013D02*
X0098258Y0197013D01*
X0097937Y0197612D02*
X0102290Y0197612D01*
X0102888Y0198210D02*
X0097443Y0198210D01*
X0096659Y0198809D02*
X0104126Y0198809D01*
X0105640Y0198809D02*
X0112214Y0198809D01*
X0111615Y0198210D02*
X0106877Y0198210D01*
X0107476Y0197612D02*
X0111214Y0197612D01*
X0110966Y0197013D02*
X0107825Y0197013D01*
X0108073Y0196415D02*
X0110720Y0196415D01*
X0110720Y0195816D02*
X0108145Y0195816D01*
X0108145Y0195218D02*
X0110549Y0195218D01*
X0109951Y0194619D02*
X0108011Y0194619D01*
X0107763Y0194021D02*
X0109352Y0194021D01*
X0108754Y0193422D02*
X0107327Y0193422D01*
X0106725Y0192824D02*
X0108155Y0192824D01*
X0111885Y0188634D02*
X0113966Y0188634D01*
X0114564Y0189233D02*
X0112484Y0189233D01*
X0113082Y0189831D02*
X0115163Y0189831D01*
X0115761Y0190430D02*
X0113681Y0190430D01*
X0114279Y0191028D02*
X0116360Y0191028D01*
X0116187Y0191627D02*
X0116958Y0191627D01*
X0117403Y0192225D02*
X0117557Y0192225D01*
X0118001Y0192824D02*
X0118155Y0192824D01*
X0118489Y0193422D02*
X0118754Y0193422D01*
X0118737Y0194021D02*
X0119352Y0194021D01*
X0118985Y0194619D02*
X0119951Y0194619D01*
X0120549Y0195218D02*
X0119045Y0195218D01*
X0119045Y0195816D02*
X0120720Y0195816D01*
X0120720Y0196415D02*
X0119045Y0196415D01*
X0118799Y0197013D02*
X0120720Y0197013D01*
X0120720Y0197612D02*
X0118551Y0197612D01*
X0118150Y0198210D02*
X0120720Y0198210D01*
X0120830Y0198809D02*
X0117552Y0198809D01*
X0116547Y0199407D02*
X0121429Y0199407D01*
X0128337Y0199407D02*
X0137864Y0199407D01*
X0137171Y0199120D02*
X0136000Y0197949D01*
X0135366Y0196419D01*
X0135366Y0194763D01*
X0136000Y0193234D01*
X0137171Y0192063D01*
X0138700Y0191429D01*
X0140356Y0191429D01*
X0141886Y0192063D01*
X0143057Y0193234D01*
X0143691Y0194763D01*
X0143691Y0196419D01*
X0143057Y0197949D01*
X0141886Y0199120D01*
X0140356Y0199754D01*
X0138700Y0199754D01*
X0137171Y0199120D01*
X0136860Y0198809D02*
X0128935Y0198809D01*
X0129045Y0198210D02*
X0136261Y0198210D01*
X0135860Y0197612D02*
X0129045Y0197612D01*
X0129045Y0197013D02*
X0135612Y0197013D01*
X0135366Y0196415D02*
X0129045Y0196415D01*
X0129045Y0195816D02*
X0135366Y0195816D01*
X0135366Y0195218D02*
X0129216Y0195218D01*
X0129815Y0194619D02*
X0135426Y0194619D01*
X0135674Y0194021D02*
X0130413Y0194021D01*
X0131012Y0193422D02*
X0135922Y0193422D01*
X0136410Y0192824D02*
X0131610Y0192824D01*
X0132209Y0192225D02*
X0137008Y0192225D01*
X0138224Y0191627D02*
X0132807Y0191627D01*
X0129077Y0187437D02*
X0120688Y0187437D01*
X0120090Y0186839D02*
X0129676Y0186839D01*
X0130274Y0186240D02*
X0119491Y0186240D01*
X0118893Y0185641D02*
X0130873Y0185641D01*
X0131471Y0185043D02*
X0118294Y0185043D01*
X0117696Y0184444D02*
X0132506Y0184444D01*
X0128479Y0188036D02*
X0121287Y0188036D01*
X0121885Y0188634D02*
X0127880Y0188634D01*
X0127282Y0189233D02*
X0122484Y0189233D01*
X0123082Y0189831D02*
X0126683Y0189831D01*
X0126085Y0190430D02*
X0123681Y0190430D01*
X0124279Y0191028D02*
X0125486Y0191028D01*
X0117097Y0183846D02*
X0219972Y0183846D01*
X0219972Y0184444D02*
X0201905Y0184444D01*
X0202940Y0185043D02*
X0219972Y0185043D01*
X0219972Y0185641D02*
X0203538Y0185641D01*
X0204137Y0186240D02*
X0219972Y0186240D01*
X0219972Y0186839D02*
X0204735Y0186839D01*
X0205334Y0187437D02*
X0219972Y0187437D01*
X0219972Y0188036D02*
X0205932Y0188036D01*
X0206531Y0188634D02*
X0219972Y0188634D01*
X0219972Y0189233D02*
X0207129Y0189233D01*
X0207728Y0189831D02*
X0219972Y0189831D01*
X0219972Y0190430D02*
X0208326Y0190430D01*
X0208925Y0191028D02*
X0219972Y0191028D01*
X0219972Y0191627D02*
X0212834Y0191627D01*
X0213432Y0192225D02*
X0219972Y0192225D01*
X0219972Y0192824D02*
X0213691Y0192824D01*
X0213691Y0193422D02*
X0219972Y0193422D01*
X0219972Y0194021D02*
X0213691Y0194021D01*
X0213691Y0194619D02*
X0219972Y0194619D01*
X0219972Y0195218D02*
X0213691Y0195218D01*
X0213691Y0195816D02*
X0219972Y0195816D01*
X0219972Y0196415D02*
X0213691Y0196415D01*
X0213691Y0197013D02*
X0219972Y0197013D01*
X0219972Y0197612D02*
X0213691Y0197612D01*
X0213691Y0198210D02*
X0219972Y0198210D01*
X0219972Y0198809D02*
X0213581Y0198809D01*
X0212982Y0199407D02*
X0219972Y0199407D01*
X0211266Y0213173D02*
X0209244Y0212335D01*
X0206479Y0212574D02*
X0202835Y0212574D01*
X0203434Y0213173D02*
X0205035Y0213173D01*
X0204436Y0213772D02*
X0203650Y0213772D01*
X0203650Y0214370D02*
X0203838Y0214370D01*
X0203650Y0221552D02*
X0204089Y0221552D01*
X0203650Y0222151D02*
X0204687Y0222151D01*
X0205641Y0222749D02*
X0203182Y0222749D01*
X0219972Y0183247D02*
X0116499Y0183247D01*
X0115900Y0182649D02*
X0219972Y0182649D01*
X0219972Y0182050D02*
X0115302Y0182050D01*
X0114703Y0181452D02*
X0219972Y0181452D01*
X0219972Y0180853D02*
X0114105Y0180853D01*
X0113506Y0180255D02*
X0219972Y0180255D01*
X0219972Y0179656D02*
X0112907Y0179656D01*
X0112309Y0179058D02*
X0219972Y0179058D01*
X0219972Y0178459D02*
X0111710Y0178459D01*
X0111112Y0177861D02*
X0219972Y0177861D01*
X0219972Y0177262D02*
X0110513Y0177262D01*
X0109915Y0176664D02*
X0219972Y0176664D01*
X0219972Y0176065D02*
X0109316Y0176065D01*
X0108718Y0175467D02*
X0219972Y0175467D01*
X0219972Y0174868D02*
X0108119Y0174868D01*
X0107521Y0174270D02*
X0219972Y0174270D01*
X0219972Y0173671D02*
X0106922Y0173671D01*
X0106324Y0173073D02*
X0219972Y0173073D01*
X0219972Y0172474D02*
X0105725Y0172474D01*
X0105127Y0171876D02*
X0219972Y0171876D01*
X0219972Y0171277D02*
X0104528Y0171277D01*
X0103930Y0170679D02*
X0219972Y0170679D01*
X0219972Y0170080D02*
X0103331Y0170080D01*
X0102733Y0169482D02*
X0219972Y0169482D01*
X0219972Y0168883D02*
X0102134Y0168883D01*
X0101536Y0168285D02*
X0219972Y0168285D01*
X0219972Y0167686D02*
X0100937Y0167686D01*
X0100339Y0167088D02*
X0219972Y0167088D01*
X0219972Y0166489D02*
X0099740Y0166489D01*
X0099142Y0165891D02*
X0219972Y0165891D01*
X0219972Y0165292D02*
X0098543Y0165292D01*
X0097945Y0164694D02*
X0219972Y0164694D01*
X0219972Y0164095D02*
X0097346Y0164095D01*
X0096748Y0163497D02*
X0219972Y0163497D01*
X0219972Y0162898D02*
X0096149Y0162898D01*
X0095551Y0162300D02*
X0219972Y0162300D01*
X0219972Y0161701D02*
X0094952Y0161701D01*
X0094354Y0161103D02*
X0219972Y0161103D01*
X0219972Y0160504D02*
X0093755Y0160504D01*
X0093157Y0159905D02*
X0219972Y0159905D01*
X0219972Y0159307D02*
X0092558Y0159307D01*
X0091960Y0158708D02*
X0219972Y0158708D01*
X0219972Y0158110D02*
X0091361Y0158110D01*
X0093462Y0148534D02*
X0086304Y0148534D01*
X0086731Y0148357D02*
X0085532Y0148854D01*
X0084234Y0148854D01*
X0083035Y0148357D01*
X0082117Y0147439D01*
X0081620Y0146240D01*
X0081620Y0144942D01*
X0082117Y0143743D01*
X0083035Y0142826D01*
X0084234Y0142329D01*
X0085532Y0142329D01*
X0086731Y0142826D01*
X0087648Y0143743D01*
X0088145Y0144942D01*
X0088145Y0146240D01*
X0087648Y0147439D01*
X0086731Y0148357D01*
X0087152Y0147935D02*
X0092613Y0147935D01*
X0092075Y0147337D02*
X0087691Y0147337D01*
X0087939Y0146738D02*
X0091827Y0146738D01*
X0091620Y0146140D02*
X0088145Y0146140D01*
X0088145Y0145541D02*
X0091620Y0145541D01*
X0091620Y0144943D02*
X0088145Y0144943D01*
X0087897Y0144344D02*
X0091868Y0144344D01*
X0092116Y0143746D02*
X0087649Y0143746D01*
X0087052Y0143147D02*
X0092713Y0143147D01*
X0093451Y0142549D02*
X0086062Y0142549D01*
X0083704Y0142549D02*
X0076062Y0142549D01*
X0077052Y0143147D02*
X0082713Y0143147D01*
X0082116Y0143746D02*
X0077649Y0143746D01*
X0077897Y0144344D02*
X0081868Y0144344D01*
X0081620Y0144943D02*
X0078145Y0144943D01*
X0078145Y0145541D02*
X0081620Y0145541D01*
X0081620Y0146140D02*
X0078145Y0146140D01*
X0078009Y0146738D02*
X0081827Y0146738D01*
X0082075Y0147337D02*
X0078608Y0147337D01*
X0079206Y0147935D02*
X0082613Y0147935D01*
X0083462Y0148534D02*
X0079805Y0148534D01*
X0080404Y0149132D02*
X0121962Y0149132D01*
X0122019Y0149165D02*
X0121722Y0148994D01*
X0121480Y0148752D01*
X0121309Y0148455D01*
X0121220Y0148125D01*
X0121220Y0145891D01*
X0124583Y0145891D01*
X0124583Y0145291D01*
X0125183Y0145291D01*
X0125183Y0145891D01*
X0128545Y0145891D01*
X0128545Y0148125D01*
X0128456Y0148455D01*
X0128285Y0148752D01*
X0128043Y0148994D01*
X0127747Y0149165D01*
X0127416Y0149254D01*
X0125183Y0149254D01*
X0125183Y0145891D01*
X0124583Y0145891D01*
X0124583Y0149254D01*
X0122349Y0149254D01*
X0122019Y0149165D01*
X0121354Y0148534D02*
X0116304Y0148534D01*
X0116731Y0148357D02*
X0115532Y0148854D01*
X0114234Y0148854D01*
X0113035Y0148357D01*
X0112117Y0147439D01*
X0111620Y0146240D01*
X0111620Y0144942D01*
X0112117Y0143743D01*
X0113035Y0142826D01*
X0114073Y0142396D01*
X0114073Y0058967D01*
X0112236Y0057129D01*
X0104740Y0057129D01*
X0104740Y0057402D01*
X0104213Y0057929D01*
X0095467Y0057929D01*
X0094940Y0057402D01*
X0094940Y0054056D01*
X0095467Y0053529D01*
X0104213Y0053529D01*
X0104740Y0054056D01*
X0104740Y0054329D01*
X0113396Y0054329D01*
X0116053Y0056987D01*
X0116873Y0057807D01*
X0116873Y0142968D01*
X0117648Y0143743D01*
X0118145Y0144942D01*
X0118145Y0146240D01*
X0117648Y0147439D01*
X0116731Y0148357D01*
X0117152Y0147935D02*
X0121220Y0147935D01*
X0121220Y0147337D02*
X0117691Y0147337D01*
X0117939Y0146738D02*
X0121220Y0146738D01*
X0121220Y0146140D02*
X0118145Y0146140D01*
X0118145Y0145541D02*
X0124583Y0145541D01*
X0124583Y0145291D02*
X0121220Y0145291D01*
X0121220Y0143058D01*
X0121309Y0142727D01*
X0121480Y0142431D01*
X0121722Y0142189D01*
X0122019Y0142018D01*
X0122349Y0141929D01*
X0124583Y0141929D01*
X0124583Y0145291D01*
X0124583Y0144943D02*
X0125183Y0144943D01*
X0125183Y0145291D02*
X0125183Y0141929D01*
X0127416Y0141929D01*
X0127747Y0142018D01*
X0128043Y0142189D01*
X0128285Y0142431D01*
X0128456Y0142727D01*
X0128545Y0143058D01*
X0128545Y0145291D01*
X0125183Y0145291D01*
X0125183Y0145541D02*
X0136266Y0145541D01*
X0136266Y0144943D02*
X0128545Y0144943D01*
X0128545Y0144344D02*
X0136514Y0144344D01*
X0136762Y0143746D02*
X0128545Y0143746D01*
X0128545Y0143147D02*
X0137359Y0143147D01*
X0137680Y0142826D02*
X0138879Y0142329D01*
X0140177Y0142329D01*
X0141376Y0142826D01*
X0142294Y0143743D01*
X0142791Y0144942D01*
X0142791Y0146240D01*
X0142294Y0147439D01*
X0141376Y0148357D01*
X0140177Y0148854D01*
X0138879Y0148854D01*
X0137680Y0148357D01*
X0136763Y0147439D01*
X0136266Y0146240D01*
X0136266Y0144942D01*
X0136763Y0143743D01*
X0137680Y0142826D01*
X0138349Y0142549D02*
X0128353Y0142549D01*
X0127494Y0141950D02*
X0158128Y0141950D01*
X0158128Y0141352D02*
X0116873Y0141352D01*
X0116873Y0141950D02*
X0122271Y0141950D01*
X0121412Y0142549D02*
X0116873Y0142549D01*
X0117052Y0143147D02*
X0121220Y0143147D01*
X0121220Y0143746D02*
X0117649Y0143746D01*
X0117897Y0144344D02*
X0121220Y0144344D01*
X0121220Y0144943D02*
X0118145Y0144943D01*
X0116873Y0140753D02*
X0158128Y0140753D01*
X0158128Y0140155D02*
X0116873Y0140155D01*
X0116873Y0139556D02*
X0158128Y0139556D01*
X0158128Y0138958D02*
X0116873Y0138958D01*
X0116873Y0138359D02*
X0158033Y0138359D01*
X0157434Y0137761D02*
X0116873Y0137761D01*
X0116873Y0137162D02*
X0156836Y0137162D01*
X0156237Y0136564D02*
X0116873Y0136564D01*
X0116873Y0135965D02*
X0120206Y0135965D01*
X0119607Y0135367D02*
X0116873Y0135367D01*
X0116873Y0134768D02*
X0119009Y0134768D01*
X0118410Y0134170D02*
X0116873Y0134170D01*
X0116873Y0133571D02*
X0117812Y0133571D01*
X0117213Y0132972D02*
X0116873Y0132972D01*
X0116873Y0132374D02*
X0117026Y0132374D01*
X0117026Y0131775D02*
X0116873Y0131775D01*
X0116873Y0131177D02*
X0117026Y0131177D01*
X0117026Y0130578D02*
X0116873Y0130578D01*
X0116873Y0129980D02*
X0117026Y0129980D01*
X0117026Y0129381D02*
X0116873Y0129381D01*
X0116873Y0128783D02*
X0117026Y0128783D01*
X0117026Y0128184D02*
X0116873Y0128184D01*
X0116873Y0127586D02*
X0117026Y0127586D01*
X0117026Y0126987D02*
X0116873Y0126987D01*
X0116873Y0126389D02*
X0117026Y0126389D01*
X0117026Y0125790D02*
X0116873Y0125790D01*
X0116873Y0125192D02*
X0117026Y0125192D01*
X0117026Y0124593D02*
X0116873Y0124593D01*
X0116873Y0123995D02*
X0117026Y0123995D01*
X0117026Y0123396D02*
X0116873Y0123396D01*
X0116873Y0122798D02*
X0117026Y0122798D01*
X0117026Y0122199D02*
X0116873Y0122199D01*
X0116873Y0121601D02*
X0117026Y0121601D01*
X0117026Y0121002D02*
X0116873Y0121002D01*
X0116873Y0120404D02*
X0117026Y0120404D01*
X0117026Y0119805D02*
X0116873Y0119805D01*
X0116873Y0119207D02*
X0117026Y0119207D01*
X0117026Y0118608D02*
X0116873Y0118608D01*
X0116873Y0118010D02*
X0117026Y0118010D01*
X0117026Y0117411D02*
X0116873Y0117411D01*
X0116873Y0116813D02*
X0117026Y0116813D01*
X0117026Y0116214D02*
X0116873Y0116214D01*
X0116873Y0115616D02*
X0117026Y0115616D01*
X0117026Y0115017D02*
X0116873Y0115017D01*
X0116873Y0114419D02*
X0117026Y0114419D01*
X0117026Y0113820D02*
X0116873Y0113820D01*
X0116873Y0113222D02*
X0117026Y0113222D01*
X0117026Y0112623D02*
X0116873Y0112623D01*
X0116873Y0112025D02*
X0117026Y0112025D01*
X0117026Y0111426D02*
X0116873Y0111426D01*
X0116873Y0110828D02*
X0117026Y0110828D01*
X0117026Y0110229D02*
X0116873Y0110229D01*
X0116873Y0109631D02*
X0117026Y0109631D01*
X0117026Y0109032D02*
X0116873Y0109032D01*
X0116873Y0108434D02*
X0117026Y0108434D01*
X0117026Y0107835D02*
X0116873Y0107835D01*
X0116873Y0107237D02*
X0117026Y0107237D01*
X0117026Y0106638D02*
X0116873Y0106638D01*
X0116873Y0106039D02*
X0117026Y0106039D01*
X0117026Y0105441D02*
X0116873Y0105441D01*
X0116873Y0104842D02*
X0117026Y0104842D01*
X0117026Y0104244D02*
X0116873Y0104244D01*
X0116873Y0103645D02*
X0117026Y0103645D01*
X0117026Y0103047D02*
X0116873Y0103047D01*
X0116873Y0102448D02*
X0117026Y0102448D01*
X0117026Y0101850D02*
X0116873Y0101850D01*
X0116873Y0101251D02*
X0117026Y0101251D01*
X0117026Y0100653D02*
X0116873Y0100653D01*
X0116873Y0100054D02*
X0117026Y0100054D01*
X0117026Y0099456D02*
X0116873Y0099456D01*
X0116873Y0098857D02*
X0117026Y0098857D01*
X0117026Y0098259D02*
X0116873Y0098259D01*
X0116873Y0097660D02*
X0117026Y0097660D01*
X0117026Y0097062D02*
X0116873Y0097062D01*
X0116873Y0096463D02*
X0117026Y0096463D01*
X0117026Y0095865D02*
X0116873Y0095865D01*
X0116873Y0095266D02*
X0117026Y0095266D01*
X0117026Y0094668D02*
X0116873Y0094668D01*
X0116873Y0094069D02*
X0117026Y0094069D01*
X0117026Y0093471D02*
X0116873Y0093471D01*
X0116873Y0092872D02*
X0117026Y0092872D01*
X0117026Y0092274D02*
X0116873Y0092274D01*
X0116873Y0091675D02*
X0117026Y0091675D01*
X0117026Y0091077D02*
X0116873Y0091077D01*
X0116873Y0090478D02*
X0117026Y0090478D01*
X0117026Y0089880D02*
X0116873Y0089880D01*
X0116873Y0089281D02*
X0117026Y0089281D01*
X0117026Y0088683D02*
X0116873Y0088683D01*
X0116873Y0088084D02*
X0117026Y0088084D01*
X0117026Y0087486D02*
X0116873Y0087486D01*
X0116873Y0086887D02*
X0117026Y0086887D01*
X0117026Y0086289D02*
X0116873Y0086289D01*
X0116873Y0085690D02*
X0117026Y0085690D01*
X0117026Y0085092D02*
X0116873Y0085092D01*
X0116873Y0084493D02*
X0117026Y0084493D01*
X0117026Y0083895D02*
X0116873Y0083895D01*
X0116873Y0083296D02*
X0117026Y0083296D01*
X0117026Y0082698D02*
X0116873Y0082698D01*
X0116873Y0082099D02*
X0117026Y0082099D01*
X0117026Y0081501D02*
X0116873Y0081501D01*
X0116873Y0080902D02*
X0117026Y0080902D01*
X0117026Y0080303D02*
X0116873Y0080303D01*
X0116873Y0079705D02*
X0117026Y0079705D01*
X0117026Y0079106D02*
X0116873Y0079106D01*
X0116873Y0078508D02*
X0117026Y0078508D01*
X0117026Y0077909D02*
X0116873Y0077909D01*
X0116873Y0077311D02*
X0117026Y0077311D01*
X0117026Y0076712D02*
X0116873Y0076712D01*
X0116873Y0076114D02*
X0117026Y0076114D01*
X0117026Y0075515D02*
X0116873Y0075515D01*
X0116873Y0074917D02*
X0117026Y0074917D01*
X0117026Y0074318D02*
X0116873Y0074318D01*
X0116873Y0073720D02*
X0117026Y0073720D01*
X0117026Y0073121D02*
X0116873Y0073121D01*
X0116873Y0072523D02*
X0117026Y0072523D01*
X0117026Y0071924D02*
X0116873Y0071924D01*
X0116873Y0071326D02*
X0117026Y0071326D01*
X0117026Y0070727D02*
X0116873Y0070727D01*
X0116873Y0070129D02*
X0117026Y0070129D01*
X0117026Y0069530D02*
X0116873Y0069530D01*
X0116873Y0068932D02*
X0117026Y0068932D01*
X0117026Y0068333D02*
X0116873Y0068333D01*
X0116873Y0067735D02*
X0117026Y0067735D01*
X0117026Y0067136D02*
X0116873Y0067136D01*
X0116873Y0066538D02*
X0117026Y0066538D01*
X0117026Y0065939D02*
X0116873Y0065939D01*
X0116873Y0065341D02*
X0117026Y0065341D01*
X0117026Y0064742D02*
X0116873Y0064742D01*
X0116873Y0064144D02*
X0117026Y0064144D01*
X0117026Y0063545D02*
X0116873Y0063545D01*
X0116873Y0062947D02*
X0117026Y0062947D01*
X0117026Y0062348D02*
X0116873Y0062348D01*
X0116873Y0061750D02*
X0117026Y0061750D01*
X0117026Y0061151D02*
X0116873Y0061151D01*
X0116873Y0060553D02*
X0117026Y0060553D01*
X0117026Y0059954D02*
X0116873Y0059954D01*
X0116873Y0059356D02*
X0117026Y0059356D01*
X0117026Y0058757D02*
X0116873Y0058757D01*
X0116873Y0058159D02*
X0117026Y0058159D01*
X0117026Y0057560D02*
X0116627Y0057560D01*
X0117026Y0056962D02*
X0116028Y0056962D01*
X0115430Y0056363D02*
X0117026Y0056363D01*
X0117026Y0055765D02*
X0114831Y0055765D01*
X0114233Y0055166D02*
X0117026Y0055166D01*
X0117026Y0054568D02*
X0113634Y0054568D01*
X0115753Y0052772D02*
X0104370Y0052772D01*
X0104740Y0052173D02*
X0115154Y0052173D01*
X0116351Y0053370D02*
X0031446Y0053370D01*
X0032044Y0052772D02*
X0055710Y0052772D01*
X0055867Y0052929D02*
X0055340Y0052402D01*
X0055340Y0052129D01*
X0032687Y0052129D01*
X0026484Y0058332D01*
X0026531Y0058446D01*
X0026531Y0059509D01*
X0026124Y0060491D01*
X0025372Y0061242D01*
X0024390Y0061649D01*
X0023328Y0061649D01*
X0022346Y0061242D01*
X0021594Y0060491D01*
X0021187Y0059509D01*
X0021187Y0058446D01*
X0021594Y0057464D01*
X0022346Y0056712D01*
X0023328Y0056306D01*
X0024390Y0056306D01*
X0024504Y0056352D01*
X0030707Y0050149D01*
X0031527Y0049329D01*
X0055340Y0049329D01*
X0055340Y0049056D01*
X0055867Y0048529D01*
X0064613Y0048529D01*
X0065140Y0049056D01*
X0065140Y0052402D01*
X0064613Y0052929D01*
X0055867Y0052929D01*
X0055867Y0053529D02*
X0064613Y0053529D01*
X0065140Y0054056D01*
X0065140Y0057402D01*
X0064613Y0057929D01*
X0055867Y0057929D01*
X0055340Y0057402D01*
X0055340Y0057129D01*
X0046860Y0057129D01*
X0039117Y0064872D01*
X0038297Y0065692D01*
X0029124Y0065692D01*
X0026484Y0068332D01*
X0026531Y0068446D01*
X0026531Y0069509D01*
X0026124Y0070491D01*
X0025372Y0071242D01*
X0024390Y0071649D01*
X0023328Y0071649D01*
X0022346Y0071242D01*
X0021594Y0070491D01*
X0021187Y0069509D01*
X0021187Y0068446D01*
X0021594Y0067464D01*
X0022346Y0066712D01*
X0023328Y0066306D01*
X0024390Y0066306D01*
X0024504Y0066352D01*
X0027144Y0063712D01*
X0027964Y0062892D01*
X0037137Y0062892D01*
X0044880Y0055149D01*
X0045700Y0054329D01*
X0055340Y0054329D01*
X0055340Y0054056D01*
X0055867Y0053529D01*
X0055427Y0053969D02*
X0030847Y0053969D01*
X0030249Y0054568D02*
X0045462Y0054568D01*
X0044864Y0055166D02*
X0029650Y0055166D01*
X0029052Y0055765D02*
X0044265Y0055765D01*
X0043666Y0056363D02*
X0034529Y0056363D01*
X0034390Y0056306D02*
X0035372Y0056712D01*
X0036124Y0057464D01*
X0036531Y0058446D01*
X0036531Y0059509D01*
X0036124Y0060491D01*
X0035372Y0061242D01*
X0034390Y0061649D01*
X0033328Y0061649D01*
X0032346Y0061242D01*
X0031594Y0060491D01*
X0031187Y0059509D01*
X0031187Y0058446D01*
X0031594Y0057464D01*
X0032346Y0056712D01*
X0033328Y0056306D01*
X0034390Y0056306D01*
X0033189Y0056363D02*
X0028453Y0056363D01*
X0027855Y0056962D02*
X0032096Y0056962D01*
X0031554Y0057560D02*
X0027256Y0057560D01*
X0026658Y0058159D02*
X0031306Y0058159D01*
X0031187Y0058757D02*
X0026531Y0058757D01*
X0026531Y0059356D02*
X0031187Y0059356D01*
X0031372Y0059954D02*
X0026346Y0059954D01*
X0026062Y0060553D02*
X0031656Y0060553D01*
X0032255Y0061151D02*
X0025463Y0061151D01*
X0027311Y0063545D02*
X0003100Y0063545D01*
X0003100Y0062947D02*
X0027910Y0062947D01*
X0026713Y0064144D02*
X0003100Y0064144D01*
X0003100Y0064742D02*
X0026114Y0064742D01*
X0025516Y0065341D02*
X0003100Y0065341D01*
X0003100Y0065939D02*
X0024917Y0065939D01*
X0022767Y0066538D02*
X0003100Y0066538D01*
X0003100Y0067136D02*
X0021922Y0067136D01*
X0021482Y0067735D02*
X0003100Y0067735D01*
X0003100Y0068333D02*
X0021234Y0068333D01*
X0021187Y0068932D02*
X0003100Y0068932D01*
X0003100Y0069530D02*
X0021196Y0069530D01*
X0021444Y0070129D02*
X0003100Y0070129D01*
X0003100Y0070727D02*
X0021831Y0070727D01*
X0022548Y0071326D02*
X0003100Y0071326D01*
X0003100Y0071924D02*
X0037948Y0071924D01*
X0038546Y0071326D02*
X0035170Y0071326D01*
X0035372Y0071242D02*
X0034390Y0071649D01*
X0033328Y0071649D01*
X0032346Y0071242D01*
X0031594Y0070491D01*
X0031187Y0069509D01*
X0031187Y0068446D01*
X0031594Y0067464D01*
X0032346Y0066712D01*
X0033328Y0066306D01*
X0034390Y0066306D01*
X0035372Y0066712D01*
X0036124Y0067464D01*
X0036531Y0068446D01*
X0036531Y0069509D01*
X0036124Y0070491D01*
X0035372Y0071242D01*
X0035887Y0070727D02*
X0039145Y0070727D01*
X0039743Y0070129D02*
X0036274Y0070129D01*
X0036522Y0069530D02*
X0040342Y0069530D01*
X0040940Y0068932D02*
X0036531Y0068932D01*
X0036484Y0068333D02*
X0041539Y0068333D01*
X0042137Y0067735D02*
X0036236Y0067735D01*
X0035796Y0067136D02*
X0042736Y0067136D01*
X0043334Y0066538D02*
X0034951Y0066538D01*
X0032767Y0066538D02*
X0028278Y0066538D01*
X0027680Y0067136D02*
X0031922Y0067136D01*
X0031482Y0067735D02*
X0027081Y0067735D01*
X0026484Y0068333D02*
X0031234Y0068333D01*
X0031187Y0068932D02*
X0026531Y0068932D01*
X0026522Y0069530D02*
X0031196Y0069530D01*
X0031444Y0070129D02*
X0026274Y0070129D01*
X0025887Y0070727D02*
X0031831Y0070727D01*
X0032548Y0071326D02*
X0025170Y0071326D01*
X0027302Y0073555D02*
X0028122Y0072735D01*
X0037137Y0072735D01*
X0049723Y0060149D01*
X0050543Y0059329D01*
X0055340Y0059329D01*
X0055340Y0059056D01*
X0055867Y0058529D01*
X0064613Y0058529D01*
X0065140Y0059056D01*
X0065140Y0062402D01*
X0064613Y0062929D01*
X0055867Y0062929D01*
X0055340Y0062402D01*
X0055340Y0062129D01*
X0051703Y0062129D01*
X0039117Y0074715D01*
X0038297Y0075535D01*
X0029281Y0075535D01*
X0026484Y0078332D01*
X0026531Y0078446D01*
X0026531Y0079509D01*
X0026124Y0080491D01*
X0025372Y0081242D01*
X0024390Y0081649D01*
X0023328Y0081649D01*
X0022346Y0081242D01*
X0021594Y0080491D01*
X0021187Y0079509D01*
X0021187Y0078446D01*
X0021594Y0077464D01*
X0022346Y0076712D01*
X0023328Y0076306D01*
X0024390Y0076306D01*
X0024504Y0076352D01*
X0027302Y0073555D01*
X0027136Y0073720D02*
X0003100Y0073720D01*
X0003100Y0074318D02*
X0026538Y0074318D01*
X0025939Y0074917D02*
X0003100Y0074917D01*
X0003100Y0075515D02*
X0025341Y0075515D01*
X0024742Y0076114D02*
X0003100Y0076114D01*
X0003100Y0076712D02*
X0022345Y0076712D01*
X0021747Y0077311D02*
X0003100Y0077311D01*
X0003100Y0077909D02*
X0021410Y0077909D01*
X0021187Y0078508D02*
X0003100Y0078508D01*
X0003100Y0079106D02*
X0021187Y0079106D01*
X0021269Y0079705D02*
X0003100Y0079705D01*
X0003100Y0080303D02*
X0021517Y0080303D01*
X0022006Y0080902D02*
X0003100Y0080902D01*
X0003100Y0081501D02*
X0022970Y0081501D01*
X0024748Y0081501D02*
X0032970Y0081501D01*
X0033328Y0081649D02*
X0032346Y0081242D01*
X0031594Y0080491D01*
X0031187Y0079509D01*
X0031187Y0078446D01*
X0031594Y0077464D01*
X0032346Y0076712D01*
X0033328Y0076306D01*
X0034390Y0076306D01*
X0035372Y0076712D01*
X0036124Y0077464D01*
X0036531Y0078446D01*
X0036531Y0079509D01*
X0036124Y0080491D01*
X0035372Y0081242D01*
X0034390Y0081649D01*
X0033328Y0081649D01*
X0034748Y0081501D02*
X0039356Y0081501D01*
X0038757Y0082099D02*
X0003100Y0082099D01*
X0003100Y0082698D02*
X0038159Y0082698D01*
X0037560Y0083296D02*
X0003100Y0083296D01*
X0003100Y0083895D02*
X0036962Y0083895D01*
X0036363Y0084493D02*
X0003100Y0084493D01*
X0003100Y0085092D02*
X0035765Y0085092D01*
X0035166Y0085690D02*
X0003100Y0085690D01*
X0003100Y0086289D02*
X0034568Y0086289D01*
X0034504Y0086352D02*
X0055340Y0065516D01*
X0055340Y0064056D01*
X0055867Y0063529D01*
X0064613Y0063529D01*
X0065140Y0064056D01*
X0065140Y0067402D01*
X0064613Y0067929D01*
X0056887Y0067929D01*
X0056687Y0068129D01*
X0059940Y0068129D01*
X0059940Y0070429D01*
X0060540Y0070429D01*
X0060540Y0068129D01*
X0064411Y0068129D01*
X0064742Y0068218D01*
X0065038Y0068389D01*
X0065280Y0068631D01*
X0065452Y0068927D01*
X0065540Y0069258D01*
X0065540Y0070429D01*
X0060540Y0070429D01*
X0060540Y0071029D01*
X0059940Y0071029D01*
X0059940Y0070429D01*
X0054940Y0070429D01*
X0054940Y0069876D01*
X0036484Y0088332D01*
X0036531Y0088446D01*
X0036531Y0089509D01*
X0036124Y0090491D01*
X0035372Y0091242D01*
X0034390Y0091649D01*
X0033328Y0091649D01*
X0032346Y0091242D01*
X0031594Y0090491D01*
X0031187Y0089509D01*
X0031187Y0088446D01*
X0031594Y0087464D01*
X0032346Y0086712D01*
X0033328Y0086306D01*
X0034390Y0086306D01*
X0034504Y0086352D01*
X0032171Y0086887D02*
X0025547Y0086887D01*
X0025372Y0086712D02*
X0026124Y0087464D01*
X0026531Y0088446D01*
X0026531Y0089509D01*
X0026124Y0090491D01*
X0025372Y0091242D01*
X0024390Y0091649D01*
X0023328Y0091649D01*
X0022346Y0091242D01*
X0021594Y0090491D01*
X0021187Y0089509D01*
X0021187Y0088446D01*
X0021594Y0087464D01*
X0022346Y0086712D01*
X0023328Y0086306D01*
X0024390Y0086306D01*
X0025372Y0086712D01*
X0026133Y0087486D02*
X0031585Y0087486D01*
X0031337Y0088084D02*
X0026381Y0088084D01*
X0026531Y0088683D02*
X0031187Y0088683D01*
X0031187Y0089281D02*
X0026531Y0089281D01*
X0026377Y0089880D02*
X0031341Y0089880D01*
X0031589Y0090478D02*
X0026129Y0090478D01*
X0025538Y0091077D02*
X0032180Y0091077D01*
X0035538Y0091077D02*
X0054940Y0091077D01*
X0054940Y0091029D02*
X0059940Y0091029D01*
X0059940Y0090429D01*
X0060540Y0090429D01*
X0060540Y0088129D01*
X0064411Y0088129D01*
X0064742Y0088218D01*
X0065038Y0088389D01*
X0065280Y0088631D01*
X0065452Y0088927D01*
X0065540Y0089258D01*
X0065540Y0090429D01*
X0060540Y0090429D01*
X0060540Y0091029D01*
X0065540Y0091029D01*
X0065540Y0092200D01*
X0065460Y0092498D01*
X0086389Y0092498D01*
X0087459Y0091429D01*
X0087459Y0077177D01*
X0089487Y0075149D01*
X0090307Y0074329D01*
X0094940Y0074329D01*
X0094940Y0074056D01*
X0095467Y0073529D01*
X0104213Y0073529D01*
X0104740Y0074056D01*
X0104740Y0077402D01*
X0104213Y0077929D01*
X0095467Y0077929D01*
X0094940Y0077402D01*
X0094940Y0077129D01*
X0091467Y0077129D01*
X0090259Y0078337D01*
X0090259Y0092589D01*
X0089439Y0093409D01*
X0088369Y0094478D01*
X0087549Y0095298D01*
X0029518Y0095298D01*
X0026484Y0098332D01*
X0026531Y0098446D01*
X0026531Y0099509D01*
X0026124Y0100491D01*
X0025372Y0101242D01*
X0024390Y0101649D01*
X0023328Y0101649D01*
X0022346Y0101242D01*
X0021594Y0100491D01*
X0021187Y0099509D01*
X0021187Y0098446D01*
X0021594Y0097464D01*
X0022346Y0096712D01*
X0023328Y0096306D01*
X0024390Y0096306D01*
X0024504Y0096352D01*
X0027538Y0093319D01*
X0027538Y0093319D01*
X0028358Y0092498D01*
X0055020Y0092498D01*
X0054940Y0092200D01*
X0054940Y0091029D01*
X0054940Y0090429D02*
X0054940Y0089258D01*
X0055029Y0088927D01*
X0055200Y0088631D01*
X0055442Y0088389D01*
X0055738Y0088218D01*
X0056069Y0088129D01*
X0059940Y0088129D01*
X0059940Y0090429D01*
X0054940Y0090429D01*
X0054940Y0089880D02*
X0036377Y0089880D01*
X0036531Y0089281D02*
X0054940Y0089281D01*
X0055170Y0088683D02*
X0036531Y0088683D01*
X0036732Y0088084D02*
X0087459Y0088084D01*
X0087459Y0087486D02*
X0069504Y0087486D01*
X0069054Y0087936D02*
X0070220Y0086770D01*
X0070220Y0085121D01*
X0069054Y0083955D01*
X0067405Y0083955D01*
X0066814Y0084546D01*
X0065140Y0084546D01*
X0065140Y0084056D01*
X0064613Y0083529D01*
X0055867Y0083529D01*
X0055340Y0084056D01*
X0055340Y0087402D01*
X0055867Y0087929D01*
X0064613Y0087929D01*
X0065140Y0087402D01*
X0065140Y0087346D01*
X0066814Y0087346D01*
X0067405Y0087936D01*
X0069054Y0087936D01*
X0070103Y0086887D02*
X0087459Y0086887D01*
X0087459Y0086289D02*
X0070220Y0086289D01*
X0070220Y0085690D02*
X0087459Y0085690D01*
X0087459Y0085092D02*
X0070190Y0085092D01*
X0069592Y0084493D02*
X0087459Y0084493D01*
X0087459Y0083895D02*
X0064978Y0083895D01*
X0065140Y0084493D02*
X0066867Y0084493D01*
X0067405Y0083015D02*
X0066519Y0082129D01*
X0065140Y0082129D01*
X0065140Y0082402D01*
X0064613Y0082929D01*
X0055867Y0082929D01*
X0055340Y0082402D01*
X0055340Y0079056D01*
X0055867Y0078529D01*
X0064613Y0078529D01*
X0065140Y0079056D01*
X0065140Y0079329D01*
X0067109Y0079329D01*
X0067405Y0079034D01*
X0069054Y0079034D01*
X0070220Y0080200D01*
X0070220Y0081849D01*
X0069054Y0083015D01*
X0067405Y0083015D01*
X0067087Y0082698D02*
X0064845Y0082698D01*
X0065140Y0079106D02*
X0067332Y0079106D01*
X0067405Y0078094D02*
X0066814Y0077503D01*
X0065039Y0077503D01*
X0064613Y0077929D01*
X0055867Y0077929D01*
X0055340Y0077402D01*
X0055340Y0074056D01*
X0055867Y0073529D01*
X0064613Y0073529D01*
X0065140Y0074056D01*
X0065140Y0074703D01*
X0066814Y0074703D01*
X0067405Y0074113D01*
X0069054Y0074113D01*
X0070220Y0075279D01*
X0070220Y0076928D01*
X0069054Y0078094D01*
X0067405Y0078094D01*
X0067220Y0077909D02*
X0064633Y0077909D01*
X0065140Y0074318D02*
X0067199Y0074318D01*
X0069259Y0074318D02*
X0094940Y0074318D01*
X0095277Y0073720D02*
X0064804Y0073720D01*
X0064742Y0073241D02*
X0064411Y0073329D01*
X0060540Y0073329D01*
X0060540Y0071029D01*
X0065540Y0071029D01*
X0065540Y0072200D01*
X0065452Y0072531D01*
X0065280Y0072827D01*
X0065038Y0073069D01*
X0064742Y0073241D01*
X0064948Y0073121D02*
X0111120Y0073121D01*
X0111120Y0072523D02*
X0104619Y0072523D01*
X0104740Y0072402D02*
X0104213Y0072929D01*
X0095467Y0072929D01*
X0094940Y0072402D01*
X0094940Y0071598D01*
X0094250Y0071598D01*
X0093660Y0072188D01*
X0092011Y0072188D01*
X0090845Y0071022D01*
X0090845Y0069373D01*
X0092011Y0068207D01*
X0093660Y0068207D01*
X0094250Y0068798D01*
X0095199Y0068798D01*
X0095467Y0068529D01*
X0104213Y0068529D01*
X0104740Y0069056D01*
X0104740Y0072402D01*
X0104740Y0071924D02*
X0111120Y0071924D01*
X0111120Y0071326D02*
X0104740Y0071326D01*
X0104740Y0070727D02*
X0111120Y0070727D01*
X0111120Y0070129D02*
X0104740Y0070129D01*
X0104740Y0069530D02*
X0111120Y0069530D01*
X0111120Y0068932D02*
X0104616Y0068932D01*
X0104213Y0067929D02*
X0095467Y0067929D01*
X0094940Y0067402D01*
X0094940Y0064056D01*
X0095467Y0063529D01*
X0104213Y0063529D01*
X0104740Y0064056D01*
X0104740Y0067402D01*
X0104213Y0067929D01*
X0104407Y0067735D02*
X0111120Y0067735D01*
X0111120Y0068333D02*
X0093786Y0068333D01*
X0095273Y0067735D02*
X0064807Y0067735D01*
X0064942Y0068333D02*
X0091885Y0068333D01*
X0091286Y0068932D02*
X0065453Y0068932D01*
X0065540Y0069530D02*
X0090845Y0069530D01*
X0090845Y0070129D02*
X0065540Y0070129D01*
X0065540Y0071326D02*
X0091149Y0071326D01*
X0090845Y0070727D02*
X0060540Y0070727D01*
X0060540Y0070129D02*
X0059940Y0070129D01*
X0059940Y0070727D02*
X0054089Y0070727D01*
X0054687Y0070129D02*
X0054940Y0070129D01*
X0054940Y0071029D02*
X0059940Y0071029D01*
X0059940Y0073329D01*
X0056069Y0073329D01*
X0055738Y0073241D01*
X0055442Y0073069D01*
X0055200Y0072827D01*
X0055029Y0072531D01*
X0054940Y0072200D01*
X0054940Y0071029D01*
X0054940Y0071326D02*
X0053490Y0071326D01*
X0052892Y0071924D02*
X0054940Y0071924D01*
X0055027Y0072523D02*
X0052293Y0072523D01*
X0051695Y0073121D02*
X0055532Y0073121D01*
X0055677Y0073720D02*
X0051096Y0073720D01*
X0050498Y0074318D02*
X0055340Y0074318D01*
X0055340Y0074917D02*
X0049899Y0074917D01*
X0049301Y0075515D02*
X0055340Y0075515D01*
X0055340Y0076114D02*
X0048702Y0076114D01*
X0048104Y0076712D02*
X0055340Y0076712D01*
X0055340Y0077311D02*
X0047505Y0077311D01*
X0046907Y0077909D02*
X0055848Y0077909D01*
X0055340Y0079106D02*
X0045710Y0079106D01*
X0046308Y0078508D02*
X0087459Y0078508D01*
X0087459Y0079106D02*
X0069126Y0079106D01*
X0069725Y0079705D02*
X0087459Y0079705D01*
X0087459Y0080303D02*
X0070220Y0080303D01*
X0070220Y0080902D02*
X0087459Y0080902D01*
X0087459Y0081501D02*
X0070220Y0081501D01*
X0069970Y0082099D02*
X0087459Y0082099D01*
X0087459Y0082698D02*
X0069371Y0082698D01*
X0069238Y0077909D02*
X0087459Y0077909D01*
X0087459Y0077311D02*
X0069836Y0077311D01*
X0070220Y0076712D02*
X0087923Y0076712D01*
X0088522Y0076114D02*
X0070220Y0076114D01*
X0070220Y0075515D02*
X0089120Y0075515D01*
X0089719Y0074917D02*
X0069858Y0074917D01*
X0065454Y0072523D02*
X0095061Y0072523D01*
X0094940Y0071924D02*
X0093924Y0071924D01*
X0091747Y0071924D02*
X0065540Y0071924D01*
X0065140Y0067136D02*
X0094940Y0067136D01*
X0094940Y0066538D02*
X0065140Y0066538D01*
X0065140Y0065939D02*
X0094940Y0065939D01*
X0094940Y0065341D02*
X0065140Y0065341D01*
X0065140Y0064742D02*
X0094940Y0064742D01*
X0094940Y0064144D02*
X0065140Y0064144D01*
X0064629Y0063545D02*
X0095451Y0063545D01*
X0094940Y0062348D02*
X0065140Y0062348D01*
X0065140Y0061750D02*
X0094940Y0061750D01*
X0094940Y0061151D02*
X0065140Y0061151D01*
X0065140Y0060553D02*
X0094940Y0060553D01*
X0094940Y0059954D02*
X0065140Y0059954D01*
X0065140Y0059356D02*
X0094940Y0059356D01*
X0095239Y0058757D02*
X0064841Y0058757D01*
X0064982Y0057560D02*
X0095098Y0057560D01*
X0094940Y0056962D02*
X0065140Y0056962D01*
X0065140Y0056363D02*
X0094940Y0056363D01*
X0094940Y0055765D02*
X0065140Y0055765D01*
X0065140Y0055166D02*
X0094940Y0055166D01*
X0094940Y0054568D02*
X0065140Y0054568D01*
X0065053Y0053969D02*
X0095027Y0053969D01*
X0095310Y0052772D02*
X0064770Y0052772D01*
X0065140Y0052173D02*
X0094940Y0052173D01*
X0094940Y0051575D02*
X0065140Y0051575D01*
X0065140Y0050976D02*
X0094940Y0050976D01*
X0094940Y0050378D02*
X0065140Y0050378D01*
X0065140Y0049779D02*
X0094940Y0049779D01*
X0094940Y0049181D02*
X0065140Y0049181D01*
X0064666Y0048582D02*
X0095414Y0048582D01*
X0095467Y0047929D02*
X0094940Y0047402D01*
X0094940Y0044056D01*
X0095467Y0043529D01*
X0104213Y0043529D01*
X0104740Y0044056D01*
X0104740Y0044329D01*
X0119144Y0044329D01*
X0122779Y0047964D01*
X0122779Y0128673D01*
X0124911Y0130806D01*
X0167234Y0130806D01*
X0168054Y0131626D01*
X0170928Y0134500D01*
X0170928Y0142640D01*
X0171376Y0142826D01*
X0172294Y0143743D01*
X0172791Y0144942D01*
X0172791Y0146240D01*
X0172294Y0147439D01*
X0171376Y0148357D01*
X0170177Y0148854D01*
X0168879Y0148854D01*
X0167680Y0148357D01*
X0166763Y0147439D01*
X0166266Y0146240D01*
X0166266Y0144942D01*
X0166763Y0143743D01*
X0167680Y0142826D01*
X0168128Y0142640D01*
X0168128Y0135659D01*
X0166074Y0133605D01*
X0123752Y0133605D01*
X0122931Y0132785D01*
X0120799Y0130653D01*
X0119979Y0129833D01*
X0119979Y0049124D01*
X0117984Y0047129D01*
X0104740Y0047129D01*
X0104740Y0047402D01*
X0104213Y0047929D01*
X0095467Y0047929D01*
X0094940Y0047385D02*
X0065491Y0047385D01*
X0065452Y0047531D02*
X0065280Y0047827D01*
X0065038Y0048069D01*
X0064742Y0048241D01*
X0064411Y0048329D01*
X0060540Y0048329D01*
X0060540Y0046029D01*
X0059940Y0046029D01*
X0059940Y0045429D01*
X0060540Y0045429D01*
X0060540Y0043129D01*
X0064411Y0043129D01*
X0064742Y0043218D01*
X0065038Y0043389D01*
X0065280Y0043631D01*
X0065452Y0043927D01*
X0065540Y0044258D01*
X0065540Y0045429D01*
X0060540Y0045429D01*
X0060540Y0046029D01*
X0065540Y0046029D01*
X0065540Y0047200D01*
X0065452Y0047531D01*
X0065124Y0047984D02*
X0118839Y0047984D01*
X0119437Y0048582D02*
X0104266Y0048582D01*
X0104740Y0049181D02*
X0119979Y0049181D01*
X0119979Y0049779D02*
X0116720Y0049779D01*
X0117318Y0050378D02*
X0119979Y0050378D01*
X0119979Y0050976D02*
X0117917Y0050976D01*
X0118515Y0051575D02*
X0119979Y0051575D01*
X0119979Y0052173D02*
X0119114Y0052173D01*
X0119712Y0052772D02*
X0119979Y0052772D01*
X0119979Y0053370D02*
X0119826Y0053370D01*
X0119826Y0053969D02*
X0119979Y0053969D01*
X0119979Y0054568D02*
X0119826Y0054568D01*
X0119826Y0055166D02*
X0119979Y0055166D01*
X0119979Y0055765D02*
X0119826Y0055765D01*
X0119826Y0056363D02*
X0119979Y0056363D01*
X0119979Y0056962D02*
X0119826Y0056962D01*
X0119826Y0057560D02*
X0119979Y0057560D01*
X0119979Y0058159D02*
X0119826Y0058159D01*
X0119826Y0058757D02*
X0119979Y0058757D01*
X0119979Y0059356D02*
X0119826Y0059356D01*
X0119826Y0059954D02*
X0119979Y0059954D01*
X0119979Y0060553D02*
X0119826Y0060553D01*
X0119826Y0061151D02*
X0119979Y0061151D01*
X0119979Y0061750D02*
X0119826Y0061750D01*
X0119826Y0062348D02*
X0119979Y0062348D01*
X0119979Y0062947D02*
X0119826Y0062947D01*
X0119826Y0063545D02*
X0119979Y0063545D01*
X0119979Y0064144D02*
X0119826Y0064144D01*
X0119826Y0064742D02*
X0119979Y0064742D01*
X0119979Y0065341D02*
X0119826Y0065341D01*
X0119826Y0065939D02*
X0119979Y0065939D01*
X0119979Y0066538D02*
X0119826Y0066538D01*
X0119826Y0067136D02*
X0119979Y0067136D01*
X0119979Y0067735D02*
X0119826Y0067735D01*
X0119826Y0068333D02*
X0119979Y0068333D01*
X0119979Y0068932D02*
X0119826Y0068932D01*
X0119826Y0069530D02*
X0119979Y0069530D01*
X0119979Y0070129D02*
X0119826Y0070129D01*
X0119826Y0070727D02*
X0119979Y0070727D01*
X0119979Y0071326D02*
X0119826Y0071326D01*
X0119826Y0071924D02*
X0119979Y0071924D01*
X0119979Y0072523D02*
X0119826Y0072523D01*
X0119826Y0073121D02*
X0119979Y0073121D01*
X0119979Y0073720D02*
X0119826Y0073720D01*
X0119826Y0074318D02*
X0119979Y0074318D01*
X0119979Y0074917D02*
X0119826Y0074917D01*
X0119826Y0075515D02*
X0119979Y0075515D01*
X0119979Y0076114D02*
X0119826Y0076114D01*
X0119826Y0076712D02*
X0119979Y0076712D01*
X0119979Y0077311D02*
X0119826Y0077311D01*
X0119826Y0077909D02*
X0119979Y0077909D01*
X0119979Y0078508D02*
X0119826Y0078508D01*
X0119826Y0079106D02*
X0119979Y0079106D01*
X0119979Y0079705D02*
X0119826Y0079705D01*
X0119826Y0080303D02*
X0119979Y0080303D01*
X0119979Y0080902D02*
X0119826Y0080902D01*
X0119826Y0081501D02*
X0119979Y0081501D01*
X0119979Y0082099D02*
X0119826Y0082099D01*
X0119826Y0082698D02*
X0119979Y0082698D01*
X0119979Y0083296D02*
X0119826Y0083296D01*
X0119826Y0083895D02*
X0119979Y0083895D01*
X0119979Y0084493D02*
X0119826Y0084493D01*
X0119826Y0085092D02*
X0119979Y0085092D01*
X0119979Y0085690D02*
X0119826Y0085690D01*
X0119826Y0086289D02*
X0119979Y0086289D01*
X0119979Y0086887D02*
X0119826Y0086887D01*
X0119826Y0087486D02*
X0119979Y0087486D01*
X0119979Y0088084D02*
X0119826Y0088084D01*
X0119826Y0088683D02*
X0119979Y0088683D01*
X0119979Y0089281D02*
X0119826Y0089281D01*
X0119826Y0089880D02*
X0119979Y0089880D01*
X0119979Y0090478D02*
X0119826Y0090478D01*
X0119826Y0091077D02*
X0119979Y0091077D01*
X0119979Y0091675D02*
X0119826Y0091675D01*
X0119826Y0092274D02*
X0119979Y0092274D01*
X0119979Y0092872D02*
X0119826Y0092872D01*
X0119826Y0093471D02*
X0119979Y0093471D01*
X0119979Y0094069D02*
X0119826Y0094069D01*
X0119826Y0094668D02*
X0119979Y0094668D01*
X0119979Y0095266D02*
X0119826Y0095266D01*
X0119826Y0095865D02*
X0119979Y0095865D01*
X0119979Y0096463D02*
X0119826Y0096463D01*
X0119826Y0097062D02*
X0119979Y0097062D01*
X0119979Y0097660D02*
X0119826Y0097660D01*
X0119826Y0098259D02*
X0119979Y0098259D01*
X0119979Y0098857D02*
X0119826Y0098857D01*
X0119826Y0099456D02*
X0119979Y0099456D01*
X0119979Y0100054D02*
X0119826Y0100054D01*
X0119826Y0100653D02*
X0119979Y0100653D01*
X0119979Y0101251D02*
X0119826Y0101251D01*
X0119826Y0101850D02*
X0119979Y0101850D01*
X0119979Y0102448D02*
X0119826Y0102448D01*
X0119826Y0103047D02*
X0119979Y0103047D01*
X0119979Y0103645D02*
X0119826Y0103645D01*
X0119826Y0104244D02*
X0119979Y0104244D01*
X0119979Y0104842D02*
X0119826Y0104842D01*
X0119826Y0105441D02*
X0119979Y0105441D01*
X0119979Y0106039D02*
X0119826Y0106039D01*
X0119826Y0106638D02*
X0119979Y0106638D01*
X0119979Y0107237D02*
X0119826Y0107237D01*
X0119826Y0107835D02*
X0119979Y0107835D01*
X0119979Y0108434D02*
X0119826Y0108434D01*
X0119826Y0109032D02*
X0119979Y0109032D01*
X0119979Y0109631D02*
X0119826Y0109631D01*
X0119826Y0110229D02*
X0119979Y0110229D01*
X0119979Y0110828D02*
X0119826Y0110828D01*
X0119826Y0111426D02*
X0119979Y0111426D01*
X0119979Y0112025D02*
X0119826Y0112025D01*
X0119826Y0112623D02*
X0119979Y0112623D01*
X0119979Y0113222D02*
X0119826Y0113222D01*
X0119826Y0113820D02*
X0119979Y0113820D01*
X0119979Y0114419D02*
X0119826Y0114419D01*
X0119826Y0115017D02*
X0119979Y0115017D01*
X0119979Y0115616D02*
X0119826Y0115616D01*
X0119826Y0116214D02*
X0119979Y0116214D01*
X0119979Y0116813D02*
X0119826Y0116813D01*
X0119826Y0117411D02*
X0119979Y0117411D01*
X0119979Y0118010D02*
X0119826Y0118010D01*
X0119826Y0118608D02*
X0119979Y0118608D01*
X0119979Y0119207D02*
X0119826Y0119207D01*
X0119826Y0119805D02*
X0119979Y0119805D01*
X0119979Y0120404D02*
X0119826Y0120404D01*
X0119826Y0121002D02*
X0119979Y0121002D01*
X0119979Y0121601D02*
X0119826Y0121601D01*
X0119826Y0122199D02*
X0119979Y0122199D01*
X0119979Y0122798D02*
X0119826Y0122798D01*
X0119826Y0123396D02*
X0119979Y0123396D01*
X0119979Y0123995D02*
X0119826Y0123995D01*
X0119826Y0124593D02*
X0119979Y0124593D01*
X0119979Y0125192D02*
X0119826Y0125192D01*
X0119826Y0125790D02*
X0119979Y0125790D01*
X0119979Y0126389D02*
X0119826Y0126389D01*
X0119826Y0126987D02*
X0119979Y0126987D01*
X0119979Y0127586D02*
X0119826Y0127586D01*
X0119826Y0128184D02*
X0119979Y0128184D01*
X0119979Y0128783D02*
X0119826Y0128783D01*
X0119826Y0129381D02*
X0119979Y0129381D01*
X0120126Y0129980D02*
X0119826Y0129980D01*
X0119826Y0130578D02*
X0120725Y0130578D01*
X0121323Y0131177D02*
X0119826Y0131177D01*
X0119976Y0131775D02*
X0121922Y0131775D01*
X0122520Y0132374D02*
X0120574Y0132374D01*
X0121173Y0132972D02*
X0123119Y0132972D01*
X0123717Y0133571D02*
X0121771Y0133571D01*
X0124684Y0130578D02*
X0219972Y0130578D01*
X0219972Y0129980D02*
X0124086Y0129980D01*
X0123487Y0129381D02*
X0219972Y0129381D01*
X0219972Y0128783D02*
X0122889Y0128783D01*
X0122779Y0128184D02*
X0219972Y0128184D01*
X0219972Y0127586D02*
X0122779Y0127586D01*
X0122779Y0126987D02*
X0219972Y0126987D01*
X0219972Y0126389D02*
X0122779Y0126389D01*
X0122779Y0125790D02*
X0219972Y0125790D01*
X0219972Y0125192D02*
X0122779Y0125192D01*
X0122779Y0124593D02*
X0219972Y0124593D01*
X0219972Y0123995D02*
X0122779Y0123995D01*
X0122779Y0123396D02*
X0219972Y0123396D01*
X0219972Y0122798D02*
X0122779Y0122798D01*
X0122779Y0122199D02*
X0219972Y0122199D01*
X0219972Y0121601D02*
X0122779Y0121601D01*
X0122779Y0121002D02*
X0219972Y0121002D01*
X0219972Y0120404D02*
X0122779Y0120404D01*
X0122779Y0119805D02*
X0219972Y0119805D01*
X0219972Y0119207D02*
X0122779Y0119207D01*
X0122779Y0118608D02*
X0219972Y0118608D01*
X0219972Y0118010D02*
X0122779Y0118010D01*
X0122779Y0117411D02*
X0219972Y0117411D01*
X0219972Y0116813D02*
X0215523Y0116813D01*
X0215543Y0116793D02*
X0215463Y0116873D01*
X0214982Y0116873D01*
X0214507Y0116941D01*
X0214416Y0116873D01*
X0175651Y0116873D01*
X0175219Y0116960D01*
X0175089Y0116873D01*
X0174933Y0116873D01*
X0174621Y0116561D01*
X0172136Y0114905D01*
X0171980Y0114905D01*
X0171668Y0114593D01*
X0171301Y0114348D01*
X0171270Y0114195D01*
X0171160Y0114085D01*
X0171160Y0113643D01*
X0171073Y0113211D01*
X0171160Y0113081D01*
X0171160Y0110028D01*
X0171089Y0109931D01*
X0171160Y0109462D01*
X0171160Y0108988D01*
X0171245Y0108903D01*
X0171263Y0108785D01*
X0171644Y0108503D01*
X0171980Y0108168D01*
X0172100Y0108168D01*
X0172798Y0107653D01*
X0172743Y0107519D01*
X0172743Y0106104D01*
X0173284Y0104797D01*
X0174285Y0103796D01*
X0175592Y0103254D01*
X0177008Y0103254D01*
X0178315Y0103796D01*
X0179316Y0104797D01*
X0179857Y0106104D01*
X0179857Y0106667D01*
X0180356Y0106168D01*
X0186417Y0106168D01*
X0186916Y0106667D01*
X0186916Y0106104D01*
X0187457Y0104797D01*
X0188458Y0103796D01*
X0189766Y0103254D01*
X0191181Y0103254D01*
X0192488Y0103796D01*
X0193489Y0104797D01*
X0194031Y0106104D01*
X0194031Y0107519D01*
X0193930Y0107763D01*
X0195685Y0109152D01*
X0210246Y0109152D01*
X0212498Y0106148D01*
X0212498Y0060832D01*
X0209884Y0057444D01*
X0160032Y0057444D01*
X0160032Y0057717D01*
X0159505Y0058244D01*
X0150759Y0058244D01*
X0150232Y0057717D01*
X0150232Y0054371D01*
X0150759Y0053844D01*
X0159505Y0053844D01*
X0160032Y0054371D01*
X0160032Y0054644D01*
X0210094Y0054644D01*
X0210175Y0054581D01*
X0210662Y0054644D01*
X0211152Y0054644D01*
X0211224Y0054717D01*
X0211326Y0054730D01*
X0211625Y0055118D01*
X0211972Y0055464D01*
X0211972Y0055567D01*
X0214952Y0059429D01*
X0215298Y0059775D01*
X0215298Y0059878D01*
X0215361Y0059959D01*
X0215298Y0060445D01*
X0215298Y0106515D01*
X0215366Y0106991D01*
X0215298Y0107082D01*
X0215298Y0107195D01*
X0214959Y0107535D01*
X0212346Y0111019D01*
X0212346Y0111132D01*
X0212006Y0111472D01*
X0211718Y0111856D01*
X0211606Y0111872D01*
X0211526Y0111952D01*
X0211045Y0111952D01*
X0210570Y0112020D01*
X0210479Y0111952D01*
X0195279Y0111952D01*
X0194783Y0112010D01*
X0194711Y0111952D01*
X0194618Y0111952D01*
X0194265Y0111599D01*
X0192186Y0109953D01*
X0191181Y0110369D01*
X0189766Y0110369D01*
X0188458Y0109828D01*
X0187457Y0108827D01*
X0186944Y0107588D01*
X0186944Y0112755D01*
X0186417Y0113283D01*
X0180356Y0113283D01*
X0179829Y0112755D01*
X0179829Y0107588D01*
X0179316Y0108827D01*
X0178315Y0109828D01*
X0177008Y0110369D01*
X0175592Y0110369D01*
X0174466Y0109903D01*
X0173960Y0110275D01*
X0173960Y0112755D01*
X0175936Y0114073D01*
X0214183Y0114073D01*
X0216435Y0111070D01*
X0216435Y0057196D01*
X0165270Y0025338D01*
X0146734Y0025338D01*
X0139511Y0036173D01*
X0139511Y0036329D01*
X0139199Y0036641D01*
X0138954Y0037008D01*
X0138801Y0037038D01*
X0138691Y0037149D01*
X0138250Y0037149D01*
X0137817Y0037235D01*
X0137687Y0037149D01*
X0135832Y0037149D01*
X0135832Y0037717D01*
X0135305Y0038244D01*
X0126559Y0038244D01*
X0126032Y0037717D01*
X0126032Y0034371D01*
X0126559Y0033844D01*
X0135305Y0033844D01*
X0135810Y0034349D01*
X0137362Y0034349D01*
X0144585Y0023514D01*
X0144585Y0023358D01*
X0144897Y0023046D01*
X0145142Y0022679D01*
X0145295Y0022648D01*
X0145405Y0022538D01*
X0145846Y0022538D01*
X0146279Y0022451D01*
X0146409Y0022538D01*
X0165509Y0022538D01*
X0165918Y0022443D01*
X0166070Y0022538D01*
X0166250Y0022538D01*
X0166546Y0022834D01*
X0218236Y0055018D01*
X0218415Y0055018D01*
X0218712Y0055315D01*
X0219068Y0055536D01*
X0219108Y0055711D01*
X0219235Y0055838D01*
X0219235Y0056257D01*
X0219330Y0056666D01*
X0219235Y0056818D01*
X0219235Y0111437D01*
X0219303Y0111912D01*
X0219235Y0112003D01*
X0219235Y0112116D01*
X0218896Y0112456D01*
X0216283Y0115940D01*
X0216283Y0116053D01*
X0215943Y0116393D01*
X0215655Y0116777D01*
X0215543Y0116793D01*
X0216122Y0116214D02*
X0219972Y0116214D01*
X0219972Y0115616D02*
X0216526Y0115616D01*
X0216975Y0115017D02*
X0219972Y0115017D01*
X0219972Y0114419D02*
X0217424Y0114419D01*
X0217872Y0113820D02*
X0219972Y0113820D01*
X0219972Y0113222D02*
X0218321Y0113222D01*
X0218770Y0112623D02*
X0219972Y0112623D01*
X0219972Y0112025D02*
X0219235Y0112025D01*
X0219235Y0111426D02*
X0219972Y0111426D01*
X0219972Y0110828D02*
X0219235Y0110828D01*
X0219235Y0110229D02*
X0219972Y0110229D01*
X0219972Y0109631D02*
X0219235Y0109631D01*
X0219235Y0109032D02*
X0219972Y0109032D01*
X0219972Y0108434D02*
X0219235Y0108434D01*
X0219235Y0107835D02*
X0219972Y0107835D01*
X0219972Y0107237D02*
X0219235Y0107237D01*
X0219235Y0106638D02*
X0219972Y0106638D01*
X0219972Y0106039D02*
X0219235Y0106039D01*
X0219235Y0105441D02*
X0219972Y0105441D01*
X0219972Y0104842D02*
X0219235Y0104842D01*
X0219235Y0104244D02*
X0219972Y0104244D01*
X0219972Y0103645D02*
X0219235Y0103645D01*
X0219235Y0103047D02*
X0219972Y0103047D01*
X0219972Y0102448D02*
X0219235Y0102448D01*
X0219235Y0101850D02*
X0219972Y0101850D01*
X0219972Y0101251D02*
X0219235Y0101251D01*
X0219235Y0100653D02*
X0219972Y0100653D01*
X0219972Y0100054D02*
X0219235Y0100054D01*
X0219235Y0099456D02*
X0219972Y0099456D01*
X0219972Y0098857D02*
X0219235Y0098857D01*
X0219235Y0098259D02*
X0219972Y0098259D01*
X0219972Y0097660D02*
X0219235Y0097660D01*
X0219235Y0097062D02*
X0219972Y0097062D01*
X0219972Y0096463D02*
X0219235Y0096463D01*
X0219235Y0095865D02*
X0219972Y0095865D01*
X0219972Y0095266D02*
X0219235Y0095266D01*
X0219235Y0094668D02*
X0219972Y0094668D01*
X0219972Y0094069D02*
X0219235Y0094069D01*
X0219235Y0093471D02*
X0219972Y0093471D01*
X0219972Y0092872D02*
X0219235Y0092872D01*
X0219235Y0092274D02*
X0219972Y0092274D01*
X0219972Y0091675D02*
X0219235Y0091675D01*
X0219235Y0091077D02*
X0219972Y0091077D01*
X0219972Y0090478D02*
X0219235Y0090478D01*
X0219235Y0089880D02*
X0219972Y0089880D01*
X0219972Y0089281D02*
X0219235Y0089281D01*
X0219235Y0088683D02*
X0219972Y0088683D01*
X0219972Y0088084D02*
X0219235Y0088084D01*
X0219235Y0087486D02*
X0219972Y0087486D01*
X0219972Y0086887D02*
X0219235Y0086887D01*
X0219235Y0086289D02*
X0219972Y0086289D01*
X0219972Y0085690D02*
X0219235Y0085690D01*
X0219235Y0085092D02*
X0219972Y0085092D01*
X0219972Y0084493D02*
X0219235Y0084493D01*
X0219235Y0083895D02*
X0219972Y0083895D01*
X0219972Y0083296D02*
X0219235Y0083296D01*
X0219235Y0082698D02*
X0219972Y0082698D01*
X0219972Y0082099D02*
X0219235Y0082099D01*
X0219235Y0081501D02*
X0219972Y0081501D01*
X0219972Y0080902D02*
X0219235Y0080902D01*
X0219235Y0080303D02*
X0219972Y0080303D01*
X0219972Y0079705D02*
X0219235Y0079705D01*
X0219235Y0079106D02*
X0219972Y0079106D01*
X0219972Y0078508D02*
X0219235Y0078508D01*
X0219235Y0077909D02*
X0219972Y0077909D01*
X0219972Y0077311D02*
X0219235Y0077311D01*
X0219235Y0076712D02*
X0219972Y0076712D01*
X0219972Y0076114D02*
X0219235Y0076114D01*
X0219235Y0075515D02*
X0219972Y0075515D01*
X0219972Y0074917D02*
X0219235Y0074917D01*
X0219235Y0074318D02*
X0219972Y0074318D01*
X0219972Y0073720D02*
X0219235Y0073720D01*
X0219235Y0073121D02*
X0219972Y0073121D01*
X0219972Y0072523D02*
X0219235Y0072523D01*
X0219235Y0071924D02*
X0219972Y0071924D01*
X0219972Y0071326D02*
X0219235Y0071326D01*
X0219235Y0070727D02*
X0219972Y0070727D01*
X0219972Y0070129D02*
X0219235Y0070129D01*
X0219235Y0069530D02*
X0219972Y0069530D01*
X0219972Y0068932D02*
X0219235Y0068932D01*
X0219235Y0068333D02*
X0219972Y0068333D01*
X0219972Y0067735D02*
X0219235Y0067735D01*
X0219235Y0067136D02*
X0219972Y0067136D01*
X0219972Y0066538D02*
X0219235Y0066538D01*
X0219235Y0065939D02*
X0219972Y0065939D01*
X0219972Y0065341D02*
X0219235Y0065341D01*
X0219235Y0064742D02*
X0219972Y0064742D01*
X0219972Y0064144D02*
X0219235Y0064144D01*
X0219235Y0063545D02*
X0219972Y0063545D01*
X0219972Y0062947D02*
X0219235Y0062947D01*
X0219235Y0062348D02*
X0219972Y0062348D01*
X0219972Y0061750D02*
X0219235Y0061750D01*
X0219235Y0061151D02*
X0219972Y0061151D01*
X0219972Y0060553D02*
X0219235Y0060553D01*
X0219235Y0059954D02*
X0219972Y0059954D01*
X0219972Y0059356D02*
X0219235Y0059356D01*
X0219235Y0058757D02*
X0219972Y0058757D01*
X0219972Y0058159D02*
X0219235Y0058159D01*
X0219235Y0057560D02*
X0219972Y0057560D01*
X0219972Y0056962D02*
X0219235Y0056962D01*
X0219260Y0056363D02*
X0219972Y0056363D01*
X0219972Y0055765D02*
X0219162Y0055765D01*
X0218563Y0055166D02*
X0219972Y0055166D01*
X0219972Y0054568D02*
X0217512Y0054568D01*
X0216551Y0053969D02*
X0219972Y0053969D01*
X0219972Y0053370D02*
X0215589Y0053370D01*
X0214628Y0052772D02*
X0219972Y0052772D01*
X0219972Y0052173D02*
X0213667Y0052173D01*
X0212706Y0051575D02*
X0219972Y0051575D01*
X0219972Y0050976D02*
X0211744Y0050976D01*
X0210783Y0050378D02*
X0219972Y0050378D01*
X0219972Y0049779D02*
X0209822Y0049779D01*
X0208861Y0049181D02*
X0219972Y0049181D01*
X0219972Y0048582D02*
X0207899Y0048582D01*
X0206938Y0047984D02*
X0219972Y0047984D01*
X0219972Y0047385D02*
X0205977Y0047385D01*
X0205016Y0046787D02*
X0219972Y0046787D01*
X0219972Y0046188D02*
X0204055Y0046188D01*
X0203093Y0045590D02*
X0219972Y0045590D01*
X0219972Y0044991D02*
X0202132Y0044991D01*
X0201171Y0044393D02*
X0219972Y0044393D01*
X0219972Y0043794D02*
X0200210Y0043794D01*
X0199248Y0043196D02*
X0219972Y0043196D01*
X0219972Y0042597D02*
X0198287Y0042597D01*
X0197326Y0041999D02*
X0219972Y0041999D01*
X0219972Y0041400D02*
X0196365Y0041400D01*
X0195403Y0040802D02*
X0219972Y0040802D01*
X0219972Y0040203D02*
X0194442Y0040203D01*
X0193481Y0039605D02*
X0219972Y0039605D01*
X0219972Y0039006D02*
X0192520Y0039006D01*
X0191558Y0038408D02*
X0219972Y0038408D01*
X0219972Y0037809D02*
X0190597Y0037809D01*
X0189636Y0037211D02*
X0219972Y0037211D01*
X0219972Y0036612D02*
X0188675Y0036612D01*
X0187713Y0036014D02*
X0219972Y0036014D01*
X0219972Y0035415D02*
X0186752Y0035415D01*
X0185791Y0034817D02*
X0219972Y0034817D01*
X0219972Y0034218D02*
X0184830Y0034218D01*
X0183868Y0033620D02*
X0219972Y0033620D01*
X0219972Y0033021D02*
X0182907Y0033021D01*
X0181946Y0032423D02*
X0219972Y0032423D01*
X0219972Y0031824D02*
X0180985Y0031824D01*
X0180023Y0031226D02*
X0219972Y0031226D01*
X0219972Y0030627D02*
X0179062Y0030627D01*
X0178101Y0030029D02*
X0219972Y0030029D01*
X0219972Y0029430D02*
X0177140Y0029430D01*
X0176178Y0028832D02*
X0202060Y0028832D01*
X0201461Y0028233D02*
X0175217Y0028233D01*
X0174256Y0027634D02*
X0200863Y0027634D01*
X0200264Y0027036D02*
X0173295Y0027036D01*
X0172333Y0026437D02*
X0199666Y0026437D01*
X0199067Y0025839D02*
X0171372Y0025839D01*
X0170411Y0025240D02*
X0198469Y0025240D01*
X0197870Y0024642D02*
X0169450Y0024642D01*
X0168488Y0024043D02*
X0197272Y0024043D01*
X0196673Y0023445D02*
X0167527Y0023445D01*
X0166566Y0022846D02*
X0196075Y0022846D01*
X0195476Y0022248D02*
X0027596Y0022248D01*
X0026998Y0022846D02*
X0145030Y0022846D01*
X0144585Y0023445D02*
X0026399Y0023445D01*
X0025801Y0024043D02*
X0144232Y0024043D01*
X0143833Y0024642D02*
X0025202Y0024642D01*
X0024604Y0025240D02*
X0143434Y0025240D01*
X0143035Y0025839D02*
X0024005Y0025839D01*
X0023407Y0026437D02*
X0142636Y0026437D01*
X0142237Y0027036D02*
X0022808Y0027036D01*
X0022210Y0027634D02*
X0141838Y0027634D01*
X0141439Y0028233D02*
X0021611Y0028233D01*
X0021013Y0028832D02*
X0126006Y0028832D01*
X0125892Y0028946D02*
X0126134Y0028704D01*
X0126430Y0028533D01*
X0126761Y0028444D01*
X0130632Y0028444D01*
X0130632Y0030744D01*
X0125632Y0030744D01*
X0125632Y0029573D01*
X0125721Y0029242D01*
X0125892Y0028946D01*
X0125671Y0029430D02*
X0003100Y0029430D01*
X0003100Y0030029D02*
X0125632Y0030029D01*
X0125632Y0030627D02*
X0003100Y0030627D01*
X0003100Y0031226D02*
X0130632Y0031226D01*
X0130632Y0031344D02*
X0130632Y0030744D01*
X0131232Y0030744D01*
X0131232Y0028444D01*
X0135103Y0028444D01*
X0135434Y0028533D01*
X0135730Y0028704D01*
X0135973Y0028946D01*
X0136144Y0029242D01*
X0136232Y0029573D01*
X0136232Y0030744D01*
X0131232Y0030744D01*
X0131232Y0031344D01*
X0130632Y0031344D01*
X0125632Y0031344D01*
X0125632Y0032515D01*
X0125721Y0032846D01*
X0125892Y0033142D01*
X0126134Y0033384D01*
X0126430Y0033555D01*
X0126761Y0033644D01*
X0130632Y0033644D01*
X0130632Y0031344D01*
X0130632Y0031824D02*
X0131232Y0031824D01*
X0131232Y0031344D02*
X0131232Y0033644D01*
X0135103Y0033644D01*
X0135434Y0033555D01*
X0135730Y0033384D01*
X0135973Y0033142D01*
X0136144Y0032846D01*
X0136232Y0032515D01*
X0136232Y0031344D01*
X0131232Y0031344D01*
X0131232Y0031226D02*
X0139444Y0031226D01*
X0139045Y0031824D02*
X0136232Y0031824D01*
X0136232Y0032423D02*
X0138646Y0032423D01*
X0138247Y0033021D02*
X0136043Y0033021D01*
X0135195Y0033620D02*
X0137848Y0033620D01*
X0137449Y0034218D02*
X0135679Y0034218D01*
X0135832Y0037211D02*
X0137780Y0037211D01*
X0137940Y0037211D02*
X0150232Y0037211D01*
X0150232Y0037717D02*
X0150232Y0034371D01*
X0150759Y0033844D01*
X0159505Y0033844D01*
X0160032Y0034371D01*
X0160032Y0034671D01*
X0171546Y0034735D01*
X0172129Y0034152D01*
X0173778Y0034152D01*
X0174944Y0035318D01*
X0174944Y0036967D01*
X0173778Y0038133D01*
X0172129Y0038133D01*
X0171531Y0037535D01*
X0160032Y0037471D01*
X0160032Y0037717D01*
X0159505Y0038244D01*
X0150759Y0038244D01*
X0150232Y0037717D01*
X0150325Y0037809D02*
X0135740Y0037809D01*
X0135305Y0038844D02*
X0135605Y0039144D01*
X0144193Y0039144D01*
X0145306Y0040257D01*
X0147756Y0042707D01*
X0148869Y0043820D01*
X0148869Y0064361D01*
X0150243Y0064361D01*
X0150759Y0063844D01*
X0159505Y0063844D01*
X0160032Y0064371D01*
X0160032Y0067717D01*
X0159505Y0068244D01*
X0150759Y0068244D01*
X0150676Y0068161D01*
X0148869Y0068161D01*
X0148869Y0070000D01*
X0145917Y0072953D01*
X0144804Y0074066D01*
X0128071Y0074066D01*
X0127216Y0074922D01*
X0127216Y0089813D01*
X0127405Y0090002D01*
X0127405Y0091732D01*
X0126181Y0092956D01*
X0124450Y0092956D01*
X0123227Y0091732D01*
X0123227Y0090002D01*
X0123416Y0089813D01*
X0123416Y0073348D01*
X0124529Y0072235D01*
X0125384Y0071379D01*
X0126497Y0070266D01*
X0143230Y0070266D01*
X0145069Y0068426D01*
X0145069Y0067176D01*
X0144979Y0067085D01*
X0144979Y0065436D01*
X0145069Y0065346D01*
X0145069Y0045394D01*
X0142619Y0042944D01*
X0135605Y0042944D01*
X0135305Y0043244D01*
X0126559Y0043244D01*
X0126032Y0042717D01*
X0126032Y0039371D01*
X0126559Y0038844D01*
X0135305Y0038844D01*
X0135467Y0039006D02*
X0150597Y0039006D01*
X0150759Y0038844D02*
X0150232Y0039371D01*
X0150232Y0042717D01*
X0150759Y0043244D01*
X0159505Y0043244D01*
X0160032Y0042717D01*
X0160032Y0042448D01*
X0179608Y0042463D01*
X0180200Y0043054D01*
X0181849Y0043054D01*
X0183015Y0041888D01*
X0183015Y0040239D01*
X0181849Y0039073D01*
X0180200Y0039073D01*
X0179610Y0039663D01*
X0160032Y0039648D01*
X0160032Y0039371D01*
X0159505Y0038844D01*
X0150759Y0038844D01*
X0150232Y0039605D02*
X0144654Y0039605D01*
X0145252Y0040203D02*
X0150232Y0040203D01*
X0150232Y0040802D02*
X0145851Y0040802D01*
X0146449Y0041400D02*
X0150232Y0041400D01*
X0150232Y0041999D02*
X0147048Y0041999D01*
X0147646Y0042597D02*
X0150232Y0042597D01*
X0150711Y0043196D02*
X0148245Y0043196D01*
X0148844Y0043794D02*
X0194912Y0043794D01*
X0193951Y0043196D02*
X0159553Y0043196D01*
X0159505Y0043844D02*
X0160032Y0044371D01*
X0160032Y0044636D01*
X0189646Y0044587D01*
X0190239Y0043994D01*
X0191888Y0043994D01*
X0193054Y0045161D01*
X0193054Y0046810D01*
X0191888Y0047976D01*
X0190239Y0047976D01*
X0189651Y0047387D01*
X0160032Y0047436D01*
X0160032Y0047717D01*
X0159505Y0048244D01*
X0150759Y0048244D01*
X0150232Y0047717D01*
X0150232Y0044371D01*
X0150759Y0043844D01*
X0159505Y0043844D01*
X0160032Y0044393D02*
X0189841Y0044393D01*
X0192287Y0044393D02*
X0195873Y0044393D01*
X0196835Y0044991D02*
X0192885Y0044991D01*
X0193054Y0045590D02*
X0197796Y0045590D01*
X0198757Y0046188D02*
X0193054Y0046188D01*
X0193054Y0046787D02*
X0199718Y0046787D01*
X0200680Y0047385D02*
X0192478Y0047385D01*
X0192990Y0042597D02*
X0182306Y0042597D01*
X0182904Y0041999D02*
X0192028Y0041999D01*
X0191067Y0041400D02*
X0183015Y0041400D01*
X0183015Y0040802D02*
X0190106Y0040802D01*
X0189145Y0040203D02*
X0182979Y0040203D01*
X0182380Y0039605D02*
X0188183Y0039605D01*
X0187222Y0039006D02*
X0159667Y0039006D01*
X0160032Y0039605D02*
X0179668Y0039605D01*
X0179743Y0042597D02*
X0160032Y0042597D01*
X0159940Y0037809D02*
X0171805Y0037809D01*
X0174102Y0037809D02*
X0185300Y0037809D01*
X0186261Y0038408D02*
X0003100Y0038408D01*
X0003100Y0039006D02*
X0126397Y0039006D01*
X0126032Y0039605D02*
X0003100Y0039605D01*
X0003100Y0040203D02*
X0126032Y0040203D01*
X0126032Y0040802D02*
X0003100Y0040802D01*
X0003100Y0041400D02*
X0126032Y0041400D01*
X0126032Y0041999D02*
X0003100Y0041999D01*
X0003100Y0042597D02*
X0126032Y0042597D01*
X0126511Y0043196D02*
X0064660Y0043196D01*
X0065375Y0043794D02*
X0095202Y0043794D01*
X0094940Y0044393D02*
X0065540Y0044393D01*
X0065540Y0044991D02*
X0094940Y0044991D01*
X0094940Y0045590D02*
X0060540Y0045590D01*
X0060540Y0046188D02*
X0059940Y0046188D01*
X0059940Y0046029D02*
X0059940Y0048329D01*
X0056069Y0048329D01*
X0055738Y0048241D01*
X0055442Y0048069D01*
X0055200Y0047827D01*
X0055029Y0047531D01*
X0054940Y0047200D01*
X0054940Y0046029D01*
X0059940Y0046029D01*
X0059940Y0045590D02*
X0003100Y0045590D01*
X0003100Y0046188D02*
X0054940Y0046188D01*
X0054940Y0046787D02*
X0003100Y0046787D01*
X0003100Y0047385D02*
X0054990Y0047385D01*
X0055356Y0047984D02*
X0003100Y0047984D01*
X0003100Y0048582D02*
X0055814Y0048582D01*
X0055340Y0049181D02*
X0003100Y0049181D01*
X0003100Y0049779D02*
X0031077Y0049779D01*
X0030478Y0050378D02*
X0003100Y0050378D01*
X0003100Y0050976D02*
X0029880Y0050976D01*
X0029281Y0051575D02*
X0003100Y0051575D01*
X0003100Y0052173D02*
X0028683Y0052173D01*
X0028084Y0052772D02*
X0003100Y0052772D01*
X0003100Y0053370D02*
X0027486Y0053370D01*
X0026887Y0053969D02*
X0003100Y0053969D01*
X0003100Y0054568D02*
X0026289Y0054568D01*
X0025690Y0055166D02*
X0003100Y0055166D01*
X0003100Y0055765D02*
X0025092Y0055765D01*
X0023189Y0056363D02*
X0003100Y0056363D01*
X0003100Y0056962D02*
X0022096Y0056962D01*
X0021554Y0057560D02*
X0003100Y0057560D01*
X0003100Y0058159D02*
X0021306Y0058159D01*
X0021187Y0058757D02*
X0003100Y0058757D01*
X0003100Y0059356D02*
X0021187Y0059356D01*
X0021372Y0059954D02*
X0003100Y0059954D01*
X0003100Y0060553D02*
X0021656Y0060553D01*
X0022255Y0061151D02*
X0003100Y0061151D01*
X0003100Y0061750D02*
X0038280Y0061750D01*
X0037681Y0062348D02*
X0003100Y0062348D01*
X0003100Y0072523D02*
X0037349Y0072523D01*
X0039513Y0074318D02*
X0046538Y0074318D01*
X0047136Y0073720D02*
X0040112Y0073720D01*
X0040710Y0073121D02*
X0047735Y0073121D01*
X0048333Y0072523D02*
X0041309Y0072523D01*
X0041908Y0071924D02*
X0048932Y0071924D01*
X0049530Y0071326D02*
X0042506Y0071326D01*
X0043105Y0070727D02*
X0050129Y0070727D01*
X0050728Y0070129D02*
X0043703Y0070129D01*
X0044302Y0069530D02*
X0051326Y0069530D01*
X0051925Y0068932D02*
X0044900Y0068932D01*
X0045499Y0068333D02*
X0052523Y0068333D01*
X0053122Y0067735D02*
X0046097Y0067735D01*
X0046696Y0067136D02*
X0053720Y0067136D01*
X0054319Y0066538D02*
X0047294Y0066538D01*
X0047893Y0065939D02*
X0054917Y0065939D01*
X0055340Y0065341D02*
X0048491Y0065341D01*
X0049090Y0064742D02*
X0055340Y0064742D01*
X0055340Y0064144D02*
X0049688Y0064144D01*
X0050287Y0063545D02*
X0055851Y0063545D01*
X0055340Y0062348D02*
X0051484Y0062348D01*
X0050885Y0062947D02*
X0110179Y0062947D01*
X0109581Y0062348D02*
X0104740Y0062348D01*
X0104229Y0063545D02*
X0110778Y0063545D01*
X0111120Y0064144D02*
X0104740Y0064144D01*
X0104740Y0064742D02*
X0111120Y0064742D01*
X0111120Y0065341D02*
X0104740Y0065341D01*
X0104740Y0065939D02*
X0111120Y0065939D01*
X0111120Y0066538D02*
X0104740Y0066538D01*
X0104740Y0067136D02*
X0111120Y0067136D01*
X0113920Y0067136D02*
X0114073Y0067136D01*
X0114073Y0066538D02*
X0113920Y0066538D01*
X0113920Y0065939D02*
X0114073Y0065939D01*
X0114073Y0065341D02*
X0113920Y0065341D01*
X0113920Y0064742D02*
X0114073Y0064742D01*
X0114073Y0064144D02*
X0113920Y0064144D01*
X0113920Y0063545D02*
X0114073Y0063545D01*
X0114073Y0062947D02*
X0113920Y0062947D01*
X0114073Y0062348D02*
X0113541Y0062348D01*
X0114073Y0061750D02*
X0112942Y0061750D01*
X0112344Y0061151D02*
X0114073Y0061151D01*
X0114073Y0060553D02*
X0111745Y0060553D01*
X0111147Y0059954D02*
X0114073Y0059954D01*
X0114073Y0059356D02*
X0110548Y0059356D01*
X0112667Y0057560D02*
X0104582Y0057560D01*
X0104441Y0058757D02*
X0113864Y0058757D01*
X0113265Y0058159D02*
X0045831Y0058159D01*
X0045232Y0058757D02*
X0055639Y0058757D01*
X0055498Y0057560D02*
X0046429Y0057560D01*
X0044634Y0059356D02*
X0050516Y0059356D01*
X0049918Y0059954D02*
X0044035Y0059954D01*
X0043437Y0060553D02*
X0049319Y0060553D01*
X0048721Y0061151D02*
X0042838Y0061151D01*
X0042240Y0061750D02*
X0048122Y0061750D01*
X0047524Y0062348D02*
X0041641Y0062348D01*
X0041043Y0062947D02*
X0046925Y0062947D01*
X0046327Y0063545D02*
X0040444Y0063545D01*
X0039846Y0064144D02*
X0045728Y0064144D01*
X0045130Y0064742D02*
X0039247Y0064742D01*
X0038649Y0065341D02*
X0044531Y0065341D01*
X0043933Y0065939D02*
X0028877Y0065939D01*
X0027735Y0073121D02*
X0003100Y0073121D01*
X0003100Y0086887D02*
X0022171Y0086887D01*
X0021585Y0087486D02*
X0003100Y0087486D01*
X0003100Y0088084D02*
X0021337Y0088084D01*
X0021187Y0088683D02*
X0003100Y0088683D01*
X0003100Y0089281D02*
X0021187Y0089281D01*
X0021341Y0089880D02*
X0003100Y0089880D01*
X0003100Y0090478D02*
X0021589Y0090478D01*
X0022180Y0091077D02*
X0003100Y0091077D01*
X0003100Y0091675D02*
X0054940Y0091675D01*
X0054960Y0092274D02*
X0003100Y0092274D01*
X0003100Y0092872D02*
X0027984Y0092872D01*
X0027386Y0093471D02*
X0003100Y0093471D01*
X0003100Y0094069D02*
X0026787Y0094069D01*
X0026189Y0094668D02*
X0003100Y0094668D01*
X0003100Y0095266D02*
X0025590Y0095266D01*
X0024992Y0095865D02*
X0003100Y0095865D01*
X0003100Y0096463D02*
X0022947Y0096463D01*
X0021996Y0097062D02*
X0003100Y0097062D01*
X0003100Y0097660D02*
X0021513Y0097660D01*
X0021265Y0098259D02*
X0003100Y0098259D01*
X0003100Y0098857D02*
X0021187Y0098857D01*
X0021187Y0099456D02*
X0003100Y0099456D01*
X0003100Y0100054D02*
X0021413Y0100054D01*
X0021756Y0100653D02*
X0003100Y0100653D01*
X0003100Y0101251D02*
X0022368Y0101251D01*
X0025350Y0101251D02*
X0032368Y0101251D01*
X0032346Y0101242D02*
X0031594Y0100491D01*
X0031187Y0099509D01*
X0031187Y0098446D01*
X0031594Y0097464D01*
X0032346Y0096712D01*
X0033328Y0096306D01*
X0034390Y0096306D01*
X0035372Y0096712D01*
X0036124Y0097464D01*
X0036171Y0097577D01*
X0088870Y0097577D01*
X0090294Y0096153D01*
X0090294Y0081980D01*
X0092124Y0080149D01*
X0092945Y0079329D01*
X0094940Y0079329D01*
X0094940Y0079056D01*
X0095467Y0078529D01*
X0104213Y0078529D01*
X0104740Y0079056D01*
X0104740Y0082402D01*
X0104213Y0082929D01*
X0095467Y0082929D01*
X0094940Y0082402D01*
X0094940Y0082129D01*
X0094104Y0082129D01*
X0093094Y0083140D01*
X0093094Y0097313D01*
X0092274Y0098133D01*
X0090030Y0100377D01*
X0036171Y0100377D01*
X0036124Y0100491D01*
X0035372Y0101242D01*
X0034390Y0101649D01*
X0033328Y0101649D01*
X0032346Y0101242D01*
X0031756Y0100653D02*
X0025962Y0100653D01*
X0026305Y0100054D02*
X0031413Y0100054D01*
X0031187Y0099456D02*
X0026531Y0099456D01*
X0026531Y0098857D02*
X0031187Y0098857D01*
X0031265Y0098259D02*
X0026557Y0098259D01*
X0027156Y0097660D02*
X0031513Y0097660D01*
X0031996Y0097062D02*
X0027754Y0097062D01*
X0028353Y0096463D02*
X0032947Y0096463D01*
X0034771Y0096463D02*
X0089984Y0096463D01*
X0090294Y0095865D02*
X0028951Y0095865D01*
X0035722Y0097062D02*
X0089385Y0097062D01*
X0090294Y0095266D02*
X0087581Y0095266D01*
X0088180Y0094668D02*
X0090294Y0094668D01*
X0090294Y0094069D02*
X0088778Y0094069D01*
X0089377Y0093471D02*
X0090294Y0093471D01*
X0090294Y0092872D02*
X0089975Y0092872D01*
X0090259Y0092274D02*
X0090294Y0092274D01*
X0090294Y0091675D02*
X0090259Y0091675D01*
X0090259Y0091077D02*
X0090294Y0091077D01*
X0090294Y0090478D02*
X0090259Y0090478D01*
X0090259Y0089880D02*
X0090294Y0089880D01*
X0090294Y0089281D02*
X0090259Y0089281D01*
X0090259Y0088683D02*
X0090294Y0088683D01*
X0090294Y0088084D02*
X0090259Y0088084D01*
X0090259Y0087486D02*
X0090294Y0087486D01*
X0090294Y0086887D02*
X0090259Y0086887D01*
X0090259Y0086289D02*
X0090294Y0086289D01*
X0090294Y0085690D02*
X0090259Y0085690D01*
X0090259Y0085092D02*
X0090294Y0085092D01*
X0090294Y0084493D02*
X0090259Y0084493D01*
X0090259Y0083895D02*
X0090294Y0083895D01*
X0090294Y0083296D02*
X0090259Y0083296D01*
X0090259Y0082698D02*
X0090294Y0082698D01*
X0090294Y0082099D02*
X0090259Y0082099D01*
X0090259Y0081501D02*
X0090773Y0081501D01*
X0090259Y0080902D02*
X0091372Y0080902D01*
X0091970Y0080303D02*
X0090259Y0080303D01*
X0090259Y0079705D02*
X0092569Y0079705D01*
X0090259Y0079106D02*
X0094940Y0079106D01*
X0095448Y0077909D02*
X0090686Y0077909D01*
X0090259Y0078508D02*
X0111120Y0078508D01*
X0111120Y0079106D02*
X0104740Y0079106D01*
X0104740Y0079705D02*
X0111120Y0079705D01*
X0111120Y0080303D02*
X0104740Y0080303D01*
X0104740Y0080902D02*
X0111120Y0080902D01*
X0111120Y0081501D02*
X0104740Y0081501D01*
X0104740Y0082099D02*
X0111120Y0082099D01*
X0111120Y0082698D02*
X0104445Y0082698D01*
X0104213Y0083529D02*
X0104552Y0083868D01*
X0106237Y0083705D01*
X0106972Y0082971D01*
X0108621Y0082971D01*
X0109787Y0084137D01*
X0109787Y0085786D01*
X0108621Y0086952D01*
X0106972Y0086952D01*
X0106511Y0086492D01*
X0104740Y0086663D01*
X0104740Y0087402D01*
X0104213Y0087929D01*
X0095467Y0087929D01*
X0094940Y0087402D01*
X0094940Y0084056D01*
X0095467Y0083529D01*
X0104213Y0083529D01*
X0106646Y0083296D02*
X0093094Y0083296D01*
X0093094Y0083895D02*
X0095102Y0083895D01*
X0094940Y0084493D02*
X0093094Y0084493D01*
X0093094Y0085092D02*
X0094940Y0085092D01*
X0094940Y0085690D02*
X0093094Y0085690D01*
X0093094Y0086289D02*
X0094940Y0086289D01*
X0094940Y0086887D02*
X0093094Y0086887D01*
X0093094Y0087486D02*
X0095024Y0087486D01*
X0095467Y0088529D02*
X0094940Y0089056D01*
X0094940Y0092402D01*
X0095467Y0092929D01*
X0097825Y0092929D01*
X0097825Y0093889D01*
X0097735Y0093979D01*
X0097735Y0095628D01*
X0098901Y0096794D01*
X0100550Y0096794D01*
X0101716Y0095628D01*
X0101716Y0093979D01*
X0101625Y0093889D01*
X0101625Y0092929D01*
X0104213Y0092929D01*
X0104740Y0092402D01*
X0104740Y0089056D01*
X0104213Y0088529D01*
X0095467Y0088529D01*
X0095314Y0088683D02*
X0093094Y0088683D01*
X0093094Y0089281D02*
X0094940Y0089281D01*
X0094940Y0089880D02*
X0093094Y0089880D01*
X0093094Y0090478D02*
X0094940Y0090478D01*
X0094940Y0091077D02*
X0093094Y0091077D01*
X0093094Y0091675D02*
X0094940Y0091675D01*
X0094940Y0092274D02*
X0093094Y0092274D01*
X0093094Y0092872D02*
X0095410Y0092872D01*
X0093094Y0093471D02*
X0097825Y0093471D01*
X0097735Y0094069D02*
X0093094Y0094069D01*
X0093094Y0094668D02*
X0097735Y0094668D01*
X0097735Y0095266D02*
X0093094Y0095266D01*
X0093094Y0095865D02*
X0097971Y0095865D01*
X0098570Y0096463D02*
X0093094Y0096463D01*
X0093094Y0097062D02*
X0111120Y0097062D01*
X0111120Y0097660D02*
X0092746Y0097660D01*
X0092148Y0098259D02*
X0111120Y0098259D01*
X0111120Y0098857D02*
X0091549Y0098857D01*
X0090951Y0099456D02*
X0111120Y0099456D01*
X0111120Y0100054D02*
X0090352Y0100054D01*
X0086614Y0092274D02*
X0065520Y0092274D01*
X0065540Y0091675D02*
X0087213Y0091675D01*
X0087459Y0091077D02*
X0065540Y0091077D01*
X0065540Y0089880D02*
X0087459Y0089880D01*
X0087459Y0090478D02*
X0060540Y0090478D01*
X0060540Y0089880D02*
X0059940Y0089880D01*
X0059940Y0090478D02*
X0036129Y0090478D01*
X0037330Y0087486D02*
X0055424Y0087486D01*
X0055340Y0086887D02*
X0037929Y0086887D01*
X0038527Y0086289D02*
X0055340Y0086289D01*
X0055340Y0085690D02*
X0039126Y0085690D01*
X0039725Y0085092D02*
X0055340Y0085092D01*
X0055340Y0084493D02*
X0040323Y0084493D01*
X0040922Y0083895D02*
X0055502Y0083895D01*
X0055636Y0082698D02*
X0042119Y0082698D01*
X0041520Y0083296D02*
X0087459Y0083296D01*
X0093536Y0082698D02*
X0095236Y0082698D01*
X0094940Y0077311D02*
X0091285Y0077311D01*
X0093094Y0088084D02*
X0111120Y0088084D01*
X0111120Y0087486D02*
X0104656Y0087486D01*
X0104740Y0086887D02*
X0106907Y0086887D01*
X0108685Y0086887D02*
X0111120Y0086887D01*
X0111120Y0086289D02*
X0109284Y0086289D01*
X0109787Y0085690D02*
X0111120Y0085690D01*
X0111120Y0085092D02*
X0109787Y0085092D01*
X0109787Y0084493D02*
X0111120Y0084493D01*
X0111120Y0083895D02*
X0109544Y0083895D01*
X0108946Y0083296D02*
X0111120Y0083296D01*
X0113920Y0083296D02*
X0114073Y0083296D01*
X0114073Y0082698D02*
X0113920Y0082698D01*
X0113920Y0082099D02*
X0114073Y0082099D01*
X0114073Y0081501D02*
X0113920Y0081501D01*
X0113920Y0080902D02*
X0114073Y0080902D01*
X0114073Y0080303D02*
X0113920Y0080303D01*
X0113920Y0079705D02*
X0114073Y0079705D01*
X0114073Y0079106D02*
X0113920Y0079106D01*
X0113920Y0078508D02*
X0114073Y0078508D01*
X0114073Y0077909D02*
X0113920Y0077909D01*
X0113920Y0077311D02*
X0114073Y0077311D01*
X0114073Y0076712D02*
X0113920Y0076712D01*
X0113920Y0076114D02*
X0114073Y0076114D01*
X0114073Y0075515D02*
X0113920Y0075515D01*
X0113920Y0074917D02*
X0114073Y0074917D01*
X0114073Y0074318D02*
X0113920Y0074318D01*
X0113920Y0073720D02*
X0114073Y0073720D01*
X0114073Y0073121D02*
X0113920Y0073121D01*
X0113920Y0072523D02*
X0114073Y0072523D01*
X0114073Y0071924D02*
X0113920Y0071924D01*
X0113920Y0071326D02*
X0114073Y0071326D01*
X0114073Y0070727D02*
X0113920Y0070727D01*
X0113920Y0070129D02*
X0114073Y0070129D01*
X0114073Y0069530D02*
X0113920Y0069530D01*
X0113920Y0068932D02*
X0114073Y0068932D01*
X0114073Y0068333D02*
X0113920Y0068333D01*
X0113920Y0067735D02*
X0114073Y0067735D01*
X0111120Y0073720D02*
X0104404Y0073720D01*
X0104740Y0074318D02*
X0111120Y0074318D01*
X0111120Y0074917D02*
X0104740Y0074917D01*
X0104740Y0075515D02*
X0111120Y0075515D01*
X0111120Y0076114D02*
X0104740Y0076114D01*
X0104740Y0076712D02*
X0111120Y0076712D01*
X0111120Y0077311D02*
X0104740Y0077311D01*
X0104233Y0077909D02*
X0111120Y0077909D01*
X0113920Y0083895D02*
X0114073Y0083895D01*
X0114073Y0084493D02*
X0113920Y0084493D01*
X0113920Y0085092D02*
X0114073Y0085092D01*
X0114073Y0085690D02*
X0113920Y0085690D01*
X0113920Y0086289D02*
X0114073Y0086289D01*
X0114073Y0086887D02*
X0113920Y0086887D01*
X0113920Y0087486D02*
X0114073Y0087486D01*
X0114073Y0088084D02*
X0113920Y0088084D01*
X0113920Y0088683D02*
X0114073Y0088683D01*
X0114073Y0089281D02*
X0113920Y0089281D01*
X0113920Y0089880D02*
X0114073Y0089880D01*
X0114073Y0090478D02*
X0113920Y0090478D01*
X0113920Y0091077D02*
X0114073Y0091077D01*
X0114073Y0091675D02*
X0113920Y0091675D01*
X0113920Y0092274D02*
X0114073Y0092274D01*
X0114073Y0092872D02*
X0113920Y0092872D01*
X0113920Y0093471D02*
X0114073Y0093471D01*
X0114073Y0094069D02*
X0113920Y0094069D01*
X0113920Y0094668D02*
X0114073Y0094668D01*
X0114073Y0095266D02*
X0113920Y0095266D01*
X0113920Y0095865D02*
X0114073Y0095865D01*
X0114073Y0096463D02*
X0113920Y0096463D01*
X0113920Y0097062D02*
X0114073Y0097062D01*
X0114073Y0097660D02*
X0113920Y0097660D01*
X0113920Y0098259D02*
X0114073Y0098259D01*
X0114073Y0098857D02*
X0113920Y0098857D01*
X0113920Y0099456D02*
X0114073Y0099456D01*
X0114073Y0100054D02*
X0113920Y0100054D01*
X0113920Y0100653D02*
X0114073Y0100653D01*
X0114073Y0101251D02*
X0113920Y0101251D01*
X0113920Y0101850D02*
X0114073Y0101850D01*
X0114073Y0102448D02*
X0113920Y0102448D01*
X0113920Y0103047D02*
X0114073Y0103047D01*
X0114073Y0103645D02*
X0113920Y0103645D01*
X0113920Y0104244D02*
X0114073Y0104244D01*
X0114073Y0104842D02*
X0113920Y0104842D01*
X0113920Y0105441D02*
X0114073Y0105441D01*
X0114073Y0106039D02*
X0113920Y0106039D01*
X0113920Y0106638D02*
X0114073Y0106638D01*
X0114073Y0107237D02*
X0113920Y0107237D01*
X0113920Y0107835D02*
X0114073Y0107835D01*
X0114073Y0108434D02*
X0113920Y0108434D01*
X0113920Y0109032D02*
X0114073Y0109032D01*
X0114073Y0109631D02*
X0113920Y0109631D01*
X0113920Y0110229D02*
X0114073Y0110229D01*
X0114073Y0110828D02*
X0113920Y0110828D01*
X0113920Y0111426D02*
X0114073Y0111426D01*
X0114073Y0112025D02*
X0113920Y0112025D01*
X0113920Y0112623D02*
X0114073Y0112623D01*
X0114073Y0113222D02*
X0113920Y0113222D01*
X0113920Y0113820D02*
X0114073Y0113820D01*
X0114073Y0114419D02*
X0113920Y0114419D01*
X0113920Y0115017D02*
X0114073Y0115017D01*
X0114073Y0115616D02*
X0113920Y0115616D01*
X0113920Y0116214D02*
X0114073Y0116214D01*
X0114073Y0116813D02*
X0113920Y0116813D01*
X0113920Y0117411D02*
X0114073Y0117411D01*
X0114073Y0118010D02*
X0113920Y0118010D01*
X0113920Y0118608D02*
X0114073Y0118608D01*
X0114073Y0119207D02*
X0113920Y0119207D01*
X0113920Y0119805D02*
X0114073Y0119805D01*
X0114073Y0120404D02*
X0113920Y0120404D01*
X0113920Y0121002D02*
X0114073Y0121002D01*
X0114073Y0121601D02*
X0113920Y0121601D01*
X0113920Y0122199D02*
X0114073Y0122199D01*
X0114073Y0122798D02*
X0113920Y0122798D01*
X0113920Y0123396D02*
X0114073Y0123396D01*
X0114073Y0123995D02*
X0113920Y0123995D01*
X0113920Y0124593D02*
X0114073Y0124593D01*
X0114073Y0125192D02*
X0113920Y0125192D01*
X0113920Y0125790D02*
X0114073Y0125790D01*
X0114073Y0126389D02*
X0113920Y0126389D01*
X0113920Y0126987D02*
X0114073Y0126987D01*
X0114073Y0127586D02*
X0113920Y0127586D01*
X0113920Y0128184D02*
X0114073Y0128184D01*
X0114073Y0128783D02*
X0113920Y0128783D01*
X0113920Y0129381D02*
X0114073Y0129381D01*
X0114073Y0129980D02*
X0113920Y0129980D01*
X0113920Y0130578D02*
X0114073Y0130578D01*
X0114073Y0131177D02*
X0113920Y0131177D01*
X0113920Y0131775D02*
X0114073Y0131775D01*
X0114073Y0132374D02*
X0113982Y0132374D01*
X0114073Y0132972D02*
X0113733Y0132972D01*
X0114073Y0133571D02*
X0113293Y0133571D01*
X0112894Y0134170D02*
X0114073Y0134170D01*
X0114073Y0134768D02*
X0112495Y0134768D01*
X0112096Y0135367D02*
X0114073Y0135367D01*
X0114073Y0135965D02*
X0111725Y0135965D01*
X0110664Y0136564D02*
X0114073Y0136564D01*
X0114073Y0137162D02*
X0097733Y0137162D01*
X0098331Y0136564D02*
X0110136Y0136564D01*
X0114073Y0137761D02*
X0097134Y0137761D01*
X0096536Y0138359D02*
X0114073Y0138359D01*
X0114073Y0138958D02*
X0096213Y0138958D01*
X0096219Y0139556D02*
X0114073Y0139556D01*
X0114073Y0140155D02*
X0096226Y0140155D01*
X0096232Y0140753D02*
X0114073Y0140753D01*
X0114073Y0141352D02*
X0096238Y0141352D01*
X0096244Y0141950D02*
X0114073Y0141950D01*
X0113704Y0142549D02*
X0106062Y0142549D01*
X0105532Y0142329D02*
X0106731Y0142826D01*
X0107648Y0143743D01*
X0108145Y0144942D01*
X0108145Y0146240D01*
X0107648Y0147439D01*
X0106731Y0148357D01*
X0105532Y0148854D01*
X0104234Y0148854D01*
X0103035Y0148357D01*
X0102117Y0147439D01*
X0101620Y0146240D01*
X0101620Y0144942D01*
X0102117Y0143743D01*
X0103035Y0142826D01*
X0104234Y0142329D01*
X0105532Y0142329D01*
X0107052Y0143147D02*
X0112713Y0143147D01*
X0112116Y0143746D02*
X0107649Y0143746D01*
X0107897Y0144344D02*
X0111868Y0144344D01*
X0111620Y0144943D02*
X0108145Y0144943D01*
X0108145Y0145541D02*
X0111620Y0145541D01*
X0111620Y0146140D02*
X0108145Y0146140D01*
X0107939Y0146738D02*
X0111827Y0146738D01*
X0112075Y0147337D02*
X0107691Y0147337D01*
X0107152Y0147935D02*
X0112613Y0147935D01*
X0113462Y0148534D02*
X0106304Y0148534D01*
X0103462Y0148534D02*
X0096304Y0148534D01*
X0097152Y0147935D02*
X0102613Y0147935D01*
X0102075Y0147337D02*
X0097691Y0147337D01*
X0097939Y0146738D02*
X0101827Y0146738D01*
X0101620Y0146140D02*
X0098145Y0146140D01*
X0098145Y0145541D02*
X0101620Y0145541D01*
X0101620Y0144943D02*
X0098145Y0144943D01*
X0097897Y0144344D02*
X0101868Y0144344D01*
X0102116Y0143746D02*
X0097649Y0143746D01*
X0097052Y0143147D02*
X0102713Y0143147D01*
X0103704Y0142549D02*
X0096251Y0142549D01*
X0082199Y0150928D02*
X0152212Y0150928D01*
X0152810Y0150329D02*
X0081601Y0150329D01*
X0081002Y0149731D02*
X0153409Y0149731D01*
X0154007Y0149132D02*
X0127803Y0149132D01*
X0128411Y0148534D02*
X0138108Y0148534D01*
X0137259Y0147935D02*
X0128545Y0147935D01*
X0128545Y0147337D02*
X0136720Y0147337D01*
X0136472Y0146738D02*
X0128545Y0146738D01*
X0128545Y0146140D02*
X0136266Y0146140D01*
X0140949Y0148534D02*
X0148108Y0148534D01*
X0147680Y0148357D02*
X0148879Y0148854D01*
X0150177Y0148854D01*
X0151376Y0148357D01*
X0152294Y0147439D01*
X0152791Y0146240D01*
X0152791Y0144942D01*
X0152294Y0143743D01*
X0151376Y0142826D01*
X0150177Y0142329D01*
X0148879Y0142329D01*
X0147680Y0142826D01*
X0146763Y0143743D01*
X0146266Y0144942D01*
X0146266Y0146240D01*
X0146763Y0147439D01*
X0147680Y0148357D01*
X0147259Y0147935D02*
X0141798Y0147935D01*
X0142336Y0147337D02*
X0146720Y0147337D01*
X0146472Y0146738D02*
X0142584Y0146738D01*
X0142791Y0146140D02*
X0146266Y0146140D01*
X0146266Y0145541D02*
X0142791Y0145541D01*
X0142791Y0144943D02*
X0146266Y0144943D01*
X0146514Y0144344D02*
X0142543Y0144344D01*
X0142295Y0143746D02*
X0146762Y0143746D01*
X0147359Y0143147D02*
X0141698Y0143147D01*
X0140707Y0142549D02*
X0148349Y0142549D01*
X0150707Y0142549D02*
X0158128Y0142549D01*
X0157359Y0143147D02*
X0151698Y0143147D01*
X0152295Y0143746D02*
X0156762Y0143746D01*
X0156514Y0144344D02*
X0152543Y0144344D01*
X0152791Y0144943D02*
X0156266Y0144943D01*
X0156266Y0145541D02*
X0152791Y0145541D01*
X0152791Y0146140D02*
X0156266Y0146140D01*
X0156402Y0146738D02*
X0152584Y0146738D01*
X0152336Y0147337D02*
X0155803Y0147337D01*
X0155205Y0147935D02*
X0151798Y0147935D01*
X0150949Y0148534D02*
X0154606Y0148534D01*
X0156770Y0150329D02*
X0219972Y0150329D01*
X0219972Y0149731D02*
X0157369Y0149731D01*
X0157967Y0149132D02*
X0188558Y0149132D01*
X0188460Y0149113D02*
X0187794Y0148837D01*
X0187194Y0148436D01*
X0186684Y0147926D01*
X0186283Y0147326D01*
X0186007Y0146660D01*
X0185866Y0145952D01*
X0185866Y0145891D01*
X0189228Y0145891D01*
X0189228Y0145291D01*
X0185866Y0145291D01*
X0185866Y0145231D01*
X0186007Y0144523D01*
X0186283Y0143857D01*
X0186684Y0143257D01*
X0187194Y0142747D01*
X0187794Y0142346D01*
X0188460Y0142070D01*
X0189168Y0141929D01*
X0189228Y0141929D01*
X0189228Y0145291D01*
X0189828Y0145291D01*
X0189828Y0141929D01*
X0189889Y0141929D01*
X0190597Y0142070D01*
X0191263Y0142346D01*
X0191863Y0142747D01*
X0192373Y0143257D01*
X0192774Y0143857D01*
X0193050Y0144523D01*
X0193191Y0145231D01*
X0193191Y0145291D01*
X0189828Y0145291D01*
X0189828Y0145891D01*
X0189228Y0145891D01*
X0189228Y0149254D01*
X0189168Y0149254D01*
X0188460Y0149113D01*
X0189228Y0149132D02*
X0189828Y0149132D01*
X0189828Y0149254D02*
X0189828Y0145891D01*
X0193191Y0145891D01*
X0193191Y0145952D01*
X0193050Y0146660D01*
X0192774Y0147326D01*
X0192373Y0147926D01*
X0191863Y0148436D01*
X0191263Y0148837D01*
X0190597Y0149113D01*
X0189889Y0149254D01*
X0189828Y0149254D01*
X0190499Y0149132D02*
X0198558Y0149132D01*
X0198460Y0149113D02*
X0197794Y0148837D01*
X0197194Y0148436D01*
X0196684Y0147926D01*
X0196283Y0147326D01*
X0196007Y0146660D01*
X0195866Y0145952D01*
X0195866Y0145891D01*
X0199228Y0145891D01*
X0199228Y0145291D01*
X0195866Y0145291D01*
X0195866Y0145231D01*
X0196007Y0144523D01*
X0196283Y0143857D01*
X0196684Y0143257D01*
X0197194Y0142747D01*
X0197794Y0142346D01*
X0198460Y0142070D01*
X0199168Y0141929D01*
X0199228Y0141929D01*
X0199228Y0145291D01*
X0199828Y0145291D01*
X0199828Y0141929D01*
X0199889Y0141929D01*
X0200597Y0142070D01*
X0201263Y0142346D01*
X0201863Y0142747D01*
X0202373Y0143257D01*
X0202774Y0143857D01*
X0203050Y0144523D01*
X0203191Y0145231D01*
X0203191Y0145291D01*
X0199828Y0145291D01*
X0199828Y0145891D01*
X0199228Y0145891D01*
X0199228Y0149254D01*
X0199168Y0149254D01*
X0198460Y0149113D01*
X0199228Y0149132D02*
X0199828Y0149132D01*
X0199828Y0149254D02*
X0199828Y0145891D01*
X0203191Y0145891D01*
X0203191Y0145952D01*
X0203050Y0146660D01*
X0202774Y0147326D01*
X0202373Y0147926D01*
X0201863Y0148436D01*
X0201263Y0148837D01*
X0200597Y0149113D01*
X0199889Y0149254D01*
X0199828Y0149254D01*
X0200499Y0149132D02*
X0206608Y0149132D01*
X0206664Y0149165D02*
X0206368Y0148994D01*
X0206126Y0148752D01*
X0205955Y0148455D01*
X0205866Y0148125D01*
X0205866Y0145891D01*
X0209228Y0145891D01*
X0209228Y0145291D01*
X0209828Y0145291D01*
X0209828Y0141929D01*
X0212062Y0141929D01*
X0212392Y0142018D01*
X0212689Y0142189D01*
X0212931Y0142431D01*
X0213102Y0142727D01*
X0213191Y0143058D01*
X0213191Y0145291D01*
X0209828Y0145291D01*
X0209828Y0145891D01*
X0209228Y0145891D01*
X0209228Y0149254D01*
X0206995Y0149254D01*
X0206664Y0149165D01*
X0206000Y0148534D02*
X0201716Y0148534D01*
X0202364Y0147935D02*
X0205866Y0147935D01*
X0205866Y0147337D02*
X0202767Y0147337D01*
X0203017Y0146738D02*
X0205866Y0146738D01*
X0205866Y0146140D02*
X0203153Y0146140D01*
X0203133Y0144943D02*
X0205866Y0144943D01*
X0205866Y0145291D02*
X0205866Y0143058D01*
X0205955Y0142727D01*
X0206126Y0142431D01*
X0206368Y0142189D01*
X0206664Y0142018D01*
X0206995Y0141929D01*
X0209228Y0141929D01*
X0209228Y0145291D01*
X0205866Y0145291D01*
X0205866Y0144344D02*
X0202976Y0144344D01*
X0202700Y0143746D02*
X0205866Y0143746D01*
X0205866Y0143147D02*
X0202263Y0143147D01*
X0201566Y0142549D02*
X0206058Y0142549D01*
X0206917Y0141950D02*
X0199995Y0141950D01*
X0199828Y0141950D02*
X0199228Y0141950D01*
X0199062Y0141950D02*
X0189995Y0141950D01*
X0189828Y0141950D02*
X0189228Y0141950D01*
X0189062Y0141950D02*
X0170928Y0141950D01*
X0170928Y0141352D02*
X0219972Y0141352D01*
X0219972Y0141950D02*
X0212140Y0141950D01*
X0212999Y0142549D02*
X0219972Y0142549D01*
X0219972Y0143147D02*
X0213191Y0143147D01*
X0213191Y0143746D02*
X0219972Y0143746D01*
X0219972Y0144344D02*
X0213191Y0144344D01*
X0213191Y0144943D02*
X0219972Y0144943D01*
X0219972Y0145541D02*
X0209828Y0145541D01*
X0209828Y0145891D02*
X0213191Y0145891D01*
X0213191Y0148125D01*
X0213102Y0148455D01*
X0212931Y0148752D01*
X0212689Y0148994D01*
X0212392Y0149165D01*
X0212062Y0149254D01*
X0209828Y0149254D01*
X0209828Y0145891D01*
X0209828Y0146140D02*
X0209228Y0146140D01*
X0209228Y0146738D02*
X0209828Y0146738D01*
X0209828Y0147337D02*
X0209228Y0147337D01*
X0209228Y0147935D02*
X0209828Y0147935D01*
X0209828Y0148534D02*
X0209228Y0148534D01*
X0209228Y0149132D02*
X0209828Y0149132D01*
X0212449Y0149132D02*
X0219972Y0149132D01*
X0219972Y0148534D02*
X0213057Y0148534D01*
X0213191Y0147935D02*
X0219972Y0147935D01*
X0219972Y0147337D02*
X0213191Y0147337D01*
X0213191Y0146738D02*
X0219972Y0146738D01*
X0219972Y0146140D02*
X0213191Y0146140D01*
X0209828Y0144943D02*
X0209228Y0144943D01*
X0209228Y0145541D02*
X0199828Y0145541D01*
X0199828Y0144943D02*
X0199228Y0144943D01*
X0199228Y0145541D02*
X0189828Y0145541D01*
X0189828Y0144943D02*
X0189228Y0144943D01*
X0189228Y0145541D02*
X0182791Y0145541D01*
X0182791Y0144943D02*
X0185923Y0144943D01*
X0186081Y0144344D02*
X0182543Y0144344D01*
X0182791Y0144942D02*
X0182294Y0143743D01*
X0181376Y0142826D01*
X0180177Y0142329D01*
X0178879Y0142329D01*
X0177680Y0142826D01*
X0176763Y0143743D01*
X0176266Y0144942D01*
X0176266Y0146240D01*
X0176763Y0147439D01*
X0177680Y0148357D01*
X0178879Y0148854D01*
X0180177Y0148854D01*
X0181376Y0148357D01*
X0182294Y0147439D01*
X0182791Y0146240D01*
X0182791Y0144942D01*
X0182791Y0146140D02*
X0185903Y0146140D01*
X0186039Y0146738D02*
X0182584Y0146738D01*
X0182336Y0147337D02*
X0186290Y0147337D01*
X0186693Y0147935D02*
X0181798Y0147935D01*
X0180949Y0148534D02*
X0187340Y0148534D01*
X0189228Y0148534D02*
X0189828Y0148534D01*
X0189828Y0147935D02*
X0189228Y0147935D01*
X0189228Y0147337D02*
X0189828Y0147337D01*
X0189828Y0146738D02*
X0189228Y0146738D01*
X0189228Y0146140D02*
X0189828Y0146140D01*
X0189828Y0144344D02*
X0189228Y0144344D01*
X0189228Y0143746D02*
X0189828Y0143746D01*
X0189828Y0143147D02*
X0189228Y0143147D01*
X0189228Y0142549D02*
X0189828Y0142549D01*
X0191566Y0142549D02*
X0197490Y0142549D01*
X0196793Y0143147D02*
X0192263Y0143147D01*
X0192700Y0143746D02*
X0196357Y0143746D01*
X0196081Y0144344D02*
X0192976Y0144344D01*
X0193133Y0144943D02*
X0195923Y0144943D01*
X0195903Y0146140D02*
X0193153Y0146140D01*
X0193017Y0146738D02*
X0196039Y0146738D01*
X0196290Y0147337D02*
X0192767Y0147337D01*
X0192364Y0147935D02*
X0196693Y0147935D01*
X0197340Y0148534D02*
X0191716Y0148534D01*
X0186357Y0143746D02*
X0182295Y0143746D01*
X0181698Y0143147D02*
X0186793Y0143147D01*
X0187490Y0142549D02*
X0180707Y0142549D01*
X0178349Y0142549D02*
X0170928Y0142549D01*
X0171698Y0143147D02*
X0177359Y0143147D01*
X0176762Y0143746D02*
X0172295Y0143746D01*
X0172543Y0144344D02*
X0176514Y0144344D01*
X0176266Y0144943D02*
X0172791Y0144943D01*
X0172791Y0145541D02*
X0176266Y0145541D01*
X0176266Y0146140D02*
X0172791Y0146140D01*
X0172584Y0146738D02*
X0176472Y0146738D01*
X0176720Y0147337D02*
X0172336Y0147337D01*
X0171798Y0147935D02*
X0177259Y0147935D01*
X0178108Y0148534D02*
X0170949Y0148534D01*
X0168108Y0148534D02*
X0160949Y0148534D01*
X0161798Y0147935D02*
X0167259Y0147935D01*
X0166720Y0147337D02*
X0162336Y0147337D01*
X0162584Y0146738D02*
X0166472Y0146738D01*
X0166266Y0146140D02*
X0162791Y0146140D01*
X0162791Y0145541D02*
X0166266Y0145541D01*
X0166266Y0144943D02*
X0162791Y0144943D01*
X0162543Y0144344D02*
X0166514Y0144344D01*
X0166762Y0143746D02*
X0162295Y0143746D01*
X0161698Y0143147D02*
X0167359Y0143147D01*
X0168128Y0142549D02*
X0160928Y0142549D01*
X0160928Y0141950D02*
X0168128Y0141950D01*
X0168128Y0141352D02*
X0160928Y0141352D01*
X0160928Y0140753D02*
X0168128Y0140753D01*
X0168128Y0140155D02*
X0160928Y0140155D01*
X0160928Y0139556D02*
X0168128Y0139556D01*
X0168128Y0138958D02*
X0160928Y0138958D01*
X0160928Y0138359D02*
X0168128Y0138359D01*
X0168128Y0137761D02*
X0160928Y0137761D01*
X0160796Y0137162D02*
X0168128Y0137162D01*
X0168128Y0136564D02*
X0160197Y0136564D01*
X0159598Y0135965D02*
X0168128Y0135965D01*
X0167835Y0135367D02*
X0159000Y0135367D01*
X0158401Y0134768D02*
X0167237Y0134768D01*
X0166638Y0134170D02*
X0157803Y0134170D01*
X0167606Y0131177D02*
X0219972Y0131177D01*
X0219972Y0131775D02*
X0168204Y0131775D01*
X0168803Y0132374D02*
X0219972Y0132374D01*
X0219972Y0132972D02*
X0169401Y0132972D01*
X0170000Y0133571D02*
X0219972Y0133571D01*
X0219972Y0134170D02*
X0170598Y0134170D01*
X0170928Y0134768D02*
X0219972Y0134768D01*
X0219972Y0135367D02*
X0170928Y0135367D01*
X0170928Y0135965D02*
X0219972Y0135965D01*
X0219972Y0136564D02*
X0170928Y0136564D01*
X0170928Y0137162D02*
X0219972Y0137162D01*
X0219972Y0137761D02*
X0170928Y0137761D01*
X0170928Y0138359D02*
X0219972Y0138359D01*
X0219972Y0138958D02*
X0170928Y0138958D01*
X0170928Y0139556D02*
X0219972Y0139556D01*
X0219972Y0140155D02*
X0170928Y0140155D01*
X0170928Y0140753D02*
X0219972Y0140753D01*
X0219972Y0150928D02*
X0156172Y0150928D01*
X0155573Y0151526D02*
X0219972Y0151526D01*
X0219972Y0152125D02*
X0154975Y0152125D01*
X0154376Y0152723D02*
X0219972Y0152723D01*
X0219972Y0153322D02*
X0153778Y0153322D01*
X0153179Y0153920D02*
X0219972Y0153920D01*
X0209828Y0144344D02*
X0209228Y0144344D01*
X0209228Y0143746D02*
X0209828Y0143746D01*
X0209828Y0143147D02*
X0209228Y0143147D01*
X0209228Y0142549D02*
X0209828Y0142549D01*
X0209828Y0141950D02*
X0209228Y0141950D01*
X0199828Y0142549D02*
X0199228Y0142549D01*
X0199228Y0143147D02*
X0199828Y0143147D01*
X0199828Y0143746D02*
X0199228Y0143746D01*
X0199228Y0144344D02*
X0199828Y0144344D01*
X0199828Y0146140D02*
X0199228Y0146140D01*
X0199228Y0146738D02*
X0199828Y0146738D01*
X0199828Y0147337D02*
X0199228Y0147337D01*
X0199228Y0147935D02*
X0199828Y0147935D01*
X0199828Y0148534D02*
X0199228Y0148534D01*
X0174872Y0116813D02*
X0122779Y0116813D01*
X0122779Y0116214D02*
X0174100Y0116214D01*
X0173202Y0115616D02*
X0122779Y0115616D01*
X0122779Y0115017D02*
X0172305Y0115017D01*
X0171407Y0114419D02*
X0122779Y0114419D01*
X0122779Y0113820D02*
X0171160Y0113820D01*
X0171076Y0113222D02*
X0122779Y0113222D01*
X0122779Y0112623D02*
X0171160Y0112623D01*
X0171160Y0112025D02*
X0122779Y0112025D01*
X0122779Y0111426D02*
X0171160Y0111426D01*
X0171160Y0110828D02*
X0122779Y0110828D01*
X0122779Y0110229D02*
X0171160Y0110229D01*
X0171134Y0109631D02*
X0122779Y0109631D01*
X0122779Y0109032D02*
X0171160Y0109032D01*
X0171714Y0108434D02*
X0122779Y0108434D01*
X0122779Y0107835D02*
X0172551Y0107835D01*
X0172743Y0107237D02*
X0122779Y0107237D01*
X0122779Y0106638D02*
X0172743Y0106638D01*
X0172769Y0106039D02*
X0122779Y0106039D01*
X0122779Y0105441D02*
X0173017Y0105441D01*
X0173265Y0104842D02*
X0122779Y0104842D01*
X0122779Y0104244D02*
X0173837Y0104244D01*
X0174094Y0103283D02*
X0172679Y0103283D01*
X0171371Y0102741D01*
X0170371Y0101740D01*
X0169829Y0100433D01*
X0169829Y0099018D01*
X0170371Y0097710D01*
X0171371Y0096709D01*
X0172679Y0096168D01*
X0174094Y0096168D01*
X0175402Y0096709D01*
X0176402Y0097710D01*
X0176944Y0099018D01*
X0176944Y0100433D01*
X0176402Y0101740D01*
X0175402Y0102741D01*
X0174094Y0103283D01*
X0174663Y0103047D02*
X0192110Y0103047D01*
X0192125Y0103645D02*
X0212498Y0103645D01*
X0212498Y0103047D02*
X0194663Y0103047D01*
X0194094Y0103283D02*
X0192679Y0103283D01*
X0191371Y0102741D01*
X0190371Y0101740D01*
X0189829Y0100433D01*
X0189829Y0099018D01*
X0190371Y0097710D01*
X0191371Y0096709D01*
X0192679Y0096168D01*
X0194094Y0096168D01*
X0195402Y0096709D01*
X0196402Y0097710D01*
X0196944Y0099018D01*
X0196944Y0100433D01*
X0196402Y0101740D01*
X0195402Y0102741D01*
X0194094Y0103283D01*
X0192936Y0104244D02*
X0212498Y0104244D01*
X0212498Y0104842D02*
X0193508Y0104842D01*
X0193756Y0105441D02*
X0212498Y0105441D01*
X0212498Y0106039D02*
X0194004Y0106039D01*
X0194031Y0106638D02*
X0212131Y0106638D01*
X0211682Y0107237D02*
X0194031Y0107237D01*
X0194021Y0107835D02*
X0211233Y0107835D01*
X0210784Y0108434D02*
X0194777Y0108434D01*
X0195533Y0109032D02*
X0210336Y0109032D01*
X0212489Y0110828D02*
X0216435Y0110828D01*
X0216435Y0110229D02*
X0212938Y0110229D01*
X0213387Y0109631D02*
X0216435Y0109631D01*
X0216435Y0109032D02*
X0213836Y0109032D01*
X0214284Y0108434D02*
X0216435Y0108434D01*
X0216435Y0107835D02*
X0214733Y0107835D01*
X0215257Y0107237D02*
X0216435Y0107237D01*
X0216435Y0106638D02*
X0215316Y0106638D01*
X0215298Y0106039D02*
X0216435Y0106039D01*
X0216435Y0105441D02*
X0215298Y0105441D01*
X0215298Y0104842D02*
X0216435Y0104842D01*
X0216435Y0104244D02*
X0215298Y0104244D01*
X0215298Y0103645D02*
X0216435Y0103645D01*
X0216435Y0103047D02*
X0215298Y0103047D01*
X0215298Y0102448D02*
X0216435Y0102448D01*
X0216435Y0101850D02*
X0215298Y0101850D01*
X0215298Y0101251D02*
X0216435Y0101251D01*
X0216435Y0100653D02*
X0215298Y0100653D01*
X0215298Y0100054D02*
X0216435Y0100054D01*
X0216435Y0099456D02*
X0215298Y0099456D01*
X0215298Y0098857D02*
X0216435Y0098857D01*
X0216435Y0098259D02*
X0215298Y0098259D01*
X0215298Y0097660D02*
X0216435Y0097660D01*
X0216435Y0097062D02*
X0215298Y0097062D01*
X0215298Y0096463D02*
X0216435Y0096463D01*
X0216435Y0095865D02*
X0215298Y0095865D01*
X0215298Y0095266D02*
X0216435Y0095266D01*
X0216435Y0094668D02*
X0215298Y0094668D01*
X0215298Y0094069D02*
X0216435Y0094069D01*
X0216435Y0093471D02*
X0215298Y0093471D01*
X0215298Y0092872D02*
X0216435Y0092872D01*
X0216435Y0092274D02*
X0215298Y0092274D01*
X0215298Y0091675D02*
X0216435Y0091675D01*
X0216435Y0091077D02*
X0215298Y0091077D01*
X0215298Y0090478D02*
X0216435Y0090478D01*
X0216435Y0089880D02*
X0215298Y0089880D01*
X0215298Y0089281D02*
X0216435Y0089281D01*
X0216435Y0088683D02*
X0215298Y0088683D01*
X0215298Y0088084D02*
X0216435Y0088084D01*
X0216435Y0087486D02*
X0215298Y0087486D01*
X0215298Y0086887D02*
X0216435Y0086887D01*
X0216435Y0086289D02*
X0215298Y0086289D01*
X0215298Y0085690D02*
X0216435Y0085690D01*
X0216435Y0085092D02*
X0215298Y0085092D01*
X0215298Y0084493D02*
X0216435Y0084493D01*
X0216435Y0083895D02*
X0215298Y0083895D01*
X0215298Y0083296D02*
X0216435Y0083296D01*
X0216435Y0082698D02*
X0215298Y0082698D01*
X0215298Y0082099D02*
X0216435Y0082099D01*
X0216435Y0081501D02*
X0215298Y0081501D01*
X0215298Y0080902D02*
X0216435Y0080902D01*
X0216435Y0080303D02*
X0215298Y0080303D01*
X0215298Y0079705D02*
X0216435Y0079705D01*
X0216435Y0079106D02*
X0215298Y0079106D01*
X0215298Y0078508D02*
X0216435Y0078508D01*
X0216435Y0077909D02*
X0215298Y0077909D01*
X0215298Y0077311D02*
X0216435Y0077311D01*
X0216435Y0076712D02*
X0215298Y0076712D01*
X0215298Y0076114D02*
X0216435Y0076114D01*
X0216435Y0075515D02*
X0215298Y0075515D01*
X0215298Y0074917D02*
X0216435Y0074917D01*
X0216435Y0074318D02*
X0215298Y0074318D01*
X0215298Y0073720D02*
X0216435Y0073720D01*
X0216435Y0073121D02*
X0215298Y0073121D01*
X0215298Y0072523D02*
X0216435Y0072523D01*
X0216435Y0071924D02*
X0215298Y0071924D01*
X0215298Y0071326D02*
X0216435Y0071326D01*
X0216435Y0070727D02*
X0215298Y0070727D01*
X0215298Y0070129D02*
X0216435Y0070129D01*
X0216435Y0069530D02*
X0215298Y0069530D01*
X0215298Y0068932D02*
X0216435Y0068932D01*
X0216435Y0068333D02*
X0215298Y0068333D01*
X0215298Y0067735D02*
X0216435Y0067735D01*
X0216435Y0067136D02*
X0215298Y0067136D01*
X0215298Y0066538D02*
X0216435Y0066538D01*
X0216435Y0065939D02*
X0215298Y0065939D01*
X0215298Y0065341D02*
X0216435Y0065341D01*
X0216435Y0064742D02*
X0215298Y0064742D01*
X0215298Y0064144D02*
X0216435Y0064144D01*
X0216435Y0063545D02*
X0215298Y0063545D01*
X0215298Y0062947D02*
X0216435Y0062947D01*
X0216435Y0062348D02*
X0215298Y0062348D01*
X0215298Y0061750D02*
X0216435Y0061750D01*
X0216435Y0061151D02*
X0215298Y0061151D01*
X0215298Y0060553D02*
X0216435Y0060553D01*
X0216435Y0059954D02*
X0215357Y0059954D01*
X0214895Y0059356D02*
X0216435Y0059356D01*
X0216435Y0058757D02*
X0214434Y0058757D01*
X0213972Y0058159D02*
X0216435Y0058159D01*
X0216435Y0057560D02*
X0213510Y0057560D01*
X0213048Y0056962D02*
X0216060Y0056962D01*
X0215098Y0056363D02*
X0212586Y0056363D01*
X0212124Y0055765D02*
X0214137Y0055765D01*
X0213176Y0055166D02*
X0211673Y0055166D01*
X0212215Y0054568D02*
X0160032Y0054568D01*
X0159630Y0053969D02*
X0211253Y0053969D01*
X0210292Y0053370D02*
X0148869Y0053370D01*
X0148869Y0052772D02*
X0150287Y0052772D01*
X0150232Y0052717D02*
X0150232Y0049371D01*
X0150759Y0048844D01*
X0159505Y0048844D01*
X0160032Y0049371D01*
X0160032Y0049651D01*
X0198115Y0049701D01*
X0198704Y0049113D01*
X0200353Y0049113D01*
X0201519Y0050279D01*
X0201519Y0051928D01*
X0200353Y0053094D01*
X0198704Y0053094D01*
X0198111Y0052501D01*
X0160032Y0052451D01*
X0160032Y0052717D01*
X0159505Y0053244D01*
X0150759Y0053244D01*
X0150232Y0052717D01*
X0150232Y0052173D02*
X0148869Y0052173D01*
X0148869Y0051575D02*
X0150232Y0051575D01*
X0150232Y0050976D02*
X0148869Y0050976D01*
X0148869Y0050378D02*
X0150232Y0050378D01*
X0150232Y0049779D02*
X0148869Y0049779D01*
X0148869Y0049181D02*
X0150423Y0049181D01*
X0150499Y0047984D02*
X0148869Y0047984D01*
X0148869Y0048582D02*
X0202602Y0048582D01*
X0201641Y0047984D02*
X0159765Y0047984D01*
X0159842Y0049181D02*
X0198636Y0049181D01*
X0200421Y0049181D02*
X0203563Y0049181D01*
X0204525Y0049779D02*
X0201020Y0049779D01*
X0201519Y0050378D02*
X0205486Y0050378D01*
X0206447Y0050976D02*
X0201519Y0050976D01*
X0201519Y0051575D02*
X0207408Y0051575D01*
X0208370Y0052173D02*
X0201273Y0052173D01*
X0200675Y0052772D02*
X0209331Y0052772D01*
X0209973Y0057560D02*
X0160032Y0057560D01*
X0159591Y0058159D02*
X0210435Y0058159D01*
X0210897Y0058757D02*
X0148869Y0058757D01*
X0148869Y0058159D02*
X0150674Y0058159D01*
X0150759Y0058844D02*
X0150232Y0059371D01*
X0150232Y0062717D01*
X0150759Y0063244D01*
X0159505Y0063244D01*
X0160032Y0062717D01*
X0160032Y0059371D01*
X0159505Y0058844D01*
X0150759Y0058844D01*
X0150248Y0059356D02*
X0148869Y0059356D01*
X0148869Y0059954D02*
X0150232Y0059954D01*
X0150232Y0060553D02*
X0148869Y0060553D01*
X0148869Y0061151D02*
X0150232Y0061151D01*
X0150232Y0061750D02*
X0148869Y0061750D01*
X0148869Y0062348D02*
X0150232Y0062348D01*
X0150462Y0062947D02*
X0148869Y0062947D01*
X0148869Y0063545D02*
X0212498Y0063545D01*
X0212498Y0062947D02*
X0159802Y0062947D01*
X0160032Y0062348D02*
X0212498Y0062348D01*
X0212498Y0061750D02*
X0160032Y0061750D01*
X0160032Y0061151D02*
X0212498Y0061151D01*
X0212282Y0060553D02*
X0160032Y0060553D01*
X0160032Y0059954D02*
X0211821Y0059954D01*
X0211359Y0059356D02*
X0160017Y0059356D01*
X0159805Y0064144D02*
X0212498Y0064144D01*
X0212498Y0064742D02*
X0160032Y0064742D01*
X0160032Y0065341D02*
X0212498Y0065341D01*
X0212498Y0065939D02*
X0160032Y0065939D01*
X0160032Y0066538D02*
X0212498Y0066538D01*
X0212498Y0067136D02*
X0160032Y0067136D01*
X0160014Y0067735D02*
X0212498Y0067735D01*
X0212498Y0068333D02*
X0148869Y0068333D01*
X0148869Y0068932D02*
X0212498Y0068932D01*
X0212498Y0069530D02*
X0148869Y0069530D01*
X0148741Y0070129D02*
X0212498Y0070129D01*
X0212498Y0070727D02*
X0148142Y0070727D01*
X0147544Y0071326D02*
X0212498Y0071326D01*
X0212498Y0071924D02*
X0146945Y0071924D01*
X0146347Y0072523D02*
X0212498Y0072523D01*
X0212498Y0073121D02*
X0145748Y0073121D01*
X0145150Y0073720D02*
X0212498Y0073720D01*
X0212498Y0074318D02*
X0127819Y0074318D01*
X0127220Y0074917D02*
X0212498Y0074917D01*
X0212498Y0075515D02*
X0127216Y0075515D01*
X0127216Y0076114D02*
X0212498Y0076114D01*
X0212498Y0076712D02*
X0127216Y0076712D01*
X0127216Y0077311D02*
X0212498Y0077311D01*
X0212498Y0077909D02*
X0127216Y0077909D01*
X0127216Y0078508D02*
X0212498Y0078508D01*
X0212498Y0079106D02*
X0127216Y0079106D01*
X0127216Y0079705D02*
X0212498Y0079705D01*
X0212498Y0080303D02*
X0127216Y0080303D01*
X0127216Y0080902D02*
X0212498Y0080902D01*
X0212498Y0081501D02*
X0127216Y0081501D01*
X0127216Y0082099D02*
X0212498Y0082099D01*
X0212498Y0082698D02*
X0127216Y0082698D01*
X0127216Y0083296D02*
X0212498Y0083296D01*
X0212498Y0083895D02*
X0127216Y0083895D01*
X0127216Y0084493D02*
X0212498Y0084493D01*
X0212498Y0085092D02*
X0127216Y0085092D01*
X0127216Y0085690D02*
X0212498Y0085690D01*
X0212498Y0086289D02*
X0184386Y0086289D01*
X0184094Y0086168D02*
X0185402Y0086709D01*
X0186402Y0087710D01*
X0186944Y0089018D01*
X0186944Y0090433D01*
X0186402Y0091740D01*
X0185402Y0092741D01*
X0184094Y0093283D01*
X0182679Y0093283D01*
X0181371Y0092741D01*
X0180371Y0091740D01*
X0179829Y0090433D01*
X0179829Y0089018D01*
X0180371Y0087710D01*
X0181371Y0086709D01*
X0182679Y0086168D01*
X0184094Y0086168D01*
X0185580Y0086887D02*
X0212498Y0086887D01*
X0212498Y0087486D02*
X0186178Y0087486D01*
X0186557Y0088084D02*
X0212498Y0088084D01*
X0212498Y0088683D02*
X0186805Y0088683D01*
X0186944Y0089281D02*
X0189283Y0089281D01*
X0189766Y0089081D02*
X0191181Y0089081D01*
X0192488Y0089623D01*
X0193489Y0090623D01*
X0194031Y0091931D01*
X0194031Y0093346D01*
X0193489Y0094654D01*
X0192488Y0095654D01*
X0191181Y0096196D01*
X0189766Y0096196D01*
X0188458Y0095654D01*
X0187457Y0094654D01*
X0186916Y0093346D01*
X0186916Y0091931D01*
X0187457Y0090623D01*
X0188458Y0089623D01*
X0189766Y0089081D01*
X0188201Y0089880D02*
X0186944Y0089880D01*
X0186925Y0090478D02*
X0187603Y0090478D01*
X0187270Y0091077D02*
X0186677Y0091077D01*
X0186429Y0091675D02*
X0187022Y0091675D01*
X0186916Y0092274D02*
X0185869Y0092274D01*
X0185085Y0092872D02*
X0186916Y0092872D01*
X0186967Y0093471D02*
X0179806Y0093471D01*
X0179857Y0093346D02*
X0179316Y0094654D01*
X0178315Y0095654D01*
X0177008Y0096196D01*
X0175592Y0096196D01*
X0174285Y0095654D01*
X0173284Y0094654D01*
X0172743Y0093346D01*
X0172743Y0091931D01*
X0173284Y0090623D01*
X0174285Y0089623D01*
X0175592Y0089081D01*
X0177008Y0089081D01*
X0178315Y0089623D01*
X0179316Y0090623D01*
X0179857Y0091931D01*
X0179857Y0093346D01*
X0179857Y0092872D02*
X0181688Y0092872D01*
X0180904Y0092274D02*
X0179857Y0092274D01*
X0179752Y0091675D02*
X0180344Y0091675D01*
X0180096Y0091077D02*
X0179504Y0091077D01*
X0179171Y0090478D02*
X0179848Y0090478D01*
X0179829Y0089880D02*
X0178572Y0089880D01*
X0177491Y0089281D02*
X0179829Y0089281D01*
X0179968Y0088683D02*
X0127216Y0088683D01*
X0127216Y0089281D02*
X0175109Y0089281D01*
X0174028Y0089880D02*
X0127283Y0089880D01*
X0127405Y0090478D02*
X0173429Y0090478D01*
X0173096Y0091077D02*
X0127405Y0091077D01*
X0127405Y0091675D02*
X0172848Y0091675D01*
X0172743Y0092274D02*
X0126863Y0092274D01*
X0126265Y0092872D02*
X0172743Y0092872D01*
X0172794Y0093471D02*
X0122779Y0093471D01*
X0122779Y0094069D02*
X0173042Y0094069D01*
X0173298Y0094668D02*
X0122779Y0094668D01*
X0122779Y0095266D02*
X0173897Y0095266D01*
X0174793Y0095865D02*
X0122779Y0095865D01*
X0122779Y0096463D02*
X0171965Y0096463D01*
X0171019Y0097062D02*
X0122779Y0097062D01*
X0122779Y0097660D02*
X0170420Y0097660D01*
X0170143Y0098259D02*
X0122779Y0098259D01*
X0122779Y0098857D02*
X0169895Y0098857D01*
X0169829Y0099456D02*
X0122779Y0099456D01*
X0122779Y0100054D02*
X0169829Y0100054D01*
X0169920Y0100653D02*
X0122779Y0100653D01*
X0122779Y0101251D02*
X0170168Y0101251D01*
X0170480Y0101850D02*
X0122779Y0101850D01*
X0122779Y0102448D02*
X0171079Y0102448D01*
X0172110Y0103047D02*
X0122779Y0103047D01*
X0122779Y0103645D02*
X0174648Y0103645D01*
X0175694Y0102448D02*
X0191079Y0102448D01*
X0190480Y0101850D02*
X0176293Y0101850D01*
X0176605Y0101251D02*
X0190168Y0101251D01*
X0189920Y0100653D02*
X0176853Y0100653D01*
X0176944Y0100054D02*
X0189829Y0100054D01*
X0189829Y0099456D02*
X0176944Y0099456D01*
X0176878Y0098857D02*
X0189895Y0098857D01*
X0190143Y0098259D02*
X0176630Y0098259D01*
X0176353Y0097660D02*
X0190420Y0097660D01*
X0191019Y0097062D02*
X0175754Y0097062D01*
X0174808Y0096463D02*
X0191965Y0096463D01*
X0191981Y0095865D02*
X0212498Y0095865D01*
X0212498Y0096463D02*
X0194808Y0096463D01*
X0195754Y0097062D02*
X0212498Y0097062D01*
X0212498Y0097660D02*
X0196353Y0097660D01*
X0196630Y0098259D02*
X0212498Y0098259D01*
X0212498Y0098857D02*
X0196878Y0098857D01*
X0196944Y0099456D02*
X0212498Y0099456D01*
X0212498Y0100054D02*
X0196944Y0100054D01*
X0196853Y0100653D02*
X0212498Y0100653D01*
X0212498Y0101251D02*
X0196605Y0101251D01*
X0196293Y0101850D02*
X0212498Y0101850D01*
X0212498Y0102448D02*
X0195694Y0102448D01*
X0188821Y0103645D02*
X0177952Y0103645D01*
X0178763Y0104244D02*
X0188010Y0104244D01*
X0187438Y0104842D02*
X0179335Y0104842D01*
X0179583Y0105441D02*
X0187190Y0105441D01*
X0186943Y0106039D02*
X0179831Y0106039D01*
X0179857Y0106638D02*
X0179886Y0106638D01*
X0179829Y0107835D02*
X0179727Y0107835D01*
X0179829Y0108434D02*
X0179479Y0108434D01*
X0179829Y0109032D02*
X0179111Y0109032D01*
X0178512Y0109631D02*
X0179829Y0109631D01*
X0179829Y0110229D02*
X0177346Y0110229D01*
X0175254Y0110229D02*
X0174022Y0110229D01*
X0173960Y0110828D02*
X0179829Y0110828D01*
X0179829Y0111426D02*
X0173960Y0111426D01*
X0173960Y0112025D02*
X0179829Y0112025D01*
X0179829Y0112623D02*
X0173960Y0112623D01*
X0174659Y0113222D02*
X0180295Y0113222D01*
X0175557Y0113820D02*
X0214372Y0113820D01*
X0214821Y0113222D02*
X0186478Y0113222D01*
X0186944Y0112623D02*
X0215270Y0112623D01*
X0215719Y0112025D02*
X0186944Y0112025D01*
X0186944Y0111426D02*
X0194046Y0111426D01*
X0193290Y0110828D02*
X0186944Y0110828D01*
X0186944Y0110229D02*
X0189427Y0110229D01*
X0188261Y0109631D02*
X0186944Y0109631D01*
X0186944Y0109032D02*
X0187662Y0109032D01*
X0187294Y0108434D02*
X0186944Y0108434D01*
X0186944Y0107835D02*
X0187046Y0107835D01*
X0186916Y0106638D02*
X0186887Y0106638D01*
X0191519Y0110229D02*
X0192534Y0110229D01*
X0188966Y0095865D02*
X0177807Y0095865D01*
X0178703Y0095266D02*
X0188070Y0095266D01*
X0187471Y0094668D02*
X0179302Y0094668D01*
X0179558Y0094069D02*
X0187215Y0094069D01*
X0191664Y0089281D02*
X0212498Y0089281D01*
X0212498Y0089880D02*
X0192745Y0089880D01*
X0193344Y0090478D02*
X0212498Y0090478D01*
X0212498Y0091077D02*
X0193677Y0091077D01*
X0193925Y0091675D02*
X0212498Y0091675D01*
X0212498Y0092274D02*
X0194031Y0092274D01*
X0194031Y0092872D02*
X0212498Y0092872D01*
X0212498Y0093471D02*
X0193979Y0093471D01*
X0193731Y0094069D02*
X0212498Y0094069D01*
X0212498Y0094668D02*
X0193475Y0094668D01*
X0192877Y0095266D02*
X0212498Y0095266D01*
X0212051Y0111426D02*
X0216168Y0111426D01*
X0182387Y0086289D02*
X0127216Y0086289D01*
X0127216Y0086887D02*
X0181194Y0086887D01*
X0180595Y0087486D02*
X0127216Y0087486D01*
X0127216Y0088084D02*
X0180216Y0088084D01*
X0150460Y0064144D02*
X0148869Y0064144D01*
X0145069Y0064144D02*
X0135605Y0064144D01*
X0135832Y0064371D02*
X0135832Y0064644D01*
X0137346Y0064644D01*
X0137483Y0064506D01*
X0139132Y0064506D01*
X0140298Y0065672D01*
X0140298Y0067321D01*
X0139132Y0068487D01*
X0137483Y0068487D01*
X0136440Y0067444D01*
X0135832Y0067444D01*
X0135832Y0067717D01*
X0135305Y0068244D01*
X0126559Y0068244D01*
X0126032Y0067717D01*
X0126032Y0064371D01*
X0126559Y0063844D01*
X0135305Y0063844D01*
X0135832Y0064371D01*
X0135305Y0063244D02*
X0126559Y0063244D01*
X0126032Y0062717D01*
X0126032Y0059371D01*
X0126559Y0058844D01*
X0135305Y0058844D01*
X0135832Y0059371D01*
X0135832Y0059644D01*
X0136676Y0059644D01*
X0137483Y0058837D01*
X0139132Y0058837D01*
X0140298Y0060003D01*
X0140298Y0061652D01*
X0139132Y0062818D01*
X0137483Y0062818D01*
X0137109Y0062444D01*
X0135832Y0062444D01*
X0135832Y0062717D01*
X0135305Y0063244D01*
X0135602Y0062947D02*
X0145069Y0062947D01*
X0145069Y0063545D02*
X0122779Y0063545D01*
X0122779Y0062947D02*
X0126262Y0062947D01*
X0126032Y0062348D02*
X0122779Y0062348D01*
X0122779Y0061750D02*
X0126032Y0061750D01*
X0126032Y0061151D02*
X0122779Y0061151D01*
X0122779Y0060553D02*
X0126032Y0060553D01*
X0126032Y0059954D02*
X0122779Y0059954D01*
X0122779Y0059356D02*
X0126048Y0059356D01*
X0126559Y0058244D02*
X0126032Y0057717D01*
X0126032Y0054371D01*
X0126559Y0053844D01*
X0135305Y0053844D01*
X0135832Y0054371D01*
X0135832Y0054644D01*
X0136952Y0054644D01*
X0137483Y0054113D01*
X0139132Y0054113D01*
X0140298Y0055279D01*
X0140298Y0056928D01*
X0139132Y0058094D01*
X0137483Y0058094D01*
X0136834Y0057444D01*
X0135832Y0057444D01*
X0135832Y0057717D01*
X0135305Y0058244D01*
X0126559Y0058244D01*
X0126474Y0058159D02*
X0122779Y0058159D01*
X0122779Y0058757D02*
X0145069Y0058757D01*
X0145069Y0058159D02*
X0135391Y0058159D01*
X0135832Y0057560D02*
X0136950Y0057560D01*
X0136965Y0059356D02*
X0135817Y0059356D01*
X0139651Y0059356D02*
X0145069Y0059356D01*
X0145069Y0059954D02*
X0140249Y0059954D01*
X0140298Y0060553D02*
X0145069Y0060553D01*
X0145069Y0061151D02*
X0140298Y0061151D01*
X0140201Y0061750D02*
X0145069Y0061750D01*
X0145069Y0062348D02*
X0139602Y0062348D01*
X0139368Y0064742D02*
X0145069Y0064742D01*
X0145069Y0065341D02*
X0139967Y0065341D01*
X0140298Y0065939D02*
X0144979Y0065939D01*
X0144979Y0066538D02*
X0140298Y0066538D01*
X0140298Y0067136D02*
X0145030Y0067136D01*
X0145069Y0067735D02*
X0139885Y0067735D01*
X0139287Y0068333D02*
X0145069Y0068333D01*
X0144564Y0068932D02*
X0122779Y0068932D01*
X0122779Y0069530D02*
X0143965Y0069530D01*
X0143367Y0070129D02*
X0122779Y0070129D01*
X0122779Y0070727D02*
X0126036Y0070727D01*
X0125438Y0071326D02*
X0122779Y0071326D01*
X0122779Y0071924D02*
X0124839Y0071924D01*
X0124241Y0072523D02*
X0122779Y0072523D01*
X0122779Y0073121D02*
X0123642Y0073121D01*
X0123416Y0073720D02*
X0122779Y0073720D01*
X0122779Y0074318D02*
X0123416Y0074318D01*
X0123416Y0074917D02*
X0122779Y0074917D01*
X0122779Y0075515D02*
X0123416Y0075515D01*
X0123416Y0076114D02*
X0122779Y0076114D01*
X0122779Y0076712D02*
X0123416Y0076712D01*
X0123416Y0077311D02*
X0122779Y0077311D01*
X0122779Y0077909D02*
X0123416Y0077909D01*
X0123416Y0078508D02*
X0122779Y0078508D01*
X0122779Y0079106D02*
X0123416Y0079106D01*
X0123416Y0079705D02*
X0122779Y0079705D01*
X0122779Y0080303D02*
X0123416Y0080303D01*
X0123416Y0080902D02*
X0122779Y0080902D01*
X0122779Y0081501D02*
X0123416Y0081501D01*
X0123416Y0082099D02*
X0122779Y0082099D01*
X0122779Y0082698D02*
X0123416Y0082698D01*
X0123416Y0083296D02*
X0122779Y0083296D01*
X0122779Y0083895D02*
X0123416Y0083895D01*
X0123416Y0084493D02*
X0122779Y0084493D01*
X0122779Y0085092D02*
X0123416Y0085092D01*
X0123416Y0085690D02*
X0122779Y0085690D01*
X0122779Y0086289D02*
X0123416Y0086289D01*
X0123416Y0086887D02*
X0122779Y0086887D01*
X0122779Y0087486D02*
X0123416Y0087486D01*
X0123416Y0088084D02*
X0122779Y0088084D01*
X0122779Y0088683D02*
X0123416Y0088683D01*
X0123416Y0089281D02*
X0122779Y0089281D01*
X0122779Y0089880D02*
X0123349Y0089880D01*
X0123227Y0090478D02*
X0122779Y0090478D01*
X0122779Y0091077D02*
X0123227Y0091077D01*
X0123227Y0091675D02*
X0122779Y0091675D01*
X0122779Y0092274D02*
X0123768Y0092274D01*
X0124367Y0092872D02*
X0122779Y0092872D01*
X0111120Y0092872D02*
X0104270Y0092872D01*
X0104740Y0092274D02*
X0111120Y0092274D01*
X0111120Y0091675D02*
X0104740Y0091675D01*
X0104740Y0091077D02*
X0111120Y0091077D01*
X0111120Y0090478D02*
X0104740Y0090478D01*
X0104740Y0089880D02*
X0111120Y0089880D01*
X0111120Y0089281D02*
X0104740Y0089281D01*
X0104366Y0088683D02*
X0111120Y0088683D01*
X0111120Y0093471D02*
X0101625Y0093471D01*
X0101716Y0094069D02*
X0111120Y0094069D01*
X0111120Y0094668D02*
X0101716Y0094668D01*
X0101716Y0095266D02*
X0111120Y0095266D01*
X0111120Y0095865D02*
X0101479Y0095865D01*
X0100881Y0096463D02*
X0111120Y0096463D01*
X0111120Y0100653D02*
X0035962Y0100653D01*
X0035350Y0101251D02*
X0111120Y0101251D01*
X0111120Y0101850D02*
X0003100Y0101850D01*
X0003100Y0102448D02*
X0111120Y0102448D01*
X0111120Y0103047D02*
X0003100Y0103047D01*
X0003100Y0103645D02*
X0111120Y0103645D01*
X0111120Y0104244D02*
X0003100Y0104244D01*
X0003100Y0104842D02*
X0111120Y0104842D01*
X0111120Y0105441D02*
X0003100Y0105441D01*
X0003100Y0106039D02*
X0021507Y0106039D01*
X0021586Y0105994D02*
X0021916Y0105906D01*
X0023568Y0105906D01*
X0023568Y0108687D01*
X0020787Y0108687D01*
X0020787Y0107034D01*
X0020876Y0106704D01*
X0021047Y0106407D01*
X0021289Y0106165D01*
X0021586Y0105994D01*
X0020914Y0106638D02*
X0003100Y0106638D01*
X0003100Y0107237D02*
X0020787Y0107237D01*
X0020787Y0107835D02*
X0003100Y0107835D01*
X0003100Y0108434D02*
X0020787Y0108434D01*
X0020787Y0109268D02*
X0023568Y0109268D01*
X0023568Y0108687D01*
X0024150Y0108687D01*
X0024150Y0109268D01*
X0026931Y0109268D01*
X0026931Y0110920D01*
X0026842Y0111251D01*
X0026671Y0111547D01*
X0026429Y0111789D01*
X0026132Y0111960D01*
X0025802Y0112049D01*
X0024150Y0112049D01*
X0024150Y0109268D01*
X0023568Y0109268D01*
X0023568Y0112049D01*
X0021916Y0112049D01*
X0021586Y0111960D01*
X0021289Y0111789D01*
X0021047Y0111547D01*
X0020876Y0111251D01*
X0020787Y0110920D01*
X0020787Y0109268D01*
X0020787Y0109631D02*
X0003100Y0109631D01*
X0003100Y0110229D02*
X0020787Y0110229D01*
X0020787Y0110828D02*
X0003100Y0110828D01*
X0003100Y0111426D02*
X0020977Y0111426D01*
X0021826Y0112025D02*
X0003100Y0112025D01*
X0003100Y0112623D02*
X0103573Y0112623D01*
X0103573Y0113222D02*
X0003100Y0113222D01*
X0003100Y0113820D02*
X0103573Y0113820D01*
X0103432Y0112025D02*
X0025892Y0112025D01*
X0026741Y0111426D02*
X0032790Y0111426D01*
X0031931Y0110828D02*
X0026931Y0110828D01*
X0026931Y0110229D02*
X0031486Y0110229D01*
X0031238Y0109631D02*
X0026931Y0109631D01*
X0026931Y0108687D02*
X0024150Y0108687D01*
X0024150Y0105906D01*
X0025802Y0105906D01*
X0026132Y0105994D01*
X0026429Y0106165D01*
X0026671Y0106407D01*
X0026842Y0106704D01*
X0026931Y0107034D01*
X0026931Y0108687D01*
X0026931Y0108434D02*
X0031192Y0108434D01*
X0031187Y0109032D02*
X0024150Y0109032D01*
X0023568Y0109032D02*
X0003100Y0109032D01*
X0003100Y0120404D02*
X0060568Y0120404D01*
X0060733Y0121002D02*
X0003100Y0121002D01*
X0003100Y0121601D02*
X0060978Y0121601D01*
X0061319Y0122199D02*
X0003100Y0122199D01*
X0003100Y0122798D02*
X0061790Y0122798D01*
X0062453Y0123396D02*
X0003100Y0123396D01*
X0023568Y0112025D02*
X0024150Y0112025D01*
X0024150Y0111426D02*
X0023568Y0111426D01*
X0023568Y0110828D02*
X0024150Y0110828D01*
X0024150Y0110229D02*
X0023568Y0110229D01*
X0023568Y0109631D02*
X0024150Y0109631D01*
X0024150Y0108434D02*
X0023568Y0108434D01*
X0023568Y0107835D02*
X0024150Y0107835D01*
X0024150Y0107237D02*
X0023568Y0107237D01*
X0023568Y0106638D02*
X0024150Y0106638D01*
X0024150Y0106039D02*
X0023568Y0106039D01*
X0026211Y0106039D02*
X0111120Y0106039D01*
X0102834Y0111426D02*
X0034928Y0111426D01*
X0031440Y0107835D02*
X0026931Y0107835D01*
X0026931Y0107237D02*
X0031821Y0107237D01*
X0032525Y0106638D02*
X0026804Y0106638D01*
X0042717Y0082099D02*
X0055340Y0082099D01*
X0055340Y0081501D02*
X0043316Y0081501D01*
X0043914Y0080902D02*
X0055340Y0080902D01*
X0055340Y0080303D02*
X0044513Y0080303D01*
X0045111Y0079705D02*
X0055340Y0079705D01*
X0059940Y0073121D02*
X0060540Y0073121D01*
X0060540Y0072523D02*
X0059940Y0072523D01*
X0059940Y0071924D02*
X0060540Y0071924D01*
X0060540Y0071326D02*
X0059940Y0071326D01*
X0059940Y0069530D02*
X0060540Y0069530D01*
X0060540Y0068932D02*
X0059940Y0068932D01*
X0059940Y0068333D02*
X0060540Y0068333D01*
X0045939Y0074917D02*
X0038915Y0074917D01*
X0038316Y0075515D02*
X0045341Y0075515D01*
X0044742Y0076114D02*
X0028702Y0076114D01*
X0028104Y0076712D02*
X0032345Y0076712D01*
X0031747Y0077311D02*
X0027505Y0077311D01*
X0026907Y0077909D02*
X0031410Y0077909D01*
X0031187Y0078508D02*
X0026531Y0078508D01*
X0026531Y0079106D02*
X0031187Y0079106D01*
X0031269Y0079705D02*
X0026449Y0079705D01*
X0026201Y0080303D02*
X0031517Y0080303D01*
X0032006Y0080902D02*
X0025712Y0080902D01*
X0035712Y0080902D02*
X0039954Y0080902D01*
X0040553Y0080303D02*
X0036201Y0080303D01*
X0036449Y0079705D02*
X0041151Y0079705D01*
X0041750Y0079106D02*
X0036531Y0079106D01*
X0036531Y0078508D02*
X0042348Y0078508D01*
X0042947Y0077909D02*
X0036309Y0077909D01*
X0035971Y0077311D02*
X0043545Y0077311D01*
X0044144Y0076712D02*
X0035373Y0076712D01*
X0035463Y0061151D02*
X0038878Y0061151D01*
X0039477Y0060553D02*
X0036062Y0060553D01*
X0036346Y0059954D02*
X0040075Y0059954D01*
X0040674Y0059356D02*
X0036531Y0059356D01*
X0036531Y0058757D02*
X0041272Y0058757D01*
X0041871Y0058159D02*
X0036412Y0058159D01*
X0036164Y0057560D02*
X0042469Y0057560D01*
X0043068Y0056962D02*
X0035622Y0056962D01*
X0032643Y0052173D02*
X0055340Y0052173D01*
X0059940Y0047984D02*
X0060540Y0047984D01*
X0060540Y0047385D02*
X0059940Y0047385D01*
X0059940Y0046787D02*
X0060540Y0046787D01*
X0059940Y0045429D02*
X0054940Y0045429D01*
X0054940Y0044258D01*
X0055029Y0043927D01*
X0055200Y0043631D01*
X0055442Y0043389D01*
X0055738Y0043218D01*
X0056069Y0043129D01*
X0059940Y0043129D01*
X0059940Y0045429D01*
X0059940Y0044991D02*
X0060540Y0044991D01*
X0060540Y0044393D02*
X0059940Y0044393D01*
X0059940Y0043794D02*
X0060540Y0043794D01*
X0060540Y0043196D02*
X0059940Y0043196D01*
X0055820Y0043196D02*
X0003100Y0043196D01*
X0003100Y0043794D02*
X0055106Y0043794D01*
X0054940Y0044393D02*
X0003100Y0044393D01*
X0003100Y0044991D02*
X0054940Y0044991D01*
X0065540Y0046188D02*
X0094940Y0046188D01*
X0094940Y0046787D02*
X0065540Y0046787D01*
X0104478Y0043794D02*
X0126044Y0043794D01*
X0126134Y0043704D02*
X0126430Y0043533D01*
X0126761Y0043444D01*
X0130632Y0043444D01*
X0130632Y0045744D01*
X0125632Y0045744D01*
X0125632Y0044573D01*
X0125721Y0044242D01*
X0125892Y0043946D01*
X0126134Y0043704D01*
X0125681Y0044393D02*
X0119207Y0044393D01*
X0119806Y0044991D02*
X0125632Y0044991D01*
X0125632Y0045590D02*
X0120404Y0045590D01*
X0121003Y0046188D02*
X0130632Y0046188D01*
X0130632Y0046344D02*
X0130632Y0045744D01*
X0131232Y0045744D01*
X0131232Y0043444D01*
X0135103Y0043444D01*
X0135434Y0043533D01*
X0135730Y0043704D01*
X0135973Y0043946D01*
X0136144Y0044242D01*
X0136232Y0044573D01*
X0136232Y0045744D01*
X0131232Y0045744D01*
X0131232Y0046344D01*
X0130632Y0046344D01*
X0125632Y0046344D01*
X0125632Y0047515D01*
X0125721Y0047846D01*
X0125892Y0048142D01*
X0126134Y0048384D01*
X0126411Y0048544D01*
X0126134Y0048704D01*
X0125892Y0048946D01*
X0125721Y0049242D01*
X0125632Y0049573D01*
X0125632Y0050744D01*
X0130632Y0050744D01*
X0130632Y0051344D01*
X0125632Y0051344D01*
X0125632Y0052515D01*
X0125721Y0052846D01*
X0125892Y0053142D01*
X0126134Y0053384D01*
X0126430Y0053555D01*
X0126761Y0053644D01*
X0130632Y0053644D01*
X0130632Y0051344D01*
X0131232Y0051344D01*
X0131232Y0053644D01*
X0135103Y0053644D01*
X0135434Y0053555D01*
X0135730Y0053384D01*
X0135973Y0053142D01*
X0136144Y0052846D01*
X0136232Y0052515D01*
X0136232Y0051344D01*
X0131232Y0051344D01*
X0131232Y0050744D01*
X0131232Y0046344D01*
X0136232Y0046344D01*
X0136232Y0047515D01*
X0136144Y0047846D01*
X0135973Y0048142D01*
X0135730Y0048384D01*
X0135454Y0048544D01*
X0135730Y0048704D01*
X0135973Y0048946D01*
X0136144Y0049242D01*
X0136232Y0049573D01*
X0136232Y0050744D01*
X0131232Y0050744D01*
X0130632Y0050744D01*
X0130632Y0048444D01*
X0130632Y0046344D01*
X0130632Y0046787D02*
X0131232Y0046787D01*
X0131232Y0047385D02*
X0130632Y0047385D01*
X0130632Y0047984D02*
X0131232Y0047984D01*
X0131232Y0048582D02*
X0130632Y0048582D01*
X0130632Y0049181D02*
X0131232Y0049181D01*
X0131232Y0049779D02*
X0130632Y0049779D01*
X0130632Y0050378D02*
X0131232Y0050378D01*
X0131232Y0050976D02*
X0145069Y0050976D01*
X0145069Y0050378D02*
X0136232Y0050378D01*
X0136232Y0049779D02*
X0145069Y0049779D01*
X0145069Y0049181D02*
X0136108Y0049181D01*
X0135520Y0048582D02*
X0145069Y0048582D01*
X0145069Y0047984D02*
X0136064Y0047984D01*
X0136232Y0047385D02*
X0145069Y0047385D01*
X0145069Y0046787D02*
X0136232Y0046787D01*
X0136232Y0045590D02*
X0145069Y0045590D01*
X0145069Y0046188D02*
X0131232Y0046188D01*
X0131232Y0045590D02*
X0130632Y0045590D01*
X0130632Y0044991D02*
X0131232Y0044991D01*
X0131232Y0044393D02*
X0130632Y0044393D01*
X0130632Y0043794D02*
X0131232Y0043794D01*
X0135353Y0043196D02*
X0142871Y0043196D01*
X0143470Y0043794D02*
X0135821Y0043794D01*
X0136184Y0044393D02*
X0144068Y0044393D01*
X0144667Y0044991D02*
X0136232Y0044991D01*
X0136232Y0051575D02*
X0145069Y0051575D01*
X0145069Y0052173D02*
X0136232Y0052173D01*
X0136163Y0052772D02*
X0145069Y0052772D01*
X0145069Y0053370D02*
X0135744Y0053370D01*
X0135430Y0053969D02*
X0145069Y0053969D01*
X0145069Y0054568D02*
X0139587Y0054568D01*
X0140186Y0055166D02*
X0145069Y0055166D01*
X0145069Y0055765D02*
X0140298Y0055765D01*
X0140298Y0056363D02*
X0145069Y0056363D01*
X0145069Y0056962D02*
X0140265Y0056962D01*
X0139666Y0057560D02*
X0145069Y0057560D01*
X0148869Y0057560D02*
X0150232Y0057560D01*
X0150232Y0056962D02*
X0148869Y0056962D01*
X0148869Y0056363D02*
X0150232Y0056363D01*
X0150232Y0055765D02*
X0148869Y0055765D01*
X0148869Y0055166D02*
X0150232Y0055166D01*
X0150232Y0054568D02*
X0148869Y0054568D01*
X0148869Y0053969D02*
X0150635Y0053969D01*
X0150232Y0047385D02*
X0148869Y0047385D01*
X0148869Y0046787D02*
X0150232Y0046787D01*
X0150232Y0046188D02*
X0148869Y0046188D01*
X0148869Y0045590D02*
X0150232Y0045590D01*
X0150232Y0044991D02*
X0148869Y0044991D01*
X0148869Y0044393D02*
X0150232Y0044393D01*
X0150232Y0036612D02*
X0139228Y0036612D01*
X0139617Y0036014D02*
X0150232Y0036014D01*
X0150232Y0035415D02*
X0140016Y0035415D01*
X0140415Y0034817D02*
X0150232Y0034817D01*
X0150385Y0034218D02*
X0140814Y0034218D01*
X0141213Y0033620D02*
X0178571Y0033620D01*
X0179532Y0034218D02*
X0173844Y0034218D01*
X0174443Y0034817D02*
X0180493Y0034817D01*
X0181455Y0035415D02*
X0174944Y0035415D01*
X0174944Y0036014D02*
X0182416Y0036014D01*
X0183377Y0036612D02*
X0174944Y0036612D01*
X0174700Y0037211D02*
X0184338Y0037211D01*
X0177610Y0033021D02*
X0164520Y0033021D01*
X0164329Y0033212D02*
X0162680Y0033212D01*
X0162059Y0032591D01*
X0160032Y0032548D01*
X0160032Y0032717D01*
X0159505Y0033244D01*
X0150759Y0033244D01*
X0150232Y0032717D01*
X0150232Y0029371D01*
X0150759Y0028844D01*
X0159505Y0028844D01*
X0160032Y0029371D01*
X0160032Y0029747D01*
X0162119Y0029792D01*
X0162680Y0029231D01*
X0164329Y0029231D01*
X0165495Y0030397D01*
X0165495Y0032046D01*
X0164329Y0033212D01*
X0165118Y0032423D02*
X0176648Y0032423D01*
X0175687Y0031824D02*
X0165495Y0031824D01*
X0165495Y0031226D02*
X0174726Y0031226D01*
X0173765Y0030627D02*
X0165495Y0030627D01*
X0165127Y0030029D02*
X0172803Y0030029D01*
X0171842Y0029430D02*
X0164529Y0029430D01*
X0162481Y0029430D02*
X0160032Y0029430D01*
X0159728Y0033021D02*
X0162490Y0033021D01*
X0159879Y0034218D02*
X0172063Y0034218D01*
X0170881Y0028832D02*
X0144405Y0028832D01*
X0144006Y0029430D02*
X0150232Y0029430D01*
X0150232Y0030029D02*
X0143607Y0030029D01*
X0143208Y0030627D02*
X0150232Y0030627D01*
X0150232Y0031226D02*
X0142809Y0031226D01*
X0142410Y0031824D02*
X0150232Y0031824D01*
X0150232Y0032423D02*
X0142011Y0032423D01*
X0141612Y0033021D02*
X0150537Y0033021D01*
X0146001Y0026437D02*
X0167036Y0026437D01*
X0166075Y0025839D02*
X0146400Y0025839D01*
X0145602Y0027036D02*
X0167997Y0027036D01*
X0168959Y0027634D02*
X0145203Y0027634D01*
X0144804Y0028233D02*
X0169920Y0028233D01*
X0194279Y0021051D02*
X0028793Y0021051D01*
X0028859Y0020452D02*
X0194213Y0020452D01*
X0194213Y0019854D02*
X0028859Y0019854D01*
X0028859Y0019255D02*
X0194213Y0019255D01*
X0194213Y0018657D02*
X0028859Y0018657D01*
X0028859Y0018058D02*
X0194213Y0018058D01*
X0194213Y0017460D02*
X0028859Y0017460D01*
X0028859Y0016861D02*
X0194213Y0016861D01*
X0194213Y0016263D02*
X0028859Y0016263D01*
X0028859Y0015664D02*
X0194213Y0015664D01*
X0194213Y0015066D02*
X0028859Y0015066D01*
X0028859Y0014467D02*
X0194213Y0014467D01*
X0194213Y0013869D02*
X0028859Y0013869D01*
X0028859Y0013270D02*
X0194213Y0013270D01*
X0194213Y0012672D02*
X0028859Y0012672D01*
X0028859Y0012073D02*
X0194213Y0012073D01*
X0194213Y0011475D02*
X0028859Y0011475D01*
X0028859Y0010876D02*
X0194213Y0010876D01*
X0194213Y0010278D02*
X0028859Y0010278D01*
X0028859Y0009679D02*
X0194213Y0009679D01*
X0194213Y0009081D02*
X0028859Y0009081D01*
X0028859Y0008482D02*
X0194213Y0008482D01*
X0194213Y0007884D02*
X0028859Y0007884D01*
X0028859Y0007285D02*
X0194213Y0007285D01*
X0194213Y0006687D02*
X0028859Y0006687D01*
X0028859Y0006088D02*
X0194213Y0006088D01*
X0194213Y0005490D02*
X0028859Y0005490D01*
X0028859Y0004891D02*
X0194213Y0004891D01*
X0194213Y0004293D02*
X0028859Y0004293D01*
X0028859Y0003694D02*
X0194213Y0003694D01*
X0194878Y0021649D02*
X0028195Y0021649D01*
X0003100Y0031824D02*
X0125632Y0031824D01*
X0125632Y0032423D02*
X0003100Y0032423D01*
X0003100Y0033021D02*
X0125822Y0033021D01*
X0126670Y0033620D02*
X0003100Y0033620D01*
X0003100Y0034218D02*
X0126185Y0034218D01*
X0126032Y0034817D02*
X0003100Y0034817D01*
X0003100Y0035415D02*
X0126032Y0035415D01*
X0126032Y0036014D02*
X0003100Y0036014D01*
X0003100Y0036612D02*
X0126032Y0036612D01*
X0126032Y0037211D02*
X0003100Y0037211D01*
X0003100Y0037809D02*
X0126125Y0037809D01*
X0130632Y0033620D02*
X0131232Y0033620D01*
X0131232Y0033021D02*
X0130632Y0033021D01*
X0130632Y0032423D02*
X0131232Y0032423D01*
X0131232Y0030627D02*
X0130632Y0030627D01*
X0130632Y0030029D02*
X0131232Y0030029D01*
X0131232Y0029430D02*
X0130632Y0029430D01*
X0130632Y0028832D02*
X0131232Y0028832D01*
X0135858Y0028832D02*
X0141040Y0028832D01*
X0140641Y0029430D02*
X0136194Y0029430D01*
X0136232Y0030029D02*
X0140242Y0030029D01*
X0139843Y0030627D02*
X0136232Y0030627D01*
X0125632Y0046787D02*
X0121601Y0046787D01*
X0122200Y0047385D02*
X0125632Y0047385D01*
X0125801Y0047984D02*
X0122779Y0047984D01*
X0122779Y0048582D02*
X0126344Y0048582D01*
X0125756Y0049181D02*
X0122779Y0049181D01*
X0122779Y0049779D02*
X0125632Y0049779D01*
X0125632Y0050378D02*
X0122779Y0050378D01*
X0122779Y0050976D02*
X0130632Y0050976D01*
X0130632Y0051575D02*
X0131232Y0051575D01*
X0131232Y0052173D02*
X0130632Y0052173D01*
X0130632Y0052772D02*
X0131232Y0052772D01*
X0131232Y0053370D02*
X0130632Y0053370D01*
X0126435Y0053969D02*
X0122779Y0053969D01*
X0122779Y0054568D02*
X0126032Y0054568D01*
X0126032Y0055166D02*
X0122779Y0055166D01*
X0122779Y0055765D02*
X0126032Y0055765D01*
X0126032Y0056363D02*
X0122779Y0056363D01*
X0122779Y0056962D02*
X0126032Y0056962D01*
X0126032Y0057560D02*
X0122779Y0057560D01*
X0122779Y0053370D02*
X0126120Y0053370D01*
X0125701Y0052772D02*
X0122779Y0052772D01*
X0122779Y0052173D02*
X0125632Y0052173D01*
X0125632Y0051575D02*
X0122779Y0051575D01*
X0118240Y0047385D02*
X0104740Y0047385D01*
X0104653Y0053969D02*
X0116950Y0053969D01*
X0122779Y0064144D02*
X0126260Y0064144D01*
X0126032Y0064742D02*
X0122779Y0064742D01*
X0122779Y0065341D02*
X0126032Y0065341D01*
X0126032Y0065939D02*
X0122779Y0065939D01*
X0122779Y0066538D02*
X0126032Y0066538D01*
X0126032Y0067136D02*
X0122779Y0067136D01*
X0122779Y0067735D02*
X0126050Y0067735D01*
X0122779Y0068333D02*
X0137329Y0068333D01*
X0136731Y0067735D02*
X0135814Y0067735D01*
X0135832Y0054568D02*
X0137028Y0054568D01*
X0159977Y0052772D02*
X0198382Y0052772D01*
X0125183Y0141950D02*
X0124583Y0141950D01*
X0124583Y0142549D02*
X0125183Y0142549D01*
X0125183Y0143147D02*
X0124583Y0143147D01*
X0124583Y0143746D02*
X0125183Y0143746D01*
X0125183Y0144344D02*
X0124583Y0144344D01*
X0124583Y0146140D02*
X0125183Y0146140D01*
X0125183Y0146738D02*
X0124583Y0146738D01*
X0124583Y0147337D02*
X0125183Y0147337D01*
X0125183Y0147935D02*
X0124583Y0147935D01*
X0124583Y0148534D02*
X0125183Y0148534D01*
X0125183Y0149132D02*
X0124583Y0149132D01*
X0103192Y0177861D02*
X0100997Y0177861D01*
X0101710Y0178459D02*
X0103791Y0178459D01*
X0104389Y0179058D02*
X0102309Y0179058D01*
X0102907Y0179656D02*
X0104988Y0179656D01*
X0105586Y0180255D02*
X0103506Y0180255D01*
X0104105Y0180853D02*
X0106185Y0180853D01*
X0106783Y0181452D02*
X0104703Y0181452D01*
X0105302Y0182050D02*
X0107382Y0182050D01*
X0107980Y0182649D02*
X0105900Y0182649D01*
X0106499Y0183247D02*
X0108579Y0183247D01*
X0109178Y0183846D02*
X0107097Y0183846D01*
X0107696Y0184444D02*
X0109776Y0184444D01*
X0110375Y0185043D02*
X0108294Y0185043D01*
X0108893Y0185641D02*
X0110973Y0185641D01*
X0111572Y0186240D02*
X0109491Y0186240D01*
X0110090Y0186839D02*
X0112170Y0186839D01*
X0112769Y0187437D02*
X0110688Y0187437D01*
X0111287Y0188036D02*
X0113367Y0188036D01*
X0113219Y0199407D02*
X0086547Y0199407D01*
X0124095Y0212574D02*
X0127739Y0212574D01*
X0126294Y0213173D02*
X0124693Y0213173D01*
X0124910Y0213772D02*
X0125696Y0213772D01*
X0125097Y0214370D02*
X0124910Y0214370D01*
X0130504Y0212335D02*
X0132526Y0213173D01*
X0125349Y0221552D02*
X0124910Y0221552D01*
X0124910Y0222151D02*
X0125947Y0222151D01*
X0126901Y0222749D02*
X0124442Y0222749D01*
X0141192Y0199407D02*
X0147864Y0199407D01*
X0146860Y0198809D02*
X0142197Y0198809D01*
X0142796Y0198210D02*
X0146261Y0198210D01*
X0145860Y0197612D02*
X0143197Y0197612D01*
X0143445Y0197013D02*
X0145612Y0197013D01*
X0145366Y0196415D02*
X0143691Y0196415D01*
X0143691Y0195816D02*
X0145366Y0195816D01*
X0145366Y0195218D02*
X0143691Y0195218D01*
X0143631Y0194619D02*
X0145426Y0194619D01*
X0145674Y0194021D02*
X0143383Y0194021D01*
X0143135Y0193422D02*
X0145922Y0193422D01*
X0146410Y0192824D02*
X0142647Y0192824D01*
X0142048Y0192225D02*
X0147008Y0192225D01*
X0148224Y0191627D02*
X0140833Y0191627D01*
X0152647Y0192824D02*
X0157686Y0192824D01*
X0157084Y0193422D02*
X0153135Y0193422D01*
X0153383Y0194021D02*
X0156648Y0194021D01*
X0156400Y0194619D02*
X0153631Y0194619D01*
X0153691Y0195218D02*
X0156266Y0195218D01*
X0156266Y0195816D02*
X0153691Y0195816D01*
X0153691Y0196415D02*
X0156338Y0196415D01*
X0156586Y0197013D02*
X0153445Y0197013D01*
X0153197Y0197612D02*
X0156935Y0197612D01*
X0157534Y0198210D02*
X0152796Y0198210D01*
X0094521Y0123995D02*
X0086425Y0123995D01*
X0087870Y0123396D02*
X0093076Y0123396D01*
X0092355Y0122798D02*
X0088591Y0122798D01*
X0089190Y0122199D02*
X0091757Y0122199D01*
X0091402Y0121601D02*
X0089545Y0121601D01*
X0089793Y0121002D02*
X0091154Y0121002D01*
X0090906Y0120404D02*
X0090041Y0120404D01*
X0090073Y0119805D02*
X0090873Y0119805D01*
X0090873Y0119207D02*
X0090073Y0119207D01*
X0090073Y0118608D02*
X0090873Y0118608D01*
X0091074Y0118010D02*
X0089872Y0118010D01*
X0089624Y0117411D02*
X0091322Y0117411D01*
X0091570Y0116813D02*
X0089376Y0116813D01*
X0088783Y0116214D02*
X0092164Y0116214D01*
X0092762Y0115616D02*
X0088184Y0115616D01*
X0086888Y0115017D02*
X0094059Y0115017D01*
X0087459Y0089281D02*
X0065540Y0089281D01*
X0065310Y0088683D02*
X0087459Y0088683D01*
X0066954Y0087486D02*
X0065056Y0087486D01*
X0060540Y0088683D02*
X0059940Y0088683D01*
X0059940Y0089281D02*
X0060540Y0089281D01*
D22*
X0068229Y0085946D03*
X0068229Y0081024D03*
X0068229Y0076103D03*
X0092835Y0070198D03*
X0107796Y0084961D03*
X0099725Y0094804D03*
X0138308Y0066497D03*
X0138308Y0060828D03*
X0138308Y0056103D03*
X0146969Y0066261D03*
X0172954Y0036143D03*
X0181024Y0041064D03*
X0191064Y0045985D03*
X0199528Y0051103D03*
X0163505Y0031221D03*
D23*
X0146969Y0044607D02*
X0146969Y0066261D01*
X0146969Y0069213D01*
X0144017Y0072166D01*
X0127284Y0072166D01*
X0125316Y0074135D01*
X0125316Y0090867D01*
X0105631Y0111536D02*
X0105473Y0111694D01*
X0105473Y0119410D01*
X0105631Y0111536D02*
X0103072Y0108977D01*
X0033859Y0108977D01*
X0025080Y0160316D02*
X0089607Y0160316D01*
X0124883Y0195591D01*
X0133347Y0187127D01*
X0201064Y0187127D01*
X0209528Y0195591D01*
X0114883Y0195591D02*
X0099607Y0180316D01*
X0024843Y0180316D01*
X0099725Y0094804D02*
X0099725Y0090844D01*
X0099840Y0090729D01*
X0130932Y0041044D02*
X0143406Y0041044D01*
X0146969Y0044607D01*
X0146969Y0066261D02*
X0154916Y0066261D01*
X0155132Y0066044D01*
D24*
X0125316Y0090867D03*
D25*
X0107796Y0084961D02*
X0099840Y0085729D01*
X0099840Y0080729D02*
X0093524Y0080729D01*
X0091694Y0082560D01*
X0091694Y0096733D01*
X0089450Y0098977D01*
X0033859Y0098977D01*
X0028938Y0093898D02*
X0086969Y0093898D01*
X0088859Y0092009D01*
X0088859Y0077757D01*
X0090887Y0075729D01*
X0099840Y0075729D01*
X0099840Y0070729D02*
X0099309Y0070198D01*
X0092835Y0070198D01*
X0099840Y0060729D02*
X0109942Y0060729D01*
X0112520Y0063308D01*
X0112520Y0132206D01*
X0110552Y0135158D01*
X0097757Y0135158D01*
X0094804Y0138111D01*
X0094883Y0145591D01*
X0082166Y0152875D02*
X0152245Y0152875D01*
X0159528Y0145591D01*
X0159528Y0137875D01*
X0156812Y0135158D01*
X0121379Y0135158D01*
X0118426Y0132206D01*
X0118426Y0053465D01*
X0115690Y0050729D01*
X0099840Y0050729D01*
X0099840Y0045729D02*
X0118564Y0045729D01*
X0121379Y0048544D01*
X0121379Y0129253D01*
X0124331Y0132206D01*
X0166654Y0132206D01*
X0169528Y0135080D01*
X0169528Y0145591D01*
X0175513Y0115473D02*
X0172560Y0113505D01*
X0172560Y0109568D01*
X0176300Y0106812D01*
X0175513Y0115473D02*
X0214883Y0115473D01*
X0217835Y0111536D01*
X0217835Y0056418D01*
X0165670Y0023938D01*
X0145985Y0023938D01*
X0138111Y0035749D01*
X0131228Y0035749D01*
X0130932Y0036044D01*
X0130932Y0056044D02*
X0138249Y0056044D01*
X0138308Y0056103D01*
X0138308Y0060828D02*
X0138091Y0061044D01*
X0130932Y0061044D01*
X0130932Y0066044D02*
X0137855Y0066044D01*
X0138308Y0066497D01*
X0155132Y0056044D02*
X0210572Y0056044D01*
X0213898Y0060355D01*
X0213898Y0106615D01*
X0210946Y0110552D01*
X0195198Y0110552D01*
X0190473Y0106812D01*
X0199528Y0051103D02*
X0155132Y0051044D01*
X0155132Y0046044D02*
X0191064Y0045985D01*
X0181024Y0041064D02*
X0155132Y0041044D01*
X0155132Y0036044D02*
X0172954Y0036143D01*
X0163505Y0031221D02*
X0155132Y0031044D01*
X0115473Y0058387D02*
X0115473Y0145001D01*
X0114883Y0145591D01*
X0082166Y0152875D02*
X0074883Y0145591D01*
X0023859Y0098977D02*
X0028938Y0093898D01*
X0033859Y0088977D02*
X0057107Y0065729D01*
X0060240Y0065729D01*
X0060240Y0060729D02*
X0051123Y0060729D01*
X0037717Y0074135D01*
X0028702Y0074135D01*
X0023859Y0078977D01*
X0023859Y0068977D02*
X0028544Y0064292D01*
X0037717Y0064292D01*
X0046280Y0055729D01*
X0060240Y0055729D01*
X0060240Y0050729D02*
X0032107Y0050729D01*
X0023859Y0058977D01*
X0060240Y0075729D02*
X0060614Y0076103D01*
X0068229Y0076103D01*
X0067934Y0080729D02*
X0068229Y0081024D01*
X0067934Y0080729D02*
X0060240Y0080729D01*
X0060240Y0085729D02*
X0060457Y0085946D01*
X0068229Y0085946D01*
X0099840Y0055729D02*
X0112816Y0055729D01*
X0115473Y0058387D01*
M02*
